<?xml version="1.0" encoding="UTF-8"?>
<svg id="Layer_2" data-name="Layer 2" xmlns="http://www.w3.org/2000/svg" viewBox="0 0 269.6 56.51">
  <defs>
    <style>
      .cls-1 {
        font-size: 6px;
      }

      .cls-1, .cls-2 {
        font-family: Roboto-Regular, Roboto;
        font-variation-settings: 'wght' 400, 'wdth' 100;
      }

      .cls-1, .cls-3 {
        fill: #eaeaea;
      }

      .cls-4 {
        letter-spacing: 9.59em;
      }

      .cls-5 {
        letter-spacing: 2.39em;
      }

      .cls-2 {
        font-size: 18.04px;
        letter-spacing: -.05em;
      }

      .cls-6 {
        fill: none;
        stroke: #000;
        stroke-miterlimit: 10;
        stroke-width: .5px;
      }

      .cls-3 {
        font-family: Roboto-ExtraBold, Roboto;
        font-size: 16.86px;
        font-variation-settings: 'wght' 800, 'wdth' 100;
        font-weight: 700;
      }
    </style>
  </defs>
  <g id="_Слой_1" data-name="Слой 1">
    <g>
      <g>
        <g>
          <path d="M263.58.25H5.77c-.16,0-.31,0-.47.03C2.63.49.49,2.63.28,5.3c-.02.16-.03.31-.03.47v22.53h269.1V6.03c0-3.19-2.58-5.78-5.77-5.78ZM33.1,21.55H7.75V7.45h25.35v14.1Z"/>
          <path d="M25.55,17.69c.16-.25.3-.47.4-.65.1-.19.19-.36.27-.51.03-.06.06-.12.09-.17.03.05.07.11.1.16.08.16.16.33.26.51.1.19.23.4.39.66l1.06,1.66h3.14l-3.42-5.04,3.04-4.66h-2.97l-.79,1.27c-.18.28-.33.56-.46.82-.11.24-.21.46-.31.67-.1-.21-.19-.43-.3-.67-.13-.26-.28-.54-.45-.82l-.78-1.27h-14.88v9.7h14.49l1.12-1.66ZM12.57,11.72h1.16c.32,0,.58.08.79.24.2.16.31.38.31.67,0,.2-.05.37-.15.5-.09.14-.23.24-.4.31-.16.07-.36.11-.58.11h-1.13v-1.83ZM14.81,17.01c-.22.17-.54.26-.95.26h-1.29v-2.03h1.32c.25,0,.47.04.66.13.18.08.33.2.43.35.1.16.15.34.15.57,0,.31-.11.56-.32.72ZM21.9,15.97c-.16.4-.38.7-.68.9-.29.21-.66.31-1.1.31s-.79-.1-1.09-.31c-.29-.2-.52-.5-.68-.9-.15-.4-.23-.89-.23-1.46s.08-1.07.23-1.47c.16-.4.39-.71.68-.91.3-.21.66-.31,1.09-.31s.81.1,1.1.31c.3.2.52.51.68.91.14.4.22.89.22,1.47s-.08,1.06-.22,1.46Z"/>
        </g>
        <text class="cls-2" transform="translate(6.57 48.18)"><tspan x="0" y="0">INSIDE</tspan></text>
        <g>
          <path d="M215.82,36.24v11.94h-.8v-11.94h.8ZM216.62,48.18v-11.94h1.8v11.94h-1.8ZM219.21,48.18v-11.94h1.8v11.94h-1.8ZM222.61,36.24v11.94h-.8v-11.94h.8ZM225.21,36.24v11.94h-.8v-11.94h.8Z"/>
          <path d="M226.81,36.24v11.94h-.8v-11.94h.8ZM227.61,48.18v-11.94h1.8v11.94h-1.8ZM231.01,36.24v11.94h-.8v-11.94h.8ZM231.81,48.18v-11.94h1.8v11.94h-1.8ZM236.21,36.24v11.94h-.8v-11.94h.8Z"/>
          <path d="M237.01,48.18v-11.94h1.8v11.94h-1.8ZM241.41,36.24v11.94h-.8v-11.94h.8ZM243.01,36.24v11.94h-.8v-11.94h.8ZM244.61,36.24v11.94h-.8v-11.94h.8ZM245.41,48.18v-11.94h1.8v11.94h-1.8Z"/>
          <path d="M248.01,48.18v-11.94h1.8v11.94h-1.8ZM250.61,48.18v-11.94h1.8v11.94h-1.8ZM254.01,36.24v11.94h-.8v-11.94h.8ZM255.61,36.24v11.94h-.8v-11.94h.8ZM258.2,36.24v11.94h-.8v-11.94h.8Z"/>
        </g>
      </g>
      <path class="cls-6" d="M5.56.25h258.49c2.93,0,5.31,2.38,5.31,5.31v50.7H.25V5.56C.25,2.63,2.63.25,5.56.25Z"/>
      <text class="cls-1" transform="translate(65.92 12.74)"><tspan x="0" y="0">DYSTROPHIN</tspan><tspan class="cls-4" x="36.49" y="0"> </tspan><tspan x="95.51" y="0">RAAVH74</tspan><tspan x="0" y="7.2">IRUSCU</tspan><tspan class="cls-5" x="20.58" y="7.2"> </tspan><tspan x="36.39" y="7.2">(EXTENSOR</tspan><tspan class="cls-5" x="68.27" y="7.2"> </tspan><tspan x="84.08" y="7.2">DIGITOURUM)</tspan></text>
      <text class="cls-3" transform="translate(218.42 20.57)"><tspan x="0" y="0">INFO</tspan></text>
    </g>
  </g>
</svg>