<?xml version="1.0" encoding="UTF-8"?>
<svg id="Layer_2" data-name="Layer 2" xmlns="http://www.w3.org/2000/svg" viewBox="0 0 144.4 144.4">
  <defs>
    <style>
      .cls-1 {
        font-family: Roboto-Regular, Roboto;
        font-size: 9.61px;
        font-variation-settings: 'wght' 400, 'wdth' 100;
        letter-spacing: 0em;
      }

      .cls-2 {
        stroke-width: .25px;
      }

      .cls-2, .cls-3, .cls-4 {
        fill: none;
        stroke: #000;
        stroke-miterlimit: 10;
      }

      .cls-3 {
        stroke-width: .5px;
      }
    </style>
  </defs>
  <g id="_Слой_1" data-name="Слой 1">
    <g>
      <circle class="cls-3" cx="72.2" cy="72.2" r="71.95"/>
      <g>
        <path d="M67.39,23.51h8.83s1.57-.06,2.5,1.46c.69,1.15,5.35,9.64,5.35,9.64l1.58-.92-3.24,5.81h-8.3s1.81-1.07,1.81-1.07l-7.58-13.39s-.75-1.38-1.98-1.27c0,0,.41-.26,1.03-.26Z"/>
        <path d="M95.1,55.94l-4.3,7.72s-.77,1.41-2.42,1.41c-1.34,0-10.82,0-10.82,0v1.84l-3.84-5.57,4.1-6.99.13,1.84h15.24s1.67-.16,2.17-1.28c0,0,.03.48-.28,1.03Z"/>
        <path d="M52.75,63.77l-4.4-7.66s-.79-1.5.03-2.9c.68-1.16,5.47-9.33,5.47-9.33l-1.68-1.15h7.04s3.88,6.74,3.88,6.74l-1.51-.66-7.97,13.37s-.82,1.34-.12,2.35c0,0-.43-.23-.74-.77Z"/>
        <path d="M72.51,63.76c-.03.09-.42.73-.42.73l-5.18-8.22h-9.23s-3.62,5.96-3.62,5.96c0,0-.78,1.22-.27,2.17.48.89,1.8.88,1.8.88l16.04-.02s1.01-.05.88-1.51Z"/>
        <path d="M94.93,52.71l-7.87-13.12s-.55-.71-1.72-.04c.1.02.73.02.73.02l-4.55,8.11,4.63,8.09h6.99s1.5-.15,1.97-1.07c.49-.96-.17-1.99-.17-1.99Z"/>
        <path d="M68.04,25.47s-.67-1.31-1.74-1.31-1.66,1.12-1.66,1.12l-7.77,13.41s-.42.72.88,1.5c-.42-.75-.39-.75-.39-.75l9.57-.03,4.55-7.85-3.43-6.08Z"/>
      </g>
      <text class="cls-1" transform="translate(42.87 85.4)"><tspan x="0" y="0">DYSTROPHIN </tspan></text>
      <line class="cls-2" x1="33.22" y1="71.17" x2="108.09" y2="71.17"/>
      <g>
        <rect class="cls-4" x="48.28" y="106.11" width=".62" height=".52"/>
        <polygon class="cls-4" points="66.56 103.22 66.56 103.75 66.62 103.75 67.24 103.75 67.24 103.22 66.62 103.22 66.56 103.22"/>
        <rect class="cls-4" x="78.6" y="104.7" width=".62" height=".52"/>
        <rect class="cls-4" x="92.99" y="106.11" width=".62" height=".52"/>
        <rect x="96.53" y="100.07" width=".36" height="7.39"/>
        <rect x="43.78" y="100.07" width="1.3" height="7.39"/>
        <polygon points="98.28 100.07 98.1 100.07 97.75 100.07 97.27 100.07 97.27 107.47 98.28 107.47 98.28 100.07"/>
        <polygon points="71.11 104.57 71.11 105.1 72.33 105.1 72.33 103.63 71.71 103.63 71.71 104.57 71.11 104.57 71.11 104.09 71.11 104.05 71.11 103.63 71.71 103.63 71.71 103.11 70.59 103.11 70.59 100.07 69.87 100.07 69.87 101.33 69.8 101.33 69.8 102.26 69.24 102.26 69.24 102.78 69.87 102.78 69.87 103.79 69.26 103.79 69.26 104.31 69.87 104.31 69.87 107.47 70.59 107.47 70.59 104.57 71.11 104.57"/>
        <polygon points="90.65 102.23 91.26 102.23 91.26 100.52 91.26 100.51 91.26 100 89.03 100 89.03 100.52 89.36 100.52 89.36 104.99 89.19 104.99 89.19 105.62 88.57 105.62 88.57 106.7 89.19 106.7 89.36 106.7 89.36 107.47 90.08 107.47 90.08 102.23 90.65 102.23"/>
        <polygon points="60.13 103.85 59.51 103.85 59.51 105.12 58.94 105.12 58.94 105.64 59.51 105.64 59.56 105.64 60.13 105.64 60.13 103.85"/>
        <rect x="46.36" y="102.49" width="2.24" height=".52"/>
        <polygon points="51.39 105.82 50.77 105.82 50.77 106.94 50.77 107.47 51.39 107.47 51.39 106.94 51.39 105.82"/>
        <polygon points="57.89 106.71 57.89 106.18 57.29 106.18 57.29 105.74 57.89 105.74 57.89 105.22 57.29 105.22 57.29 104.77 57.89 104.77 58.51 104.77 58.51 104.25 57.89 104.25 57.29 104.25 57.29 102.97 57.89 102.97 57.89 102.45 57.29 102.45 57.29 102.06 57.71 102.06 57.89 102.06 58.32 102.06 58.32 101.12 57.71 101.12 57.71 101.54 57.29 101.54 57.29 100.07 56.73 100.07 56.73 107.47 57.29 107.47 57.29 106.71 57.89 106.71"/>
        <rect x="53.45" y="100.95" width=".62" height="1"/>
        <rect x="54.07" y="101.95" width=".62" height=".52"/>
        <rect x="54.69" y="102.47" width=".62" height=".52"/>
        <rect x="53.22" y="102.47" width=".62" height=".52"/>
        <polygon points="49.6 102.72 50.2 102.72 50.2 102.19 48.99 102.19 48.99 103.66 49.6 103.66 49.6 102.72"/>
        <rect x="48.9" y="106.11" width=".62" height=".52"/>
        <rect x="48.28" y="106.63" width=".62" height=".52"/>
        <rect x="48.28" y="105.58" width=".62" height=".52"/>
        <rect x="50.96" y="104.35" width=".62" height=".52"/>
        <rect x="54.07" y="105.92" width=".62" height=".52"/>
        <rect x="50.34" y="104.88" width=".62" height=".52"/>
        <rect x="50.34" y="103.83" width=".62" height=".52"/>
        <rect x="54.69" y="104.79" width=".62" height=".52"/>
        <rect x="54.69" y="101" width=".62" height=".52"/>
        <rect x="54.69" y="100" width=".62" height=".52"/>
        <rect x="53.52" y="100" width=".62" height=".52"/>
        <rect x="46.54" y="100" width=".62" height=".52"/>
        <rect x="54.69" y="105.92" width=".62" height="1.38"/>
        <rect x="48.9" y="104.28" width=".62" height="1.3"/>
        <polygon points="51.86 102.23 51.86 100.52 52.86 100.52 52.86 100 50.63 100 50.63 100.51 50.63 100.52 50.63 102.23 51.24 102.23 51.86 102.23"/>
        <rect x="51.86" y="102.25" width=".62" height="1.72"/>
        <rect x="61.18" y="100.06" width=".62" height="1.35"/>
        <rect x="64.29" y="100.06" width=".62" height="1.47"/>
        <rect x="63.23" y="104.69" width="1.18" height=".52"/>
        <polygon points="61.06 106.14 61.68 106.14 61.68 105.22 61.68 105.15 61.68 104.69 60.5 104.69 60.5 105.22 61.06 105.22 61.06 106.14"/>
        <rect x="61.06" y="107.47" width=".62" height=".07"/>
        <rect x="61.06" y="106.53" width=".62" height=".93"/>
        <rect x="58.32" y="105.64" width=".62" height="1"/>
        <rect x="59.44" y="106.11" width=".62" height="1"/>
        <polygon points="65 106.63 64.41 106.63 64.41 106.11 63.23 106.11 63.23 106.63 62.76 106.63 62.76 107.15 65 107.15 65 106.63"/>
        <rect x="64.26" y="103.32" width=".62" height=".52"/>
        <rect x="58.51" y="103.73" width=".62" height=".52"/>
        <polygon points="59.12 102.9 60.21 102.9 60.21 102.38 58.51 102.38 58.51 102.9 58.51 103.42 59.12 103.42 59.12 102.9"/>
        <polygon points="53.83 104.04 54.69 104.04 54.69 104.04 55.3 104.04 55.3 103.52 54.92 103.52 54.92 103.51 53.22 103.51 53.22 104.03 53.22 104.56 53.83 104.56 53.83 104.04"/>
        <rect x="57.73" y="100.11" width=".62" height=".52"/>
        <rect x="60.52" y="103.16" width=".62" height=".52"/>
        <rect x="62.61" y="105.22" width=".62" height=".52"/>
        <rect x="62.44" y="100.06" width=".62" height=".52"/>
        <polygon points="63.68 102.06 64.29 102.06 64.29 101.54 63.68 101.54 63.68 101.18 63.06 101.18 62.44 101.18 62.44 102.06 63.06 102.06 63.68 102.06"/>
        <polygon points="61.76 103.42 62.38 103.42 62.38 102.9 62.97 102.9 62.97 103.84 63.59 103.84 63.59 102.37 62.38 102.37 62.38 102.9 61.76 102.9 61.76 102.38 61.14 102.38 61.14 102.9 61.76 102.9 61.76 103.42"/>
        <rect x="61.76" y="103.91" width=".62" height=".52"/>
        <rect x="47.58" y="103.52" width=".62" height=".52"/>
        <rect x="47.8" y="104.35" width=".62" height=".52"/>
        <polygon points="60.18 101.83 60.18 100.11 59.56 100.11 58.94 100.11 58.94 101.83 59.56 101.83 60.18 101.83"/>
        <polygon points="53.32 106.7 53.32 105.62 52.7 105.62 52.7 104.99 52.09 104.99 52.09 106.7 52.7 106.7 53.32 106.7"/>
        <rect x="63.89" y="107.31" width=".62" height=".15"/>
        <polygon points="48.28 106.63 48.28 106.11 45.97 106.11 45.97 105.74 47.66 105.74 47.66 105.22 46.54 105.22 46.54 103.84 45.97 103.84 45.97 101.99 47.66 101.99 47.66 101.99 48.28 101.99 48.28 101.55 48.77 101.55 48.82 101.55 49.39 101.55 49.39 102.07 50.01 102.07 50.01 101.55 49.39 101.55 49.39 101.03 50.01 101.03 50.01 100 48.28 100 48.28 100.52 49.39 100.52 49.39 101.03 48.82 101.03 48.77 101.03 48.28 101.03 48.28 100.52 47.66 100.52 47.66 101.47 45.97 101.47 45.97 100 45.41 100 45.41 107.47 45.97 107.47 45.97 106.63 48.28 106.63"/>
        <rect x="59.53" y="107.31" width=".62" height=".15"/>
        <rect x="73.59" y="101.74" width=".62" height="1.89"/>
        <rect x="73.03" y="105.94" width=".62" height="1.47"/>
        <rect x="71.97" y="102.26" width="1.18" height=".52"/>
        <rect x="67.06" y="100.83" width=".62" height="1"/>
        <rect x="68.18" y="100.36" width=".62" height="1"/>
        <polygon points="73.14 100.52 74.98 100.52 74.98 100 72.96 100 72.96 100.46 71.97 100.46 71.97 100.98 73.14 100.98 73.14 100.52"/>
        <rect x="72.97" y="103.63" width=".62" height=".52"/>
        <rect x="73.66" y="104.5" width=".62" height=".52"/>
        <rect x="67.68" y="101.83" width=".62" height=".52"/>
        <polygon points="68.3 103.4 68.3 103.92 68.92 103.92 68.92 103.4 68.92 103.4 68.92 102.87 68.92 102.87 68.92 102.35 68.3 102.35 68.3 102.87 68.3 103.4"/>
        <polygon points="67.09 107.36 67.09 106.84 66.56 106.84 66.56 106.37 66.62 106.37 67.06 106.37 67.06 105.43 66.56 105.43 66.56 104.27 66.62 104.27 67.24 104.27 67.24 103.75 66.62 103.75 66.56 103.75 66.56 103.22 66.62 103.22 67.24 103.22 67.24 102.7 66.62 102.7 66.56 102.7 66.56 100 65.99 100 65.99 107.47 66.56 107.47 66.56 107.36 67.09 107.36"/>
        <rect x="67.24" y="103.22" width=".62" height=".52"/>
        <rect x="68.3" y="106.89" width=".62" height=".52"/>
        <rect x="70.94" y="100.46" width=".62" height=".52"/>
        <rect x="71.35" y="101.73" width=".62" height=".52"/>
        <rect x="71.18" y="106.89" width=".62" height=".52"/>
        <polygon points="72.41 105.41 71.79 105.41 71.18 105.41 71.18 106.29 71.79 106.29 72.41 106.29 72.41 105.94 73.03 105.94 73.03 105.41 72.41 105.41"/>
        <polygon points="67.68 106.29 68.3 106.29 68.92 106.29 68.92 104.57 68.3 104.57 67.68 104.57 67.68 104.91 67.06 104.91 67.06 105.43 67.68 105.43 67.68 106.29"/>
        <rect x="74.73" y="105.51" width=".62" height="1.72"/>
        <rect x="74.76" y="101.28" width=".62" height="1.12"/>
        <rect x="74.77" y="103.08" width=".62" height=".52"/>
        <rect x="93.61" y="106.11" width="2.36" height=".52"/>
        <rect x="93.29" y="103.15" width="2.24" height=".52"/>
        <polygon points="91.12 105.82 90.5 105.82 90.5 106.94 90.5 107.47 91.12 107.47 91.12 106.94 91.12 105.82"/>
        <rect x="87.82" y="100.95" width=".62" height="1"/>
        <rect x="87.21" y="101.95" width=".62" height=".52"/>
        <polygon points="87.13 106.37 87.2 106.37 87.2 105.85 87.13 105.85 87.13 104.27 87.2 104.27 87.2 104.04 88.06 104.04 88.06 104.56 88.68 104.56 88.68 104.03 88.68 103.51 87.13 103.51 87.13 103.22 87.2 103.22 87.2 102.7 87.13 102.7 87.13 100 86.57 100 86.57 107.47 87.13 107.47 87.13 106.37"/>
        <rect x="88.06" y="102.47" width=".62" height=".52"/>
        <polygon points="92.29 103.66 92.91 103.66 92.91 102.19 91.69 102.19 91.69 102.72 92.29 102.72 92.29 103.66"/>
        <rect x="92.37" y="106.11" width=".62" height=".52"/>
        <rect x="92.99" y="106.63" width=".62" height=".52"/>
        <rect x="92.99" y="105.58" width=".62" height=".52"/>
        <rect x="90.32" y="104.35" width=".62" height=".52"/>
        <rect x="87.21" y="105.92" width=".62" height=".52"/>
        <rect x="90.93" y="104.88" width=".62" height=".52"/>
        <rect x="90.93" y="103.83" width=".62" height=".52"/>
        <rect x="87.75" y="100" width=".62" height=".52"/>
        <rect x="94.73" y="100" width=".62" height=".52"/>
        <rect x="92.37" y="104.28" width=".62" height="1.3"/>
        <rect x="94.73" y="101.21" width=".62" height="1.47"/>
        <polygon points="92.5 101.03 92.5 101.55 91.89 101.55 91.89 102.07 92.5 102.07 92.5 101.55 93.07 101.55 93.12 101.55 93.69 101.55 93.69 101.03 93.12 101.03 93.07 101.03 92.5 101.03 92.5 100.52 93.61 100.52 93.61 100 91.88 100 91.88 101.03 92.5 101.03"/>
        <rect x="94.91" y="107.2" width=".62" height=".26"/>
        <rect x="93.47" y="104.35" width=".62" height=".52"/>
        <rect x="94.55" y="105.14" width=".62" height=".52"/>
        <rect x="81.25" y="107.42" width=".62" height=".04"/>
        <polygon points="78.1 104.31 78.1 103.78 78.1 103.26 77.48 103.26 77.48 102.95 79.34 102.95 79.34 102.57 79.34 102.43 79.34 101.58 81.35 101.58 81.35 101.05 81.35 100.53 80.36 100.53 80.36 100.06 78.33 100.06 78.33 100.59 79.32 100.59 79.32 101.05 79.32 101.58 78.72 101.58 78.72 102.43 77.48 102.43 77.48 100.07 76.92 100.07 76.92 107.47 77.48 107.47 77.48 104.31 78.1 104.31"/>
        <rect x="78.6" y="105.22" width=".62" height="1.55"/>
        <polygon points="80.96 106.27 80.96 105.75 80.34 105.75 79.72 105.75 79.72 107.47 80.34 107.47 80.34 106.27 80.96 106.27"/>
        <rect x="79.72" y="107.47" width=".62" height=".17"/>
        <rect x="84.08" y="107.47" width=".62" height=".17"/>
        <rect x="84.08" y="105.75" width=".62" height="1.72"/>
        <rect x="82.87" y="105.21" width=".62" height="1.89"/>
        <polygon points="83.84 103.67 83.21 103.67 83.21 104.17 82.1 104.17 82.1 104.7 83.84 104.7 83.84 103.67"/>
        <rect x="78.6" y="104.17" width=".62" height=".52"/>
        <rect x="77.98" y="104.7" width=".62" height=".52"/>
        <rect x="79.22" y="104.7" width=".62" height=".52"/>
        <rect x="81.84" y="101.94" width=".62" height=".52"/>
        <rect x="82.46" y="102.47" width=".62" height=".52"/>
        <rect x="79.86" y="101.94" width=".62" height=".52"/>
        <polygon points="80.47 103.52 81.09 103.52 81.09 102.79 81.09 102.79 81.09 102.47 80.47 102.47 80.47 102.99 80.47 103.52"/>
        <polygon points="83.85 103.15 83.85 103.67 84.46 103.67 84.46 103.15 84.46 102.62 83.85 102.62 83.85 103.15"/>
        <rect x="81.69" y="103.15" width=".62" height=".52"/>
        <rect x="81.69" y="106.38" width=".62" height=".52"/>
        <rect x="80.97" y="105.23" width=".62" height=".52"/>
        <rect x="77.98" y="106.77" width=".62" height=".52"/>
        <polygon points="83.7 101.94 83.7 101.42 83.08 101.42 83.08 101.94 83.08 102.47 83.7 102.47 83.7 101.94"/>
        <polygon points="83.46 101.11 84.08 101.11 84.08 100.59 84.08 100.06 83.96 100.06 83.46 100.06 81.93 100.06 81.93 100.59 83.46 100.59 83.46 101.11"/>
        <rect x="79.83" y="104.17" width="1.54" height=".52"/>
      </g>
    </g>
  </g>
</svg>