<?xml version="1.0" encoding="UTF-8"?>
<svg id="Layer_2" data-name="Layer 2" xmlns="http://www.w3.org/2000/svg" viewBox="0 0 185.7 199.33">
  <g id="Layer_1-2" data-name="Layer 1">
    <path d="M94.89,8.72c-.33-.62-.37-.63-.84-.21-.62.56-1.15.64-1.5.22-.3-.36,1.11-2.22,1.69-2.22.16,0,.57-.29.91-.65.34-.36.74-.65.91-.65.37,0,1.96-1.62,1.96-1.99,0-.15.23-.49.52-.74.74-.67.65-.91-.34-.91-1.04,0-1.49.39-1.49,1.32s-.7,1.44-2.08,1.42c-.65,0-1.15-.07-1.13-.14.02-.07.13-.48.23-.91.26-1.11,3.25-3.76,3.25-2.89,0,.07.31-.04.69-.24,1.28-.66,4.16,1.64,3.22,2.58-.15.15-.26.58-.26.97,0,.53-.23.84-.91,1.24-.5.3-.91.65-.91.79s-.26.33-.59.42c-1.02.29-2.28.92-2.28,1.14,0,.58,1.06,1.15,1.63.87,1.33-.64,2.02-.64,2.02.01,0,1.43-3.97,1.92-4.69.58ZM82.89,8.97c-.44-.54.94-1.77,3.14-2.79.5-.23,1.26-.78,1.68-1.22.42-.44.92-.8,1.11-.8s.34-.14.34-.3.2-.52.44-.79c.4-.45.4-.52.02-.9-.6-.6-1.19-.26-1.29.75-.08.84-.11.86-1.45.94l-1.37.08v-1.01c0-1.14.82-2.14,1.76-2.14.31,0,.86-.14,1.23-.31.51-.23.74-.23.98,0,.17.17.58.31.91.31s.68.2.78.46c.09.25.46.84.81,1.32l.65.86-.87.9c-.48.49-1.08.9-1.33.9s-.53.12-.62.26c-.09.14-.43.26-.75.26-.68,0-1.72,1-1.72,1.65,0,.32.23.44.88.44,1.08,0,1.69.59,1.21,1.17-.44.53-3.13.55-3.13.03,0-.78-.68-.98-1.67-.51-.52.25-.94.54-.94.66,0,.35-.43.24-.79-.19ZM89.96,37.33c.38-.83.46-1.27.27-1.46-.19-.19-.33-.12-.45.23-.1.27-.34.89-.53,1.38-.73,1.83-.13,1.71.71-.14ZM87.55,38.79c.19-.3.27-.61.19-.69-.17-.17-1.19.7-1.19,1.02,0,.43.66.21,1-.33ZM113.98,45.79c-.55-.61-.72-.58-1.07.2-.41.9-.38,1.1.15,1.23.77.18,1.43-.86.92-1.43ZM104.41,60.54c.68-.45.85-.88.34-.88-.36,0-1.26.77-1.26,1.08s.2.27.92-.2ZM40.46,65.2c.47-.39,1.07-.92,1.32-1.17.25-.25.75-.52,1.11-.61.36-.09.66-.28.66-.42,0-.4,3.17-3.6,3.56-3.6.19,0,.35-.18.35-.39s.15-.39.34-.39.74-.42,1.24-.94c.49-.52,1.09-1.01,1.32-1.11.56-.22,4.14-3.61,4.14-3.91,0-.13.29-.31.65-.4.36-.09.65-.28.65-.42s.15-.26.33-.26,1.56-1.24,3.06-2.76c1.5-1.52,3.01-2.87,3.34-3,.34-.13.67-.48.75-.76.08-.29.28-.52.45-.52s.65-.35,1.06-.78c.41-.43.88-.78,1.03-.78s.92-.64,1.7-1.43c.78-.79,1.53-1.43,1.67-1.43.29,0,2.93-2.38,5.85-5.28,1.12-1.11,2.15-2.02,2.3-2.02s.8-.53,1.45-1.17c.65-.64,1.29-1.17,1.42-1.17s1.1-.88,2.17-1.95c1.07-1.07,2.07-1.95,2.22-1.95s.97-.7,1.82-1.56c.85-.86,1.4-1.56,1.23-1.56s-.32.12-.32.26-.16.26-.36.26-.51.18-.69.4c-.18.22-.84.64-1.46.92-.62.28-1.13.63-1.13.77s-.16.25-.36.25-.5.17-.67.38c-.17.21-1.04.74-1.92,1.18-1.84.92-2.34,1.21-3.48,2.03-.45.32-.92.59-1.05.59s-.57.35-.97.77c-.41.42-1.06.84-1.46.93-.4.09-.86.32-1.02.52-.16.2-.9.67-1.65,1.05-.74.38-1.65.96-2,1.27-.36.32-1.24.85-1.95,1.2-.72.34-1.68.97-2.14,1.39-.9.83-2.18,1.66-3.88,2.49-.59.29-1.22.71-1.4.93-.18.22-.5.4-.7.4s-.43.18-.52.39c-.08.22-.29.39-.46.39s-.54.21-.82.46c-.28.25-1.03.69-1.67.98-.64.29-1.51.81-1.93,1.17-.9.77-2.22,1.59-3.7,2.32-.59.29-1.22.71-1.4.93-.18.22-.48.4-.66.4s-.47.18-.65.39c-.18.22-.56.39-.84.39s-.57.21-.63.47c-.11.43-.57.71-2.18,1.32-.36.14-1.1.55-1.64.93-.54.37-1.1.68-1.23.68-.75,0-.97,1.52-1.02,6.91-.03,3.01-.16,5.58-.29,5.72-.86.87.04.83,1.1-.05ZM98.33,47.1c-.17-.17-.31-.71-.31-1.21v-.89l-1.18,1.08c-.91.84-1.28,1.03-1.63.85-.25-.13-.81-.18-1.24-.12-1.08.16-2.23-.98-1.75-1.75.17-.28.32-.73.32-1,0-.49,1.61-2.12,2.1-2.12.14,0,.11-.23-.07-.52-.18-.29-.53-.52-.78-.52-.53,0-.59-.29-.15-.73.4-.4,2.46-.41,2.71-.01.1.16,0,.43-.22.6-.27.2-.36.54-.27,1.02.11.58.03.75-.42.87-.31.08-.55.29-.55.47s-.24.53-.52.79c-.29.26-.52.7-.52.97,0,.81,1.79.54,2.33-.36,1.54-2.6,1.84-3.24,1.84-3.9,0-1.41,1.51-1.07,1.61.36.08,1.04.13,1.11.94,1.19,1.27.12,1.14,1.44-.15,1.56-1.11.11-1.35,2.13-.25,2.13.74,0,2.53-1.77,2.53-2.51,0-.29.23-.75.52-1.01.81-.73.68-1.43-.26-1.43-.85,0-1-.28-.41-.76,1.22-1.02,4.12.29,3.04,1.37-.45.45-.33.7.32.7,1.28,0,1.65,1.47.67,2.71-.75.96-.5,1.07.65.29,1.04-.71,2.24-.87,2.24-.31,0,.5-1.12,1.48-1.71,1.48-.28,0-.8.24-1.16.52-.87.68-1.16.65-1.94-.19-.85-.91-.83-1.16.12-2.12.43-.43.69-.85.57-.92-.29-.18-1.87,1.28-1.87,1.73,0,.63-1.16,1.49-2.02,1.49-.45,0-.89.12-.98.26-.22.36-1.78.33-2.16-.05ZM132.93,66.05c1.16-.79,2.2-1.43,2.31-1.43s.48-.29.82-.65c.34-.36.75-.65.91-.65s.63-.35,1.05-.78c.41-.43.86-.78,1.01-.78.45,0,1.21-.84,1.21-1.34,0-.31.19-.48.52-.48.29,0,.52-.12.52-.26s.29-.26.65-.26c.48,0,.65-.14.65-.54,0-.56.56-1.28.99-1.28.13,0,.56-.31.94-.7.51-.51.77-.62.99-.4.32.32,1.35-.1,2.53-1.02.56-.44.58-.48.12-.48s-2.17-2.03-2.17-2.61c0-.14-.51-.49-1.13-.78-.62-.29-1.52-.94-2.01-1.43-.48-.5-1.01-.9-1.18-.9s-.51-.23-.76-.51c-.25-.28-.95-.76-1.54-1.07-.59-.31-1.5-.9-2.03-1.31-.52-.41-1.06-.75-1.2-.75s-.46-.23-.72-.52c-.26-.29-.56-.52-.67-.52-.26,0-5.1-3.17-6.14-4.02-.45-.37-.93-.67-1.08-.67s-.41-.18-.59-.4c-.4-.48-2.54-1.95-2.85-1.95-.12,0-.79-.51-1.49-1.12-.7-.62-1.64-1.28-2.1-1.46-.46-.19-.99-.52-1.17-.74-.29-.35-1.97-1.53-2.68-1.89-1.18-.59-2.72-1.65-2.83-1.96-.08-.21-.37-.38-.64-.38s-.64-.18-.82-.39c-.18-.21-.47-.39-.66-.39s-.92-.53-1.63-1.17c-.72-.64-1.42-1.17-1.56-1.17s-1.04-.53-2-1.17c-.96-.64-1.84-1.17-1.95-1.17s-.41-.23-.67-.52c-.26-.29-.63-.52-.82-.52s-.35-.12-.35-.27-.21-.35-.46-.44c-.61-.23-2.62-1.6-2.81-1.91-.08-.14-.27-.25-.42-.25-.37,0,0,1.06.58,1.71.27.3.49.67.49.83s.29.52.65.8c.36.28.65.69.65.9s.17.46.37.53c.2.08.72.88,1.14,1.79.42.9,1.01,1.87,1.32,2.14.31.27.56.61.56.76s.44.78.98,1.42c1.17,1.39,1.7,2.19,2.38,3.58.28.57.81,1.33,1.18,1.67.37.35.67.78.67.96s.29.56.65.84c.36.28.65.7.65.92s.22.53.49.67c.27.14.57.59.67.98.33,1.32,1.39,1.69,2.34.82.14-.12.99-.23,1.9-.23h1.66l-.08.98c-.1,1.16-1.17,1.61-1.43.61-.18-.68-.35-.68-1.5,0-.99.58-1.12.86-.6,1.19.52.33,2.11.86,2.61.86.69,0,.55.92-.18,1.25-.69.31-.44,1.35.53,2.15.22.18.62.82.89,1.42,1.05,2.3,1.28,2.23,2.88-.88.96-1.87,1.07-2.25.8-2.69-.48-.77.07-1.25,1.44-1.25s1.42.27.64,1.67l-.51.9.63.41c.35.23.81.41,1.03.41.72,0,.44.98-.38,1.35-.49.21-.73.48-.65.71.08.2,0,.51-.15.71-.49.59-.04.89.81.53.61-.26,1.02-.81,1.81-2.44.56-1.16,1.15-2.18,1.29-2.28.15-.09.27-.46.27-.82,0-.79,1.88-.86,2.03-.07.07.39-.15.82-1.7,3.25-.32.5-.59,1.12-.59,1.37s-.14.6-.31.77c-.48.48-.02.7.69.32.35-.19.81-.71,1.03-1.17.21-.45.64-1.05.94-1.32,1.01-.91,1.44-2.15.94-2.7-.4-.44-.39-.51.06-1.03,1.15-1.33,2.95.23,2.1,1.82-.21.39-.17.49.18.49,1.31,0,1.93,2.3.88,3.26-.66.6-.66.91-.01.91.71,0,1.84-.55,1.84-.89,0-.44,1.06-1.02,1.35-.73.91.91-1.84,3.19-3.86,3.19h-1.39v-1.11c0-.7.2-1.35.52-1.76.46-.59.69-1.3.41-1.3-.06,0-.79.72-1.63,1.59-1.42,1.49-2.49,2.22-3.07,2.08-.13-.03-1.57-.05-3.19-.04h-2.95s0-1.18,0-1.18c0-1.34-.42-1.46-.99-.28-.19.38-.49.7-.69.7-.93,0-.96.73-.06,1.42.49.38.95.89,1.01,1.13.35,1.35-.82,1.5-1.44.19-.24-.5-.55-.91-.7-.91s-.26-.16-.26-.36-.19-.52-.43-.71c-.4-.33-1.62-2.08-1.92-2.74-.69-1.54-1.82-2.21-3.4-2.03-1.42.16-1.63.12-2.21-.42-.86-.81-.93-3.13-.12-3.83.61-.52.68-1.44.14-1.88-.21-.17-.63-.83-.94-1.47-.31-.64-.78-1.27-1.06-1.42-.27-.15-.5-.42-.5-.61s-.24-.56-.54-.83c-.3-.27-.77-.98-1.04-1.59-.28-.6-.61-1.17-.75-1.25-.34-.21-1.84-2.46-1.84-2.76,0-.14-.1-.25-.21-.25-.36,0-1.61-2.1-1.61-2.71,0-.34-.32-.82-.78-1.16-.43-.32-.78-.73-.78-.92s-.29-.61-.65-.95c-.36-.34-.65-.77-.65-.95s-.29-.53-.65-.77c-.36-.24-.65-.57-.65-.74s-.3-.6-.67-.95c-.37-.35-.91-1.1-1.19-1.67-1.1-2.21-1.31-2.51-1.74-2.42-.24.05-.47.36-.52.7-.05.34-.31,1.01-.58,1.5-.27.49-.57,1.35-.66,1.93-.09.57-.27,1.11-.39,1.18-.12.08-.23.54-.23,1.02s-.12.95-.26,1.04c-.14.09-.26.49-.26.89s-.23.94-.52,1.19c-.35.31-.47.66-.37,1.05.08.32.02.66-.13.76-.16.1-.28.57-.28,1.06s-.12.95-.26,1.04c-.41.25-.33,2.21.1,2.21,1.17,0,1.49,3.43.43,4.56-.34.36-.77.66-.96.66s-.35.12-.35.26-.26.26-.57.26c-.76,0-1.78.99-1.78,1.74,0,.33-.13.61-.29.61s-.24.21-.17.48c.07.26-.03.68-.21.94-.19.25-.28.61-.21.8.07.19,0,.42-.15.51-.15.09-.28.51-.28.92s-.12.82-.26.91c-.14.09-.26.44-.26.78s-.12.69-.26.78c-.14.09-.26.46-.26.81s-.14.91-.31,1.22c-.17.31-.41,1.04-.54,1.61-.47,2.12-.62,2.63-1.12,3.71-.62,1.34-1.43,1.53-1.43.34,0-.42.12-.84.26-.93.14-.09.26-.44.26-.79s.22-1.01.48-1.48c.26-.47.43-.99.38-1.16-.06-.17.02-.38.17-.47.15-.09.27-.57.27-1.05s.12-.95.26-1.04c.14-.09.26-.45.26-.8s.12-.64.26-.64.26-.35.26-.79.11-.99.24-1.24c.45-.84.62-1.49.56-2.19-.03-.38.07-.77.22-.86.15-.09.28-.46.28-.81s.12-.64.26-.64.26-.18.26-.39c0-.24-.24-.39-.64-.39-.35,0-.71-.12-.8-.26-.09-.14-.74-.26-1.45-.26-1.75,0-2.05-1.47-.33-1.61.93-.08,2.62-1.8,2.67-2.72,0-.16.19-.44.41-.62.47-.4.51-.82.07-.75-.49.08-1.24-.31-1.24-.64,0-.48,1.33-.99,1.72-.66.65.54,1.49.15,2.01-.94.27-.57.59-1.22.7-1.44.11-.22.28-.89.38-1.5.1-.6.29-1.16.42-1.24.13-.08.24-.54.24-1.03s.12-.95.26-1.04c.14-.09.26-.45.26-.8s.12-.64.26-.64.26-.27.26-.6.1-.71.23-.85c.12-.14.3-.7.38-1.26l.15-1.02-1.07,1.21c-.59.67-1.21,1.21-1.37,1.21s-.64.35-1.05.78c-.41.43-.87.78-1.03.78-.15,0-1.12.82-2.14,1.82-1.03,1-1.99,1.82-2.15,1.82s-.28.18-.28.4-.26.5-.59.63c-.32.13-.93.59-1.35,1.04-.42.44-.92.81-1.11.81s-.34.15-.34.33c0,.18-.35.53-.78.77-.43.25-.9.74-1.03,1.11-.14.36-.39.66-.55.66s-1.62,1.23-3.23,2.74c-1.61,1.5-3.04,2.74-3.16,2.74s-1.1.88-2.17,1.95c-1.07,1.07-2.07,1.95-2.22,1.95s-.74.47-1.3,1.04c-.56.57-1.14,1.04-1.3,1.04s-1.04.76-1.96,1.69c-.92.93-1.83,1.69-2.01,1.69s-.51.35-.73.78c-.22.43-.55.78-.72.78-.18,0-.73.43-1.23.94-1.39,1.43-3.54,3.22-3.87,3.22-.16,0-.3.16-.3.36s-.24.42-.52.5c-.29.07-.52.32-.52.55s-.15.42-.33.42-1.15.82-2.14,1.82c-1,1-1.94,1.82-2.09,1.82s-.62.35-1.03.78c-.41.43-.88.78-1.03.78-.36,0-4.11,3.76-3.93,3.94.17.17,2.73-.27,3.33-.58.25-.13.98-.23,1.61-.23s1.23-.12,1.32-.26c.09-.14.56-.26,1.06-.26s.9-.11.9-.24.67-.31,1.5-.39c2.54-.26,2.93-.32,3.11-.5.09-.09.61-.17,1.16-.17s1.06-.12,1.15-.26c.09-.14.57-.26,1.06-.26,2.44,0,4.99-3.31,2.85-3.69-.98-.18-.8-1,.22-1,.5,0,.99-.12,1.08-.26.09-.14.68-.26,1.32-.26s1.39-.14,1.66-.31c1.3-.81,2.33.8,1.2,1.86-.67.64-1.45.58-1.45-.11s-.47-.45-1.16.56c-.73,1.07-.68,1.45.09.75.69-.62,1.69-.45,1.8.32.09.62,2.88.64,3.55.02.14-.13.69-.23,1.22-.23s1.05-.12,1.14-.26c.09-.14.73-.26,1.43-.26s1.34-.11,1.41-.23c.15-.24.69-.36,3.5-.78.91-.13,1.78-.37,1.94-.53.36-.36,2.86-.37,3.21-.02.15.15,1.29.34,2.54.43,1.25.09,2.33.26,2.4.38.08.12.47.22.89.22s.82.12.91.26c.09.14.67.26,1.3.26s1.21.12,1.3.26c.09.14.67.26,1.3.26s1.22.13,1.31.28c.09.15.66.25,1.25.21.59-.04,1.34.07,1.65.24,1.16.63,2.49.39,3.27-.59.87-1.08.88-1.25.15-1.58-.83-.38-.9-.91-.12-.91.36,0,.73-.12.82-.26.31-.51,1.88-.3,2.03.26.11.43.36.52,1.46.52,1.91,0,1.69,1.72-.31,2.43-1.43.5-.62,1.74,1.13,1.74.69,0,1.32.1,1.4.23.08.13,1.08.32,2.23.42,1.15.1,2.15.29,2.23.42.08.13.72.23,1.42.23s1.34.12,1.43.26c.09.14.67.26,1.3.26s1.21.12,1.3.26c.09.14.62.26,1.17.26s1.07.1,1.15.22c.08.12,1.04.3,2.15.39,1.11.09,2.13.29,2.28.43.14.14.81.26,1.48.26,1.57,0,1.85-.65.73-1.72-.41-.4-.75-.83-.75-.96s-.29-.61-.66-1.06c-.95-1.19-1-1.27-1.42-2.12-.21-.43-.67-1.1-1.02-1.49-.53-.59-.58-.77-.31-1.11.47-.57,1.02-.49,1.32.19.38.87.81,1.52,1.75,2.61.47.54.85,1.13.85,1.32s.3.63.67.98c.37.35.84,1.03,1.04,1.52.29.69,2.1,2.89,2.38,2.89.03,0,1-.64,2.16-1.43h0ZM80,82.94c-.53-.64-1.01.12-.99,1.58v1.34s.65-1.28.65-1.28c.48-.97.56-1.37.34-1.63ZM77.95,84.82c0-.44.08-1.09.18-1.44.15-.58.12-.61-.25-.31-.23.19-.36.5-.29.69.07.19,0,.42-.15.52-.15.09-.28.42-.28.73s-.25.82-.55,1.14c-.33.35-.47.72-.35.91.32.52,1.68-1.28,1.68-2.23ZM156.03,88.97c.17-.45-.33-1.17-.82-1.17-.35,0-.71.99-.49,1.35.23.36,1.15.24,1.31-.18ZM133.63,89.72c-.09-.1-.25-.1-.35,0-.1.1-.02.17.17.17s.27-.08.17-.17ZM102.54,90.91c.7-.55.91-1.38.42-1.68-.48-.3-1.27.15-1.67.96-.65,1.31.01,1.69,1.25.72ZM100.79,91.54c-.09-.1-.25-.1-.35,0-.1.1-.02.17.17.17s.27-.08.17-.17ZM101.86,93.32c.06-.17-.04-.3-.22-.3-.33,0-1,.75-1.02,1.14-.01.31,1.11-.45,1.24-.84ZM133.19,94.84c0-.14-.11-.26-.25-.26s-.32.12-.41.26c-.09.14.02.26.25.26s.41-.12.41-.26ZM12.74,94.02c1.04-1.08,1.89-2.06,1.89-2.19,0-.37,5.81-6.11,6.19-6.11.18,0,.33-.15.33-.33s1.7-2.03,3.78-4.1c2.08-2.07,3.78-3.9,3.78-4.06,0-.35,1.7-1.94,2.08-1.94.15,0,.27-.16.27-.35s.23-.56.52-.82c.29-.26.52-.63.52-.82s.14-.35.31-.35c.38,0,1.52-1.04,1.52-1.39,0-.14.94-1.18,2.08-2.3l2.08-2.04v-2.46c0-1.42.11-2.53.27-2.63.17-.11.24-1.44.2-3.66-.07-3.27-.25-4.13-.65-3.04-.09.25-.47.83-.84,1.29-1.37,1.7-1.85,2.38-1.85,2.61,0,.13-.29.52-.65.85-.36.34-.65.75-.65.91s-.41.78-.91,1.36c-.5.59-.91,1.13-.91,1.21,0,.23-1.57,2.48-1.84,2.65-.14.08-.47.64-.75,1.24-.27.6-.86,1.44-1.3,1.86-.44.42-.8.96-.8,1.19s-.36.77-.8,1.19c-.44.42-.99,1.18-1.22,1.68-.23.5-.69,1.26-1.03,1.69-.34.43-1.13,1.45-1.78,2.28-.64.82-1.17,1.6-1.17,1.72s-.24.44-.52.7c-.29.26-.52.61-.52.78s-.22.51-.5.76c-.27.25-.58.76-.67,1.14-.1.38-.69,1.25-1.33,1.92-.63.68-1.15,1.39-1.15,1.59s-.35.69-.78,1.1c-.43.41-.78,1-.78,1.3s-.41.95-.91,1.44c-.5.49-.91.98-.91,1.1,0,.31-1.09,1.83-1.57,2.19-.22.16-.65.81-.96,1.44-.31.63-.93,1.48-1.36,1.9-.44.42-.79.93-.79,1.14,0,.43,1.26-.69,4.1-3.64ZM149.66,75.5c-.49-.49-.66-.53-1.1-.26-1.46.91-2.61.23-2.61-1.56,0-1.57-.37-1.61-.75-.1-.33,1.31-1.11,1.79-1.8,1.1-.34-.34-.35-.47-.06-.82.19-.23.28-.47.2-.55-.08-.08.32-1.04.88-2.13,1.17-2.26,1.14-2.67-.16-2.67-1.1,0-1.2-.42-.2-.82.39-.16.96-.4,1.26-.54,1.52-.7,2.89.59,1.9,1.79-.27.33-.27.46.05.7.87.68,1.3,1.66.88,2.01-.22.18-.34.47-.27.65.07.18-.04.54-.24.81-.82,1.09-.21,1.18,1.07.15.49-.39.9-.93.9-1.2s.34-1.1.76-1.87c.78-1.42.62-2.21-.46-2.21-.54,0-.32-.38.4-.72,1.78-.83,3.96.42,2.41,1.38-.15.09-.23.3-.18.47.05.16-.23.93-.64,1.7-.41.77-.74,1.57-.74,1.77s-.14.6-.32.88c-.25.4-.25.58,0,.83.5.5,2-1.14,3.03-3.29,1.24-2.58,1.27-2.75.75-3.33-.44-.48-.44-.52.04-.87,1.2-.88,3.06.05,2.47,1.23-.13.27-.36.72-.5,1.01-.38.75-.35.78.6.78,1.01,0,1.49.39,1.49,1.23,0,.74-.67,1.05-1.36.61-.65-.41-.65-.4-.52,1.08.14,1.59.82,1.61,2.6.08.43-.37.67-.43.88-.22.77.77-1.49,2.94-3.06,2.94-1.35,0-2.98-1.28-2.32-1.82.22-.18.39-.49.39-.69,0-.74-.45-.31-1.06,1.01-.57,1.23-.72,1.38-1.54,1.45-.5.05-1.02.19-1.16.33-.43.42-1.31.26-1.91-.34ZM182.44,104.78c0-.43-.78-1.79-1.3-2.25-.29-.26-.52-.59-.52-.73s-.29-.65-.65-1.11c-.36-.47-.65-.96-.65-1.09s-.24-.45-.52-.71c-.29-.26-.52-.59-.52-.74s-.31-.59-.68-.99c-.68-.71-1.15-1.42-1.62-2.45-.13-.29-.43-.69-.66-.88-.23-.19-.42-.5-.42-.69s-.15-.44-.34-.55c-.19-.11-.54-.63-.78-1.15-.24-.52-.62-1.09-.83-1.27-.22-.18-.4-.47-.4-.65s-.24-.54-.53-.8c-.29-.27-.73-.9-.96-1.41-.24-.51-.67-1.16-.97-1.45-.3-.29-.74-.94-.99-1.46-.25-.52-.62-1.09-.84-1.27-.22-.18-.4-.42-.4-.54,0-.25-2.06-3.45-2.93-4.55-.34-.43-.94-1.44-1.33-2.25-.39-.81-.89-1.62-1.11-1.81-.22-.18-.62-.75-.88-1.26-.26-.51-.72-1.15-1.02-1.43-.3-.27-.55-.64-.55-.81s-.24-.52-.52-.78c-.29-.26-.52-.61-.52-.78s-.24-.52-.52-.78c-.29-.26-.52-.58-.52-.71s-.26-.61-.59-1.07c-.81-1.14-1.2-1.78-1.47-2.4-.13-.29-.42-.69-.65-.88-.23-.19-.42-.49-.42-.67s-.22-.52-.5-.77c-.27-.25-.65-.82-.84-1.28-.19-.46-.59-1.06-.89-1.35-.3-.29-.74-.94-.97-1.45-.86-1.85-1.33-2.02-2.53-.94-.57.52-1.34,1.02-1.71,1.11-.37.09-.79.4-.94.68-.15.28-.71.71-1.24.95-.91.41-1.4.74-3.5,2.4-.46.36-1.28.89-1.81,1.17-.54.28-.98.6-.98.71s-.16.2-.35.2-.56.24-.82.52c-.26.29-.61.52-.78.52s-.58.29-.92.65c-.34.36-.75.65-.91.65s-.63.35-1.05.78c-.41.43-.87.79-1.03.79-.9.03-1.78,1.23-1.27,1.72.73.7,2.1,1.66,2.38,1.66.13,0,.4.19.59.42.19.23.59.53.88.66,1.04.48,1.75.95,2.45,1.62.39.38.81.68.94.68s.64.32,1.16.72c1.76,1.35,2.5,1.88,3.02,2.15.29.15.82.47,1.18.72.37.25,1.09.72,1.61,1.05.52.33,1.01.77,1.09.98.08.21.31.38.5.38s.57.24.83.52c.26.29.61.52.78.52s.58.29.92.65c.34.36.75.65.93.65s.47.19.67.43c1.31,1.58,2.66,1.82,3.73.64.27-.3.76-.55,1.09-.55s.67-.12.76-.26c.47-.76,2.09.28,1.91,1.22-.13.69-1,.77-1.18.11-.19-.72-.29-.69-1.31.29-.97.94-1.07,1.38-.38,1.75.54.29,2.77.26,3.06-.04.33-.33,1.07-.22,1.44.22.42.51-.26,1.14-1.25,1.14-.82,0-.76.37.2,1.09.44.33,1.29,1.02,1.89,1.53,1.04.88,2.79,2.12,3.89,2.76.28.16.96.73,1.5,1.27.95.93,1.6,1.38,2.74,1.92.29.13.81.55,1.15.92.35.37.79.68.98.68s.35.16.35.35.32.51.72.7c.39.2,1.01.62,1.37.94.36.32,1.06.76,1.57.97.5.21,1.15.64,1.43.95.28.31.96.75,1.49.96.54.21.98.54.98.73,0,.48,1.32,1.41,2.02,1.42.32,0,.59-.09.59-.21ZM15.03,109.41c.1-.16-.03-.48-.28-.72-.34-.32-.48-.35-.57-.11-.07.18-.29.33-.49.33s-.37.18-.37.39c0,.46,1.43.55,1.71.11ZM154,109.34c.41-.68.4-.74-.09-1.1-.65-.48-1.31-.37-1.31.21,0,.24-.14.58-.31.75-.21.21-.23.46-.06.78.33.63,1.19.31,1.77-.65ZM134.63,93.54c-.26-.42.45-2.07.96-2.23.97-.31,1.28.53.69,1.83-.31.68-1.33.93-1.65.4ZM155.36,100.72c-.55-.59-.73-.63-2.26-.48l-1.66.15v-2.76l-.76,1.05c-.96,1.32-1.18,1.46-1.82,1.12-.34-.18-.56-.19-.67-.01-.21.35-2.3.34-2.65-.01-.42-.42.03-2.37.67-2.88.3-.24.55-.51.55-.6,0-.44-.62,0-1.92,1.34-1.38,1.44-1.46,1.48-1.91,1.04-.38-.38-.41-.54-.14-.91.18-.25.62-1.1,1-1.89.37-.79.79-1.65.93-1.91.17-.32.16-.59-.04-.83-.4-.48-.1-.9.62-.9.32,0,.71-.13.87-.29.51-.51.86.03.86,1.35,0,1.2.04,1.29.65,1.29.82,0,.98,2.33.22,3.17-.61.67-.32.81.65.32.53-.26,1.01-.82,1.34-1.55.29-.62.78-1.32,1.09-1.54l.57-.4-.6-.64c-.82-.88-.5-1.2,1.19-1.2h1.45l-.11,1.11c-.09.92,0,1.19.49,1.58.93.73.53,2.28-.49,1.94-.34-.11-.99.89-.99,1.52,0,.49,1.15.46,1.56-.03.18-.22.46-.39.63-.39.38,0,1.84-1.53,2.06-2.15.09-.25.28-.46.43-.46s.27-.17.27-.37c0-.24-.18-.32-.52-.23-.5.13-1.04-.54-.71-.87.52-.52,2.92-.2,3.01.4.05.34-.02.69-.14.78-.13.09-.43.58-.67,1.1-.24.52-.62,1.1-.85,1.28-1.6,1.33-1.13,2.31.56,1.16,1.13-.77,1.24-.78,1.68-.24.4.48-.69,1.56-1.84,1.82-.36.08-.85.26-1.1.39-.66.36-.83.31-1.49-.39ZM138.8,111.78c.09-.14,1.25-.26,2.57-.26s2.52-.11,2.66-.24c.14-.13,1.13-.3,2.2-.36,2.95-.18,3.97-.47,4.35-1.22.49-.97.41-1.67-.23-1.95-.31-.14-.6-.37-.65-.52-.11-.35,1.17-.93,1.36-.63.08.13.78.24,1.55.24,2.22,0,3.25.81,3.25,2.54,0,.69.67,1.07,1.11.63.18-.18,1.26-.3,2.7-.3,1.32,0,2.48-.12,2.57-.26.09-.14.97-.26,1.95-.26s1.87-.12,1.95-.26c.09-.15,1.34-.26,2.87-.26s2.77-.11,2.85-.24c.08-.13.6-.18,1.15-.1.6.08,1.08.02,1.19-.15.11-.18,1.04-.29,2.36-.29,1.2,0,2.26-.12,2.35-.26.09-.14.8-.26,1.58-.26s1.42-.05,1.42-.12c0-.31-2.44-2.47-3.19-2.83-.47-.22-1.13-.71-1.48-1.07-.35-.37-.76-.67-.93-.67s-.58-.29-.91-.65c-.34-.36-.71-.65-.83-.65-.28,0-2.76-1.78-2.87-2.06-.05-.11-.79-.69-1.65-1.27-.86-.58-1.85-1.36-2.2-1.73-.35-.37-.77-.67-.95-.67s-.46-.18-.64-.39c-.18-.21-.58-.39-.9-.39s-.98-.42-1.51-.98c-1.14-1.19-2.65-2.41-2.98-2.41-.13,0-.64-.41-1.12-.91-.82-.85-2.6-1.34-2.61-.72,0,.32-1.35.85-2.19.85-1.57,0-3.37-2.82-2.24-3.52.74-.46-.66-2.66-1.75-2.75-.11,0-.74-.42-1.38-.92-.65-.49-1.55-1.14-2.02-1.44-.47-.3-.85-.65-.85-.77s-.5-.46-1.11-.74c-.61-.28-1.45-.87-1.87-1.31-.44-.46-1.03-.8-1.39-.8s-.67-.18-.75-.46c-.07-.25-.59-.68-1.17-.96-.58-.28-1.16-.72-1.3-.98-.14-.26-.42-.47-.61-.47s-.57-.2-.82-.45c-.47-.47-1.14-.9-2.06-1.33-.29-.13-.81-.55-1.15-.92-.35-.37-.77-.68-.94-.68s-.75-.3-1.28-.66c-1.03-.7-2.08-.49-1.43.28.15.18.35,1.17.43,2.18.09,1.02.26,1.85.38,1.85s.22.81.22,1.81.12,1.88.26,1.97c.14.09.26.97.26,1.95s.12,1.87.26,1.95c.14.09.26.73.26,1.43s.12,1.35.27,1.44c.15.09.25.3.22.47-.13.81.36,1.22,1.48,1.22.62,0,1.2.12,1.29.26.09.14.74.26,1.45.26,1.45,0,1.49.06.77,1.24-.6.98-1.03,1.06-1.7.33-.68-.76-1.26-.64-1.64.33-.19.47-.57,1.32-.85,1.89-.56,1.15-.65,1.84-.25,2.08.14.09.26.8.26,1.58s.12,1.42.26,1.42.26.69.26,1.55.12,1.62.26,1.71c.14.09.26,1.09.26,2.21s.1,2.12.23,2.2c.13.08.31,1.52.42,3.2.15,2.37.29,3.13.62,3.38.51.39,2.02.45,2.25.08ZM152.41,112.04c.18,0,.33-.12.33-.26,0-.43-1.21-.29-1.6.18-.32.39-.29.42.29.26.36-.09.8-.17.98-.18ZM109.69,111.52l.08-.91-.7.69c-.72.71-.67,1.36.11,1.21.28-.05.46-.4.51-.99ZM46.82,112.28c.1-.16.04-.41-.11-.57-.16-.16-.29-.56-.29-.89,0-.47-.14-.6-.68-.6-.59,0-.64.05-.34.41.23.28.25.47.07.59-.15.1-.36.44-.46.76-.2.64,1.44.92,1.82.3ZM14.08,111.92l.66-.66h-1.02c-.99,0-2.23.77-2.23,1.38,0,.47,1.93-.06,2.59-.72ZM119.53,99.92c-.58-.44-1.6-.51-1.84-.13-.22.35-1.88.33-2.1-.02-.4-.65-.26-2.87.2-3.29.8-.73.6-1.2-.32-.73-.43.22-.78.55-.78.73s-.62.94-1.38,1.69c-2.21,2.18-4.61,1.86-4.62-.62,0-1.1-.21-.92-1.02.87-.2.45-.48.59-1.18.59-1.08,0-1.12-.15-.33-1.33.32-.49.76-1.23.98-1.67.21-.43.46-.84.55-.91.31-.26.46-1.76.2-2.02-.4-.4.77-1.37,1.65-1.37.74,0,.8.11.84,1.3.02.54.15.65.8.66,1.47.02,1.86.7.9,1.57-.44.4-.63.43-1.03.18-.61-.38-.97.05-.51.6.2.25.23.49.07.7-.34.45-.36,1.45-.04,1.65.3.19,2.23-1.57,2.59-2.37.13-.29.46-.87.74-1.3.27-.43.51-1.09.52-1.46.04-1.55,1.91-2.08,2.05-.58.05.53.31.97.72,1.24.87.57.86,2.11-.03,3.71-.92,1.65-.6,1.71.95.2,1.47-1.44,2.45-3.26,2.35-4.37-.13-1.44,1.28-2.23,2.19-1.22.51.56-.5,3.3-1.52,4.15-.23.19-.43.61-.43.92s-.15.71-.32.89c-.3.3.06.8.59.82.31,0,1.61-1.4,1.83-1.98.31-.82,1.44-.87,1.69-.08.46,1.46-3.67,3.94-4.94,2.97ZM92.99,113.13c7.95-.03,9.27-.09,9.82-.45.49-.32.76-.35,1.16-.14,1.03.55,2.07.35,2.5-.49.54-1.05.5-1.32-.2-1.32-.59,0-1.22-.43-1.22-.83,0-.11.98-.21,2.17-.21,2.69,0,3.66.42,4.28,1.85l.44,1.02h8.02c5.17,0,8.02-.09,8.02-.26s1.35-.26,3.53-.26h3.53l-.06-1.37c-.04-.75-.13-1.49-.21-1.63-.17-.31-.27-1.15-.44-3.91-.07-1.15-.24-2.2-.37-2.33-.13-.14-.24-.8-.24-1.48s-.12-1.31-.26-1.4c-.14-.09-.26-.86-.26-1.71,0-1.47-.03-1.55-.64-1.55-.35,0-.71-.12-.8-.26-.09-.14-.72-.26-1.4-.26-1.11,0-1.86-.32-1.86-.8,0-.22,1.04-.57,1.57-.52.56.05,1.71-1.26,1.94-2.19.37-1.51.45-3.57.16-3.86-.16-.16-.29-1.13-.29-2.17s-.12-1.96-.26-2.05c-.14-.09-.26-.97-.26-1.95s-.12-1.87-.26-1.95c-.14-.09-.26-.85-.26-1.69s-.11-1.6-.25-1.69c-.14-.09-.21-.83-.16-1.66.06-.99-.03-1.67-.27-1.99-.2-.27-.36-1.11-.36-1.87,0-1.6-.15-1.67-1.17-.6-.41.43-.88.78-1.04.78s-.69.41-1.17.91c-.49.5-1.01.91-1.17.91s-.92.65-1.7,1.43c-.78.79-1.57,1.43-1.76,1.43s-.41.18-.49.39c-.08.22-.37.39-.64.39-.32,0-.49.18-.49.52s-.17.52-.48.52c-.26,0-.82.41-1.24.91-.42.5-.91.91-1.09.91s-.33.18-.33.4-.26.52-.59.66c-1.19.54-1.84.99-2.9,2.04-.6.59-1.21,1.07-1.36,1.07s-.49.24-.75.52c-.26.29-.59.52-.73.52s-1.07.77-2.06,1.71c-1,.94-2.09,1.82-2.44,1.95-.35.13-.63.42-.63.64s-.14.4-.31.4c-.38,0-1.26.78-1.26,1.11,0,.14.28.18.62.09.39-.1.74-.01.94.23.43.52-.05,1.1-1.14,1.38-.45.11-.93.46-1.07.78-.14.32-.37.57-.5.57s-.5.24-.82.53c-.37.35-.96.55-1.71.57-.63.02-1.49.25-1.92.5-.43.26-1.04.58-1.36.72-.32.14-.73.49-.91.78-.18.29-.49.53-.69.53s-1.06.76-1.92,1.69c-.86.93-1.7,1.69-1.86,1.7-.16,0-.74.41-1.29.91-.55.5-1.08.91-1.18.91s-.83.65-1.61,1.43c-.78.79-1.52,1.43-1.64,1.43-.34,0-1.6,1-3.04,2.41-.69.68-1.37,1.24-1.5,1.24s-.75.53-1.38,1.17c-.63.65-1.28,1.17-1.44,1.17s-.57.3-.92.67l-.63.67,3.38-.11c1.86-.06,7.51-.12,12.56-.14ZM59.08,72.49c-.11-.11-.63-.2-1.15-.2-.79,0-.97-.1-1.04-.59-.11-.75,4.01-.93,4.29-.19.32.83-1.43,1.64-2.1.97ZM100.79,76.69c-.09-.1-.25-.1-.35,0-.1.1-.02.17.17.17s.27-.08.17-.17ZM101.53,79.73c-.26-.29-.62-.52-.81-.52-.21,0-.37-.42-.42-1.08l-.08-1.09-.53,1.02c-.5.95-.62,1.02-1.82,1.1-.71.04-1.4.19-1.54.33-.63.63-1.97.07-1.97-.82,0-.24-.18-.59-.41-.78-.36-.3-.36-.36-.02-.56.49-.27,1.21-1.69,1.21-2.37,0-.52-2.05,1.45-2.07,1.99-.04.83-1.43,1.85-2.58,1.88-.66.02-1.42.13-1.69.24-2.19.94-3.44-1.84-1.68-3.75,1.55-1.69,1.84-2.49.96-2.72-1.06-.28-.36-.83,1.16-.91l1.48-.08v.87c0,.68-.24,1.1-1.06,1.9-.58.57-1.25,1.44-1.49,1.94-.23.5-.53.99-.66,1.07-.66.46.47.44,1.42-.02.6-.29,1.29-.53,1.53-.53.46,0,1.56-1.04,1.56-1.47,0-.15.29-.53.64-.86.44-.41.66-.94.72-1.67.11-1.58,2.03-1.87,2.03-.31,0,.71.11.93.46.94,1.05.02,1.59.86,1.14,1.75-.13.25-.44.92-.71,1.49-.26.57-.52,1.13-.58,1.24-.18.37.93.2,1.25-.2.18-.21.53-.39.78-.39.61,0,.97-.47,2.13-2.8.98-1.97,1.04-2.41.31-2.41-.24,0-.36-.18-.31-.46.07-.35.35-.46,1.26-.46,1.42,0,1.79,1,.78,2.08-.57.61-.38,1.04.34.77.21-.08.47-.02.56.13.09.15.47.28.83.28,1.11,0,.77,1.41-.36,1.52-1.17.11-1.36,2.65-.2,2.65.36,0,.65-.1.65-.21,0-.5,2.14-1.63,2.51-1.32.54.45.46.62-.75,1.44-.61.41-1.15.84-1.2.95-.05.11-.36.2-.7.2s-.69.12-.78.26c-.26.41-.79.31-1.3-.26ZM69.44,80.37c-.08-.22-.08-.75,0-1.17.2-1.01-.05-.98-1.14.14-.93.95-1.56,1.17-1.56.54s-.54-.74-1.14-.17c-1.77,1.67-4.22-.27-2.74-2.17.3-.39.48-.77.39-.87-.23-.23-1.53.78-1.87,1.45-.65,1.29-1.18,1.61-2.63,1.61-.77,0-1.62.14-1.9.32-1.78,1.11-2.55-2.82-.88-4.53.8-.82.9-1.04.62-1.38-.58-.7-.13-1.19,1.1-1.19,1.9,0,2.03,1,.33,2.6-.36.34-.66.76-.66.92s-.22.51-.49.75c-.57.52-.44,1.47.2,1.44,1.29-.06,3.03-1.43,3.81-2.98.43-.86.88-1.63,1-1.72.12-.09.18-.61.13-1.17l-.08-1.02,1.24-.08c1.23-.08,1.81.61.96,1.13-.15.09-.22.33-.14.53.08.2.02.43-.11.51-.45.28-.26.64.35.64,1.59,0,1.67,2.43.12,3.6-.47.35-.63,1.1-.23,1.1.12,0,.77-.48,1.44-1.07.9-.8,1.3-1,1.55-.79.25.21.55-.04,1.23-1.05,1.61-2.36,1.63-2.42.89-2.52-.99-.13-.89-1.09.12-1.09.42,0,.84-.12.93-.26.09-.14.39-.26.67-.26.58,0,.74,1.49.22,2.01-.33.33-.08.89.37.83.97-.12,1.64.67,1.35,1.6-.17.54-1.02.7-1.3.25-.33-.53-.52-.23-.57.91-.05,1.21.27,1.71.77,1.2.37-.37,1.4-.38,1.63-.01.25.41-.65,1.29-1.34,1.29-.33,0-.67.12-.76.26-.26.42-1.69.31-1.86-.14ZM39.01,92.26c-.1-.16-.63-.29-1.19-.29-1,0-2-.81-1.67-1.34.19-.31,2.38-.27,2.58.04.09.14.38.26.65.26.75,0,.9.52.32,1.1-.35.35-.58.42-.7.23ZM57.98,94.52c.33-.52-.2-1.24-.91-1.24-.57,0-.68,1.01-.17,1.51.38.38.73.29,1.08-.27ZM61.84,98.7c-.17-.17-.31-.47-.31-.65s-.18-.34-.4-.34-.5-.26-.62-.59c-.36-.93-1.28-1.65-1.64-1.28-.56.56-2.65.38-3.28-.3-.7-.75-.83-3.22-.18-3.47.75-.29.07-2.06-1.4-3.61-.59-.63-1.86-2.79-1.86-3.18,0-.59,1.31.39,1.93,1.45,1.33,2.26,2.92,3.99,3.23,3.53.5-.75,3.5-1.02,4.29-.39.57.46.59,1.41.04,1.87-.41.34-1.14-.21-1.14-.85,0-.34-1.01-.24-1.84.19-1.07.56-1.01,1.17.13,1.17.49,0,.97.12,1.06.26.09.14.6.26,1.14.26.88,0,1.6.36,1.6.79,0,.09-.41.32-.91.52-.76.3-.91.49-.91,1.13,0,.5.33,1.17.91,1.88,1.11,1.35,1.26,2.7.18,1.62ZM47.25,103.39c-.17-.17-.31-.47-.31-.66,0-.27-.37-.31-1.69-.17-2.08.21-3.55-1.03-2.2-1.86.15-.09.22-.32.15-.5-.07-.18.1-.71.39-1.18.83-1.36.32-1.25-1.28.29-1.86,1.79-2.75,2.27-3.31,1.8-.27-.23-.4-.24-.4-.04,0,.17-.47.29-1.13.29-1.7,0-2.39-.84-2.18-2.63l.16-1.35-.92,1.08c-.68.8-1.12,1.08-1.67,1.08-1,0-1.21-.43-.54-1.14.3-.32.55-.78.55-1.02s.18-.44.4-.44c.36,0,3.25-2.67,3.25-3,0-.07-.29-.13-.65-.13s-.65-.12-.65-.26-.18-.26-.39-.26-.39-.09-.39-.21c0-.53.75-.83,2.08-.83,2.17,0,2.68.79,1.38,2.14l-.7.73h1.05c1.75,0,2.45,1.23,1.31,2.3-.94.89-1.48.61-1.48-.76,0-.28-.13-.5-.29-.5-.18,0-.24.31-.17.79.06.44.02.85-.1.93-.12.07-.22.56-.22,1.08,0,.74.07.88.31.64.17-.17.57-.31.88-.31,1.27,0,2.42-.99,3.2-2.75.13-.29.43-.69.66-.88.25-.21.42-.75.42-1.37v-1.03l.98.08c1.01.08,1.33,1.19.73,2.6-.15.35-.02.45.68.52,1.44.14,1.26,2.58-.29,3.98-.29.26-.53.64-.53.84,0,.43,1.24-.13,1.81-.82.19-.23.75-.6,1.24-.84,1.37-.65,3.08-2.39,2.72-2.76-.43-.43-.37-1.11.14-1.53.34-.28.46-.29.54-.03.06.18.39.33.74.33.9,0,.89,1.33-.02,2.04-.36.28-.65.58-.65.66,0,.29-1.53,2.4-2.18,3.01-.37.34-.6.73-.52.86.23.37,2-.08,2.44-.62.5-.62,1.91-.76,2.02-.21.04.22-.36.68-.9,1.04-.54.36-1.07.8-1.19.98-.27.42-2.84.44-3.26.02ZM67.35,105.89c-.26-.37-.85-1.12-1.32-1.67-.47-.54-.85-1.09-.85-1.23s-.41-.64-.91-1.13c-.5-.49-.91-1.04-.91-1.24,0-.53,1.07-.28,1.41.33.16.29.6.89.98,1.35.38.46.76,1.05.85,1.32.09.27.51.75.93,1.07.76.56,1.03,1.42.54,1.72-.13.08-.46-.16-.72-.53ZM69.36,108.48c-.76-.97-.26-1.45.64-.61.36.34.66.77.66.96,0,.58-.71.39-1.29-.35ZM72.31,112.56c-.21-.43-.57-.88-.8-1.01-.27-.15-.35-.4-.24-.7.2-.52,1.99.94,1.99,1.63,0,.58.52.37.78-.31.26-.68,1.21-.9,1.72-.39.4.4,1.6-.3,3.09-1.82.71-.72,1.44-1.32,1.62-1.32s1.41-1.04,2.75-2.3c2.17-2.06,3.14-2.79,3.62-2.71.08.02.78-.61,1.55-1.39.77-.78,1.53-1.42,1.69-1.42s.62-.35,1.04-.78c.41-.43.89-.78,1.05-.78s.89-.61,1.62-1.37c1.32-1.37,2.15-2.06,3.42-2.82.6-.36.69-.6.76-1.99.08-1.56.1-1.6,1.59-2.98,2.05-1.89,2.37-2.05,4.31-2.05s3.1-.64,5.26-2.73c1.36-1.32,2.83-2.48,3.15-2.48.13,0,.64-.41,1.12-.91.49-.5.99-.91,1.13-.91.28,0,1.9-1.34,4.01-3.32.8-.75,1.55-1.37,1.66-1.37s.59-.41,1.06-.91c.47-.5.99-.91,1.14-.91s.91-.64,1.69-1.43c.78-.79,1.52-1.43,1.65-1.43s.62-.32,1.1-.72c.47-.39,1.16-.93,1.54-1.19.37-.26.61-.58.54-.7-.26-.42-1.76-1.04-2.5-1.04-.4,0-.79-.1-.87-.23-.08-.13-1.08-.32-2.23-.42-1.15-.1-2.15-.29-2.23-.42-.08-.13-.6-.23-1.16-.23s-1.08-.1-1.16-.23c-.15-.25-1.31-.49-3.41-.72-.72-.08-1.41-.25-1.55-.38-.14-.13-.56-.24-.93-.24s-.77-.09-.88-.2c-.11-.11-.8-.22-1.54-.26-2.04-.1-3.66-.35-3.94-.61-.14-.13-.57-.23-.96-.23s-.79-.13-.89-.28c-.13-.2-.25-.2-.46,0-.45.45-2,.36-2-.12,0-.28-.2-.17-.63.33-.55.63-.57.74-.2.82.54.12,1.09.54,1.09.85,0,.13-.59.23-1.3.23s-1.3-.12-1.3-.26-.54-.26-1.19-.26c-1.55,0-1.51-.68.07-1.43,1.77-.84,1.2-1.15-2.92-1.6-.72-.08-1.41-.25-1.55-.38-.14-.13-.69-.24-1.22-.24s-1.05-.12-1.14-.26c-.09-.14-.62-.26-1.17-.26s-1.07-.1-1.15-.22c-.12-.19-2.66-.51-5.24-.66-.43-.02-.94-.14-1.12-.26-.19-.12-.36-.17-.39-.12-.03.05-.19.34-.36.65-.17.31-.27,1.04-.23,1.64.04.59-.02,1.14-.15,1.22-.12.08-.22.71-.22,1.41s-.12,1.34-.26,1.43c-.14.09-.26.73-.26,1.43s-.12,1.34-.26,1.43c-.14.09-.26,1.07-.26,2.18s-.11,2.13-.25,2.27c-.66.66-.65,7.39.02,8.14,1.21,1.36,1.68,2.91,1.02,3.31-.14.09-.26.43-.26.75,0,.6-.82,1.52-1.6,1.8-.52.18-1.27,1.61-1.27,2.43,0,.33-.13.67-.28.77-.16.1-.25.79-.21,1.57.04.77-.02,1.48-.11,1.58s-.18.62-.18,1.16-.12,1.06-.26,1.14c-.14.09-.26.97-.26,1.95s-.12,1.87-.26,1.95c-.14.09-.26.62-.26,1.17s-.12,1.08-.26,1.17c-.15.09-.26,1.52-.26,3.39s-.11,3.29-.27,3.39c-.15.09-.24.48-.2.86.06.55-.05.71-.51.78-.64.09-.94-3.35-.33-3.73.14-.09.26-.73.26-1.43s.12-1.34.26-1.43c.14-.09.26-1.13.26-2.31s.11-2.26.25-2.4c.14-.14.33-1.63.43-3.32.1-1.69.28-3.13.41-3.21s.22-.89.22-1.8.12-1.74.27-1.83c.59-.36.03-.74-1.2-.81-4.62-.26-4.41-.22-4.5-.95-.08-.65-.02-.68,1.3-.76,1.34-.08,1.4-.11,1.93-1.19.3-.61.76-1.34,1-1.61.25-.27.38-.62.29-.76-.09-.14-.04-.33.11-.42.48-.3.27-.65-.39-.65-.48,0-.65-.14-.65-.52,0-.46.17-.52,1.38-.52,1.67,0,2.01-.29,2.01-1.73,0-.61.1-1.17.23-1.24.12-.08.21-.74.18-1.47-.02-.73.05-1.38.17-1.45.11-.07.21-.94.21-1.92s.12-1.87.26-1.95c.14-.09.26-.85.26-1.69s.12-1.61.26-1.69c.14-.09.26-.86.26-1.71s.12-1.55.26-1.55.26-.64.26-1.42.09-1.48.21-1.55c.12-.07.16-.55.1-1.06-.11-.91-.39-1.18-.7-.68-.09.14-.71.25-1.38.26-.68,0-1.93.13-2.79.28-.86.15-2.03.34-2.61.42-.57.08-1.15.25-1.29.38-.14.13-.69.23-1.22.23s-1.05.12-1.14.26c-.09.14-.62.26-1.17.26s-1.08.12-1.17.26c-.09.14-.57.26-1.07.26s-1.27.19-1.71.42c-.44.23-1.1.36-1.47.29-1.4-.27-2.67.96-1.35,1.31.29.08.52.36.52.64,0,.46-.18.49-2.41.43-2.48-.08-3.47-.67-1.65-.98.88-.15,1.24-.78.45-.78-.29,0-.6.12-.69.26-.09.14-.62.26-1.17.26s-1.09.12-1.18.27c-.09.15-.57.22-1.06.16-.5-.05-.96,0-1.04.13-.08.12-.59.22-1.15.22s-1.08.12-1.17.26c-.09.14-.73.26-1.43.26s-1.34.12-1.43.26c-.09.14-.67.26-1.3.26s-1.21.12-1.3.26c-.09.14-.73.26-1.43.26s-1.34.1-1.41.23c-.08.13-.73.28-1.45.35-1.68.16-1.72.21-.93,1.38.37.54.66,1.12.66,1.28s.35.56.77.87c.42.31.97,1.01,1.22,1.55.43.92.78,1.42,2.51,3.55.39.49.72,1,.72,1.13,0,.33,1.78,2.15,2.1,2.15.14,0,.25.18.25.4s.29.7.65,1.05.65.75.65.87.17.36.38.54c.81.67,1.55,2.87.97,2.87-.41,0-1.85-1.7-2.24-2.64-.22-.52-.72-1.22-1.13-1.56-.4-.34-.93-1.03-1.17-1.53-.24-.5-.98-1.44-1.65-2.08-.67-.64-1.32-1.41-1.45-1.69-.38-.83-.83-1.49-1.74-2.54-.47-.54-.85-1.13-.85-1.31s-.5-.83-1.12-1.43c-1.26-1.23-1.75-1.13-1.75.38,0,.46-.11.91-.24.99-.13.08-.32.85-.42,1.71-.1.86-.29,1.63-.42,1.71-.13.08-.24.54-.24,1.03s-.12.95-.26,1.04c-.14.09-.26.37-.26.63s-.17.62-.38.79c-.25.21-.33.57-.22,1.09.14.69.01,1.16-.71,2.6-.12.23-.15.66-.08.95.08.29,0,.6-.15.7-.16.1-.28.45-.28.8s-.12.69-.26.78c-.14.09-.26.56-.26,1.04s-.12.95-.26,1.04c-.14.09-.26.43-.26.77s-.18.94-.39,1.35c-.21.41-.39,1.18-.39,1.71,0,.53-.12,1.03-.26,1.12-.14.09-.26.5-.26.91s-.12.82-.26.91c-.14.09-.26.44-.26.78s-.12.69-.26.78c-.14.09-.26.73-.26,1.43s-.13,1.35-.28,1.45c-.15.1-.21.45-.13.78.08.33.03.68-.11.77-.14.09-.26.44-.26.78s-.12.69-.26.78c-.14.09-.26.44-.26.78s-.12.69-.26.78c-.14.09-.26.62-.26,1.19s-.12,1.03-.26,1.03-.26.35-.26.79-.12.99-.26,1.24c-.14.25-.38.78-.52,1.18-.14.4-.38.66-.52.57-.34-.21-.34-1.96,0-1.96.14,0,.26-.53.26-1.17s.1-1.17.23-1.17.3-.32.37-.72c.32-1.58.49-2.3.62-2.67.08-.21.12-.76.09-1.21-.03-.45.07-.9.22-.99.15-.09.28-.51.28-.92s.12-.82.26-.91c.14-.09.26-.51.26-.93s.1-.97.23-1.22c.54-1.05.79-1.82.92-2.8.34-2.45.66-3.74.96-3.93.12-.08.23-.49.23-.91s.12-1,.26-1.29c.14-.29.38-.75.52-1.04.14-.28.26-.86.26-1.29s.1-.83.23-.91c.12-.08.17-.42.11-.77-.07-.35,0-.71.17-.8.16-.1.28-.63.28-1.19s.12-1.08.26-1.17c.14-.09.26-.44.26-.78s.12-.69.26-.78c.14-.09.26-.5.26-.91s.11-.82.24-.9c.13-.08.31-.82.4-1.65.09-.82.27-1.7.41-1.95,1.38-2.51-.18-1.2-8.74,7.36-4.94,4.94-8.99,9.11-8.99,9.25s-1.7,1.96-3.78,4.04c-2.08,2.07-3.78,3.89-3.78,4.03,0,.38-8.15,8.48-8.53,8.48-.2,0-.33.35-.33.91,0,.5-.12.91-.26.91s-.26.18-.26.39c0,.28.29.39,1.03.39.56,0,1.1.12,1.19.26.09.14.73.26,1.43.26s1.34.12,1.43.26c.28.45,4.56.33,4.56-.13,0-.21-.16-.39-.36-.39-.63,0-1.06-.72-.69-1.16.38-.46,3.51-.48,4.28-.04.99.58,2.23,1.98,2.08,2.37-.18.47.85.92,2.12.92.48,0,.95.12,1.04.26.09.14.73.26,1.43.26s1.34.12,1.43.26c.33.53,3.78.32,3.78-.23s.6-1.17.87-.9c.09.09.17.56.17,1.04v.87h2.72c1.53,0,2.79.11,2.88.26.29.47,8.12.33,8.86-.16,1.6-1.05,1.65-2.37.11-2.61-2.08-.33-1.3-1.17,1.11-1.19,2.56-.02,4.9,1.66,4.9,3.53,0,1.13.67,1.24,7.11,1.16,3.38-.04,6.22.01,6.33.12.11.11,2.57.19,5.47.19h5.28l-.39-.78ZM108.69,114.06c.02-.37-.98-.19-1.57.28-.94.76-.4,1.15.66.48.49-.31.9-.66.91-.77ZM44.51,115.3c.93-.46,1.8-1.37,1.55-1.61-.1-.1-.32-.04-.49.13-.17.17-.6.31-.96.31-.62,0-1.85.9-1.85,1.35,0,.34.89.25,1.74-.17ZM14.2,126.63c-.36-.72-.87-1.06-.87-.57,0,.27.86,1.35,1.09,1.35.1,0,0-.35-.21-.78ZM15.29,128.47c-.09-.15-.29-.28-.43-.28s-.11.16.08.37c.37.41.61.35.35-.09ZM18.01,131.99c0-.47-1.18-1.95-1.76-2.21l-.71-.32.59.63c.32.35.59.73.59.85,0,.3.81,1.18,1.08,1.18.12,0,.22-.05.22-.12ZM156.7,131.92c.88-.86,1.32-1.91.79-1.89-.31.01-1.11.68-1.11.93,0,.13-.24.52-.52.88-1.06,1.35-.52,1.4.84.08ZM57.75,133.93c.09-.14.04-.26-.11-.26s-.28.12-.28.26.05.26.12.26.19-.12.28-.26ZM156.91,134.05c.43-.52.3-.61-.72-.45-.49.07-.85.28-.85.49,0,.49,1.15.46,1.57-.04ZM55.02,136.4c0-.21.18-.39.39-.39s.39-.14.39-.31.25-.58.57-.91c.89-.95,0-.75-1.01.23-.82.8-1.15,1.77-.6,1.77.14,0,.26-.18.26-.39ZM101.87,137.52c.48-.48.37-.83-.39-1.18-.38-.18-.7-.3-.71-.26-.01.03-.16.31-.33.62-.51.92.66,1.6,1.43.83ZM55.92,138.27c.28-.21.4-.48.28-.67-.15-.24-.32-.21-.69.13-.86.78-.53,1.22.41.54ZM81.13,142.34c.78-.76.99-1.16.99-1.9,0-1.36-1.03-2.18-1.4-1.11-.09.25-.39.81-.66,1.24-.68,1.05-.71,2.74-.05,2.74.08,0,.59-.43,1.13-.96ZM155.48,117.53c-.09-.15-.53-.28-.96-.28-.61,0-.77-.1-.7-.46.09-.47,4.15-.83,5.12-.46.63.24-.04.71-1.31.92-.62.1-1.31.27-1.55.37-.24.1-.51.06-.6-.09ZM143.68,126.78c-.77-.36-.82-2.07-.1-2.87.61-.66.95-1.71.57-1.71s-1.32.97-1.32,1.38c0,.49-1.9,2.27-2.43,2.27-.83,0-.81-.78.05-1.66.45-.46.82-.94.82-1.07s.29-.61.65-1.08c.36-.47.65-.96.65-1.09s.23-.45.52-.71c.63-.57.68-1.03.1-.81-.43.17-1.14-.24-1.14-.66,0-.33,2.8-.28,3.01.05.1.16.04.41-.11.57-.42.42-.36,1.49.07,1.49.59,0,.7,2.35.15,3-.81.95-1.1,1.69-.66,1.69.21,0,.46-.12.55-.26.09-.14.45-.26.8-.26.43,0,.72-.2.87-.59.12-.32.53-.86.89-1.21.37-.34.74-.94.82-1.34.09-.4.39-.93.67-1.18.47-.43.48-.49.08-.93-.67-.74-.28-1.27.93-1.27s1.57,1.33.66,2.08c-.64.53-.45.75.72.83.97.07,1.12.16,1.18.75.12,1.01-.82,1.78-1.47,1.2-.8-.72-1.52-.44-.77.3.24.24.24.38,0,.63-.36.36-.42,1.25-.09,1.25.5,0,1.91-.87,2.06-1.27.19-.51,1.15-1.92,1.45-2.15.7-.51.91-1.5.41-1.95-.94-.85-.63-1.18,1-1.1,1.71.09,2.08.61,1.15,1.6-.29.31-.72,1-.94,1.54-.22.54-.52.97-.66.97s-.26.3-.26.67-.12.9-.27,1.17c-.44.82.36.63,1.84-.44,1.25-.9,2.08-.94,2.08-.1,0,1.12-4.57,2.61-5.42,1.77-.24-.24-.38-.24-.63,0-.17.17-.58.31-.92.31s-.83.14-1.11.31c-.72.45-1.62-.4-1.56-1.48.07-1.29.02-1.32-.78-.42-.83.93-1.9,1.58-2.6,1.58-.24,0-.55.1-.69.21-.14.12-.51.09-.83-.06ZM132,153.76c.27-.3.63-.55.79-.55s1.11-.82,2.1-1.82c1-1,1.93-1.82,2.08-1.82s1.03-.76,1.95-1.69c.92-.93,1.81-1.69,1.97-1.69s.99-.73,1.83-1.61c.85-.89,2.06-2.01,2.7-2.5.64-.49,1.87-1.57,2.74-2.41.87-.83,1.93-1.79,2.36-2.12,1.57-1.21,3.03-2.9,2.75-3.18-.15-.15-.27-.72-.27-1.26,0-.94.24-1.33,1.35-2.16.19-.14.92-.76,1.62-1.37,1.34-1.17,2.05-1.34,2.88-.71.58.44,1.45.51,1.45.11,0-.15.23-.35.51-.46.28-.1,1.8-1.45,3.37-2.99,1.57-1.54,2.98-2.8,3.14-2.8s.28-.11.28-.25.31-.4.69-.59c.38-.19.82-.56.98-.84.38-.66,1.14-1.46,1.41-1.46.12,0,.82-.59,1.56-1.3.74-.72,1.45-1.3,1.57-1.3s1.73-1.52,3.58-3.39c1.85-1.86,3.49-3.39,3.66-3.39s.36-.23.44-.52c.08-.29.32-.52.55-.52s.42-.18.42-.39c0-.44-.41-.52-.65-.13-.09.14-.97.26-1.95.26s-1.86.1-1.93.23c-.08.12-2.37.31-5.1.42-2.73.1-5.02.3-5.1.42-.08.13-.95.23-1.94.23s-1.87.12-1.95.26c-.09.14-1.14.26-2.35.26s-2.26.12-2.35.26c-.09.14-.98.26-1.98.26-1.63,0-1.84.06-2.08.59-.28.62-1.34,1.24-2.12,1.24-.26,0-.47.12-.47.27,0,.17-1,.24-2.8.2l-2.8-.07-.08-.72c-.08-.73-.87-1.02-1.22-.46-.09.14-1.14.26-2.35.26s-2.26.12-2.35.26c-.09.14-1.06.26-2.16.27-2.85.01-2.92.09-2.92,3.46,0,1.56-.11,2.83-.26,2.92-.14.09-.26.85-.26,1.69s-.12,1.61-.26,1.69c-.14.09-.26.97-.26,1.95s-.12,1.87-.26,1.95c-.58.36.54,1.17,1.62,1.17.35,0,.47.2.47.78,0,.82-1.53,1.21-1.97.5-.26-.42-.74.16-.55.66.09.23.4.41.69.41s.53.06.53.13c0,.16-.59,1.24-.78,1.43-.31.31-1.04,2.14-1.04,2.6,0,.27-.12.57-.26.66-.14.09-.26.86-.26,1.71s-.12,1.55-.26,1.55-.26.69-.26,1.55-.12,1.62-.26,1.71c-.14.09-.26.73-.26,1.43s-.13,1.35-.29,1.45c-.18.11-.24.63-.16,1.32.07.63.03,1.21-.1,1.28-.13.08-.23.66-.23,1.3s-.12,1.16-.26,1.16-.26.78-.26,1.81-.12,1.88-.26,1.97c-.14.09-.26.51-.26.93,0,.88.88.64,1.93-.52ZM51.8,120.47c-.61-.61-.09-.87,1.78-.87s2.42.25,1.45.77c-.56.3-2.96.37-3.23.1ZM37.69,120.38c-.09-.14-.56-.26-1.06-.26-.82,0-.9-.06-.9-.78,0-.87.6-1.05,1.6-.46.44.26.58.26.67,0,.14-.39,1.28-.44,1.51-.07.09.14.45.26.8.26.7,0,.88.7.32,1.25-.38.38-2.72.42-2.94.05ZM49.35,129.67c-.76-.86-.82-.89-1.5-.53-.39.2-.92.37-1.18.37s-.54.11-.62.24c-.08.14-.42.11-.8-.07-.87-.41-.96-2.68-.13-3.43.54-.49.72-1.43.27-1.43-.14,0-.38.24-.53.52-.15.29-.45.52-.66.52s-.38.13-.38.28c0,.87-2.18,2.85-3.15,2.85-.54,0-1.06.12-1.15.26-.56.9-3.19-.53-2.87-1.57.26-.81-.33-.61-.78.26-.43.83-.87.98-1.38.47-.47-.47-.38-1.21.21-1.57.29-.18.52-.53.52-.79,0-.52.43-1.36,1.09-2.15.67-.8.89-1.95.37-1.95s-.54-.3-.11-.73c.84-.84,2.03-.15,2.03,1.17,0,.84.03.86,1.11.86,1.56,0,2.11,1.04,1.07,2.01-.72.67-1.4.63-1.4-.08,0-.35-.07-.37-.39-.11-.27.22-.39.82-.39,1.9v1.58l.6-.57c.33-.31.86-.57,1.18-.57.36,0,.66-.22.8-.6.13-.33.42-.75.65-.94.23-.19.42-.49.42-.67s.17-.47.38-.65c.76-.63,1.17-1.77.76-2.11-.54-.45-.45-.68.46-1.13,1.78-.89,2.89-.3,1.91,1.01-.47.63-.49.93-.04.93.93,0,1.71.67,1.81,1.55.12,1.03-.44,2.36-.99,2.36-.22,0-.37.26-.37.65s.15.65.39.65c.21,0,.39-.12.39-.26s.16-.26.35-.26c.29,0,1.56-1.25,4.01-3.97.37-.41.35-.49-.22-.96-1.08-.88-.02-1.28,2.89-1.09.44.03.29.69-.26,1.19-.29.26-.52.63-.52.82s-.1.35-.23.35-.48.52-.77,1.15c-.3.63-.65,1.22-.79,1.31-.14.09-.43.51-.64.93l-.39.78h1.01c.55,0,1.08-.12,1.17-.26.31-.5.65-.26.65.46,0,.76-.87,1.37-1.95,1.37-.3,0-.67.12-.82.27-.19.19-.51,0-1.07-.63ZM39.57,154.46c.47-.46.86-.95.86-1.08s.62-.94,1.37-1.77c3.22-3.59,3.84-4.32,3.84-4.55,0-.13.94-1.18,2.08-2.32,1.15-1.14,2.08-2.17,2.08-2.28s.42-.58.93-1.02c1.1-.97,1.74-2.1,1.51-2.69-.09-.23-.04-.68.11-.99.15-.31.33-1.08.41-1.71.15-1.31,1.46-2.9,2.4-2.9.31,0,.75-.21.99-.47.24-.26,1.02-.63,1.74-.83,1.08-.29,1.59-.66,2.93-2.12,2.46-2.67,3.58-4.03,3.58-4.33,0-.15.4-.62.88-1.05.49-.43.97-1.03,1.07-1.35.24-.74,2.71-3.4,3.17-3.4.19,0,.35-.15.35-.34s.41-.74.91-1.22c.5-.49.91-1,.91-1.14s.22-.5.49-.8c1.46-1.6,1.56-1.57-6.65-1.65-4.1-.04-7.56-.13-7.68-.21-.7-.43-9.73-.13-9.9.33-.31.84-1.1,1.32-3.75,2.31-.79.3-1.94.34-2.1.08-.08-.13-.99-.23-2.03-.23-1.75,0-2.51-.25-2.51-.83,0-.11.62-.21,1.38-.21,1.18,0,1.49-.11,2.08-.73.68-.71.95-1.28.46-.97-.13.08-.32.03-.41-.11-.1-.17-2.47-.27-6.44-.27h-6.27l.18,1.89c.1,1.04.29,2,.43,2.14.13.14.24.57.24.96s.12.79.26.87c.14.09.26.5.26.91s.12.82.26.91c.14.09.26.56.26,1.04s.1.95.23,1.02c.22.14.54,1.57.57,2.55,0,.25.12.52.26.6.13.08.24.49.24.9s.12.82.26.91c.14.09.26.62.26,1.17s.12,1.08.26,1.17c.14.09.26.42.26.74s.11.7.25.84c.14.14.33,1.1.43,2.14.1,1.04.28,1.95.4,2.03.12.08.22.48.22.89s.12.82.26.91c.14.09.26.56.26,1.06s.12.9.26.9.26.4.26.9.1.96.23,1.04c.13.08.3.58.38,1.12.08.54.21,1.27.28,1.63.07.36.21,1.09.3,1.63.09.54.27,1.04.4,1.12.13.08.23.48.23.89s.12.82.26.91c.14.09.26.72.26,1.41,0,.89.15,1.43.54,1.87.4.45.51.85.41,1.45-.12.77-.02,1.13.31,1.13.08,0,.53-.37,1-.83ZM37.56,159.12c0-1.58-.09-1.99-.52-2.39-.29-.26-.52-.62-.52-.79s-.29-.51-.65-.75c-.36-.24-.65-.59-.65-.78s-.18-.5-.39-.68c-.48-.4-.51-1.04-.05-1.04s1.37,1.01,1.6,1.76c.1.32.36.59.58.59.36,0,.36-.07.02-.59-.21-.32-.45-1.45-.54-2.52-.09-1.06-.28-2.05-.43-2.2-.15-.15-.27-.54-.27-.86s-.12-.66-.26-.74c-.14-.09-.26-.5-.26-.91s-.12-.82-.26-.91c-.14-.09-.26-.62-.26-1.17s-.11-1.08-.24-1.16c-.13-.08-.32-.79-.42-1.58-.1-.79-.28-1.5-.41-1.57-.13-.08-.23-.54-.23-1.02s-.12-.95-.26-1.04c-.14-.09-.26-.5-.26-.91s-.1-.82-.23-.89c-.13-.08-.31-.58-.4-1.12-.09-.54-.22-1.27-.3-1.63-.07-.36-.2-1.09-.28-1.63-.08-.54-.26-1.04-.38-1.12-.13-.08-.23-.54-.23-1.02s-.12-.95-.26-1.04c-.14-.09-.26-.5-.26-.91s-.12-.82-.26-.91c-.14-.09-.26-.44-.26-.78s-.1-.68-.22-.76c-.12-.08-.29-.8-.38-1.62-.08-.81-.28-1.6-.43-1.75-.15-.15-.28-.72-.28-1.27,0-.95-.07-1.18-.74-2.48-.17-.32-.3-.93-.3-1.35s-.11-.84-.24-.92c-.13-.08-.19-.43-.13-.78.06-.35,0-.7-.15-.79-.14-.09-.26-.43-.26-.75,0-.74-.47-1.21-1.21-1.21-.32,0-.66-.12-.75-.26-.09-.14-.85-.26-1.69-.26s-1.61-.12-1.69-.26c-.09-.14-.73-.26-1.43-.26s-1.33-.09-1.4-.2c-.29-.47-2.07-.1-2.61.55-1.26,1.5-5.88,2.55-6.54,1.48-.09-.14-.59-.26-1.12-.27-1.05,0-2.03-.58-1.75-1.02.09-.15.44-.21.76-.13.7.18,2.5-.79,2.5-1.34,0-.24-.3-.37-.9-.37-.49,0-.97-.12-1.06-.26-.09-.14-.85-.26-1.69-.26s-1.59-.09-1.66-.21c-.2-.33-1.54-.22-1.66.14-.06.18.08.33.31.33s.52.27.65.6c.13.33.42.75.65.94.23.19.42.51.42.71s.12.36.26.36.26.16.26.35c0,.39,1.03,1.44,1.43,1.46.14,0,.36.34.49.73.13.39.52,1.03.88,1.42.62.66,1.12,1.42,1.53,2.3.1.22.72.99,1.38,1.72,1.68,1.87,2.32,2.7,2.88,3.75.27.5.91,1.32,1.42,1.81.51.49.94,1.03.94,1.2s.23.51.52.77c.29.26.52.61.52.77s.41.7.91,1.18c.5.49.91.99.91,1.13s.74,1.08,1.64,2.1c.91,1.02,1.93,2.46,2.28,3.21.35.74.9,1.47,1.22,1.62.32.15.59.43.59.63s.23.57.52.83c.29.26.52.63.52.83s.18.43.39.51c.21.08.39.4.39.71,0,.35.34.78.91,1.15.5.32.91.74.91.93s.36.68.8,1.11c.44.42,1.02,1.23,1.29,1.81.27.57,1.19,1.74,2.06,2.6,1.6,1.57,2.09,2.74,1.14,2.74-.63,0-1.65-1.04-1.65-1.68,0-.31-.51-1.06-1.17-1.7-.65-.63-1.17-1.29-1.17-1.46s-.53-.78-1.17-1.35c-.65-.57-1.17-1.15-1.17-1.29s-.18-.41-.39-.59c-.21-.18-.39-.54-.39-.81,0-.32-.19-.49-.52-.49-.38,0-.52-.17-.52-.65,0-.41-.15-.65-.4-.65-.22,0-.51-.26-.65-.59-.59-1.34-1.71-3.01-2.81-4.16-.64-.68-1.3-1.46-1.45-1.73-.51-.88-2.11-2.88-2.31-2.89-.39-.02-.18.62.52,1.53,1.46,1.91,1.88,2.53,2.38,3.54.28.57.87,1.39,1.32,1.81.44.42.8.9.8,1.06s.41.77.91,1.36c.5.59.91,1.18.91,1.32s.19.41.42.6c.23.19.53.59.66.88.47,1.01.98,1.83,1.33,2.09.19.15.56.68.81,1.18.73,1.44,1.09,2.05,1.51,2.54.21.25.58.87.81,1.37.23.5.89,1.38,1.48,1.94.58.57,1.06,1.17,1.06,1.35s.29.67.65,1.09c.36.43.65.88.65,1.02s.28.51.63.83c.35.33.78.96.95,1.41.36.92.99,1.73,1.32,1.73.12,0,.22-.86.22-1.91ZM150,162.6c.46-.51,1.15-1.72,2.19-3.82.29-.59.68-1.14.87-1.21.18-.07.56-.59.84-1.14.28-.55.68-1.21.89-1.46.44-.52.94-1.36,1.32-2.21.15-.32.38-.59.52-.59.25,0,.53-.45,1.48-2.35.25-.5.63-1.12.84-1.37.43-.51.83-1.17,1.53-2.54.26-.5.61-1,.79-1.12.18-.11.57-.7.86-1.3.78-1.59,1.15-2.2,1.64-2.74.24-.26.43-.59.43-.74s.39-.72.86-1.28c.47-.56,1.21-1.71,1.63-2.54.42-.83.88-1.74,1.03-2.02.14-.28.35-.5.46-.5s.2-.22.2-.49.17-.56.38-.64c.21-.08.63-.65.93-1.27.74-1.51,1.14-2.2,1.59-2.75.21-.25.63-.99.95-1.64.31-.65.87-1.47,1.24-1.82.37-.35,1.02-1.37,1.45-2.26.43-.89.92-1.72,1.09-1.83.35-.23.84-.96,1.21-1.81.13-.31.36-.63.5-.72.14-.09.63-.92,1.1-1.85.47-.93.95-1.69,1.07-1.69s.22-.23.22-.52.12-.52.26-.52.26-.15.26-.33c0-.18.3-.6.65-.94.79-.75.57-1.33-.23-.61-.31.28-.76.61-1.01.74-.25.13-1.5,1.23-2.79,2.45-1.29,1.21-2.93,2.68-3.66,3.25-.73.57-2.42,2.13-3.77,3.45-1.35,1.33-2.54,2.41-2.65,2.41s-1.21.94-2.43,2.09c-1.23,1.15-3.11,2.91-4.18,3.9l-1.95,1.82h1.35c2.01.01,2.15,1.07.25,1.82-.5.2-.97.57-1.04.83-.08.32-.47.53-1.2.64-.59.09-1.14.27-1.21.4-.08.12-.8.23-1.61.23h-1.47l-2.61,2.61c-1.43,1.43-2.73,2.61-2.88,2.61-.37.01-1.19.64-1.19.92,0,.33-1.09,1.42-1.42,1.42-.16,0-1.34,1.06-2.62,2.35-1.28,1.29-2.45,2.35-2.59,2.35-.36,0-1.97,1.6-1.97,1.96,0,.16-.41.45-.91.65-.5.2-.91.52-.91.71s-.24.44-.53.54c-.29.11-1.51,1.16-2.7,2.34-1.2,1.18-2.3,2.14-2.46,2.14s-.35.11-.43.25c-.19.3,1.19,1.05,1.93,1.05.29,0,.91.22,1.39.48.47.27,1.44.57,2.16.67.71.1,1.69.32,2.17.49.77.27.92.24,1.24-.2.51-.7.47-.89-.28-1.23-1.2-.55-.84-1.27.53-1.08.76.1,1.41.04,1.82-.18.5-.27.71-.27,1.01-.02.21.18.77.28,1.25.24.73-.07.88,0,.95.52.17,1.17-1.31,1.94-1.59.83-.08-.29-.32-.52-.54-.52-.41,0-1.13,1.02-.76,1.07.11.02.38.05.6.07.27.02.39.33.39,1.01,0,.93,1.08,2.03,1.53,1.57.08-.08.56.11,1.07.42.52.3,1.28.55,1.69.55s.82.12.91.26c.28.45,1.59.29,2.08-.26ZM117.22,120.28c-.29-.74,1.36-1.62,1.78-.95.09.14.75.26,1.47.26,1.1,0,1.29.07,1.22.46-.12.62-4.23.83-4.46.23ZM111.02,129.6c-.37-.45-.34-1.86.05-2.34.13-.16.16-.36.06-.46-.09-.09.1-.47.44-.82l.61-.65h-.65c-.78,0-1.64.86-2.4,2.4-.4.8-.74,1.15-1.21,1.21-.36.05-.76.19-.9.33-.67.65-3.01.27-2.96-.48.14-2.06-.3-2.74-.96-1.48-.83,1.6-2.21,2.25-2.21,1.04,0-.35.12-.71.26-.8.14-.09.5-.65.78-1.25.29-.6.83-1.48,1.22-1.95l.69-.86-.58-.15c-1.04-.27-.55-.97.71-1,1.25-.03,1.63.38,1.12,1.21-.4.64-.38.72.15.7.99-.04,1.89.54,1.89,1.22,0,.41-.15.66-.39.66-.45,0-1.48,1.54-1.26,1.88.41.66,2.96-1.28,2.97-2.26,0-.29.3-.81.65-1.15.36-.34.65-.77.65-.96s.15-.39.33-.46c.26-.09.26-.23,0-.67-.48-.81-.4-1.08.31-1.08.35,0,.71-.12.81-.28.23-.38,1.16.48,1.16,1.07,0,.25-.18.59-.39.77-.5.41-.27.78.48.78,1.39,0,1.69,2.06.53,3.58-.79,1.04-.63,1.46.24.64.33-.31.85-.57,1.14-.57.36,0,.6-.22.7-.65.09-.36.48-1.03.87-1.5.7-.83,1.36-1.88,1.36-2.15,0-.07-.24-.13-.52-.13-.49,0-.81-1.02-.33-1.05,3.47-.22,4,.05,2.75,1.39-.43.46-1.16,1.59-1.61,2.51-.45.92-1,1.87-1.22,2.11-.33.37-.34.48-.04.73.4.33,1.67-.17,2.26-.88.29-.34,1.56-.56,1.56-.27,0,.38-.65,1.45-.89,1.45-.16,0-.58.24-.94.52-.85.67-2.13.67-2.74,0-.59-.65-1.12-.65-1.95,0-.79.62-2.16.67-2.63.1ZM59.1,139.03c-.18-.48.42-.99.94-.79.22.08.48.03.57-.13.26-.42,2.49-.36,2.49.07,0,1.07-3.62,1.83-4,.84ZM70,140.39c-.29-.16-.7-.37-.91-.47-.76-.35-.47-1.17.39-1.12,2.58.15,3.71.93,2.3,1.58-.84.39-1.09.39-1.78,0ZM99.4,143.67c-.32-.85,2.16-1.68,2.65-.88.09.14.75.26,1.47.26,1.1,0,1.29.07,1.22.46-.13.68-5.08.83-5.34.17ZM69.09,148.3c0-1.7-.19-1.78-1.24-.55l-.9,1.05-1.99-.08-1.99-.08-.08-.94c-.08-.9.27-1.75,1.44-3.54.42-.65.42-.66-.07-.39-.28.15-.72.34-.97.42-.25.08-.56.41-.69.74-.57,1.45-2.8,3.48-3.41,3.11-.41-.25-.66-.27-.86-.07-.45.45-2.13.34-2.6-.18-.64-.71-.27-2.48.66-3.15.82-.59,1.88-3.1,1.51-3.55-.47-.57-.09-.92,1-.92.54,0,1.11-.14,1.28-.3.23-.23.34-.2.47.13.23.59-.98,2.99-1.97,3.94-.43.42-.79,1.02-.79,1.33s-.18.64-.39.72c-.7.27-.41.69.47.69,1.23,0,2.22-.54,2.51-1.37.14-.39.37-.72.51-.72.35,0,1.16-1.73.96-2.05-.09-.14-.04-.33.11-.42.15-.09.26-.49.26-.89,0-.85.71-1.59,1.52-1.59.64,0,.84,1.71.26,2.29-.23.23-.19.34.2.46,1.72.55,2.02,1,1.44,2.14-1.24,2.46-1.34,2.76-1.05,3.04.22.21.34.19.42-.04.07-.18.29-.33.51-.33,1.42,0,3.68-4.7,2.41-5.03-1.22-.32-.47-1.09,1.07-1.09s1.63.12,1.16,2.02c-.17.67-.13.72.66.72.62,0,.87.14.97.52.07.29.25.52.38.52.66,0,.06,1.44-.63,1.52-.65.08-.72,0-.72-.75,0-.71-.06-.78-.39-.51-.44.36-.53,1.97-.13,2.21.14.09.26.39.26.67s.18.51.39.51.39-.12.39-.26.28-.26.62-.26.77-.18.94-.39c.4-.48,1.3-.52,1.3-.05s-1.47,1.83-1.79,1.64c-.14-.09-.34-.04-.43.1-.09.15-.8.26-1.58.26h-1.42v-1.26ZM100.27,153c-.51-.57-.54-.92-.12-1.6.17-.28.23-.6.12-.7-.34-.34-1.08.32-1.17,1.05-.09.76-.94.95-1.82.4-.36-.22-.67-.17-1.44.26-.54.3-1.2.55-1.48.55-1.33,0-1.39-3.14-.07-3.99.48-.31.4-.7-.14-.7-.6,0-1.95,1.44-2.38,2.52-.33.84-1.31,1.33-1.91.96-.49-.3-1.69-.21-2.14.16-.36.3-.53.24-1.19-.39-.98-.94-.98-1.7,0-3.16.43-.64.78-1.26.78-1.39s.16-.33.35-.44c.5-.29,1.01-1.34.81-1.66-.26-.41.39-1.03,1.08-1.03,1,0,.87,1.69-.23,3.01-.47.56-1.02,1.38-1.23,1.81-.21.43-.54.99-.75,1.24-.35.42-.31.46.43.46.44,0,.88-.12.97-.26.09-.14.68-.5,1.31-.79.9-.41,1.27-.78,1.68-1.69.29-.64.63-1.17.76-1.17.39,0,.55-.8.26-1.34-.38-.7.12-1.27,1.1-1.27s1.15.5.5,1.67c-.65,1.15-.73,1.95-.16,1.47,1.3-1.08,2.76.34,1.8,1.76-1.48,2.2-1.43,3.77.07,2.11.27-.3,1.05-.83,1.73-1.18.68-.35,1.24-.78,1.24-.98s.29-.78.65-1.31c.86-1.27.83-1.41-.33-1.51-1.64-.14-1.28-.84.51-1,2.21-.2,2.51.14,1.62,1.86-.43.84-.31,1.31.21.79.85-.85,2.03-.37,2.03.82,0,.62-.07,1.2-.16,1.28-.25.25-.89-.09-.89-.49,0-.22-.28-.36-.7-.36-.55,0-.63.07-.39.31.17.17.31.73.31,1.25s-.14,1.08-.31,1.25c-.2.2-.22.4-.07.56.26.26,2.18-.88,3.07-1.85.45-.49.53-.5.91-.12.54.54-.51,1.69-2.4,2.63-1.55.77-2.27.82-2.86.17ZM81.01,166.34c.4-.11.59-.35.59-.78,0-.87.56-.77,1.12.2.35.62.54.75.77.52.17-.17.72-.3,1.23-.31.91,0,2.7-.51,3.05-.86.1-.1.56-.18,1.03-.18s.93-.12,1.01-.26c.09-.14.5-.26.91-.26s.82-.12.91-.26c.09-.15.48-.26.86-.26,1.31,0,3.3-.3,3.55-.54.14-.13.61-.24,1.04-.24.65,0,.86-.15,1.16-.85.2-.47.54-1.05.76-1.3.37-.42.32-.46-.67-.46-1.31,0-1.89-.21-1.89-.67,0-.6.93-.89,2.83-.89,1,0,1.9-.12,1.99-.26.25-.4,3-.33,3,.08,0,1.23-1.44,2.32-1.95,1.49-.31-.5-1.14-.25-1.68.5-.71,1-.68,1.33.13,1.33.37,0,.6-.11.51-.25-.32-.52.9-.86,1.56-.42.7.46,1.83.54,2.08.15.09-.14.5-.26.91-.26s.82-.12.91-.26c.09-.14.56-.26,1.04-.26s.95-.12,1.04-.26c.09-.14.73-.26,1.43-.26s1.34-.12,1.43-.26c.09-.14.54-.26.99-.26.46,0,1.3-.17,1.87-.38.57-.21,1.47-.38,2-.39.53,0,1.03-.13,1.12-.27.09-.14.56-.26,1.06-.26s.9-.12.9-.26.4-.26.9-.26.97-.12,1.06-.26c.09-.14.62-.26,1.17-.26s1.09-.13,1.18-.28c.09-.15.35-.21.57-.12.44.17,1.89-.38,1.89-.71,0-.11-.27-.31-.6-.43-.33-.13-.75-.42-.94-.65-.19-.23-.49-.42-.68-.42s-.39-.23-.46-.51c-.07-.28-.58-.72-1.12-.98-.54-.26-1.45-.96-2.01-1.57-.56-.61-1.16-1.11-1.33-1.11s-.65-.36-1.07-.81c-.42-.44-1.03-.91-1.35-1.04-.32-.13-.59-.41-.59-.63s-.17-.4-.37-.4-.7-.39-1.11-.86c-.4-.48-1.32-1.2-2.04-1.6-.72-.41-2.02-1.48-2.9-2.39-.88-.91-1.68-1.65-1.79-1.65-.2,0-1.32-.87-3.11-2.42l-1.14-.99-.97.54c-1.55.87-3.2.65-3.84-.52-.32-.58-.4-.94-.22-1,.16-.05.29-.49.29-.97s.12-.95.28-1.05c.34-.21-.45-1.16-.97-1.16-.19,0-.35-.15-.35-.33s-.38-.56-.84-.83c-.46-.27-1.31-.92-1.89-1.45-.58-.52-1.25-1.02-1.5-1.11-.25-.09-.46-.35-.46-.57s-.16-.4-.35-.4-.62-.29-.96-.65c-.34-.36-.72-.65-.86-.65s-1.22-.88-2.4-1.95c-1.18-1.07-2.35-1.95-2.59-1.95-.58,0-.41-.88.19-.99.55-.11,2.01.5,2.01.83,0,.31,1.76,1.89,2.67,2.38.39.22.72.57.72.78s.47.59,1.04.84c.57.25,1.04.59,1.04.76s.41.46.91.64c.5.18.91.49.91.68s.2.43.46.54c1.02.44,2.15,1.24,2.15,1.53,0,.17.34.55.76.85.79.56,1.85.72,1.85.28,0-.38,2.55-1.6,3.55-1.69,1.03-.1,2.49,1.93,1.89,2.64-.55.67-1.75.44-1.84-.34-.12-.99-.55-1.01-1.62-.07-1.51,1.32-.84,2.07,1.85,2.07,1.46,0,2.07.8.86,1.12-.29.07-.52.33-.52.58s.23.5.52.58c.29.08.52.3.52.5s.13.36.3.36.8.44,1.42.98c2.25,1.96,2.84,2.41,3.17,2.41.18,0,.33.18.33.39s.09.39.2.39.9.71,1.76,1.57c.86.86,1.97,1.77,2.48,2.01.5.25,1.52,1.02,2.26,1.72,1.31,1.24,1.95,1.7,3.15,2.24.32.15.59.44.59.66s.14.4.31.4c.43,0,1.52,1.06,1.52,1.48,0,.19.19.35.42.35s1.12.65,1.97,1.43c1.84,1.71,2.56,1.86,2.56.54,0-.49.12-.97.26-1.06.14-.09.26-.62.26-1.17s.12-1.08.26-1.17c.14-.09.26-.85.26-1.69s.13-1.61.29-1.71c.18-.11.24-.66.17-1.41-.07-.74,0-1.4.2-1.67.18-.24.26-.84.2-1.34-.07-.55-.01-.9.16-.9s.28-.61.28-1.55c0-.85.12-1.62.26-1.71.14-.09.26-.85.26-1.69s.12-1.61.26-1.69c.14-.09.26-.85.26-1.69s.12-1.61.26-1.7c.15-.09.19-.28.1-.42-.36-.58-1.15.63-1.15,1.77v1.13h-2.18c-3.1,0-3.86-1.1-1.08-1.56.43-.07.89-.37,1.04-.67.15-.3.47-.75.73-1,.25-.25.38-.57.3-.72-.09-.14.07-.51.36-.83.98-1.07.98-1.69,0-1.79-1.41-.14-1.11-.84.44-1.02,2.2-.25,2.48-.43,2.48-1.56,0-.55.12-1.07.26-1.16.14-.09.26-.85.26-1.69s.12-1.61.26-1.69c.14-.09.26-.85.26-1.69s.11-1.6.24-1.68c.13-.08.18-.54.1-1.03-.08-.51-.02-.95.15-1.05.16-.1.29-.87.29-1.73v-1.55h-2.72c-1.53,0-2.79.11-2.88.26-.1.16-2.86.26-7.43.26s-7.33.1-7.43.26c-.09.14-.94.26-1.9.26-1.72,0-1.75.01-2.99,1.24l-1.26,1.24h-3.31c-2.76,0-3.31-.06-3.31-.39,0-.21.23-.42.52-.47,1.05-.17,2.99-1.13,2.92-1.46-.05-.23-8.71-.24-9.07-.01-.1.07-4.02.13-8.71.15-5.58.02-8.73.13-9.14.32-.65.3-.83.68-.32.68.16,0,.86.5,1.56,1.11.69.61,1.88,1.61,2.63,2.22.76.61,1.82,1.48,2.35,1.92.96.79,1.31,1.79.63,1.79-.19,0-.62-.29-.96-.65-.34-.36-.74-.65-.91-.65s-.63-.35-1.05-.78c-.41-.43-.88-.78-1.04-.78s-.75-.48-1.32-1.06c-.57-.58-1.44-1.25-1.94-1.49-.5-.24-1.17-.73-1.48-1.09-.31-.36-.66-.57-.77-.46-.11.11-.06.34.11.51.18.18.31,1.06.31,2.06s.12,1.83.26,1.92c.14.09.26.85.26,1.69s.12,1.61.26,1.69c.14.09.26.84.26,1.67s.08,1.59.19,1.69c.1.1.19.74.2,1.41,0,.67.12,1.39.25,1.59.13.2.21.98.18,1.74-.03.75.07,1.44.22,1.54.15.09.27.74.27,1.44s.12,1.34.26,1.43c.14.09.26.45.26.8,0,.57.11.64,1.05.64.58,0,1.25.11,1.5.24.25.13.65.3.89.37.24.07.63.58.87,1.13.24.55.54,1.19.67,1.44.14.27.13.5-.02.6-.14.09-.26.42-.26.75,0,.72-1.14,1.85-2.65,2.62-.68.35-1.09.72-1.04.95.05.2.15,1.29.23,2.4.08,1.12.24,2.09.37,2.17.12.08.22.94.22,1.93s.12,1.87.26,1.95c.14.09.26.78.26,1.53s.11,1.48.24,1.61c.13.14.3,1.01.36,1.94.07.93.19,2.49.27,3.45.11,1.34.07,1.76-.19,1.76-.59,0-1.27-2.97-1.64-7.17-.08-.86-.26-1.64-.42-1.74-.2-.12-.18-.3.06-.59.23-.27.24-.41.05-.41-.18,0-.29-.51-.29-1.29,0-.71-.12-1.36-.27-1.46-.19-.12-.19-.28.01-.51.2-.24.2-.4.01-.51-.15-.09-.27-.73-.27-1.41s-.09-1.33-.19-1.44c-.11-.11-.19-.74-.2-1.41,0-1.1-.07-1.23-.65-1.31-.36-.05-.77-.18-.91-.28-.14-.1-.91-.16-1.69-.13-.79.03-1.57-.06-1.74-.2-.52-.43-.08-1,.79-1,2.16,0,4.09-3.43,2.73-4.87-.44-.47-.5-.68-.26-.92.38-.38.41-2.2.05-2.42-.14-.09-.26-1.09-.26-2.21s-.11-2.12-.24-2.2c-.13-.08-.32-1.5-.42-3.15-.1-1.65-.29-3.07-.42-3.14-.13-.08-.23-.83-.23-1.67s-.12-1.61-.26-1.69c-.14-.09-.26-.62-.26-1.17s-.12-1.08-.26-1.17c-.14-.09-.26-.73-.26-1.42,0-.8-.14-1.37-.39-1.58-.32-.26-.39-.25-.39.04,0,.2-.82,1.18-1.82,2.17-1,1-1.82,1.94-1.82,2.1s-.23.51-.52.76c-.29.26-.52.6-.52.76,0,.16-.41.68-.91,1.17-.5.49-.91.99-.91,1.12s-.49.73-1.1,1.33c-1,1-2.81,3.19-2.81,3.4,0,.05-.7.84-1.56,1.76-1.28,1.37-1.56,1.83-1.56,2.56,0,.95-.61,1.85-1.26,1.85-.43,0-1.61.99-1.61,1.35,0,.12.45.21,1,.21,1.79,0,2.2.87.71,1.53-.83.37-1.19.68-1.19,1.04,0,.47-.78.89-1.74.94-.17,0-.39.1-.5.21-.11.11-.65.19-1.2.19-.72,0-1.15.17-1.52.59-.28.32-1.59,1.78-2.92,3.24-2.76,3.03-3.85,4.36-3.85,4.69,0,.13-.82,1.05-1.82,2.04-1,1-1.83,1.93-1.83,2.08,0,.15-.47.73-1.04,1.29-.57.56-1.04,1.18-1.04,1.37s-.23.49-.52.67c-.7.44-.66.72.12.72.35,0,.71.12.8.26.09.14.62.26,1.17.26s1.08.12,1.17.26c.09.14.56.26,1.04.26s.95.12,1.04.26c.09.14.5.26.91.26s.82.1.89.23c.08.13,1.02.31,2.1.41,1.08.1,2.02.29,2.1.42.08.13.49.24.9.24s.82.12.91.26c.09.14.44.26.78.26s.69.12.78.26c.09.14.62.26,1.17.26s1.08.12,1.17.26c.37.61,1.39.22,2.42-.91l1.07-1.17h-1.18c-.98,0-1.16-.08-1.09-.46.08-.39.45-.47,2.68-.53,1.49-.04,2.74-.21,2.96-.38.68-.57,1.43.93.78,1.58-.38.38-1.25.42-1.25.05,0-1.19-1.57.06-1.96,1.56l-.17.65.43-.59c.84-1.15,2.49-.44,1.74.75-.46.73-.37,1.01.33,1.01.35,0,.71.12.8.26.09.14.48.26.88.26s.83.11.96.24c.14.13,1.13.37,2.2.53,3.2.48,3.65.58,3.8.82.08.13.6.23,1.16.23s1.08.12,1.17.26c.09.14.56.26,1.04.26s.95.12,1.04.26c.09.14.5.26.91.26s.82.12.91.26c.18.29,1.5.34,2.41.1ZM116.78,171.32c0-.07-.06-.13-.13-.13s-.13.06-.13.13.06.13.13.13.13-.06.13-.13ZM116.17,171.8c-.09-.1-.25-.1-.35,0-.1.1-.02.17.17.17s.27-.08.17-.17ZM115.47,172.5c0-.14-.12-.26-.26-.26s-.26.12-.26.26.12.26.26.26.26-.12.26-.26ZM114.82,173.28c.09-.14.1-.26.03-.26s-.2.12-.29.26c-.09.14-.1.26-.03.26s.2-.12.29-.26ZM115.45,176.08c.31-.81-.11-1.18-.71-.63-.27.24-.64.44-.82.44-.27,0-.27.08-.01.39.48.58,1.29.48,1.54-.2ZM89.94,180.52c.74-1,.74-1.55.01-2.33-.48-.51-.54-.53-.54-.11,0,.26-.25.92-.56,1.47-.47.83-.5,1.07-.23,1.4.47.56.61.52,1.32-.44ZM87.59,181.75c.19-.22.21-.39.06-.39-.14,0-.33.18-.41.39-.08.22-.11.39-.06.39s.24-.18.42-.39ZM77.04,186.83c-.26-.29-.61-.52-.79-.52s-.47-.19-.66-.42c-.19-.23-1.12-.92-2.06-1.54-.94-.62-1.87-1.31-2.06-1.54-.19-.23-.49-.42-.66-.42s-.65-.4-1.06-.9c-.41-.49-1.01-.96-1.34-1.05-.33-.08-.72-.38-.87-.67-.15-.29-.43-.52-.63-.52s-.5-.18-.69-.4c-.18-.22-.81-.62-1.4-.89-.59-.27-1.41-.85-1.83-1.29-.42-.44-.9-.8-1.06-.8s-.57-.29-.91-.65c-.34-.36-.72-.65-.85-.65s-.48-.3-.77-.67c-.29-.37-.78-.78-1.08-.92-1.13-.52-1.81-.98-2.86-1.97-.59-.55-1.49-1.23-1.99-1.5-.5-.27-1.03-.63-1.18-.81-.4-.49-2.7-2.21-2.95-2.21-.12,0-.44-.24-.71-.54-.27-.3-.96-.76-1.54-1.02-.58-.26-1.34-.79-1.7-1.17s-1.06-.88-1.56-1.12c-.5-.24-1.12-.61-1.37-.83-.26-.22-.7-.61-1-.87-.45-.39-2.22-1.49-2.41-1.49-.03,0-.06.85-.06,1.89,0,2.13.17,2.43,1.89,3.32.61.32,1.17.68,1.25.81.08.13.64.46,1.24.73.6.28,1.32.74,1.59,1.04.27.3.65.54.84.54s.35.11.35.25.51.49,1.13.77c.62.28,1.28.7,1.46.92.18.22.48.4.66.4s.48.19.67.42c.19.23.59.52.88.65.56.25,1.49.8,1.71,1.02.22.22,1.14.77,1.7,1.02.29.13.69.42.88.65.19.23.49.42.66.42s.6.3.94.67c.34.37,1.15.9,1.8,1.18.65.29,1.41.74,1.7,1.01.29.27.84.57,1.22.66.38.1.9.4,1.15.67.25.27.59.5.76.5s.52.24.78.52c.26.29.62.52.79.52s.39.18.47.39c.08.22.43.39.76.39s.9.31,1.25.68c.35.37.87.79,1.15.92.91.43,1.67.91,2.2,1.38.28.25.61.39.74.31.13-.08.58.18.99.58.42.4,1.17.93,1.67,1.17.5.25,1.26.67,1.69.94,1.09.68,1.66.69,1.04,0ZM78.88,188.26c-.6-.65-1.2-.86-1.2-.42,0,.28,1.06,1.04,1.49,1.06.17,0,.04-.28-.29-.64ZM81.08,189.95c0-.14-.12-.26-.28-.26s-.2.12-.12.26c.09.14.21.26.28.26s.11-.12.11-.26ZM82.05,190.58c-.09-.09-.31-.1-.5-.02-.21.08-.15.14.16.16.27.01.43-.05.34-.14ZM99.28,194.65c.52-.43,1.13-.93,1.35-1.11.22-.18,1.04-.65,1.82-1.05,2.04-1.03,3.37-1.85,4.04-2.5.32-.31.69-.56.82-.56s.58-.35.99-.78c.41-.43.97-.78,1.23-.78.6,0,2.02-.72,2.02-1.02,0-.12.28-.3.63-.38.35-.09,1.01-.48,1.48-.87.47-.39,1.28-.95,1.81-1.24.53-.29,1.48-.8,2.11-1.15.63-.34,1.21-.73,1.3-.87.15-.24,1.42-.96,3.49-1.99.57-.29,1.33-.82,1.67-1.19.35-.37.83-.67,1.07-.67s.66-.24.93-.54c.27-.3.96-.77,1.54-1.06,1.9-.93,3.13-1.65,3.4-2,.29-.37.8-.67,2.99-1.78.79-.4,1.76-.99,2.17-1.33.4-.33.88-.6,1.06-.6s.61-.3.95-.66c.34-.37,1.1-.9,1.67-1.18,2.33-1.15,3.33-1.78,4.02-2.55.4-.45.96-.81,1.26-.81s.69-.19.88-.42c.19-.23.62-.52.94-.65,1.21-.46.16-1.23-2.14-1.56-.14-.02-.5-.17-.78-.32-.29-.16-.64-.3-.78-.31-.14-.02-.47-.12-.73-.24-.33-.15-.65-.04-1.09.37-.73.69-1.18.51-1.19-.47v-.7s-.38.65-.38.65c-.2.36-.38,1.04-.38,1.51v.86s-1.9-.08-1.9-.08c-2.16-.09-2.65-.6-1.18-1.22,2.38-1.01,2.38-2.46-.02-2.76-.67-.09-1.42-.27-1.67-.4-.25-.14-.74-.25-1.09-.25s-.71-.12-.8-.26c-.09-.14-.42-.26-.74-.26s-.7-.1-.83-.21c-1.38-1.2-2.92-.91-3.76.72-.26.51-1.13,1.57-1.94,2.35-.8.78-1.45,1.56-1.45,1.72s-.24.51-.52.77c-.29.26-.52.61-.52.78s-.88,1.16-1.97,2.21l-1.96,1.9.53.57c.65.69.67,1.12.1,1.75-.61.68-1.13.6-1.13-.18,0-.41-.15-.65-.39-.65-.21,0-.39.16-.39.35s-.29.62-.64.95c-.84.79-.69.96.82.9,1.39-.05,2.17.23,2.17.8,0,.49-.73.88-1.34.72-.34-.09-.48.01-.48.34,0,.54-.98,1.68-1.45,1.68-.17,0-.46.18-.64.39-.18.22-.58.39-.89.39s-.71.14-.89.32c-.25.25-.44.25-.87-.02-.55-.35-4.13,2.68-4.13,3.5,0,.16-.29.56-.65.9-.36.34-.65.73-.65.88s-1.06,1.34-2.35,2.66c-1.29,1.31-2.35,2.56-2.35,2.76s-.76,1.12-1.69,2.05c-.93.92-1.69,1.8-1.69,1.94s-.55.82-1.23,1.51c-1.36,1.38-1.08,1.69.41.47ZM92.54,196.07c0-.36-.1-.86-.23-1.11-1.01-2.02-1.34-2.78-1.34-3.2,0-.26-.12-.55-.26-.64-.14-.09-.26-.48-.27-.86,0-.39-.18-.99-.38-1.35-.2-.36-.38-.89-.39-1.17,0-.29-.24-.81-.52-1.17-.28-.36-.51-1.01-.52-1.46,0-1.38-1.37-1.91-3.52-1.39-.14.04-.44,0-.65-.1-.21-.09-.8-.2-1.3-.24-.71-.06-.91-.19-.91-.6,0-.46.14-.51,1.24-.43,1.01.07,1.27,0,1.41-.39.1-.26.56-.93,1.03-1.48l.85-1-.47-.84c-.26-.46-.55-1.33-.66-1.93-.1-.6-.29-1.15-.42-1.23-.13-.08-.24-.36-.24-.63,0-.42-.32-1.18-1.34-3.2-.13-.25-.23-.64-.23-.87,0-1.43-1.36-2.85-2.64-2.76-.38.03-.82-.11-.98-.31-.16-.2-.57-.3-.91-.24-.34.07-.7,0-.8-.17-.1-.16-.7-.29-1.33-.29s-1.16-.12-1.16-.26-.4-.26-.9-.26-.97-.12-1.06-.26c-.09-.14-.5-.26-.91-.26s-.82-.1-.89-.23c-.08-.13-.9-.31-1.84-.41-.93-.1-1.76-.29-1.84-.42-.08-.13-.6-.24-1.16-.24s-1.08-.12-1.17-.26c-.09-.14-.56-.26-1.04-.26s-.95-.12-1.04-.26c-.23-.37-1.79-.32-2.18.07-.26.26-.42.21-.78-.27-.3-.4-.6-.54-.9-.43-.56.22-.56.36.01.79.36.27.39.44.17.8-.33.54-4.77.55-5.11,0-.31-.51.34-.96,1.38-.96.85,0,1.06-.12,1.41-.78l.4-.78h-.77c-.42,0-.84-.12-.93-.26-.09-.14-.44-.26-.78-.26s-.69-.12-.78-.26c-.09-.14-.85-.26-1.69-.26s-1.6-.11-1.68-.25c-.08-.13-.68-.32-1.32-.42-.64-.1-1.23-.28-1.31-.41-.08-.13-.48-.23-.89-.23s-.82-.12-.91-.26c-.09-.14-.68-.26-1.32-.26s-1.16-.12-1.16-.26-.4-.26-.9-.26-.97-.12-1.06-.26c-.2-.32-1.43-.35-1.43-.03,0,.25,1.35,1.47,2.35,2.11.33.22.98.71,1.44,1.11.46.39.95.72,1.09.72s.46.24.72.52c.26.29.61.52.78.52s.58.29.92.65c.34.36.75.65.91.65s.61.32.98.72c.38.39,1.13.95,1.68,1.24.54.29,1.14.73,1.33.98s.49.46.67.46.67.36,1.09.8c.42.44,1.23,1.02,1.81,1.28.57.26,1.51.96,2.07,1.54.57.58,1.14,1.06,1.28,1.06s.77.44,1.41.98c1.27,1.07,2.26,1.75,3.06,2.12.29.13.81.54,1.15.92.35.37.77.68.93.68s.58.29.91.65c.34.36.74.65.89.65s.61.41,1.01.91c.4.5.88.91,1.07.91s.55.24.81.52c.26.29.61.52.78.52s.58.29.92.65c.34.36.75.65.91.65s.63.35,1.05.78c.41.43.88.78,1.05.78s.57.29.91.65c.34.36.77.65.95.65s.49.24.67.52c.18.29.47.52.66.52s.59.29.9.65c.31.36.7.65.87.65s.53.25.8.56c.27.31.97.77,1.54,1.03.57.26,1.41.86,1.86,1.35.45.48,1.49,1.28,2.3,1.77.81.49,2.14,1.51,2.96,2.26,1.7,1.56,1.87,1.62,1.87.72ZM95.83,195.41c.33-.13.88-.67,1.23-1.22.35-.54.94-1.27,1.31-1.62.38-.35.68-.77.68-.95s.23-.38.52-.45c.28-.07.62-.41.76-.75.13-.34.66-1.02,1.18-1.51.51-.49.94-1.02.94-1.17s.49-.74,1.08-1.32c1.23-1.18,3.09-3.46,3.09-3.78,0-.12.82-1,1.82-1.97,1.23-1.19,1.82-1.96,1.82-2.37,0-.36.15-.61.38-.61.66,0,1.19-1.17,1.3-2.87.09-1.39.22-1.75.9-2.46.44-.45.8-.93.8-1.05,0-.55.92-1.18,1.72-1.18.47,0,.93-.12,1.02-.26.09-.14.4-.26.7-.26.92,0,4.39-3.8,4.39-4.81,0-.22.16-.4.36-.4s.55-.29.79-.65c.24-.36.6-.65.81-.65s.38-.15.38-.34.53-.85,1.17-1.49c.64-.63,1.17-1.28,1.17-1.44s.29-.56.64-.9c.35-.33.59-.69.53-.79-.15-.24-2.79,0-3.09.27-.13.11-.61.15-1.07.07-.49-.08-.92-.01-1.03.15-.1.16-.58.29-1.07.29s-.9.12-.9.26-.41.26-.91.26-.91.12-.91.26-.4.26-.9.26-.97.12-1.06.26c-.09.14-.5.26-.91.26s-.81.1-.89.22c-.08.12-.73.17-1.45.1-.87-.08-1.31-.03-1.31.17,0,.16-.4.29-.9.29s-.97.12-1.06.26c-.09.14-.62.26-1.17.26s-1.08.12-1.17.26c-.09.14-.62.26-1.17.26s-1.08.12-1.17.26c-.09.14-.5.26-.91.26-.86,0-2.35.77-2.35,1.22,0,.38-1.25,1.39-1.73,1.39-.24,0-.36-.32-.36-.96v-.96l-.78.75c-.87.83-1,1.23-.36,1.12.63-.12,1.06.69.64,1.2-.51.61-4.76.59-5.26-.02-.28-.34-.29-.46-.03-.54.18-.06.48-.26.67-.45.19-.19.63-.28.99-.22.4.08.78-.03.99-.29.3-.36.22-.41-.73-.41-.59,0-1.07.11-1.07.23,0,.25-1.72.57-3.05.56-.46,0-.9.11-.99.25-.09.14-.68.26-1.32.26s-1.16.12-1.16.26-.4.26-.9.26-.97.12-1.06.26c-.09.14-.39.26-.68.26-1.61,0-2.06,1.29-1.11,3.18.19.39.35,1,.35,1.35s.12.72.26.81c.14.09.26.39.26.66s.23.88.52,1.35c.29.47.52,1.06.52,1.31,0,.37.24.46,1.29.46.71,0,1.36.12,1.45.26.09.14.5.26.92.26.82,0,2.39,2.38,1.81,2.74-.14.09-.26.41-.26.71,0,.8-.58,2.28-.9,2.29-1.52.03-1.56,1.95-.09,4.63.26.47.47,1.08.47,1.35s.11.57.25.65c.14.08.19.31.11.51-.08.2-.01.43.14.53.15.09.28.45.28.79s.09.68.21.75c.11.07.37.73.57,1.46.2.73.46,1.39.57,1.47.11.07.21.36.21.65s.19.88.42,1.33l.42.81.41-.84c.22-.46.68-.94,1.01-1.07ZM92.87,198.8c-.08-.32-.28-.48-.5-.4-.43.17-2.04-.69-3.01-1.6-.7-.66-1.42-1.13-2.44-1.6-.29-.13-.69-.43-.88-.66-.19-.23-.57-.42-.85-.42-.45,0-1.48-.66-3.64-2.33-.38-.3-.81-.54-.94-.54s-.4-.18-.58-.39c-.18-.21-.6-.39-.93-.39s-.7-.15-.82-.33c-.26-.41-1.8-1.5-2.12-1.5-.13,0-.39-.18-.57-.4s-.81-.64-1.4-.93c-1.61-.79-3.13-1.64-3.29-1.85-.23-.3-2.09-1.51-2.32-1.51-.12,0-.37-.18-.55-.4-.18-.22-.84-.63-1.45-.91s-1.21-.66-1.33-.83c-.23-.36-.95-.85-1.78-1.21-.29-.13-.68-.41-.86-.63-.18-.22-.66-.47-1.07-.56-.4-.09-.94-.39-1.19-.67-.25-.28-.57-.51-.71-.51s-.84-.5-1.57-1.1c-1.27-1.06-2.2-1.63-4.57-2.8-.62-.3-1.19-.72-1.27-.93-.08-.21-.37-.38-.64-.38s-.49-.11-.49-.25-.44-.45-.98-.69c-.54-.25-1.18-.62-1.44-.84-.52-.44-1.35-.94-2.22-1.33-.33-.15-.66-.44-.74-.66-.08-.22-.36-.39-.62-.39s-.51-.09-.56-.2c-.05-.11-.5-.41-1-.66-1.43-.73-2.04-1.11-2.56-1.58-.26-.24-.61-.43-.78-.43s-.31-.11-.31-.24-.36-.32-.8-.42c-.44-.1-.87-.37-.96-.61-.09-.24-.55-.91-1.02-1.5-.48-.59-.87-1.19-.87-1.33s-.24-.47-.52-.73c-.29-.26-.52-.61-.52-.79s-.19-.47-.42-.67c-.23-.19-.53-.59-.66-.88-.41-.89-.84-1.55-1.72-2.67-.47-.59-.85-1.17-.85-1.31s-.35-.58-.78-.99c-.43-.41-.78-.88-.78-1.04s-.36-.64-.79-1.05c-.44-.42-1.04-1.26-1.35-1.87-.31-.61-.65-1.11-.77-1.11s-.21-.15-.21-.35-.3-.63-.67-.97c-.37-.34-.9-1.1-1.18-1.67-.68-1.39-1.12-2.12-1.59-2.68-.22-.25-.47-.66-.55-.91-.09-.25-.28-.46-.43-.46s-.27-.16-.27-.35-.24-.56-.52-.82c-.29-.26-.52-.61-.52-.78s-.24-.52-.52-.78c-.29-.26-.52-.61-.52-.78s-.23-.52-.51-.77c-.28-.25-.76-.94-1.07-1.53-.31-.59-.84-1.41-1.19-1.82-.35-.41-.85-1.24-1.12-1.83-.27-.59-.81-1.37-1.19-1.73-.38-.36-.92-1.15-1.2-1.76-.28-.61-.62-1.11-.76-1.11s-.25-.16-.25-.35-.35-.72-.78-1.17c-.43-.45-.78-.88-.78-.95s-.39-.69-.87-1.37c-.48-.68-.92-1.35-.98-1.5-.32-.75-1.36-2.21-1.56-2.21-.13,0-.23-.11-.23-.25,0-.33-1.44-2.45-1.95-2.87-.22-.18-.4-.58-.4-.88s-.52-1.08-1.15-1.73c-1.18-1.21-1.91-2.28-2.7-3.97-.25-.53-.66-1.02-.91-1.08-.72-.19-.62-1.8.13-2.13.32-.14.7-.49.85-.78.15-.29.51-.88.81-1.3.3-.43.73-1.19.96-1.7.23-.51.67-1.14.96-1.41.29-.27.53-.62.53-.79s.23-.52.52-.78c.29-.26.52-.59.52-.73s.64-.99,1.43-1.89c.79-.9,1.43-1.71,1.43-1.8,0-.58,1.15-2.5,1.96-3.27.53-.5,1.17-1.33,1.43-1.84.26-.51.67-1.09.9-1.28.23-.19.65-.85.93-1.46.28-.61.62-1.18.76-1.27.14-.09.69-.83,1.23-1.64.54-.82,1.12-1.58,1.31-1.69.18-.11.57-.72.85-1.35.29-.63.64-1.22.78-1.3.14-.09.45-.59.7-1.12.25-.53,1.04-1.66,1.76-2.51,1.37-1.61,1.61-1.96,2.46-3.67.28-.57.88-1.39,1.32-1.81.44-.42.8-.9.8-1.06s.35-.63.78-1.04c.43-.41.78-.9.78-1.09s.38-.78.85-1.32c.92-1.06,1.37-1.73,1.73-2.55.13-.29.42-.69.65-.88.23-.19.42-.49.42-.67s.25-.54.55-.82c.3-.27.76-.91,1.02-1.41.26-.5.83-1.26,1.27-1.68.44-.42.81-.9.81-1.06s.3-.58.66-.92c.37-.34,1.05-1.45,1.53-2.46.94-1.99,1.98-3.16,2.6-2.92.44.17,1.76-.42,2.25-1,.18-.21.44-.39.58-.39s.6-.29,1.03-.65c.43-.36.92-.65,1.1-.65s.67-.36,1.09-.8c.42-.44,1.24-1.02,1.83-1.29.59-.27,1.22-.67,1.4-.89.18-.22.48-.4.66-.4s.48-.19.68-.42c.19-.23.96-.7,1.71-1.04.75-.34,1.44-.75,1.53-.9.09-.15.42-.39.73-.53.76-.35,1.44-.76,2.52-1.54,1.17-.84,1.74-1.18,2.86-1.73.5-.25,1.29-.77,1.76-1.18.47-.4,1.14-.8,1.5-.89.36-.09.65-.24.65-.33,0-.09.63-.45,1.39-.8.77-.35,1.5-.88,1.63-1.17.13-.31.53-.57.93-.62.38-.04.9-.31,1.15-.59.25-.28.6-.51.76-.51s.57-.29.9-.64c.33-.35,1.2-.95,1.93-1.33,2-1.03,2.46-1.3,2.96-1.75.25-.22,1.09-.74,1.86-1.15,1.95-1.04,2.3-1.25,2.85-1.75.26-.24.56-.43.67-.43s.58-.29,1.05-.65c.47-.36.98-.65,1.12-.65s.42-.19.62-.42c.19-.23.59-.53.88-.66,1.03-.47,1.75-.95,2.44-1.61.38-.37,1.24-.91,1.9-1.2.66-.29,1.35-.71,1.53-.93.18-.22.42-.39.54-.39s.66-.3,1.21-.68c.54-.37,1.25-.78,1.58-.91.32-.13.59-.39.59-.59,0-1.14,1.29-1.45,2.27-.54.4.37,1.37,1.01,2.16,1.4.79.4,1.66.97,1.93,1.28.27.3.63.55.8.55s.57.29.9.64c.33.35,1.2.95,1.93,1.33,2.03,1.05,2.46,1.31,2.98,1.78.26.24.56.43.66.43.17,0,1.67.99,1.99,1.3.32.32,2.28,1.56,2.93,1.85.39.18.72.47.72.65s.32.37.72.41c.39.05.66.16.59.25-.22.28.83,1.26,1.34,1.26.26,0,.74.26,1.06.59.66.67,1.19,1.01,2.68,1.74.57.28,1.39.88,1.82,1.33.43.45,1.19.99,1.69,1.2,1.14.48,2.76,1.56,3.78,2.52.43.41,1.19.93,1.69,1.16,1.14.53,2.41,1.39,2.68,1.82.12.18.32.33.46.33s.83.41,1.55.91c.71.5,1.38.91,1.48.91s.51.31.9.69c.75.72,1.61,1.28,2.38,1.56.25.09.46.27.46.4s.22.23.49.23.56.17.64.38c.08.21.59.57,1.14.8.54.23,1.28.68,1.64,1,.36.32,1.1.81,1.64,1.09.55.28,1.53.95,2.18,1.49.65.54,1.5,1.05,1.87,1.14,1.15.27,2.64,1.12,2.64,1.5,0,.19.19.51.42.7.4.33,1,1.5.94,1.83-.02.09.32.49.74.9.42.4.77.87.77,1.03s.38.76.85,1.32c.47.56,1.03,1.38,1.24,1.81.21.43.77,1.34,1.23,2.02.47.68.85,1.35.85,1.5s.12.26.26.26.26.16.26.36.19.51.42.71c.23.19.53.59.66.88.38.83.88,1.66,1.31,2.16.21.25.7,1.13,1.08,1.96.38.82.81,1.5.96,1.5s.26.16.26.35.23.56.52.82c.29.26.52.61.52.78s.25.53.55.81c.3.27.66.73.79,1.02.37.81.81,1.49,1.59,2.5.39.51.72,1.05.72,1.19s.23.47.51.72c.28.25.58.78.66,1.18.09.39.5,1.05.93,1.45.42.4.77.88.77,1.06s.29.55.65.84c.36.28.65.7.65.93s.09.42.2.42.41.44.67.98c.96,2.01,1.66,3.16,2.47,4.08.46.52.84,1.1.84,1.29s.3.62.66.95c.36.34,1.08,1.5,1.6,2.59.52,1.08,1.1,2.06,1.3,2.18.2.12.64.76.98,1.43.34.67.98,1.56,1.42,1.98.44.41.87,1.09.96,1.5.09.41.26.75.37.75s.28.21.37.46c.09.25.24.62.32.82.13.27,0,.33-.53.23-.66-.13-.67-.11-.25.35.24.27.63.49.87.49,1.62,0,2.24,1.1,1.18,2.08-.36.34-.65.89-.65,1.22s-.11.61-.24.61c-.24,0-1.14,1.35-1.84,2.76-.22.44-.57,1.01-.78,1.27-.41.5-.63.84-1.48,2.39-.31.56-.87,1.3-1.24,1.64-.37.35-.68.73-.68.86,0,.45-1.02,2.47-1.42,2.8-.22.18-.4.47-.4.63s-.24.45-.53.63-.47.43-.39.55c.08.12-.04.37-.25.55-.41.34-1.95,3.39-1.95,3.86,0,.15-.24.35-.52.44-.29.09-.52.33-.52.54s-.12.37-.26.37-.26.16-.26.35-.22.55-.49.8c-.27.25-.44.65-.38.9.07.25-.12.67-.42.94-.3.27-.54.63-.54.8s-.24.52-.52.78c-.29.26-.52.58-.52.72s-.29.48-.65.76-.65.78-.65,1.11-.18.75-.39.93c-.22.18-.62.84-.9,1.46-.28.63-.62,1.14-.75,1.14-.28,0-1.14,1.32-2.12,3.29-.37.73-.84,1.54-1.04,1.79-.48.58-.99,1.44-1.21,2.03-.09.25-.27.46-.4.46s-.23.14-.23.31-.2.52-.43.78c-.45.5-.77,1.02-1.56,2.56-.26.5-.82,1.26-1.26,1.68-.43.42-.75.78-.7.78.17.02-.45,1.4-.71,1.56-.15.09-.51.66-.8,1.26-.73,1.51-1.66,3.15-1.88,3.32-.3.23-1.51,2.09-1.51,2.32,0,.12-.19.37-.42.56-.23.19-.52.61-.64.92-.12.32-.5.73-.85.92-.35.19-1.22.67-1.95,1.06-.73.39-1.48.94-1.68,1.22-.2.28-.67.59-1.05.68-.38.1-.83.34-1,.54-.17.2-.73.57-1.25.81-.52.24-1.29.72-1.72,1.06-1.12.9-3.58,2.4-3.92,2.4-.16,0-.51.24-.77.52-.26.29-.61.52-.79.52s-.47.18-.65.4c-.18.22-.96.7-1.72,1.06-.76.36-1.45.77-1.54.9-.08.14-.64.49-1.24.78-1.58.78-2.2,1.15-2.74,1.63-.26.24-.61.43-.78.43s-.31.1-.31.23-.21.3-.46.39c-.61.22-1.52.76-2.08,1.24-.25.21-.9.59-1.44.84-.54.25-.98.56-.98.69s-.14.25-.31.25-.52.2-.78.43c-.56.51-1.25.92-2.7,1.63-.58.28-1.33.81-1.67,1.18-.34.37-.76.66-.93.66s-.65.26-1.05.59c-.72.56-1.08.78-3.96,2.34-.72.39-1.35.8-1.4.91-.05.11-.5.41-1,.67-2.35,1.21-3.22,1.74-3.88,2.37-.39.37-.84.68-1,.68s-.62.26-1.03.59c-1.02.81-1.6,1.17-2.87,1.77-.6.29-1.16.62-1.23.75-.08.12-.76.54-1.51.93-.75.39-1.56.87-1.78,1.07-.62.55-1.57.45-1.73-.17Z"/>
  </g>
</svg>