<?xml version="1.0" encoding="UTF-8"?>
<svg id="Layer_2" data-name="Layer 2" xmlns="http://www.w3.org/2000/svg" viewBox="0 0 179.05 189.7">
  <g id="Layer_1-2" data-name="Layer 1">
    <path d="M94.85,7.1c1.41-1.48,1.63-1.82,1.4-2.25-.24-.46-.39-.37-1.78,1-1.36,1.34-1.99,2.48-1.61,2.86.22.23.26.2,1.99-1.61ZM85.5,10.54c-.28-.21-.83-.38-1.22-.38-.87,0-1.15-.37-.7-.93,1.01-1.26,3.28-3.5,3.54-3.5.17,0,.5-.32.75-.72.25-.39.73-1.03,1.09-1.42.89-.97.34-1.88-.6-1-.31.29-.68.53-.83.53s-.54.29-.88.65c-.75.8-1.16.82-1.66.1-1.44-2.06,3.14-3.89,5.59-2.24,2,1.34,1.11,3.66-1.95,5.12-2.15,1.03-2.65,1.56-2.1,2.25.29.36.44.41.54.18.07-.18.25-.33.39-.33,1.37,0,3.87-1.95,3.87-3.01,0-.17.63-.95,1.41-1.75.77-.79,1.49-1.69,1.58-1.99.09-.3.32-.55.51-.55s.55-.23.81-.52c.26-.29.74-.52,1.07-.52s.67-.12.76-.26c.2-.33,1.04-.34,1.63-.02.25.13.66.3.91.38.66.2.62,2.01-.05,2.62-.83.76-1.68.31-1.5-.79.17-1.05-.47-1.24-1.26-.36-.26.29-.64.52-.84.52s-.32.15-.26.33c.06.18.3.33.54.33,1.12,0,2.1,2.32,1.22,2.86-.14.09-.26.43-.26.76s-.24.81-.52,1.07c-.29.26-.52.6-.53.76-.02,1.14-4.29,1.93-5.3.97-.62-.59-1.21-.73-1.21-.29,0,.14-.19.26-.42.26s-.65.29-.93.65c-.6.76-2.34.9-3.2.25ZM116.89,39.27c-8.57-8.61-10.65-11.01-10.08-11.58.29-.29,5.64,5.04,5.64,5.62,0,.17.26.4.59.53.32.12,1.29,1,2.15,1.95.86.95,2.24,2.44,3.06,3.32.82.88,1.5,1.76,1.5,1.95,0,.77-.82.26-2.86-1.8ZM132.98,56.07c-1.25-1.24-2.28-2.4-2.28-2.56,0-.16-.41-.54-.91-.84-.5-.3-.91-.69-.91-.89s-1.82-2.16-4.04-4.37c-2.82-2.81-4.04-4.2-4.04-4.61,0-.81.27-.74,1.3.33.49.5,1.09.91,1.34.91.44,0,.83.39.9.91.08.63.45,1.43.65,1.43.31,0,2.06,1.79,2.06,2.1,0,.14.41.5.9.79.5.29.97.76,1.06,1.03.19.59,3.13,3.46,3.66,3.59.2.05.37.2.37.33s.71,1.01,1.57,1.94c1.45,1.56,1.74,2.23.95,2.19-.17,0-1.34-1.04-2.59-2.28ZM162.46,86.89c-.92-.95-1.71-1.83-1.76-1.97-.05-.13-.19-.24-.31-.24-.27,0-1.55-1.25-1.55-1.51,0-.1-1.47-1.65-3.26-3.44-1.79-1.79-3.26-3.35-3.26-3.48,0-.38-7.1-7.46-7.48-7.46-.19,0-.42-.2-.51-.46-.09-.25-1.2-1.52-2.47-2.83-1.27-1.31-2.31-2.48-2.31-2.62s-.41-.39-.91-.57c-.5-.18-.91-.45-.91-.6s-.35-.68-.79-1.17c-.85-.97-.82-1.39.11-1.39.61,0,1.72.98,1.72,1.52,0,.17.17.31.37.31s.45.24.54.52c.09.29.32.52.5.52s.44.23.57.5c.18.38,5.2,5.78,6.92,7.44.85.82,4.18,4.31,7.78,8.17.22.24.81.78,1.31,1.22.5.43,1.22,1.2,1.61,1.69.38.5,1.06,1.14,1.49,1.43.44.29.87.76.96,1.04.09.29.61.99,1.16,1.56,2.01,2.12,2.67,3.02,2.4,3.28-.17.17-.82-.32-1.93-1.46ZM167.7,92.61c0-.23-.65-1.09-1.43-1.91-1.45-1.52-1.74-2.11-1.05-2.11.53,0,4.05,3.63,4.05,4.17,0,.14-.35.26-.78.26-.54,0-.78-.13-.78-.41ZM169.85,94.93c-.36-.14-.46-1.65-.11-1.65.32,0,1.35,1.16,1.35,1.52,0,.31-.63.38-1.24.14ZM172.93,97.83c-.62-.34-1.55-1.76-1.57-2.4-.02-.55.51-.36.75.26.13.32.59.93,1.04,1.35,1.18,1.12,1.08,1.5-.22.79ZM174.22,98.75c0-.14.11-.26.25-.26s.32.12.41.26c.09.14-.02.26-.25.26s-.41-.12-.41-.26ZM112.47,73.96c1.22-.58,2.46-3.35,1.5-3.35-.38,0-1.77,1.3-1.77,1.66,0,.14-.25.52-.55.84-.85.91-.37,1.41.82.84ZM110.02,75.34c-.24-.26-.43-.77-.43-1.12s-.13-.78-.3-.94c-.42-.42.41-2.11,1.17-2.4.32-.12.73-.41.92-.63,1.05-1.26,3.48-1.6,4.41-.6.77.82.79,2.76.05,3.44-.29.26-.52.6-.53.76-.02,1.02-4.56,2.31-5.3,1.5ZM102.68,89.37c.23-.36,2.83-.33,3.2.05.24.24.44.24.9,0,.63-.33,6.4-.43,27.61-.51,7.47-.03,11.44-.13,11.55-.31.09-.15.67-.27,1.28-.27,2.02,0,1.97-.78-.18-2.84-.99-.94-1.9-1.76-2.03-1.8-.13-.05-.24-.21-.24-.36,0-.33-1.23-1.51-1.58-1.51-.14,0-.25-.14-.25-.31s-2.84-3.16-6.32-6.65c-3.48-3.49-6.36-6.49-6.42-6.67-.16-.54-1.43-1.79-2.06-2.04-.32-.13-.7-.53-.84-.89-.14-.36-.55-.77-.91-.91-.36-.14-.73-.46-.82-.71-.09-.25-2.37-2.69-5.07-5.43-2.7-2.73-4.91-5.11-4.91-5.28s-.16-.31-.35-.31c-.4,0-1.16-.78-1.59-1.62-.16-.32-.57-.72-.91-.89-.83-.42-7.32-6.9-7.32-7.32,0-.18-.15-.33-.33-.33-.45,0-.98,1.23-.98,2.25,0,.47-.1.91-.23.99-.24.15-.3.43-.87,3.84-.18,1.1-.42,2.09-.53,2.19-.11.11-.2.52-.2.92s-.12.8-.26.88c-.14.09-.26.56-.26,1.06s-.12.9-.26.9-.26.52-.26,1.16-.11,1.23-.25,1.31c-.14.09-.18.5-.1.93.09.47.02.93-.19,1.19-.19.23-.32.76-.29,1.17.03.42-.06.76-.21.76s-.26.4-.26.9-.12.97-.26,1.06c-.14.09-.26.48-.26.88s-.11.83-.23.96c-.13.14-.3.72-.37,1.29-.26,1.99-.72,4.17-.97,4.62-.14.25-.25.92-.25,1.5s-.12,1.05-.26,1.05-.26.53-.26,1.17-.12,1.17-.26,1.17-.26.52-.26,1.16-.12,1.23-.27,1.33c-.15.09-.2.4-.11.68.09.28.01.69-.17.91-.18.22-.3.86-.27,1.42.03.57-.06,1.02-.21,1.02s-.27.52-.27,1.15-.1,1.19-.22,1.24c-.28.11-.57,2.91-.34,3.24.49.69,1.4.86,4.52.87,1.94,0,3.37-.09,3.47-.25ZM54.93,71.4c-.43-.7,1.19-3.57,2.16-3.81,1.99-.5,2.12,1.16.23,2.96-1.58,1.5-1.91,1.62-2.39.86ZM50.11,72.84c.47-.42.85-.92.85-1.11s.12-.34.26-.34.26-.29.26-.65-.1-.65-.21-.65c-.35,0-2.39,1.84-2.39,2.15,0,.16-.25.55-.55.87-1.36,1.45.13,1.22,1.79-.28ZM46.18,74.82c-1.36-1.51-.07-3.88,2.84-5.22.29-.13.69-.43.88-.66.96-1.16,3.67.06,3.67,1.65,0,1.33-1.26,3.39-2.38,3.87-.56.24-1.01.53-1.01.64,0,.46-3.56.21-4-.28ZM7.44,96.39c0-.15.52-.51,1.16-.79.64-.28,1.23-.63,1.31-.76.08-.14.59-.44,1.12-.69.53-.24,1.26-.7,1.62-1.02.87-.77,3.07-2.25,4.04-2.72.97-.47,1.95-1.31,1.96-1.68,0-.15.6-.56,1.34-.91,1.46-.69,1.57-.77,4.33-3.32,1.04-.96,1.89-1.9,1.89-2.09s.15-.35.35-.35.62-.29.96-.65c.77-.82,1.04-.82,1.04-.01,0,.43-.42,1.04-1.3,1.86-.72.67-1.3,1.34-1.3,1.49s-.19.48-.43.74c-.55.61-.24.74,2.03.87.91.05,2.48.23,3.48.4,1,.17,3.76.36,6.12.42,2.37.07,4.41.23,4.55.37.14.14,1.31.25,2.62.25s2.48.11,2.62.24c.14.13,1.95.31,4.03.41,6.11.28,6.41.3,6.71.49.16.1.36.06.45-.09.09-.15.39-.27.67-.27.39,0,.51-.18.51-.77,0-.42.12-.84.26-.93.14-.09.26-.85.26-1.69s.12-1.61.26-1.69c.14-.09.26-.62.26-1.17s.12-1.08.26-1.17c.14-.09.26-.84.26-1.67s.08-1.58.18-1.68c.37-.37.79-2,.67-2.6-.07-.35,0-.71.16-.81.16-.1.28-.57.28-1.06s.12-.95.26-1.04c.14-.09.26-.73.26-1.43s.12-1.34.26-1.43c.14-.09.26-.44.26-.78s.12-.69.26-.78c.14-.09.26-.62.26-1.17s.12-1.08.26-1.17c.14-.09.19-.43.11-.77-.08-.33-.03-.69.13-.78.15-.1.28-.63.28-1.19s.12-1.08.26-1.17c.14-.09.26-.56.26-1.04s.12-.95.26-1.04c.14-.09.26-.62.26-1.17s.1-1.07.23-1.15c.13-.08.31-1.2.41-2.49.1-1.29.29-2.41.43-2.5.13-.08.24-.55.24-1.05s.12-.9.26-.9.26-.52.26-1.16.12-1.23.26-1.32c.14-.09.26-.62.26-1.17s.12-1.08.26-1.17c.14-.09.26-.6.26-1.14s.1-1.09.23-1.22c.12-.14.3-.64.39-1.12l.16-.88-1.04.88c-.57.48-1.46,1.22-1.98,1.64-.52.42-1.05,1.04-1.17,1.37-.13.33-.41.6-.62.6s-.59.32-.83.72c-.64,1.04-5.62,6.06-6.02,6.06-.18,0-.33.14-.33.31,0,.43-1.06,1.51-1.48,1.51-.19,0-.35.17-.35.37s-.24.45-.52.54c-.29.09-.52.32-.52.51s-.23.4-.52.48c-.29.08-.6.35-.69.62-.24.68-1.16,1.65-1.57,1.65-.19,0-.35.15-.35.33s-3.52,3.84-7.82,8.14c-4.3,4.3-7.82,7.96-7.82,8.14s-.14.33-.32.33-1.22.89-2.32,1.99c-1.86,1.85-2.57,2.2-2.57,1.25,0-.21.12-.38.27-.38s.4-.29.56-.65c.16-.36.45-.65.65-.65s.35-.18.35-.39.18-.39.39-.39.39-.13.39-.28,2.17-2.45,4.82-5.09c2.65-2.65,4.82-4.98,4.82-5.19s.18-.38.4-.38c.4,0,3.76-3.35,6.24-6.21.72-.83,1.8-1.89,2.41-2.37.61-.48,1.11-1.03,1.11-1.23s.15-.36.33-.36c.6,0,6.71-6.48,6.71-7.12,0-.24.2-.43.47-.43.59,0,7.09-6.53,7.09-7.12,0-.24.19-.43.42-.43s.47-.23.55-.5c.08-.3.28-.45.5-.36.2.08.37.01.37-.15s.14-.29.31-.29c.47,0,1.52-1.08,1.52-1.56,0-.23.47-.88,1.04-1.44.57-.56,1.04-1.12,1.04-1.25,0-.25.98-1.54,2.15-2.82.4-.43.85-1.04,1.02-1.35.17-.31.63-.92,1.04-1.34,1.64-1.74,2.82-3.2,2.82-3.48,0-.16.18-.3.39-.3s.39-.16.39-.35.23-.56.52-.82c.29-.26.52-.59.52-.74s.37-.65.81-1.11c.45-.46.94-1.06,1.11-1.33,1.02-1.71,1.59-2.46,2.02-2.69.27-.14.49-.46.49-.71,0-.27-1.13.68-2.93,2.45-1.61,1.59-3.14,2.96-3.39,3.05-.25.09-.54.37-.63.62-.22.61-1.15,1.63-1.49,1.63-.38,0-2.51,2.13-2.51,2.5,0,.17-.42.64-.93,1.05-.51.41-1.21,1.04-1.55,1.39-5.4,5.63-11.26,11.47-11.53,11.47-.19,0-.41.21-.5.46-.19.56-6.1,6.58-6.46,6.58s-3.27,2.91-3.27,3.24c0,.39-2.66,3.01-3.05,3.01-.18,0-.33.14-.33.31,0,.43-1.06,1.51-1.48,1.51-.19,0-.35.19-.35.42s-.24.48-.52.55c-.29.08-.52.3-.52.5s-.14.36-.31.36c-.43,0-1.51,1.06-1.51,1.48,0,.19-.14.35-.31.35-.4,0-1.51,1.05-1.51,1.42,0,.16-.76,1.04-1.69,1.97-.93.92-1.69,1.83-1.69,2.01s-.14.33-.31.33c-.43,0-1.51,1.06-1.51,1.48,0,.19-.14.35-.31.35-.43,0-2.03,1.58-2.03,2.01,0,.19-.15.34-.33.34s-2.09,1.77-4.23,3.93c-2.15,2.16-4.17,4.04-4.5,4.17-.32.13-.69.5-.82.83-.13.32-.59.94-1.04,1.36-.44.42-.81.91-.81,1.08s-.24.38-.54.45c-.3.08-.6.38-.68.68-.08.3-.27.54-.43.54-.4,0-4.08,3.69-4.08,4.1,0,.18-.16.33-.36.33s-.42.23-.5.52c-.07.29-.41.63-.75.76-.34.13-2.02,1.66-3.73,3.39-1.72,1.73-3.24,3.15-3.39,3.16-.48.01-1.23.73-1.06,1.02.22.36.92.36.92,0ZM86.83,68.61c-.27-.27-.2-1.86.09-2.04.14-.09.26-.44.26-.78s.12-.69.26-.78c.14-.09.26-.36.26-.6,0-.24.18-.78.39-1.19.49-.93.49-1.21.01-1.21-.21,0-.45-.12-.55-.28-.25-.4.67-1.32,1.17-1.16.27.09,1-.45,2.1-1.56,2.19-2.21,3.91-2.36,3.91-.34,0,.79-.88,1.04-1.49.43-.81-.81-1.99,1.03-1.22,1.89.49.55.32,1.27-.36,1.45-.25.07-.75.76-1.11,1.54-.36.78-.74,1.42-.84,1.42-.11,0-.2.21-.2.47,0,.67-.6,1.87-.94,1.87-.16,0-.5.24-.76.52-.5.55-.72.63-1,.35ZM76.52,102.73c3.02-2.58,3.8-3.19,4.07-3.19.14,0,.46-.23.72-.52.26-.29.6-.52.77-.52s.93-.64,1.71-1.43c.78-.79,1.55-1.43,1.72-1.43s.37-.18.46-.39c.08-.21.32-.39.52-.39s1.11-.76,2.01-1.69c.9-.93,1.76-1.69,1.91-1.69.52,0,2.24-1.93,2.24-2.51,0-.32.12-.66.26-.74.14-.09.26-.5.26-.91s.12-.82.26-.91c.14-.09.26-.73.26-1.43s.12-1.34.26-1.43c.14-.09.26-.44.26-.78s.12-.69.26-.78c.14-.09.25-.42.25-.73,0-.32.13-1.1.29-1.75.17-.64.36-1.93.43-2.87.07-.93.23-1.8.36-1.94.13-.14.24-.69.24-1.22s.12-1.05.26-1.14c.14-.09.26-.56.26-1.04s.12-.95.26-1.04c.14-.09.26-.42.26-.73,0-1.01.32-2.53.56-2.68.13-.08.23-.54.23-1.02s.12-.95.26-1.04c.14-.09.26-.62.26-1.17s.12-1.08.26-1.17c.14-.09.26-.56.26-1.04s.12-.96.28-1.05c.16-.1.21-.49.11-.9-.09-.41-.05-.95.07-1.21.13-.26.37-.74.54-1.06.17-.32.3-.99.3-1.48s.12-.97.26-1.06c.14-.09.26-.56.26-1.04s.13-.96.29-1.06c.16-.1.23-.48.15-.86-.07-.37.02-.98.21-1.34.19-.36.42-1.45.53-2.42.1-.97.29-1.83.42-1.9.13-.08.23-.6.23-1.15s.12-1.08.26-1.17c.14-.09.26-.62.26-1.17s.12-1.08.26-1.17c.32-.2.34-1.29.03-1.89-1.03-2-2.63-5.53-2.64-5.82,0-.2-.17-.58-.38-.85-.2-.27-.57-1.15-.82-1.95-.25-.81-.58-1.65-.75-1.86-.16-.21-.58-.98-.91-1.69-.34-.72-.71-1.48-.83-1.69-.12-.21-.52-1.04-.9-1.82-.37-.79-.9-1.88-1.17-2.43-.27-.55-.5-1.16-.5-1.36s-.47-1.27-1.03-2.39c-.77-1.5-1.04-1.85-1.04-1.36,0,.37-.11.78-.24.91-.24.26-.56,2.09-.57,3.29,0,.38-.17.84-.38,1.01-.23.19-.32.55-.23.91.08.33.02.67-.13.77-.15.1-.28.63-.28,1.18s-.12,1.08-.26,1.17c-.14.09-.26.44-.26.78s-.12.69-.26.78c-.14.09-.26.91-.26,1.82s-.1,1.73-.22,1.8c-.12.07-.3,1.1-.39,2.28-.09,1.18-.28,2.26-.43,2.41-.15.15-.26.7-.26,1.24s-.12,1.05-.26,1.14c-.14.09-.26.56-.26,1.06s-.12.9-.26.9-.26.64-.26,1.42-.12,1.49-.26,1.58c-.14.09-.2.43-.11.75.09.35,0,.71-.23.9-.26.22-.34.65-.25,1.45.08.69.01,1.2-.16,1.31-.16.1-.29.64-.29,1.19s-.12,1.08-.26,1.17c-.14.09-.26.68-.26,1.32s-.12,1.16-.26,1.16-.26.4-.26.9-.11.96-.25,1.05c-.14.08-.33.97-.43,1.98-.1,1-.28,1.89-.41,1.96-.12.08-.23.66-.23,1.3s-.12,1.16-.26,1.16-.26.52-.26,1.16-.12,1.23-.26,1.32c-.14.09-.26.5-.26.91s-.11.82-.25.91c-.14.09-.18.49-.1.91.09.47,0,.96-.25,1.32-.25.36-.35.88-.26,1.42.08.49.02.93-.15,1.03-.16.1-.29.52-.29.93s-.12.82-.26.91c-.14.09-.26.73-.26,1.43s-.12,1.34-.26,1.43c-.14.09-.26.5-.26.91s-.1.82-.23.89c-.13.08-.31,1.26-.41,2.62-.1,1.36-.29,2.48-.42,2.48s-.24.52-.24,1.16-.12,1.23-.26,1.32c-.14.09-.26.62-.26,1.17s-.12,1.08-.26,1.17c-.14.09-.26.62-.26,1.17s-.11,1.08-.25,1.17c-.14.09-.18.5-.1.93.09.47.02.93-.19,1.18-.19.23-.32.86-.28,1.41.03.55-.06,1.07-.21,1.17-.15.09-.27.63-.27,1.19s-.12,1.03-.26,1.03-.26.4-.26.9-.12.97-.26,1.06c-.14.09-.26.73-.26,1.43s-.1,1.34-.23,1.41c-.12.08-.31.86-.41,1.74-.1.88-.35,1.86-.56,2.18-.32.5-.28.92.09.92.06,0,1.04-.79,2.17-1.76ZM79.1,55.03c0-1.71,2.36-4.31,3.52-3.87.75.29-.2,2.99-1.06,3.02-.15,0-.56.3-.89.66-.72.77-1.56.87-1.56.18ZM69.21,65.54c-.58-.69.16-2.4,1.77-4.09,1.29-1.36,1.25-1.78-.18-1.78-.91,0-1.6-.36-1.6-.83,0-.11.21-.21.47-.21s.6-.14.77-.3c.23-.23.4-.22.7.03.44.36,2.23-.27,2.23-.79,0-.14.47-.76,1.04-1.39.57-.62,1.04-1.24,1.04-1.36,0-.51,1.43-.89,2.12-.57.7.33,1.41,1.52,1.06,1.76-.12.08-.29.35-.38.6-.18.49-1.09.62-1.36.2-.36-.58-1.31-.26-1.67.56-.34.76-.32.85.23,1.27.8.6.56,1.14-.52,1.16-.91.01-1.13.29-2.77,3.53-1.01,2-2.32,2.99-2.95,2.23ZM72.68,104c-.09-.43-.03-.83.14-.93.16-.1.29-.5.29-.9s.09-.81.2-.92c.11-.11.35-1.09.53-2.19.57-3.41.63-3.69.87-3.84.13-.08.23-.83.23-1.68s.12-1.61.26-1.69c.14-.09.26-.5.26-.91s.12-.82.26-.91c.14-.09.19-.45.1-.8-.09-.36-.02-.81.17-1.04.18-.22.36-.77.41-1.23.18-1.87.43-3.2.65-3.43.13-.14.23-.8.23-1.48s.13-1.32.29-1.41c.17-.11.24-.58.16-1.17-.08-.59,0-1.18.2-1.47.18-.26.42-1.39.53-2.5.1-1.11.29-2.08.42-2.16.13-.08.23-.54.23-1.02s.12-.95.26-1.04c.14-.09.26-.48.26-.87s.11-.83.23-.96c.13-.14.3-.78.39-1.42.08-.64.21-1.47.29-1.82.21-1.04.66-3.69.82-4.82.08-.57.25-1.15.38-1.29.13-.14.23-.69.23-1.22s.11-1.04.24-1.12c.13-.08.23-.5.22-.92-.01-.42.11-.93.27-1.13.16-.2.29-.82.29-1.38-.02-1.41.28-3.31.56-3.61.13-.14.23-.81.23-1.5s.12-1.25.26-1.25.26-.39.26-.87.09-.96.2-1.06c.11-.11.34-1.09.53-2.19.8-4.81,1.06-5.98,1.39-6.19.13-.08.23-.71.23-1.41s.13-1.35.29-1.45c.18-.11.22-.59.12-1.28-.12-.83-.07-1.19.24-1.44.22-.18.4-.64.41-1.02,0-1.44.31-3.56.54-3.8.13-.14.24-.57.24-.96s.12-.79.26-.88c.14-.09.26-.56.26-1.06s.11-.9.24-.9c.24,0,.52-2.16.53-3.95,0-.53.12-1.03.27-1.12.15-.09.27-.61.27-1.14s.13-1.1.29-1.26c.16-.16.24-.48.2-.73-.12-.61-6.47,6.36-6.47,7.11,0,.14-.23.32-.52.39-.29.08-.6.35-.7.62-.28.74-1.53,2.51-2.17,3.09-.32.28-.68.75-.82,1.04-.42.9-.85,1.54-1.58,2.35-3,3.29-5.04,5.95-5.66,7.36-.14.32-.4.59-.57.59-.75,0-1.52,1.13-1.52,2.23,0,.6-.18,1.43-.39,1.84-.21.41-.39,1.18-.39,1.71,0,.53-.12,1.03-.26,1.12-.14.09-.26.62-.26,1.17s-.12,1.08-.26,1.17c-.14.09-.26.56-.26,1.06s-.12.9-.26.9-.26.53-.26,1.17-.12,1.17-.27,1.17-.27.44-.27.98c0,1.65-.28,3.83-.53,4.09-.13.14-.24.69-.24,1.22s-.12,1.05-.26,1.14c-.14.09-.26.68-.26,1.32s-.11,1.16-.24,1.16-.3.67-.38,1.5c-.32,3.2-.61,4.68-.98,4.91-.13.08-.23.71-.23,1.41s-.12,1.34-.26,1.43c-.14.09-.26.73-.26,1.43s-.12,1.34-.26,1.43c-.14.09-.26.55-.26,1.01s-.08.93-.17,1.02c-.09.09-.21.55-.25,1.02-.18,1.87-.43,3.21-.65,3.44-.13.14-.23.57-.23.96s-.12.79-.26.87c-.14.09-.26.73-.26,1.43s-.12,1.34-.26,1.43c-.14.09-.26.67-.26,1.3s-.13,1.22-.28,1.31c-.15.09-.21.35-.13.56.08.21.03.6-.11.86-.19.35-.16.51.13.62.21.08.39.34.39.58s.32.82.72,1.3c1.49,1.81,2.03,2.58,2.44,3.44.23.49.52.97.65,1.06.13.09.74.84,1.37,1.67.63.82,1.25,1.5,1.38,1.5s.32.21.42.47c.74,1.84,3.47,5.25,4.41,5.51.03,0,0-.32-.09-.73ZM70.98,105.07c-.05-.25-.35-.57-.67-.71-.32-.14-.58-.36-.58-.49,0-.23-.45-.82-2.61-3.41-.65-.78-1.52-1.89-1.95-2.48-.43-.59-.93-1.23-1.11-1.43-.18-.2-.33-.47-.33-.6s-.24-.45-.52-.71c-.29-.26-.52-.61-.52-.77s-.41-.7-.91-1.18c-.5-.49-.91-1.02-.91-1.2,0-1-1.89-2-3.49-1.85-.92.08-1.79.03-2.1-.14-.31-.17-1.71-.26-3.44-.22-1.85.04-2.97-.04-3.08-.22-.1-.17-1.23-.28-2.88-.28-1.52,0-2.78-.11-2.87-.26-.09-.15-1.64-.26-3.74-.26-1.97,0-3.69-.11-3.83-.24-.26-.26-4.85-.54-8.38-.51-1.52.01-2.31-.1-2.71-.38-.55-.38-2.83.71-2.83,1.35,0,.1-.63.46-1.41.8-.77.33-1.79,1.01-2.27,1.49-.47.49-1,.89-1.18.89s-.67.29-1.09.65c-.43.36-.87.65-.98.65s-.42.2-.68.43c-.5.46-1.29.94-2.18,1.35-.29.13-.69.43-.88.66-.19.23-.46.42-.6.42s-.73.41-1.32.91c-.59.5-1.21.91-1.38.91s-.47.19-.66.42c-.33.4-1.39.95-1.91.99-.13.01-.29.17-.35.35-.08.25.56.33,2.63.33,1.55,0,2.81.11,2.9.26.09.14,1.14.26,2.35.26s2.26.12,2.35.26c.09.15,1.43.26,3.13.26s3.03.11,3.13.26c.09.15,1.47.26,3.26.26,1.88,0,3.16.11,3.27.27.1.16.97.25,2.09.22,1.14-.03,2.07.07,2.28.25.23.19,1.12.26,2.48.19,1.17-.06,2.19,0,2.27.13.08.13,1.89.24,4.03.24,2.3,0,3.94.11,4.04.26.09.15,1.56.26,3.52.26s3.42.11,3.52.26c.09.14,1.2.26,2.48.26s2.38.1,2.45.22c.16.26,6.04.61,9.18.56,1.27-.02,2.19.08,2.3.24.32.51,2.8.35,2.7-.18ZM76.37,105.79c.21-.34,1.62-.33,1.83.01.11.19.27.19.49,0,.19-.15,2.96-.32,6.69-.39,21.98-.43,31.17-.72,31.73-1,.46-.23.72-.23,1.1.01.61.38,1.46.41,1.68.05.1-.16,1.83-.26,4.32-.26s4.15-.1,4.15-.26,2.95-.26,8.32-.26,8.38-.1,8.48-.26c.09-.15,1.6-.26,3.62-.26,1.9,0,3.53-.07,3.62-.16.09-.09,2.15-.14,4.58-.11,2.88.03,4.47-.05,4.59-.23.11-.18,1.87-.28,4.96-.28,2.91,0,4.85-.1,4.95-.26.09-.14.86-.26,1.71-.26,1.67,0,2.08-.43.96-1-.32-.16-.76-.41-.98-.54-.21-.13-1.04-.55-1.82-.92-.79-.38-1.61-.79-1.82-.91-.21-.13-.83-.42-1.36-.65-.53-.23-1.04-.53-1.12-.67-.09-.14-.41-.26-.73-.26-.31,0-.86-.24-1.22-.52-.36-.28-.75-.51-.87-.52-.12,0-.52-.24-.88-.52-.36-.28-.77-.45-.91-.36-.14.08-.51-.06-.82-.33-.76-.65-1.66-1.13-2.09-1.13-.19,0-.57-.23-.83-.52-.26-.29-.68-.52-.94-.52s-.9-.29-1.43-.65c-.53-.36-1.1-.65-1.26-.65s-1.12-.41-2.11-.91c-1.88-.94-4.35-1.26-4.97-.64-.18.18-3.09.25-8.62.2-6.86-.06-8.41-.01-8.68.29-.28.3-1.37.33-6.26.17-4.13-.13-5.98-.1-6.1.09-.12.19-2.8.28-8.37.28s-8.19.09-8.19.26-1.55.27-4.1.28c-3.57.02-4.2.08-4.89.52-.43.27-1.02.61-1.3.74-.29.13-.81.54-1.15.92-.35.37-.77.68-.93.68s-.64.41-1.06.91c-.42.5-.86.91-.99.91-.31,0-1.68,1.11-3.79,3.06-.97.9-1.88,1.63-2.02,1.63s-.48.24-.74.52c-.26.29-.58.52-.72.52s-1.14.82-2.24,1.82c-1.1,1-2.2,1.82-2.45,1.82-.46,0-.6.29-.28.61.26.26,1.08.21,1.26-.09ZM92.51,120.92c.08-.13,3-.25,6.59-.27,3.77-.02,6.55-.13,6.69-.28.14-.14,2.05-.25,4.35-.25,2.45,0,4.17-.1,4.26-.26.1-.16,2.65-.26,6.78-.26s6.68-.1,6.77-.25c.09-.15,1.52-.19,3.62-.09,2.48.11,3.52.07,3.66-.14.13-.21,1.72-.3,5.24-.3,3.09,0,5.11-.1,5.21-.26.09-.14,1.19-.26,2.45-.26,2.3,0,2.67-.1,4.58-1.3.43-.27.95-.5,1.15-.51.2-.01.59-.21.85-.45.55-.5,1.13-.85,3.01-1.8.75-.38,1.63-.94,1.95-1.26s1.18-.85,1.9-1.2c.72-.35,1.54-.82,1.82-1.06.29-.24.9-.6,1.37-.8.47-.2.85-.44.85-.54s1.11-.72,2.46-1.38c1.36-.66,2.53-1.31,2.62-1.44.08-.14,1.14-.72,2.36-1.29,1.21-.58,2.2-1.17,2.2-1.31s.28-.26.62-.26.77-.18.94-.39c.28-.34.08-.39-1.65-.39-1.08,0-2.04.12-2.13.26-.1.16-1.91.26-4.56.26-2.8,0-4.46.1-4.57.27-.11.18-2,.26-5.47.23-2.91-.02-5.45.05-5.64.17-.19.12-1.13.18-2.08.14-1.05-.05-1.8.03-1.9.2-.12.19-2.2.28-6.36.28s-6.28.09-6.49.3c-.23.23-.41.21-.75-.07-.34-.28-.47-.29-.55-.04-.08.24-1.27.33-4.76.33-2.82,0-4.72.1-4.81.26-.1.16-2.17.26-5.34.26s-5.24.1-5.35.27c-.11.17-2.02.26-5.35.24-2.85-.02-5.3.04-5.45.14-.15.09-.39.09-.54,0-.15-.09-.43-.03-.63.13-.26.21-2.12.27-6.51.19-3.38-.06-6.21,0-6.29.11-.08.12-3.47.22-7.55.22-5.56,0-7.41.08-7.41.31,0,.38,2.01,2.3,2.41,2.3.15,0,.9.56,1.66,1.24,1.81,1.63,3.13,2.67,3.36,2.67.18,0,1.38.94,2.6,2.05,1,.9,2.68,2.12,2.92,2.12.13,0,.64.41,1.12.91.49.5,1.01.91,1.17.91s.59.35.97.78c.68.78,1.35,1,1.63.54ZM59.7,121.47c.14-.12.75-.37,1.35-.56.61-.19,1.11-.49,1.11-.66s.23-.52.52-.78c.29-.26.52-.61.52-.78s.3-.59.68-.94c.76-.71,2.45-3.16,2.45-3.55,0-.14.23-.47.52-.73.29-.26.52-.59.52-.73s.44-.76.98-1.38c2.71-3.13,3.05-4.05,1.56-4.23-.39-.04-.72-.17-.72-.29s-1.55-.22-3.45-.23c-4.35-.03-7.81-.28-8.13-.59-.14-.13-1.43-.24-2.88-.24s-2.74-.11-2.88-.24c-.25-.24-2.54-.42-9.1-.69-1.86-.08-3.52-.26-3.69-.4-.19-.16-1.16-.19-2.54-.08-1.67.14-2.33.1-2.64-.16-.29-.24-1.28-.32-3.5-.28-1.96.04-3.15-.04-3.26-.22-.1-.16-1.17-.28-2.62-.28-1.35,0-2.52-.12-2.61-.26-.09-.15-1.34-.26-2.87-.26s-2.78-.11-2.87-.26c-.09-.15-1.47-.26-3.26-.26s-3.16-.1-3.23-.22c-.18-.29-5.89-.3-5.89-.01,0,.12.5.54,1.1.92.61.38,1.32.97,1.58,1.31.26.34.6.61.76.61s.93.65,1.72,1.43c.8.79,1.59,1.43,1.77,1.43s.4.24.49.52c.09.29.29.52.44.52s.82.49,1.48,1.08c.66.59,1.79,1.59,2.5,2.21.72.62,1.84,1.6,2.5,2.18.66.58,1.31,1.05,1.44,1.05s.76.53,1.39,1.17c.64.65,1.39,1.17,1.7,1.17s.66.11.79.24c.14.13,1.42.3,2.85.38,1.43.07,5.01.26,7.95.41,2.94.15,5.58.39,5.86.53.29.14,1.75.31,3.26.38,4.4.21,6.61.41,7.17.66.29.13,2.04.31,3.89.4,2.1.1,3.62.3,4.04.53.8.44.89.45,1.21.17ZM50.03,133.62c.61-.86.52-1.51-.2-1.51-.85,0-2.76,2.27-2.4,2.85.2.33,2.12-.66,2.6-1.35ZM46.24,136.34c-.99-1.24-1.02-1.51-.32-2.93.37-.74.92-1.46,1.22-1.59.3-.14,1.14-.59,1.86-1.01,1.79-1.06,4.04-.63,4.04.77,0,.55-.59,1.83-.85,1.83-.11,0-.2.15-.2.34,0,.4-1.96,2.34-2.78,2.76-.89.45-2.55.36-2.97-.17ZM48.33,139.39c-.36-.22.23-1.81.66-1.81.14,0,.86-.6,1.61-1.33,1.53-1.51,1.92-1.48,1.92.18,0,2.11-2.6,3.95-4.19,2.97ZM52.91,139.98c-1.42-.17-1.34-.82.33-2.62.32-.35.59-.73.59-.84s.31-.52.69-.9l.69-.69.64.64c.53.53.59.73.36,1.2-.16.31-.4.79-.54,1.07-.14.29-.26.73-.26.99,0,.61-1.43,1.27-2.48,1.15ZM68.82,161.98c0-.39-.13-.82-.29-.96-.19-.16-.26-.69-.18-1.39.08-.69.01-1.2-.16-1.31-.16-.1-.29-.64-.29-1.19s-.12-1.08-.26-1.17c-.14-.09-.26-.56-.26-1.04s-.12-.95-.26-1.04c-.14-.09-.26-.62-.26-1.17s-.12-1.08-.26-1.17c-.14-.09-.26-.73-.26-1.43s-.1-1.33-.23-1.41c-.12-.08-.17-.44-.1-.82.07-.37,0-.93-.15-1.24-.34-.71-.59-1.79-.74-3.3-.07-.64-.22-1.41-.34-1.69-.48-1.13-.61-1.6-.69-2.61-.19-2.39-.43-3.92-.65-4.16-.13-.14-.24-.8-.24-1.48s-.12-1.31-.26-1.4c-.14-.09-.26-.5-.26-.91s-.12-.82-.26-.91c-.14-.09-.26-.56-.26-1.04s-.1-.95-.23-1.02c-.27-.17-.56-1.74-.54-2.96.02-1.72-.82-2.4-2.97-2.4-1.04,0-2-.11-2.13-.24-.23-.23-1.46-.36-6.63-.69-1.22-.08-2.33-.25-2.46-.39-.14-.13-1.32-.24-2.63-.24s-2.47-.09-2.57-.19c-.1-.1-1.48-.15-3.05-.11-1.97.06-2.98-.01-3.24-.23-.22-.19-1.44-.35-2.92-.4-1.4-.05-3.63-.16-4.95-.25-2.72-.18-2.76-.15-1.5.95.5.44.91.96.91,1.16s.14.36.31.36c.43,0,1.52,1.06,1.52,1.48,0,.19.14.35.32.35.41,0,15.58,15.14,15.58,15.55,0,.17.23.38.52.47.29.09.52.31.52.48s.38.48.85.68c.81.35,4.02,3.48,5.89,5.74.48.58,1.04,1.06,1.24,1.06s.36.15.36.33c0,.37,6.57,7.03,7.09,7.2.74.23,1.77,1.13,1.77,1.55,0,.39.56,1.1,1.62,2.04.19.17,1.03,1.02,1.87,1.9,1.62,1.69,2.1,1.85,2.13.7ZM79.1,178.54c0-.12-.41-.69-.91-1.28-.5-.59-.91-1.16-.91-1.28,0-.12-.65-.94-1.43-1.83-.79-.88-1.43-1.68-1.43-1.77s-.41-.59-.91-1.11c-.5-.52-.91-1.08-.91-1.25s-.24-.52-.52-.78c-.29-.26-.52-.63-.52-.82s-.18-.35-.39-.35-.39-.17-.39-.37-.33-.7-.73-1.11c-.4-.41-.81-.94-.9-1.18-.09-.24-.63-.74-1.2-1.1-.57-.36-1.1-.87-1.19-1.14-.14-.45-3.35-3.62-5.85-5.79-.58-.5-1.06-1.02-1.06-1.16-.01-.35-1.35-1.71-1.68-1.71-.39,0-3.54-3.18-3.54-3.57,0-.18-.26-.46-.59-.62-.82-.42-8.27-7.85-8.27-8.25,0-.18-.15-.33-.33-.33s-1.62-1.3-3.19-2.89c-1.57-1.59-3.3-3.18-3.84-3.52-.54-.35-.98-.8-.98-1.01s-.35-.56-.78-.79c-.43-.22-.78-.57-.78-.77s-.32-.52-.72-.71c-.39-.19-.83-.6-.97-.93-.14-.32-.38-.59-.53-.59s-1.41-1.2-2.81-2.67c-2.99-3.15-2.8-2.96-5.81-5.79-1.3-1.22-2.46-2.23-2.57-2.23s-.61-.35-1.1-.78c-.49-.43-1-.78-1.14-.78s-.25-.18-.25-.39-.12-.39-.27-.39-.84-.53-1.53-1.17c-.69-.64-1.35-1.17-1.47-1.17s-.83-.64-1.58-1.43c-.75-.79-1.45-1.43-1.56-1.43s-.92-.67-1.81-1.5c-2.53-2.33-5.01-4-3.66-2.45.27.31.65.57.85.57s.35.16.35.36c0,.41,11.01,11.43,11.64,11.65.23.08.6.49.84.92.5.91,3.46,3.76,3.91,3.76.17,0,.42.3.56.66.14.36.6.86,1.03,1.11.43.25.78.55.78.68,0,.39,6.08,6.44,6.72,6.69.33.13.7.53.84.89.14.37.46.74.71.84.62.23,4.49,4.03,4.5,4.41,0,.16.4.53.88.82.48.29,1.1.84,1.37,1.23.52.75.55.79,3.94,3.95,1.18,1.1,2.15,2.16,2.15,2.35s.12.35.27.35c.42,0,2.6,2.11,2.6,2.51,0,.2.16.36.35.36s.48.29.65.65c.16.36.45.65.64.65s.69.35,1.1.78c.41.43.9.78,1.09.78s.34.15.34.34c0,.47,2.02,2.53,2.48,2.53.21,0,.38.15.38.33,0,.44,11.54,11.96,12.24,12.22.3.11.63.43.74.72.37.99,7.09,7.72,7.09,7.1ZM80.01,179.53c.09-.14.04-.26-.11-.26s-.28.12-.28.26.05.26.12.26.19-.12.28-.26ZM91.03,184.36c.49-.43,1.69-1.57,2.66-2.54.97-.97,1.88-1.76,2.02-1.76s.32-.23.39-.52c.07-.28.41-.63.75-.76.34-.13,1.07-.72,1.64-1.31.57-.59,1.18-1.07,1.37-1.07s.34-.23.34-.52.16-.52.36-.52.43-.18.51-.39c.08-.21.33-.39.55-.39s.4-.23.4-.52c0-.34.17-.52.49-.52.27,0,.55-.23.63-.52.07-.28.41-.63.75-.76.34-.13,1.61-1.25,2.82-2.48,1.22-1.23,2.31-2.24,2.43-2.24.31,0,.83-.56,1.04-1.11.1-.25.44-.56.77-.69.33-.13,1.69-1.35,3.03-2.72,1.34-1.37,2.65-2.56,2.92-2.65.27-.08.55-.38.64-.65.09-.27.37-.56.63-.64.26-.08,1.67-1.38,3.13-2.88,1.46-1.5,2.74-2.73,2.85-2.73s1.49-1.29,3.08-2.87c1.59-1.58,2.99-2.87,3.12-2.87s1.57-1.35,3.22-3c1.64-1.65,3.14-3,3.32-3s.33-.14.33-.31c0-.43,1.58-2.03,2.01-2.03.19,0,.34-.17.34-.39s.44-.67.98-1.01c.54-.34,1.27-.94,1.63-1.33s.85-.79,1.09-.88c.24-.09,2.37-2.07,4.73-4.4,2.36-2.33,4.37-4.23,4.47-4.23s1.26-1.06,2.56-2.35c1.31-1.29,2.7-2.49,3.1-2.67.4-.18.72-.45.72-.61s.25-.51.55-.78c.3-.27.71-.82.92-1.21.2-.39.53-.72.72-.72s1.62-1.27,3.19-2.82c1.56-1.55,3.05-2.89,3.3-2.99.25-.1.58-.48.72-.86.14-.38.49-.74.78-.82.29-.08.52-.36.52-.63,0-.32.18-.49.52-.49.36,0,.52-.17.52-.55s.12-.5.39-.4c.24.09.39,0,.39-.24,0-.21.2-.47.46-.56.25-.09.82-.47,1.27-.84.44-.37,1.12-.89,1.49-1.16,1.14-.81.51-.97-.81-.2-.68.39-1.66.92-2.2,1.17-.53.25-1.04.56-1.12.7-.08.14-.65.48-1.25.77-1.07.51-2,1.05-2.27,1.32-.16.16-1.79,1.05-3.65,1.99-.79.4-1.53.88-1.64,1.06-.12.19-.46.34-.77.34s-.88.31-1.27.69c-.78.75-1.35,1.11-3.03,1.93-.61.3-1.11.64-1.11.77,0,.21-1.27.96-3.41,1.99-.51.25-1.04.69-1.17.99-.13.3-.52.68-.87.85-.35.17-2.87,2.55-5.61,5.28-2.74,2.73-5.11,4.97-5.28,4.97s-.85.65-1.53,1.43c-.67.79-1.37,1.43-1.55,1.43s-1.77,1.47-3.54,3.26c-1.76,1.79-3.33,3.26-3.49,3.26s-.8.53-1.44,1.17c-.63.65-1.27,1.17-1.41,1.17-.39,0-3.28,2.92-3.28,3.31,0,.18-.15.33-.34.33s-.92.6-1.63,1.33c-.71.73-1.56,1.43-1.88,1.56-.32.13-.7.53-.84.89-.14.36-.4.66-.58.66-.18,0-1.14.82-2.13,1.82-.99,1-1.9,1.82-2.03,1.82-.35,0-2.81,2.48-2.81,2.83,0,.16-.12.3-.26.3s-1.13.88-2.19,1.95c-1.06,1.07-2.03,1.95-2.14,1.95-.33,0-1.92,1.64-1.92,1.98,0,.17-.3.39-.67.48-.79.2-3.29,2.45-3.09,2.79.08.13.05.23-.07.23-.25,0-.86,1.25-.86,1.74,0,.19-.22.34-.5.34-.36,0-.55.25-.67.85-.23,1.12-.85,2.48-1.26,2.73-.4.25-2.58,3.79-3.73,6.07-.25.5-.52.97-.6,1.04-.25.23-.76,1.12-1.65,2.87-.47.93-1.09,2.05-1.37,2.48-.58.89-.45.82,1.38-.78ZM112.33,136.54c.09-.14.04-.26-.1-.26s-.33.12-.42.26c-.09.14-.04.26.1.26s.33-.12.42-.26ZM110.37,139.51c0-.16.23-.5.52-.76.49-.44.74-1.69.34-1.69-.33,0-1.9,1.66-1.9,2.01,0,.19-.12.34-.28.34s-.22.09-.16.2c.19.31,1.47.23,1.47-.09ZM111.85,140.79c-.09-.1-.17-.02-.17.17s.08.27.17.17c.1-.1.1-.25,0-.35ZM110.28,144.18c-.38-.38-.14-1.27.53-1.96l.7-.73-2,.17c-2.31.19-2.79-.04-2.79-1.33,0-2.69,4.14-6.18,6.44-5.42,1.31.43,1.04,4.2-.35,4.98-.3.17-.33.29-.1.43.18.11.46-.01.66-.28.45-.62,1.18-.08,1.18.85,0,.6-1.03,1.91-1.5,1.91-.12,0-.56.35-.97.78-.72.75-1.41.98-1.78.61ZM87.01,181.75c-.19-.49.06-1.17.42-1.17.15,0,.27.35.27.78,0,.82-.43,1.06-.69.39ZM87.57,185.38c0-.42-.15-1.03-.34-1.36-.19-.33-.27-.83-.18-1.12.24-.74,1.03-.52,1.04.29,0,.97.44.78,1.07-.48.31-.62.81-1.39,1.11-1.71.3-.32.55-.71.55-.85s.23-.48.52-.74c.29-.26.52-.59.52-.73s.29-.65.65-1.11c.36-.47.65-.96.65-1.1s.19-.4.42-.59c.46-.38.99-1.51.93-1.95-.02-.15.25-.55.6-.88.35-.33,1.01-1.32,1.45-2.2,1.07-2.12,1.4-2.67,1.87-3.22.22-.25.73-1.19,1.15-2.08.42-.89.88-1.63,1.03-1.63.15,0,.73-.48,1.29-1.05.56-.57,1.14-1.04,1.3-1.04s1.04-.76,1.96-1.69c.92-.93,1.81-1.69,1.97-1.69s.96-.7,1.79-1.56c.82-.86,1.6-1.56,1.74-1.56s.36-.28.49-.63c.13-.35.47-.7.75-.79.28-.09.57-.39.64-.67.07-.28.51-.72.96-.97.46-.25,1.63-1.25,2.6-2.22.98-.97,1.89-1.76,2.03-1.76s.59-.41,1-.91c.41-.5,1.07-1.32,1.48-1.81.4-.5,1.14-1.05,1.63-1.23.49-.18.9-.48.9-.67s.26-.45.59-.58c.32-.13,1.05-.71,1.62-1.3.57-.59,1.18-1.07,1.37-1.07s.46-.29.59-.65c.14-.36.43-.65.64-.65s.4-.18.4-.4.26-.5.59-.62c.32-.13.93-.59,1.35-1.04.42-.44.88-.81,1.03-.81s1.56-1.25,3.14-2.78c5-4.82,5.74-5.49,6.2-5.65.25-.09.46-.34.46-.56s.15-.4.33-.4,1.38-1.05,2.67-2.35c1.28-1.29,2.48-2.35,2.67-2.35s.34-.15.34-.33c0-.18.38-.56.84-.85.46-.29.87-.73.92-.98.1-.54-9.75-.71-10.29-.17-.18.18-1.56.25-3.93.2-2.77-.06-3.72,0-3.97.26-.25.27-1.52.33-5.64.29-2.93-.03-5.4.02-5.49.11-.09.09-.97.17-1.95.17s-1.78.11-1.78.26c0,.17-2.34.26-6.5.26s-6.56.1-6.66.26c-.09.15-1.65.26-3.78.26s-3.68.11-3.78.26c-.09.14-.52.26-.96.26h-.8l.12,2.22c.06,1.22.25,2.36.42,2.53.17.17.31.75.31,1.28s.12,1.05.26,1.14c.14.09.26.57.26,1.07s.11,1.12.25,1.38c.14.26.3.99.35,1.64.06.64.19,1.31.29,1.48.11.17.16.69.12,1.15-.04.46.08,1.12.27,1.46.19.35.28,1,.2,1.49-.08.48-.03.94.1,1.02.13.08.24.55.24,1.03s.12.95.26,1.04c.14.09.26.92.26,1.84s.1,1.89.22,2.13c.12.25.35.7.51,1.01.16.31.37,1.57.47,2.81.1,1.24.28,2.31.41,2.39.12.08.22.52.22.98s.11.96.24,1.09c.13.14.3.78.38,1.42.28,2.31.46,3.27.72,3.79.33.68.19,3.04-.19,3.17-.35.12-1.15-2.28-1.15-3.45,0-.48-.12-.94-.26-1.03-.14-.09-.26-.62-.26-1.17s-.12-1.08-.26-1.17c-.14-.09-.26-.67-.26-1.3s-.12-1.21-.26-1.3c-.14-.09-.26-.72-.26-1.4s-.08-1.33-.19-1.43c-.1-.1-.15-.57-.11-1.04.04-.51-.08-.98-.31-1.17-.26-.22-.34-.6-.25-1.18.08-.5.02-.94-.15-1.04-.16-.1-.29-.75-.29-1.45s-.12-1.34-.26-1.43c-.14-.09-.26-.72-.26-1.4s-.11-1.35-.24-1.48c-.13-.14-.3-.83-.38-1.55-.3-2.72-.82-5.83-1.01-6.02-.11-.11-.2-.64-.2-1.18s-.12-1.06-.26-1.14c-.14-.09-.26-.48-.26-.87s-.11-.83-.23-.96c-.25-.26-.55-2.1-.54-3.31,0-.4-.18-1.01-.41-1.36-.23-.35-.34-.77-.24-.92.28-.45-.6-2.03-1.24-2.22-1.24-.36-2.01-.78-2.01-1.1,0-.18-.13-.33-.3-.33-.28,0-1.74-1.2-3.48-2.86-.43-.41-1.27-1-1.87-1.3-.6-.31-1.23-.73-1.41-.94-.39-.47-2.53-1.93-2.83-1.93-.12,0-.58-.41-1.02-.91-.44-.5-.92-.91-1.06-.91s-.62-.35-1.06-.78c-1.05-1.02-1.4-1-1.21.07.08.47.26,1.49.4,2.28.14.79.26,2.04.27,2.79.01.74.14,1.43.28,1.51.14.09.26.73.26,1.43s.12,1.34.26,1.43c.14.09.26.5.26.91s.12.82.26.91c.14.09.26.85.26,1.69s.13,1.61.28,1.71c.16.1.22.41.15.7-.08.29.05.81.27,1.15.27.41.36.93.26,1.53-.08.5-.05.96.07,1.03.23.14.48,1.34.7,3.39.08.72.25,1.41.38,1.55.13.14.24.69.24,1.22s.1,1.04.22,1.11c.12.08.31,1.17.41,2.42.1,1.26.28,2.4.4,2.55.22.28.47,1.38.71,3.13.08.57.25,1.15.38,1.29.13.14.23.69.23,1.22s.13,1.05.29,1.15c.17.1.23.54.15,1.04-.1.59-.02.97.26,1.19.27.23.35.6.26,1.18-.08.47-.03.92.11,1,.13.08.24.72.24,1.42s.12,1.34.26,1.43c.14.09.26.68.26,1.31s.13,1.47.29,1.87c.16.4.39.96.5,1.25.12.29.29,1.46.38,2.61.1,1.15.26,2.2.37,2.35.22.28.48,1.48.69,3.13.07.57.23,1.28.35,1.56.48,1.12.92,3.8,1.06,6.44.01.25.13.52.27.6.3.18.33,2.99.04,2.99-.48,0-.83-.69-.83-1.6,0-.54-.12-1.05-.26-1.14-.14-.09-.26-.66-.26-1.27s-.13-1.23-.28-1.39c-.15-.15-.35-1-.43-1.88-.08-.88-.25-1.66-.37-1.74-.12-.08-.22-.48-.22-.89s-.12-.82-.26-.91c-.14-.09-.26-.85-.26-1.69s-.12-1.61-.26-1.69c-.14-.09-.26-.5-.26-.91s-.1-.81-.23-.89c-.13-.08-.17-.65-.1-1.26.09-.81.02-1.21-.27-1.45-.27-.23-.36-.6-.26-1.2.08-.5.02-.94-.15-1.04-.16-.1-.29-.81-.29-1.58s-.12-1.47-.26-1.56c-.14-.09-.26-.5-.26-.91s-.12-.82-.26-.91c-.14-.09-.26-.62-.26-1.17s-.12-1.09-.27-1.18c-.15-.09-.2-.54-.11-1.03.1-.51.05-.93-.12-1.04-.16-.1-.28-.63-.28-1.19s-.12-1.08-.26-1.17c-.14-.09-.26-.73-.26-1.43s-.12-1.34-.26-1.43c-.14-.09-.26-.44-.26-.78s-.12-.69-.26-.78c-.14-.09-.26-.62-.26-1.17s-.12-1.09-.27-1.18c-.15-.09-.2-.39-.11-.66.09-.27,0-.73-.21-1.02-.25-.35-.33-.95-.25-1.79.07-.78,0-1.34-.17-1.45-.16-.1-.29-.75-.29-1.45s-.12-1.34-.26-1.43c-.14-.09-.26-.62-.26-1.17s-.12-1.08-.26-1.17c-.14-.09-.26-.54-.26-1s-.14-.98-.3-1.15c-.23-.23-.22-.4.03-.7.23-.27.25-.51.07-.73-.14-.18-.34-.88-.44-1.56-.1-.68-.29-1.3-.42-1.38-.14-.08-.25-.72-.25-1.42s-.12-1.34-.26-1.43c-.14-.09-.26-.67-.26-1.3s-.12-1.21-.26-1.3c-.14-.09-.26-.62-.26-1.17s-.1-1.07-.22-1.15c-.12-.07-.16-.49-.1-.93.07-.44-.04-.98-.23-1.21-.19-.23-.32-.8-.28-1.28.03-.48-.06-.94-.21-1.03-.15-.09-.27-.42-.27-.74,0-.31-.22-.85-.49-1.2-.59-.76-1.33-.58-1.33.33,0,.35-.18.7-.39.78-.21.08-.39.31-.39.51s-.24.57-.52.83c-.29.26-.52.56-.52.68,0,.27-1.52,2.52-1.83,2.71-.13.08-.44.58-.69,1.11-.25.53-.7,1.2-1.01,1.49-.31.29-.75.95-.99,1.46-.24.52-.61,1.09-.83,1.27-.93.77-1.59,3.2-1,3.68.2.16.33.61.3.99-.03.38.05.86.18,1.07.13.21.2.75.16,1.2-.04.45.05.9.21,1,.15.09.28.63.28,1.18s.12,1.08.26,1.17c.14.09.26.56.26,1.06s.12.9.26.9.26.52.26,1.16.13,1.23.28,1.33c.15.09.25.6.21,1.12-.04.52.08,1.21.25,1.53.17.32.31,1.02.3,1.56-.02,1.39.27,3.28.55,3.57.13.14.23.69.23,1.22s.13,1.05.28,1.15c.15.09.25.56.2,1.03-.04.47.08,1.04.26,1.26.19.23.3.87.26,1.45-.04.57,0,1.13.11,1.23.1.1.19.63.19,1.17s.12,1.06.26,1.14c.14.09.26.73.26,1.43s.12,1.34.26,1.43c.14.09.26.56.26,1.04s.12.95.26,1.04c.14.09.26.48.26.88s.11.83.24.96c.13.14.3,1.19.37,2.33.16,2.4.52,3.24,1.99,4.68.58.57,1.06,1.16,1.06,1.33s.23.51.52.77c.29.26.52.61.52.78s.29.58.65.92c.36.34.65.76.65.94s.21.48.47.67c.56.41,3.29,4.05,3.52,4.7.09.25.33.46.54.46.36,0,.79.61,1.44,2.02.15.32.42.59.6.59s.45.22.59.49c.54,1.04,2.15,3.31,2.59,3.68.26.21.75.84,1.1,1.38.72,1.13,1.25,1.15,1.26.03ZM76.17,178.03c-6.41-6.41-11.66-11.81-11.66-11.98s-.15-.32-.33-.32-2.44-2.11-5.01-4.69c-2.58-2.58-4.84-4.69-5.02-4.69s-.44-.26-.56-.59c-.13-.32-4.48-4.81-9.68-9.97-5.2-5.16-10.33-10.29-11.4-11.4-1.07-1.11-2.11-2.02-2.3-2.02s-.36-.15-.36-.33c0-.41-5.69-6.05-6.33-6.27-.25-.09-.54-.37-.63-.62-.31-.84-1.76-2.41-2.23-2.41-.26,0-.58-.31-.72-.68-.14-.37-.49-.74-.77-.81-.29-.07-.52-.27-.52-.44,0-.38-2.13-2.5-2.52-2.5-.16,0-.35-.23-.42-.52-.08-.29-.37-.61-.66-.72-.78-.3-3.58-3.01-4.34-4.22-.37-.58-.82-1.06-1.01-1.06-.42,0-1.47-1.09-1.47-1.51,0-.17-.18-.31-.39-.31s-.69-.47-1.05-1.05c-.37-.58-.86-1.13-1.1-1.22-2.14-.82-6.89-6.85-5.4-6.85.48,0,2.47-2.02,2.47-2.52,0-.2.28-.35.65-.35s.65-.15.65-.36c0-.2.26-.43.58-.51.32-.08.49-.23.39-.33-.23-.23.57-1.14,1-1.14.18,0,.38-.24.46-.54.08-.3.36-.6.62-.67.26-.07.77-.59,1.13-1.15.36-.56,3.44-3.81,6.84-7.21,8.26-8.27,68.29-68.14,68.66-68.47,1.11-1.01,2.93-3.25,2.93-3.61,0-.24.19-.43.42-.43s1.12-.64,1.97-1.43c.85-.79,1.75-1.43,2.01-1.43.46,0,1.86,1.27,1.86,1.68,0,.51,4.92,5.88,5.39,5.88.2,0,.47.29.6.64.13.35.72.94,1.3,1.31.58.37,1.05.79,1.05.94s1.17,1.5,2.61,2.99c2.3,2.4,3.17,3.77,2.39,3.77-.31,0-4.21-4.09-4.21-4.42,0-.15-.14-.27-.3-.27-.37,0-5.69-5.24-5.69-5.6,0-.29-1.03-1.01-1.2-.84-.06.06.09.49.32.97.24.47.45,1.05.47,1.28.02.23.47,1.3.99,2.37s1.13,2.39,1.36,2.92.53,1.04.67,1.12c.14.09.25.47.25.86,0,.38.24,1.09.52,1.55.29.47.52,1.05.52,1.28s.16.62.36.84c.61.69,1.46,2.35,1.46,2.86,0,.26.23.68.51.93.29.26.59.98.69,1.67.38,2.6,1.56,4.28,6.47,9.18,2.52,2.52,4.59,4.72,4.59,4.89s.26.43.59.58c.32.15.82.65,1.11,1.1.31.49.79.86,1.17.92.87.12,1.3.51,1.3,1.18,0,.36.92,1.48,2.61,3.15,1.43,1.43,2.61,2.72,2.61,2.86s2.52,2.79,5.6,5.87c3.08,3.08,5.6,5.73,5.6,5.88,0,.36,1.09,1.39,1.88,1.79.33.16.74.59.91.94.17.35,1.02,1.33,1.89,2.16.87.83,1.89,1.95,2.28,2.48.72.98,1.57,1.83,3.47,3.44,1.37,1.16,1.77,1.57,2.74,2.75,1.9,2.33,2.71,2.97,5.5,4.31,1.56.76,2.91,1.48,3,1.6.24.36,1.55.98,2.05.98.25,0,.66.24.92.52.26.29.68.52.94.52s.54.11.62.25c.09.14,2.94,1.63,6.33,3.31,3.4,1.68,6.43,3.28,6.74,3.55.48.42.64.44,1.1.16.47-.29.62-.26,1.19.28.62.59,1.12.91,2.43,1.61,1.42.76-.68,4.25-2.87,4.76-.39.09-.72.31-.72.49,0,.38-4.45,4.87-4.83,4.88-.14,0-2.56,2.33-5.38,5.17-2.82,2.85-5.32,5.25-5.56,5.34-.24.09-.5.4-.58.69-.08.29-.28.52-.45.52s-1.1.76-2.05,1.69c-.95.93-1.85,1.69-2,1.69s-.26.16-.26.35c0,.39-1.07,1.48-1.45,1.48-.14,0-2.65,2.4-5.58,5.34-2.94,2.94-5.49,5.34-5.67,5.34s-.45.3-.58.66c-.14.36-.51.76-.84.89-.32.13-1,.66-1.5,1.19-.5.53-1.19,1.07-1.52,1.2-.34.13-.67.47-.75.76-.07.28-.27.52-.43.52s-1.76,1.47-3.55,3.26c-1.79,1.79-3.4,3.26-3.58,3.26s-.33.24-.33.52-.17.52-.39.52c-.48,0-1.44.79-1.44,1.2,0,.17-.56.75-1.24,1.3-.68.55-1.77,1.5-2.41,2.12-.65.62-1.24,1.12-1.33,1.12s-2.78,2.64-5.98,5.86c-3.2,3.22-5.98,5.86-6.16,5.86s-.34.16-.34.36-.24.42-.52.5c-.29.07-.52.29-.53.49,0,.19-.5.59-1.1.87-.6.29-1.23.79-1.4,1.12-.39.78-1.68,2.13-2.05,2.13-.15,0-1.74,1.47-3.53,3.26-1.79,1.79-3.37,3.26-3.52,3.26s-.38.26-.53.58c-.14.32-.54.72-.88.89-.86.42-4.89,4.43-5.66,5.63-.35.54-.77.98-.95.98-.18,0-5.57-5.25-11.98-11.66Z"/>
  </g>
</svg>