<?xml version="1.0" encoding="UTF-8"?>
<svg id="Layer_2" data-name="Layer 2" xmlns="http://www.w3.org/2000/svg" viewBox="0 0 265.77 173.07">
  <g id="Layer_1-2" data-name="Layer 1">
    <path d="M93.6,1.81c-.08-.65-.29-.9-.76-.9s-.69.25-.76.9c-.09.78.01.9.76.9s.85-.12.76-.9ZM89.5,5.91c-.11-.18.04-.47.33-.63.79-.44.76-3.81-.04-4.4-.86-.63-.37-.85,1.95-.88,4.33-.07,5.41,2.8,1.35,3.57-1.2.22-1.43.95-.51,1.63.32.23.5.49.41.57-.37.33-3.31.46-3.5.15ZM28.92,10.47c0-.47.68-.86,1.51-.86.26,0,.47.3.47.66,0,.51-.22.66-.99.66-.62,0-.99-.17-.99-.46ZM7.11,11.03c-.55-.55-.17-1.12.69-1.03,1.06.12,1.22.98.21,1.13-.38.06-.79.01-.9-.1ZM32.08,15.01c-.29-.75-.27-.8.46-.8.44,0,.66.22.66.66,0,.78-.83.88-1.11.14ZM14.68,15.07c-.22-.58.04-.85.82-.85s.8.84.08,1.12c-.69.27-.7.27-.9-.26ZM29.08,13.72c0-2.11.01-2.14.9-2.14.84,0,.9.09.91,1.4,0,.77.09,1.73.2,2.14.18.66.08.74-.91.74h-1.11v-2.14ZM20.23,15.27c-.21-.66.56-2.84,1.12-3.19.5-.31.4-.73-.22-.97-.34-.13-.67-.01-.84.29-.38.68-.8.64-.99-.1-.31-1.17.33-1.69,2.07-1.69.89,0,1.63.07,1.63.14s-.17.56-.37,1.07c-.2.51-.46,1.81-.57,2.9-.22,2.1-1.35,3.06-1.83,1.55ZM6.74,15.08c.29-1.27.29-1.81-.01-2.76-.21-.66-.12-.74.79-.74.98,0,1.02.06,1.02,1.34,0,.73.16,1.63.36,2,.45.84.26,1.02-1.21,1.12-1.18.08-1.19.07-.95-.95ZM0,15.71c0-.28.23-.51.51-.51.42,0,.49-.39.41-2.22-.07-1.63-.21-2.19-.53-2.13-.26.05-.39-.14-.32-.49.1-.5.52-.59,2.98-.64l2.87-.06v1.45c0,1.72-.56,1.91-1.38.46-.64-1.13-1.42-1.28-1.67-.33-.09.36-.04.66.13.66s.3-.15.3-.33.22-.33.49-.33c.36,0,.49.38.49,1.48,0,1.51-.23,1.78-.92,1.09-.31-.31-.39-.23-.39.33,0,.44.2.72.52.72s.47.22.41.58c-.15.8-3.88,1.05-3.88.26ZM23.99,17.64c0-.1.15-.47.34-.81.24-.45.22-.82-.07-1.29-.56-.89.12-1.67.98-1.11.6.39.6,1.01.02,2.5-.3.76-1.26,1.31-1.26.72ZM11.83,12.88c0-.37-.15-.58-.33-.47-.18.11-.33.42-.33.68s.15.47.33.47.33-.3.33-.68ZM12.49,16.18c0-.18-.29-.33-.64-.33s-.73.15-.84.33c-.11.19.16.33.64.33s.84-.15.84-.33ZM10.63,17.48c-1.05-.39-1.17-.78-.92-3.13.28-2.65.71-3.13,2.69-3,1.5.1,2.78,1.1,1.84,1.44-1.13.41-2.15,1.65-1.5,1.82.69.18,1.28,1.81.81,2.28-.51.51-2.2.85-2.92.58ZM5.86,89.74c-.13-.9-.93-1.21-.93-.35,0,.68.27,1.07.73,1.07.16,0,.25-.32.19-.71ZM6.24,93.99c0-.53-.64-1.53-.65-1.01,0,.21-.09.62-.21.9-.13.34-.02.52.33.52.29,0,.53-.18.52-.41ZM1.64,95.45c0-.39.28-.77.66-.89.59-.19.66-.5.66-2.98v-2.77h-.99c-1.05,0-1.26-.35-.55-.94.61-.5,5.03-.56,5.62-.07.76.63.99,2.31.41,2.9-.46.46-.43.57.29,1.14,1.81,1.43.77,3.87-1.64,3.87-.78,0-2.09.09-2.93.21-1.39.19-1.52.15-1.52-.47ZM261.81,90.24c-.12-.12-.32-.12-.44,0-.12.12-.02.22.22.22s.34-.1.22-.22ZM263.89,96.15c-.27-.09-.69-.23-.94-.31-.34-.11-.36-.25-.08-.59.28-.33.26-.54-.08-.82-.35-.29-.55-.26-.87.12-.28.34-.3.5-.04.5.2,0,.37.22.37.49,0,.38-.41.49-1.75.49-2.25,0-2.39-.18-1.17-1.57,1.96-2.23,1.83-3.95-.33-4.51-1.56-.4-.15-.78,3.25-.86,2.83-.07,3.45,0,3.45.38,0,.26-.3.52-.66.58-1.06.17-2.6,2.61-2.07,3.29.63.81,1.32,1.35,2.15,1.7,1.42.6.3,1.61-1.23,1.1ZM97.49,10.38c-.12-.12-.32-.12-.44,0-.12.12-.02.22.22.22s.34-.1.22-.22ZM86.1,30.64c0-.18-.15-.33-.33-.33s-.33.15-.33.33.15.33.33.33.33-.15.33-.33ZM86.36,33.77c.42-.36-.65-1.74-1.22-1.58-.66.17-.95,1.36-.45,1.86.19.19,1.36,0,1.68-.27ZM81.45,35.38c.25-.21-1.35-2.13-1.69-2.02-.19.06-.54.66-.77,1.33l-.42,1.21,1.38-.21c.76-.12,1.43-.26,1.5-.31ZM91.69,13.45c0-.62.32-.86.85-.65.7.27.55,1.09-.2,1.09-.36,0-.66-.2-.66-.44ZM91.8,15.67c-.28-.71.42-1.38.92-.89.42.42.16,1.4-.37,1.4-.19,0-.44-.23-.55-.51ZM92.02,17.5c0-.36.22-.66.49-.66s.49.29.49.66-.22.66-.49.66-.49-.29-.49-.66ZM91.94,19.94c-.33-.33.11-1.12.63-1.12.27,0,.43.24.37.55-.11.59-.68.91-1.01.58ZM92.02,21.28c0-.27.22-.49.49-.49s.49.22.49.49-.22.49-.49.49-.49-.22-.49-.49ZM92.02,23.25c0-.27.22-.49.49-.49s.49.22.49.49-.22.49-.49.49-.49-.22-.49-.49ZM92.02,25.22c0-.27.22-.49.49-.49s.49.22.49.49-.22.49-.49.49-.49-.22-.49-.49ZM92.18,27.03c-.11-.18-.05-.33.15-.33s.35.15.35.33-.06.33-.15.33-.24-.15-.35-.33ZM89.72,28.39c0-.69.66-2.02,1-2.02.62,0,.22,2.12-.42,2.24-.32.06-.57-.04-.57-.22ZM88.07,27.92c0-.84.83-1.81,1.22-1.42.31.31-.32,1.93-.81,2.09-.26.09-.41-.17-.41-.67ZM92.23,29.1c-.37-.37-.23-.76.28-.76.27,0,.49.14.49.31,0,.41-.51.71-.78.45ZM91.85,31.3c-.28-.44.1-.99.68-.99.26,0,.47.3.47.66,0,.68-.79.91-1.15.33ZM92.02,32.94c0-.18.15-.33.33-.33s.33.15.33.33-.15.33-.33.33-.33-.15-.33-.33ZM155.46,57.75c.53-.28.97-.72.97-.99,0-.97-6.08-10.34-8.62-13.28-.23-.27-1.05-1.3-1.83-2.3-3.95-5.1-10.63-11.19-11.6-10.58-.34.21-.62.25-.62.08s.15-.4.33-.52c.64-.39.3-.76-2.78-3-9.68-7.04-20.83-12.1-33.28-15.1-5.53-1.33-4.91-1.28-5.12-.47-.1.37-.45.66-.8.66-.77,0-1.5.8-3.42,3.78-2.9,4.5-2.85,4.4-5.37,9.29-.72,1.4-1.55,2.91-1.84,3.36-.94,1.44-.99,2.33-.21,3.3.4.49.89,1.17,1.1,1.51.75,1.22,1.4,0,2.73-5.07.72-2.75,2-1.26,2.99,3.48.24,1.16.58,1.84,1.04,2.09,1.18.64,0,.99-3,.88-2.11-.07-2.8.01-2.91.35-.12.36,6.44.41,8.72.06.04,0,.08-.23.08-.51s.15-.49.33-.49.33.22.33.49c0,.4.51.49,2.62.49,2.76,0,11.85,1.05,14.64,1.69,14.89,3.42,26.03,7.97,34.56,14.08.75.54,1.46.98,1.56.98.36,0,5.26,3.71,6.59,4.99,1.49,1.43,1.5,1.43,2.81.75ZM158.5,60.27c-.17-.11-.41-.48-.53-.81-.23-.61-1.24-.65-1.42-.06-.14.43,1.99,1.82,2.14,1.4.07-.18-.02-.42-.19-.53ZM166.56,60.8c-2.21-4.74-2.83-5.3-1.39-1.25.67,1.88,1.1,2.64,1.49,2.64.5,0,.49-.13-.1-1.4ZM163.66,61.34c0-1.03-.77-.92-.93.14-.07.47.07.71.41.71s.52-.3.52-.85ZM161.49,61.91c.09-.15.34-1.37.55-2.71.4-2.57.79-3.39,1.51-3.11.69.27.54-.22-1.01-3.15-3.78-7.15-9.42-14.62-14.37-19.01-1.32-1.17-3.49-3.14-4.82-4.36-2.08-1.91-4.2-3.55-7.09-5.47-3.41-2.26-5.13-3.32-5.43-3.32-.2,0-.36-.14-.36-.31s-.33-.41-.74-.54c-.41-.13-2.22-.94-4.03-1.8-3.43-1.64-4.73-2.14-11.08-4.28-5.21-1.75-12.56-3.29-15.54-3.23l-1.31.02,1.15.32c9.56,2.62,25.27,8.96,26.61,10.74.23.31,1.33.98,2.25,1.38.42.18.98.55,1.25.82.27.27,1.26,1,2.22,1.64,3.45,2.29,13.69,12.22,16.53,16.04.51.68,2,2.63,3.31,4.33,1.31,1.7,2.38,3.2,2.38,3.34s.21.48.47.77c.62.69,2.02,3.25,4.45,8.16,1.82,3.67,2.58,4.59,3.1,3.75ZM157.85,62.09c-.51-.42-1.67-1.27-2.57-1.89-.9-.62-2.31-1.65-3.12-2.3-2.18-1.72-9.67-6.62-12.32-8.04-1.27-.68-2.45-1.35-2.63-1.48-6.42-4.59-23.15-9.55-37.04-11-6.78-.71-6.81-.7-7.26.48-.44,1.17-.8,1.26-.95.25-.12-.84-5.76-1.2-9.96-.65l-1.97.26,4.93,1.58c2.71.87,5.07,1.72,5.24,1.88.76.73,1.82.33,1.82-.69,0-.66.16-.99.49-.99.36,0,.49.36.49,1.3v1.3l2.38.7c2.23.66,9.55,2.91,15.53,4.79,1.45.45,3.37,1.03,4.27,1.29,2.48.7,14.38,4.58,20.7,6.74,3.07,1.05,7.51,2.51,9.86,3.24,2.35.73,6.12,1.91,8.38,2.63,4.87,1.55,4.91,1.56,3.72.59ZM168.26,65.59c0-.12-.18-.72-.4-1.31l-.39-1.09h-3.47c-3.98.02-3.91.18.71,1.63,3.37,1.05,3.54,1.09,3.54.77ZM172.23,81.58c-.67-5.36-2.48-12.96-3.32-13.98-.37-.45-5.12-2.13-6.01-2.13-.37,0,.14,1,1.71,3.37,2.74,4.14,6.29,11.86,7.44,16.18.49,1.85.6-.14.18-3.45ZM13.5,82.91c.56-2.23,1.16-4.29,1.32-4.58.16-.29.61-1.34.98-2.33,3.11-8.17,14.57-20.66,23.79-25.93,8.75-5,22.93-11,28.3-11.99.53-.1,2.37-.48,4.08-.85,1.72-.37,3.53-.67,4.03-.67.99,0,.94.07,2.39-3.78,1.29-3.42,3.57-8.09,5.95-12.16,2.62-4.48,2.53-4.34,4.66-7.48.97-1.42,1.71-2.64,1.64-2.7-.3-.28-12.99.94-15.72,1.51-2.56.53-10.59,3.21-11.07,3.69-.12.12-.42.22-.67.22s-1.07.3-1.81.66c-.75.36-1.56.66-1.8.66s-1.06.39-1.82.87c-.76.48-2.12,1.22-3.03,1.65-2.45,1.16-4.38,2.33-7.75,4.71-1.66,1.17-3.35,2.36-3.75,2.63-2.77,1.89-10.25,8.95-11.86,11.2-.54.75-1.51,1.98-2.16,2.72-2.73,3.13-6.98,10.16-9.46,15.65-.85,1.87-3.1,7.96-3.59,9.69-1.16,4.14-2.04,8.02-2.68,11.83-.21,1.26-.51,2.97-.67,3.78-.3,1.52-.63,5.34-.44,5.15.06-.06.56-1.93,1.12-4.16ZM91.69,45.93c0-.27.22-.49.49-.49s.49.22.49.49-.22.49-.49.49-.49-.22-.49-.49ZM91.91,48.51c-.51-.51-.21-1.43.45-1.43.51,0,.65.18.57.71-.11.74-.64,1.11-1.03.72ZM91.75,50.31c.06-.39.29-.77.51-.85.6-.2.93.91.38,1.26-.74.47-1,.35-.89-.41ZM91.69,52.33c0-.44.22-.66.66-.66s.66.22.66.66-.22.66-.66.66-.66-.22-.66-.66ZM91.75,54.72c.17-.86,1.25-.95,1.25-.11,0,.47-.21.68-.68.68s-.65-.18-.57-.57ZM91.69,57.32c0-.78.28-1.04.85-.82.73.28.57,1.42-.2,1.42-.42,0-.66-.22-.66-.6ZM91.82,60.1c-.25-.64.09-1.19.73-1.19.32,0,.46.25.39.71-.13.87-.85,1.18-1.12.48ZM91.91,62.71c-.2-.51.53-1.3.88-.95.12.12.22.49.22.82,0,.71-.84.81-1.1.13ZM91.88,65.26c-.12-.31,0-.77.28-1.04.58-.58,1.08.19.73,1.1-.25.65-.75.63-1.01-.06ZM92.08,66.88c.06-.32.25-.58.43-.58s.37.26.43.58c.07.36-.09.57-.43.57s-.5-.22-.43-.57ZM91.86,69.77c-.29-.47.08-1,.69-1,.29,0,.45.23.39.55-.13.66-.78.94-1.08.46ZM91.81,72.23c-.23-.61.11-1.17.72-1.17.29,0,.47.33.47.82,0,.9-.88,1.16-1.19.34ZM92.23,74.79c-.12-.12-.22-.49-.22-.82,0-.71.84-.81,1.1-.13.2.51-.53,1.3-.88.95ZM92.02,76.51c0-.67.68-1.01,1-.49.15.24.2.56.11.7-.28.45-1.11.29-1.11-.21ZM92.08,78.71c.17-.86,1.25-.95,1.25-.11,0,.47-.21.68-.68.68s-.65-.18-.57-.57ZM92.02,80.92c0-.44.22-.66.66-.66s.66.22.66.66-.22.66-.66.66-.66-.22-.66-.66ZM92.18,83.88c-.28-.44.1-.99.68-.99.26,0,.47.3.47.66,0,.68-.79.91-1.15.33ZM92.25,86.3c-.31-.31.41-1.49.77-1.26.47.29.37,1.47-.13,1.47-.24,0-.53-.09-.65-.21ZM92.15,87.96c.11-.29.2-.58.2-.66s.22-.14.49-.14.49.29.49.66c0,.45-.22.66-.69.66s-.63-.15-.49-.52ZM94.17,90.81c.17-.16,1.05-.53,1.95-.8,2.51-.78,4.33-1.45,7.56-2.83,1.63-.69,5.47-2.25,8.54-3.47,3.07-1.21,6.02-2.41,6.54-2.67.52-.25,1.07-.46,1.21-.46.25,0,2.67-1.07,6.82-3.02,1.14-.54,2.15-.9,2.25-.81.09.09.86-.13,1.7-.5,2.78-1.21,6.11-2.61,7.3-3.05.64-.24,1.85-.74,2.68-1.12.83-.38,4.29-1.81,7.7-3.19,3.41-1.38,6.94-2.84,7.84-3.25.9-.41,1.98-.85,2.39-.98,1.12-.35.67-.68-1.8-1.32-1.23-.32-2.82-.78-3.55-1.02s-2.65-.83-4.27-1.31c-1.63-.48-4.21-1.29-5.75-1.8-3.61-1.2-12.88-4.2-22.84-7.38-12.6-4.03-23.18-7.45-25.21-8.16-1.98-.69-2.89-.61-2.89.26,0,.29-.16.43-.36.3-.2-.12-.27-.54-.17-.93.16-.63-.04-.78-1.7-1.24-1.03-.29-3.36-1.08-5.16-1.75-6.89-2.56-6.59-2.62-5.28,1.05.44,1.23,1.18,3.86,1.64,5.85.46,1.99.99,4.13,1.17,4.77.18.63,1.23,4.85,2.33,9.37,1.1,4.52,2.27,9.1,2.6,10.19.33,1.09.89,3.15,1.24,4.6,1.07,4.32,1.72,6.84,2.04,7.89.29.96.72,2.67,1.14,4.52.14.61.41.9.86.9.47,0,.65.22.65.82,0,.85.3,1.04.84.52ZM91.36,91.05c0-.21-.14-.84-.32-1.4-.18-.56-.76-2.71-1.29-4.79-.53-2.08-1.65-6.29-2.48-9.37-3.85-14.22-4.96-18.64-6.58-25.96-1.12-5.08-2.61-10.08-2.83-9.48-.12.33-.17.69-.11.79.06.11.21,5.13.33,11.17.12,6.04.27,13.13.33,15.75.06,2.62.14,8.76.18,13.64.04,4.88.14,9.13.22,9.45.18.72,12.56.9,12.56.19ZM77.4,79.4c-.12-6.66-.28-14.18-.34-16.71-.07-2.53-.15-8.67-.17-13.64l-.05-9.04-.96,2.96c-3.41,10.52-6.81,27.12-7.51,36.64-.15,2.08-.46,5.39-.69,7.36-.51,4.49-.77,4.27,5.27,4.42l4.68.12-.22-12.11ZM56.73,91.07l9.24-.02.21-1.99c.11-1.09.21-3.33.21-4.98,0-5.24.78-10.76,3.31-23.53.92-4.65,2.83-11.58,4.63-16.86,1.9-5.56,1.93-5.34-.6-4.83-5.91,1.19-9.61,2.23-16.38,4.6-1.95.68-10.52,4.82-12.71,6.14-5.14,3.09-6.32,3.86-6.93,4.57-.38.43-.8.79-.95.79-.23,0-3.68,2.49-4.77,3.44-.21.18-1.02.85-1.8,1.49-2.69,2.19-7.05,6.74-7.61,7.94-.31.66-.69,1.25-.84,1.31-.36.14-2.39,3.07-3.15,4.54-1.57,3.02-2.14,4.29-2.35,5.15-.12.51-.33,1.08-.45,1.26-1.15,1.69-1.09,2.98.25,5.34.72,1.28,1.42,2.82,1.56,3.42.13.6.36,1.42.51,1.83l.28.73,14.55-.17c8-.09,18.71-.18,23.79-.19ZM16.48,90.78c-.15-1.09-1.93-4.93-2.28-4.93s-1.19,5.1-.9,5.58c.51.83,3.3.26,3.18-.65ZM171.99,90.37c-.05-1.51-1.43-6.8-2.25-8.62-.24-.54-.96-2.24-1.58-3.78-.63-1.54-1.64-3.69-2.24-4.78-.61-1.1-1.47-2.68-1.92-3.53-.75-1.42-1.64-2.2-1.2-1.04.21.54,1.71,5.49,2.8,9.19.87,2.97,1.62,6.41,2.29,10.52l.54,3.29,1.48.2c2.08.27,2.14.23,2.08-1.43ZM167.14,91.72c.35-.56-1.81-11.23-3.16-15.56-1.82-5.89-2.68-8.55-2.79-8.66-.07-.07-.05,5.03.04,11.33s.16,11.86.15,12.36l-.02.9,2.81-.06c1.55-.03,2.88-.17,2.97-.31ZM160.09,84.54c-.04-4.07-.06-10.09-.05-13.39l.02-6-1.9.86c-1.04.47-2.71,1.19-3.7,1.59s-2.32.97-2.96,1.26c-.63.29-2.09.92-3.25,1.39-1.15.47-2.63,1.15-3.28,1.5-.65.35-1.39.63-1.63.63-.54,0-8.31,3.24-8.75,3.65-.17.16-.56.29-.87.29s-1.28.36-2.15.8c-1.63.82-6.65,2.81-7.1,2.81-.14,0-1.52.59-3.07,1.32-1.55.72-3,1.31-3.22,1.31s-.87.35-1.45.78c-.58.43-1.76.96-2.61,1.18-2,.52-2.59.72-6.15,2.1-1.63.63-4.95,1.92-7.39,2.86-2.44.94-4.56,1.83-4.72,1.97-.16.14,11.95.27,26.9.27,14.95,0,27.24.06,27.3.12.06.06,2.36.11,5.11.1l5-.02-.07-7.39ZM177.46,88.07c0-.68-.13-1.23-.29-1.23-.39,0-.81,2.49-.51,2.98.37.6.8-.34.8-1.75ZM175.73,90.87c-.96-1.07-1.03-2.75-.17-4.03,1.3-1.93,3.22-1.61,3.28.55.08,3.02-1.72,5.03-3.11,3.47ZM188.63,92.08c3.52-.02,13.8-.03,22.84,0,9.04.02,16.89-.1,17.46-.26.6-.17,1.22-.17,1.48,0,.95.61,20.11.24,19.45-.37-.29-.26-4.91-1.67-8.15-2.48-2.54-.63-4.39-1.13-5.42-1.46-.45-.14-1.86-.57-3.12-.94-1.27-.38-4-1.2-6.08-1.82-2.08-.62-5.7-1.67-8.05-2.32-2.35-.65-5.38-1.53-6.74-1.95-2.43-.76-4.5-1.36-9.69-2.82-1.45-.41-3.04-.95-3.55-1.21-.51-.26-2.13-.74-3.61-1.07-1.48-.33-3.51-.9-4.5-1.26-.99-.36-2.69-.91-3.78-1.22-1.09-.31-2.78-.83-3.78-1.15-3.11-1.01-5.05-1.57-6.24-1.81-.63-.12-2.21-.58-3.51-1.02s-2.49-.79-2.65-.79.2,1.96.79,4.35c1.99,7.94,2.14,8.97,2.13,14.45v5.16s3.01.11,3.01.11c1.66.06,3.53.07,4.17.02.63-.05,4.03-.11,7.56-.13ZM15.59,96.4c.27-.52.59-1.56.71-2.3l.22-1.35h-1.68c-1.9,0-2.06.3-1.24,2.34.24.61.54,1.37.65,1.68.3.84.8.7,1.36-.38ZM172.93,97.36c.08-.54.04-.99-.09-.99s-.4.44-.58.99c-.27.78-.25.99.09.99.24,0,.5-.44.58-.99ZM183.7,98.16c3.71-.26,8.96-.62,11.67-.79,2.71-.18,6.41-.48,8.22-.67,3.68-.39,6.07-.6,9.69-.82,2.35-.15,12.6-1.12,18.9-1.79,1.63-.17,4.7-.41,6.83-.53,5.74-.32,4.35-.61-2.49-.52-8.32.11-50.24.04-52.65-.09-1.09-.06-3.72-.01-5.86.1l-3.89.21-.11,2.71-.11,2.71,1.54-.02c.85,0,4.57-.23,8.28-.49ZM171.53,96.83c1.07-3.46.99-3.75-1-3.75h-1.67l.21,2.22c.43,4.65,1.33,5.2,2.46,1.53ZM166.28,99.44l2.06-.22-.21-2.3c-.38-4.1-.12-3.84-3.77-3.84h-3.18l.07,2.38c.04,1.31.08,2.79.09,3.29.02,1.02.77,1.12,4.94.69ZM160.37,96.42v-3.24l-14.71-.23c-15.37-.24-45.76-.3-45.98-.09-.07.07,1.25.22,2.92.35,1.68.12,4.23.36,5.68.53,1.45.17,4.99.55,7.89.83,9.68.96,14.07,1.45,23.83,2.62,5.33.64,11.54,1.39,13.8,1.66,2.26.27,4.26.55,4.44.62.18.07.74.14,1.23.16l.9.03v-3.24ZM168.26,100.81c.36-.43.14-.49-1.67-.49-2.64,0-2.1.71.73.94.29.02.72-.18.94-.45ZM82.49,103.41c1.36-1.72,3.83-4.78,5.5-6.8,1.67-2.02,3.04-3.79,3.04-3.92,0-.13-2.7-.23-6.01-.22l-6.01.02.08,1.86c.04,1.02.17,2.92.29,4.21.11,1.29.09,2.42-.06,2.51-.45.28-.13,5.81.33,5.62.21-.09,1.5-1.56,2.85-3.28ZM173.85,105.74c0-1.68-.11-2.14-.49-2.14s-.49.46-.49,2.14.11,2.14.49,2.14.49-.46.49-2.14ZM92.18,100.97c-.87-.96-1.01-3.79-.26-5.25.58-1.13.63-1.15,2.66-1.15h2.07l-.1,1.48c-.12,1.88-1.07,2.27-1.67.68-.86-2.29-1.98.04-1.29,2.7.4,1.52,1,1.4,1.94-.37.03-.06.22-.02.41.1.45.28-.41,1.99-1.14,2.28-1,.38-2.02.2-2.62-.46ZM84.79,107.37c5.63-.71,11.78-1.37,16.76-1.79,2.44-.21,8.95-.89,14.46-1.52,5.51-.63,11.99-1.28,14.39-1.45,2.4-.17,5.29-.45,6.41-.62,1.12-.17,3.69-.4,5.71-.51,2.02-.11,4.24-.26,4.93-.33.69-.07,2.81-.22,4.71-.34,4.71-.29,5.7-.58,2.96-.87-5.59-.59-20.62-2.28-23.99-2.7-2.08-.26-4.81-.57-6.08-.69-1.27-.12-2.89-.28-3.61-.36-.72-.08-4.35-.45-8.05-.81-10.75-1.06-15.84-1.64-17.25-1.98-1.86-.43-3.76-.39-4.21.09-.21.23-.98,1.15-1.7,2.05-.72.9-1.51,1.86-1.74,2.14-.23.27-1.75,2.12-3.36,4.11-1.61,1.99-3.38,4.12-3.93,4.73-1.42,1.6-1.77,1.52,3.61.84ZM72.76,114.34c1.61-1.84,3.13-3.57,3.38-3.84,1.88-2.05,2.46-3.15,2.28-4.27-.1-.63-.29-4-.41-7.48l-.22-6.33h-10.41l.15,11.42c.08,6.28.17,11.79.19,12.24.02.45-.05,1.63-.17,2.63l-.21,1.81,1.25-1.42c.69-.78,2.56-2.93,4.17-4.77ZM66.15,119.87c-.2-3-.28-18.4-.12-22.27.1-2.49.14-4.67.08-4.85-.17-.5-47.57-.4-47.97.11-.17.21-.4,1.12-.52,2.01-.12.89-.51,2.12-.87,2.73-.36.61-.66,1.38-.66,1.7,0,.59,3.79,4.38,5.71,5.72.56.39,1.32.96,1.68,1.26,1.74,1.44,12.59,6.85,17.28,8.61,6.12,2.3,22.1,6.17,24.79,6.02.52-.03.64-.25.59-1.03ZM161.36,104.9c0-.81.99-2.62,1.44-2.62s.43.17-.02,1.48c-.44,1.29-1.43,2.08-1.43,1.14ZM87.54,112.65c-.47-1.23,1.09-3.72,1.84-2.93.66.68-.04,3.41-.87,3.41-.43,0-.87-.22-.97-.48ZM85.44,112.12c0-1.12.51-2.28,1-2.28.42,0,.41,1.85-.02,2.65-.51.95-.97.77-.97-.37ZM96.29,122.5c10.08-.25,12.92-.42,14.55-.86.68-.18,1.36-.26,1.51-.16,1.48.92,24-3.13,31.75-5.7,4.98-1.65,7.86-2.65,8.54-2.96,5.28-2.36,7.47-3.61,6.37-3.64-.32,0-.84-.7-1.3-1.74l-.77-1.73-.12,1.09c-.07.6.06,1.31.28,1.57.6.72-.05,1.18-1.52,1.05-1.44-.12-2.01-.93-.65-.93.86,0,.87-.02.79-2.22-.09-2.58-.39-3.37-1.29-3.37-.77,0-.85-.51-.12-.79,1.47-.57,3.41.12,3.43,1.22,0,.21.31.76.68,1.21l.68.82-.18-1.73-.17-1.73h.97c1.02,0,1.37.76.51,1.09-.44.17-.5,5.28-.07,5.71.18.18,2.38-1.22,3.66-2.33.54-.47,1.09-.86,1.22-.86.23,0,3.21-2.87,3.21-3.09,0-.15-2.25-.71-4.85-1.21-2.24-.43-5.99-.25-10.43.51-2.46.42-6.42.78-22.02,2-3.43.27-8.39.78-11.01,1.13-4.56.61-8.62,1.03-21.36,2.18-15.32,1.38-18.77,1.77-19.71,2.21-1.15.54-1.02,1.01.32,1.2.94.13,1.26.39,1.73,1.4.75,1.6.98,1.56.85-.16l-.1-1.4h1.23c1.4,0,1.74.51.65.98-.68.3-.74.54-.74,2.88,0,3.35-1.01,3.7-2.41.83-.8-1.64-.84-1.68-.86-.7-.01.56.2,1.21.47,1.44,1,.83.57,1.31-1.15,1.31s-2.36-.72-.99-1.08c.96-.25.98-4.15.03-4.74-.55-.34-.78-.22-1.82.99-.66.76-2.69,3.07-4.51,5.12-2.42,2.73-3.19,3.8-2.86,3.97,1.04.54,17.13,1.76,18.86,1.44.18-.03,4.1-.16,8.71-.27ZM64.93,127.78c.66-.66.58-1.17-.19-1.17-.48,0-.66.22-.66.82,0,.94.18,1.02.85.35ZM60.95,132.57c-.4-.4-.08-1,.58-1.09,1.21-.17,1.29-4.71.09-5.26-1.81-.83-.67-1.19,2.95-.93,2.34.17,3.52,1.26,2,1.84-.38.14-.52.65-.52,1.85,0,1.58-.03,1.64-.82,1.49-.54-.1-.82,0-.82.27,0,.89.71.81,1.62-.16.52-.56,1.11-1.01,1.31-1.01.4,0,.49,1.93.11,2.51-.24.36-6.18.82-6.49.5ZM104.5,171.01c4.87-.8,6.07-1.06,10.19-2.17,1.72-.46,3.68-.99,4.37-1.17.68-.18,1.5-.47,1.81-.64.31-.17,1.89-.85,3.52-1.5,5.61-2.25,15-7.93,19.09-11.57.36-.32,1.75-1.54,3.09-2.72,3.59-3.15,4.59-4.14,7.27-7.26,3.5-4.08,3.9-4.56,3.9-4.74,0-.09.67-1.2,1.48-2.47.81-1.27,1.48-2.38,1.48-2.47s.4-.79.88-1.56c4.18-6.61,10.52-23.57,8.82-23.57-.27,0-.49-.22-.49-.49s.22-.49.49-.49c.72,0,.69-3.83-.03-4.64-.68-.75-.33-1.28.84-1.28.95,0,1.33-.48,1.33-1.67,0-1.12-1.11-.68-2.3.91-2.21,2.96-9.7,9.96-10.65,9.96-.09,0-.79.41-1.57.92-.78.51-2.38,1.34-3.55,1.86-1.17.52-3.47,1.56-5.09,2.32-3.78,1.76-10.06,3.71-15.61,4.86-1.36.28-3.28.68-4.27.9-.99.22-2.47.46-3.29.55-.81.09-2.66.42-4.11.75-1.45.33-3.66.7-4.93.82-1.27.12-2.74.28-3.29.36-5.26.76-22.84,1.24-29.74.8-11.6-.73-13.09-.85-15.45-1.33-.81-.16-2.07-.36-2.79-.44-.72-.08-3.02-.46-5.09-.84-3.37-.62-4.81-.97-8.38-2.01-.54-.16-2.02-.58-3.29-.94-3.13-.88-9.2-3.08-11.4-4.12-.99-.47-1.91-.85-2.04-.85-.71,0-9.62-4.77-11.86-6.35-1.45-1.02-2.91-2.04-3.26-2.27-1.74-1.15-5.86-5.84-6.81-7.74-.57-1.14-1.1-1.99-1.19-1.91-.12.12.13,2.34.4,3.48.02.09.23,1.2.46,2.46.97,5.28,3.91,15.67,5.3,18.73.16.36.61,1.4,1,2.3,1.85,4.33,4.59,9.42,5.89,10.91.19.22.34.49.34.61,0,1.27,7,9.59,12.16,14.45,8.39,7.9,23.63,16.41,34.16,19.06,1.01.25,2.87.76,4.13,1.13,2.17.63,5.36,1.11,11.01,1.65,4.38.42,12.68.13,17.09-.6ZM85.12,172.63c-6.76-.99-10.64-1.67-11.34-1.99-.36-.17-1.69-.59-2.96-.93-1.27-.34-3.56-1.14-5.09-1.77-1.54-.63-3.16-1.27-3.61-1.4-1.33-.41-6.71-3.05-8.02-3.94-.66-.45-1.4-.82-1.64-.82s-.79-.27-1.22-.6c-.43-.33-1.6-1.08-2.59-1.67-1.73-1.01-3.53-2.23-4.61-3.09-.27-.22-1.09-.84-1.81-1.37-.72-.53-1.38-1.05-1.47-1.15-.09-.1-.72-.6-1.41-1.11-2.01-1.5-9.21-8.9-10.28-10.57-.35-.54-.9-1.28-1.23-1.64-.82-.89-3.29-4.37-3.97-5.59-.3-.54-.84-1.43-1.2-1.97-.36-.54-.87-1.43-1.15-1.97-.27-.54-.64-1.21-.82-1.48-.99-1.51-3.06-6.57-4.63-11.32-.36-1.07-.77-2.11-.92-2.3-.27-.34-.67-1.65-.92-2.98-.07-.36-.56-2.36-1.09-4.44-1.75-6.83-2.79-21.41-1.83-25.67.1-.43.25-1.75.33-2.93.15-2.09,1.55-9.22,2.13-10.84.16-.45.69-2.23,1.18-3.94.49-1.72,1.01-3.42,1.16-3.78.15-.36.67-1.69,1.16-2.96.49-1.26,1.13-2.67,1.43-3.12.3-.45.83-1.41,1.18-2.14.35-.72,1.02-1.91,1.49-2.63.47-.72,1.03-1.79,1.26-2.36.23-.58.7-1.3,1.04-1.6.34-.31.94-1.22,1.33-2.02.39-.8.91-1.54,1.16-1.63.25-.1.45-.35.45-.57s.36-.74.8-1.15c.44-.41.72-.94.63-1.18-.09-.24.14-.52.52-.65.38-.12.68-.35.68-.51,0-.54,6.42-7.12,10.68-10.94,7.6-6.83,24.36-15.11,34.04-16.82.59-.1,1.19-.26,1.34-.35.15-.09,1.93-.38,3.97-.64,2.04-.26,4.63-.61,5.75-.78,11.8-1.76,27.4,1.26,41.73,8.08,2.02.96,3.76,1.75,3.85,1.75.33,0,7.27,4.58,8.9,5.87.9.72,2.83,2.24,4.27,3.39,3.23,2.56,8.31,7.62,10.89,10.84,1.06,1.33,2.11,2.61,2.34,2.85.23.24.41.53.41.66s.53.81,1.18,1.54c.65.72,1.41,1.76,1.68,2.3.28.54,1.01,1.7,1.63,2.57.62.87,1.28,1.98,1.46,2.46.18.48.86,1.83,1.51,2.99l1.18,2.11.53-1.12c.53-1.11,1.69-1.74,1.67-.91,0,.24-.35,1.14-.78,1.99-.7,1.43-.72,1.63-.28,2.46.27.5,1.03,2.38,1.69,4.19l1.2,3.29,2.79.87c1.53.48,4.56,1.41,6.73,2.07,4.32,1.31,8.41,2.57,16.43,5.06,2.89.9,5.55,1.71,5.92,1.8.36.09,1.69.47,2.96.85,1.27.38,5.41,1.56,9.2,2.63,13.75,3.88,16.47,4.67,18.9,5.47,1.36.45,4.17,1.27,6.24,1.83,2.08.56,4.81,1.36,6.08,1.78,1.27.41,3.19.93,4.27,1.15,1.09.22,2.49.66,3.12.98.63.32,1.57.68,2.08.8.52.12.87.4.8.62-.2.62-2.59.88-30.48,3.36-3.16.28-7.3.65-9.2.83-1.9.17-4.41.4-5.59.49-1.17.1-3.61.32-5.42.5-4.63.45-15.85,1.22-23.99,1.65-7.81.41-7.4.32-7.4,1.74,0,.91.16,1.12,1.11,1.47,2.98,1.08,2.04,7.32-1.03,6.84-.95-.15-1.09-.07-1.27.72-.75,3.34-2.83,9.67-4.06,12.38-.49,1.09-1.3,2.9-1.79,4.04-.49,1.13-1.4,2.96-2.02,4.06-.62,1.1-1.13,2.04-1.13,2.1,0,.34-6.4,9.59-7.84,11.34-2.87,3.47-8.91,9.27-11.97,11.5-.87.63-2.24,1.67-3.04,2.32-.8.64-3.05,2.1-5,3.24-1.94,1.14-4.35,2.56-5.34,3.15-10.14,6.08-32.39,10.23-45.02,8.39Z"/>
  </g>
</svg>