<svg xmlns="http://www.w3.org/2000/svg" viewBox="0 0 108.86 182.28"><g id="Layer_2" data-name="Layer 2"><g id="Layer_1-2" data-name="Layer 1"><path d="M38.31,166.17c.72,0,1.44,0,2.16,0s.81.12.56.83c-.07.18-.14.36-.25.67-.15-.22-.3-.35-.32-.49,0-.4-.2-.71-.62-.6-.24.07-.42.38-.63.58l.15.16.46-.28.18,0a11.24,11.24,0,0,1-.3,1.14,3.5,3.5,0,0,1-.61-.09l-.19.69.58.27v.17l-1.23.14,5.12,6.19-.15.15a3.89,3.89,0,0,1-.58-.48l-5.86-7.17c-.19-.24-.33-.62-.74-.36s-.28.55-.11.88q2.36,4.86,4.69,9.73c.13.28.21.58.32.87l-.17.09a2.69,2.69,0,0,1-.34-.49l-4.07-8.4c-.25-.51-.54-1-.76-1.54s-.41-.47-.76-.22L31,171.37c-1.54,1.07-3.08,2.13-4.61,3.21s-3,2.18-4.57,3.27a1.23,1.23,0,0,0-.57,1.25,15.11,15.11,0,0,1,0,1.78.63.63,0,0,1-.2.43c-.45-.83-.11-1.72-.31-2.72l-5.13,3.69-.2-.21a4.34,4.34,0,0,1,.61-.67c1.33-1,2.66-1.92,4-2.84a1.54,1.54,0,0,0,.8-1.43c0-2.82,0-5.63.09-8.44,0-.11,0-.21-.06-.47-.46.25-.87.44-1.25.67l-7,4.31a3.18,3.18,0,0,1-.54.21l-.14-.19a4.12,4.12,0,0,1,.54-.49q4-2.4,7.94-4.77a.93.93,0,0,0,.56-.84c0-2.45.06-4.89.1-7.34a5.25,5.25,0,0,0-.08-.52L9.81,164.69l-.16-.21a2.69,2.69,0,0,1,.6-.48c2.85-1.39,5.7-2.76,8.56-4.14.59-.28,1.21-.54,1.78-.86a1,1,0,0,0,.46-.61c0-2.54,0-5.08,0-7.62,0,0,0-.07-.1-.2C16.92,152,12.9,153.69,8.78,155l-.1-.23a3.67,3.67,0,0,1,.53-.34l8.69-3.2,2.81-1c.54-.2.48-.67.48-1.07,0-1.43,0-2.85-.06-4.28,0-.59,0-1.19,0-1.88-5.07,1.52-10.07,2.89-15,4.31L6,147a5,5,0,0,1,.63-.27l11.8-3.34c.76-.22,1.52-.44,2.25-.72a.81.81,0,0,0,.42-.57c0-1.24,0-2.48-.11-3.71a3.89,3.89,0,0,0-.44-1.25c-.36-.77-.75-1.52-1.14-2.29-2.43.47-4.81,1-7.2,1.38s-4.64,1-7,1.28l-.06-.33,14.08-2.74c-.24-.5-.44-.94-.65-1.37-.7-1.46-1.43-2.91-2.1-4.38a.94.94,0,0,0-1.12-.64c-2.6.34-5.2.64-7.81.95-1.58.19-3.17.36-4.76.53a5.9,5.9,0,0,1-.73,0l0-.25a6.37,6.37,0,0,1,.75-.2l12.82-1.46a1.1,1.1,0,0,0,.29-.11l-1-2c-.8-1.67-1.61-3.33-2.4-5a.77.77,0,0,0-.8-.49c-3.45.06-6.91.1-10.36.13a2.11,2.11,0,0,1-.49-.09v-.25l11.19-.21c-.35-.75-.63-1.37-.92-2-.9-1.84-1.82-3.67-2.69-5.52a1,1,0,0,0-.91-.65c-1.65-.12-3.31-.27-5-.4l-2-.13a.83.83,0,0,1-.55-.26c2.62-.11,5.21.33,7.92.4l-1.24-2.74c-.69-1.49-1.45-2.95-2-4.47a1.77,1.77,0,0,0-1.86-1.18,19.38,19.38,0,0,1-2.49-.44c-.11,0-.18-.19-.27-.29.12-.06.25-.18.36-.16.44.06.88.18,1.32.24.68.09,1.36.15,2.13.23-.38-.84-.75-1.68-1.14-2.52C2.1,98.48,1.49,97.23.91,96a4.23,4.23,0,0,1-.19-.72L1,95.13l2.1,4.45,1-2.07-.45-.23v-.16l1.24-.2-.29,1.37c.25.26.71.56.67.75a4,4,0,0,1-.67,1.29c-.11.16-.39.18-.55.31a1.45,1.45,0,0,0-.22.43,1.93,1.93,0,0,0,.47.13,3.89,3.89,0,0,0,.6-.15c-.16.23-.25.34-.32.45s-.35.44-.3.53a1,1,0,0,0,.59.49c1.11.22,2.22.38,3.34.56l4.92.79L20.42,105a3,3,0,0,0,.43,0v-1.22c0-1.79,0-3.58,0-5.37,0-.47-.13-.76-.62-.88-2.79-.69-5.58-1.41-8.36-2.11a.2.2,0,0,0-.11,0l.79,1.26-1.29-.28a5,5,0,0,0-.08-.72c-.1-.48-.48-.62-.92-.73-2.34-.56-4.68-1.14-7-1.72-.25-.07-.48-.19-.72-.28l0-.2a2.49,2.49,0,0,1,.67,0c2.86.7,5.71,1.41,8.55,2.15a1.32,1.32,0,0,0,1.38-.16c.08-.07.25-.06.49-.11l-.33.67,3.68.94c1,.24,1.94.48,2.91.75.8.21.93.15.93-.65,0-2,0-4.09-.07-6.14a.85.85,0,0,0-1-.84c-.16.05-.27.37-.33.59,0,0,.26.22.42.25a1.47,1.47,0,0,0,.48-.12l.08.16c-.25.12-.51.36-.74.34a.88.88,0,0,1-.83-.91c0-.76-.44-.88-1-1.07-2.82-1-5.64-2-8.46-2.91-1.95-.66-3.92-1.29-5.88-1.95-.39-.13-.76-.3-1.15-.46L2.43,83a6.83,6.83,0,0,1,.92.2l15.59,5.35c.09,0,.19.09.28.06.41-.1.82-.23,1.37-.4a4.13,4.13,0,0,0,.13-.82c0-1.73,0-3.45,0-5.18a.79.79,0,0,0-.55-.83c-2.12-.94-4.23-1.9-6.36-2.83s-4.22-1.82-6.33-2.73a1.45,1.45,0,0,1-.64-.57c4.67,1.72,9.19,3.8,13.8,5.87a2.62,2.62,0,0,0,.15-.58c0-2.55,0-5.11,0-7.67A.86.86,0,0,0,20.3,72c-3.5-1.9-7-3.82-10.47-5.73-.19-.11-.37-.23-.55-.35l.08-.22a2.5,2.5,0,0,1,.64.16q3.45,1.89,6.88,3.8l3.86,2.14a5.18,5.18,0,0,0,.1-.67c0-2.79,0-5.59,0-8.38,0-.22,0-.53-.17-.64-.92-.72-1.87-1.38-2.9-2.13l-.27.74.56.19a1.14,1.14,0,0,0,0,.15,8.65,8.65,0,0,1-1.85.08c.68-.33,1.15-.71.87-1.46-.07-.18-.43-.24-.67-.28a5.9,5.9,0,0,0-.69-.72c-1.12-.78-2.26-1.53-3.38-2.3a6.2,6.2,0,0,1-.56-.48l.09-.18a2.31,2.31,0,0,1,.61.21c1.09.71,2.17,1.44,3.23,2.17a.85.85,0,0,0,.79.12,8,8,0,0,1,1.84,0c.38,0,.75,0,1.24,0l-.4,1.24H19a1.18,1.18,0,0,0-.12-.33,3.08,3.08,0,0,0-.5-.52s-.32.16-.34.27c0,.28-.09.7.06.84a11.57,11.57,0,0,0,1.45,1l1.2.8c.13-.61.13-1-.55-1a.76.76,0,0,1,0-.2c.78-.21.63-.83.62-1.4,0-1.15,0-2.3,0-3.45A3,3,0,0,1,20.9,55h.24v5l.88.24a1.2,1.2,0,0,1-.16.21c-.21.15-.57.27-.61.46a1.14,1.14,0,0,0,.45,1.33c2.85,1.87,5.67,3.78,8.49,5.69.81.55,1.59,1.14,2.38,1.72.19.13.38.24.59.37.34-1.41.93-1.77,1.91-1.22.47-.41.47-.41-.08-1l1.18,0c0,1-.88,1.59-.84,2.43a7.27,7.27,0,0,0,1,0,.87.87,0,0,0,.46-.27c.55-.7,1.1-1.4,1.61-2.14a15.46,15.46,0,0,0,.79-1.48c-.33-.29-.75-.71-1.21-1.08-2.2-1.78-4.37-3.59-6.64-5.29-.85-.64-1.53-1.45-2.41-2.07s-1.69-1.36-2.52-2.06-1.68-1.44-2.54-2.14-1.66-1.3-2.66-2.07v2.34l-.25,0a1.34,1.34,0,0,1-.16-.37,4.92,4.92,0,0,1,0-1.15c.16-1.14-.54-1.73-1.33-2.33-1.64-1.25-3.25-2.54-4.86-3.83a.93.93,0,0,1-.33-.6c2.23,1.43,4.22,3.17,6.44,4.82,0-.36,0-.58,0-.8-.06-3.41-.23-6.83-.14-10.24a3.75,3.75,0,0,0-1.67-3.13c-.58-.5-1.15-1-1.7-1.54a1.4,1.4,0,0,1-.22-.46l.2-.17,3.27,3V34.71c0-1.86,0-3.71-.05-5.57,0-2.19-.1-4.38-.21-6.58a1.93,1.93,0,0,0-.53-1,23.78,23.78,0,0,1-1.51-1.93c.95.17,1.29,1,1.91,1.6l.43-.22c.05.05.11.08.11.11-.05,1.11.85,1.67,1.45,2.36Q26.61,28.8,31.22,34c2.59,2.94,5.21,5.85,7.8,8.79,1.27,1.43,2.5,2.9,3.76,4.34,1,1.16,2.07,2.31,3.1,3.48L48,53l.44-.74.16.1V53l.9.27-.92.38,1.38,1.59c.28.32.5.13.75-.08l4.21-3.43c.3-.24.62-.44,1-.7L54.4,49l-1.59,2.33L52.26,49h2c-.08-.56-.1-.57-.75-.36.26-1.08-.54-1.68-1-2.41s-.8-1.15-1.34-1.91l-.26.71-.19-.14.13-.93-.13-.06-1,1.24-.32-1.49c-.22.45-.57.88,0,1.47l-1.19.08-.06-.15a1.91,1.91,0,0,0,.46-2h1.31l.17.86h.18c0-.18.13-.41.05-.52-.94-1.4-1.91-2.79-2.89-4.16-.08-.11-.33-.11-.61-.18l-.05-.55c-.83.07-.64.74-.77,1.25l.63.29,0,.12h-3a11.16,11.16,0,0,0,.58-1c.27-.53-.24-.61-.69-.85,1.11-.5,2.12.05,3.17-.24-.52-.74-1-1.46-1.53-2.18-.93-1.29-1.87-2.58-2.83-3.85-.18-.24-.32-.74-.85-.31l0-.85c-.72.33-.85,1-.38,1.81H39.07l.2-2.06L41,30.53c-.76-1.07-1.43-2-2.13-3q-2.48-3.43-5-6.86c-.13-.18-.44-.23-.76-.38.17-1-.76-1.72-1.33-2.54C29.9,15,27.92,12.32,26,9.61c-1.75-2.43-3.49-4.88-5.24-7.31-.1-.13-.22-.25-.45-.51V7.42H20c-.36-2.1,0-4.25-.23-6.37L18.89.9c.23-.37,1.55-.49,2.45-.19l-1,.31L33.13,18.89l.43-.57c-.16,1.38.78,2.17,1.41,3.06,1.49,2.13,3.05,4.2,4.57,6.3.6.82,1.18,1.67,1.82,2.58l.36-.8c.07.14.15.22.14.27-.3,1,.34,1.71.88,2.44,1.27,1.71,2.53,3.43,3.79,5.14l.23.33.4-.34c.06.06.12.1.12.12-.24,1,.52,1.61,1,2.31s1.11,1.56,1.68,2.33c.3.42.52.95,1.19.92.08,0,.25.31.24.46a1.32,1.32,0,0,0,1,1.47c0,1,.9,1.45,1.28,2.29l.56-.71c0,.3.1.47.05.58a1.19,1.19,0,0,0,.29,1.34c.49.65.95,1.3,1.54,2.11l.28-.5c.06,0,.13,0,.13,0,.07.3.22.37.49.19,1.56-1,3.11-2,4.68-3,.4-.25.31-.49.13-.79-.67-1.13-1.34-2.27-2-3.4L55,35.27c-.21-.35-.45-.68-.65-1a4.47,4.47,0,0,1-.2-.65l.23-.11c.34.51.7,1,1,1.54q2.94,4.83,5.85,9.68c.33.55.65,1.1.94,1.67.18.36.39.45.76.25,1.47-.81,3-1.57,4.44-2.4.34-.2.55-.63.82-.95l-.13-.15h-.42l0-1-.49.19-.1-1.59-.51.41a3.78,3.78,0,0,0-.74-2.67l-.63.43c.57-1.51-.53-2.4-.84-3.57l-.61.38C64.27,34,63,33,62.54,31.6l-.45.51c.57-1.55-.77-2.45-1.1-3.71l-.66.32c.46-1.19-.23-2-.61-2.86-.31-.7-1-.55-1.61-.69-.15,0-.43.42-.65.66a.77.77,0,0,1-.44.31V24.51l2,.11c-3-6.46-6.24-12.87-9.23-19.37l.23-.14a2.63,2.63,0,0,1,.35.41c1.13,2.34,2.24,4.69,3.37,7,1.89,3.94,3.8,7.86,5.69,11.8.2.4.36.81.91.85.07,0,.13.14.23.25l-.48.31.57,1,.5-.21a3.43,3.43,0,0,1,0,.39,4.23,4.23,0,0,0,.08,1.08c.28.73.65,1.43,1,2.17l.48-.57c.07.13.13.2.12.24-.53,1.58.76,2.57,1.17,4l.59-.56c0,.81-.3,1.54.21,2.1s.26,1.4,1.29,1.41c-.43,1,.27,1.67.63,2.48l.54-.32-.12,1.66L68,40.3l-.16,1.22.64-.3-.22,1.05.13.06a4.73,4.73,0,0,0,.36-.71c.94-2.83,1.88-5.66,2.78-8.49a1.8,1.8,0,0,0,0-1.1q-1.84-5-3.75-10-1.44-3.82-2.91-7.64c-.3-.8-.63-1.58-.93-2.38-.05-.14,0-.33.06-.49.13.11.32.2.37.34.55,1.39,1.07,2.78,1.61,4.17,1.22,3.21,2.45,6.41,3.66,9.62.65,1.71,1.27,3.44,1.9,5.16a2.72,2.72,0,0,0,.52.92c.27-.74.55-1.48.8-2.22.79-2.36,1.57-4.73,2.36-7.09,0-.1.07-.2.1-.3.11-.37.38-.78.29-1.09s-.55-.44-.85-.66c0,0,0-.11-.14-.33a5,5,0,0,1,.8.1c.4.12.65,0,.68-.4a4,4,0,0,0,0-1.24c-.31-1.21-.68-2.41-1-3.62a2.83,2.83,0,0,1,0-.65l.25-.06,1.2,4.06c.68-1.41.89-2.86,1.55-4.12l.24.09c0,.12,0,.24-.05.35-.37,1.13-.72,2.27-1.14,3.39A3.28,3.28,0,0,0,77,20c1.46,4.94,2.89,9.89,4.34,14.84.34,1.16.67,2.32,1,3.49l7-1.51.1.25c-.15.1-.28.26-.44.3-2,.45-4,.88-6,1.32l-.5.15.47,1.34a4.11,4.11,0,0,1,.53-1,1.32,1.32,0,0,1,1.45-.41,6,6,0,0,0,1.16.14l-.53,1.46-.23,0a2.36,2.36,0,0,0-.11-.61c-.08-.2-.23-.46-.39-.5a.7.7,0,0,0-.57.27,6.1,6.1,0,0,0-.51,1.43c0,.15.18.4.35.51s.37-.1.44-.23c.39-.71.63-.82,1.46-.52-.59,1-1.55,1.1-2.62,1.18l4.88,17-.28.12a3.45,3.45,0,0,1-.3-.61c-.79-2.76-1.55-5.53-2.35-8.29-1-3.29-1.93-6.57-2.89-9.86-.11-.38-.17-.78-.28-1.28-.65.2-1.26.37-1.86.57-1.39.46-2.78.95-4.18,1.4-.5.16-.53.41-.36.86q2.22,5.74,4.42,11.5,1.91,5,3.79,10c0,.1.09.19.15.31,1.37-.45,2.73-.89,4.09-1.31.39-.12.42-.34.34-.68-.12-.52-.22-1.06-.33-1.59l.2-.08a1.51,1.51,0,0,1,.23.35c.12.41.25.82.34,1.23s.35.47.75.38q4-.86,8.06-1.66a2,2,0,0,1,.68.07l0,.19a1.47,1.47,0,0,1-.41.18,45.61,45.61,0,0,0-8,1.54c-.82.22-.82.22-.6,1.19.12-.18.19-.32.28-.43s.34-.49.53-.5c.72-.06,1.44,0,2.14,0-.73,1.1-1.43,2.12-2.1,3.15a.82.82,0,0,0,0,.58c1.65,6,3.29,12,5,18,1.06,3.82,2.22,7.61,3.27,11.43,1.11,4,2.1,8.08,3.2,12.11,1,3.51,2,7,3.06,10.48a.8.8,0,0,1-.35,1c-1.23.92-2.45,1.84-3.7,2.74s-2.32,1.64-3.48,2.46l-6.06,4.34-5,3.56c-2.12,1.49-4.25,3-6.36,4.47l-9.38,6.74c-2.43,1.75-4.86,3.51-7.31,5.25-1.83,1.3-3.68,2.59-5.52,3.89a2.8,2.8,0,0,0-.41.43l.11.21a1.9,1.9,0,0,0,.58-.2c.25-.19.42-.52.7-.64a1.75,1.75,0,0,1,1-.06c.1,0,.1.47.15.72l-.81-.12v.7c-.83.27-.9.49-.32,1.25a56.53,56.53,0,0,0,6.84,7.5.91.91,0,0,1,.3.57,45.22,45.22,0,0,1-7.76-8.11,4.57,4.57,0,0,1-.63.57,3.35,3.35,0,0,1-.65.24l-.11-.17c.11-.13.21-.27.31-.41s.45-.46.44-.68a2,2,0,0,0-.42-.93c0-.06-.42,0-.59.15-2.28,1.59-4.56,3.2-6.85,4.79-1.91,1.34-3.86,2.64-5.77,4s-3.56,2.55-5.33,3.83c-.4.28-.81.54-1.2.83a.54.54,0,0,0-.22.33,3.3,3.3,0,0,0,1.37,1.55C38.3,168,39.24,167.11,38.31,166.17Zm18-111.11a2.24,2.24,0,0,1-.54.21c-1.05.13-2.12-.16-1.8-1.59.05-.21.11-.42.17-.67-.14,0-.19,0-.22.06-1,.82-2.09,1.65-3.13,2.49-.33.26-.17.51.05.76,1.26,1.41,2.51,2.82,3.75,4.25s2.27,2.64,3.41,4l1.79,2.08a1.76,1.76,0,0,0,.18-.26q.81-2.22,1.61-4.44c.18-.5.36-1,.51-1.52s-.78-.76-.44-1.41c0-.09-.23-.34-.39-.58l-.36.65H60.7c.12-.79.28-1.59-.57-2l-.37.34-.27-1.53-.28,0L59,57.05H57.61l.28-1-.66.93-1-1.91c.47.07,1.12-.21,1.14.69a3.53,3.53,0,0,0,.47-.64c.13-.29.36-.71.25-.89-.54-.91-1.18-1.75-1.72-2.52a7.1,7.1,0,0,0-.74.13,3.31,3.31,0,0,0-.53.27c1.22,0,1.8.32,1.75,1.15a1.39,1.39,0,0,0,.78,1.41,6.77,6.77,0,0,1-.79.18A4.24,4.24,0,0,0,56.28,55.06Zm13.3-11.52,0,0c-.51.22-.58.47-.28,1.09.8,1.63,1.61,3.24,2.39,4.86q3.69,7.72,7.36,15.45c.24.49.45.59,1,.35.88-.42,1.8-.75,2.71-1.09.72-.28.83-.46.56-1.17-.88-2.35-1.75-4.7-2.64-7Q78,49,75.34,42c-.28-.72-.45-.76-1.14-.43-.84.4-1.7.77-2.55,1.13a1.85,1.85,0,0,1-.48.07l-.06-.19a3.84,3.84,0,0,1,.5-.32c.9-.39,1.79-.79,2.7-1.15.44-.17.51-.39.34-.83-.45-1.12-.85-2.27-1.29-3.4s-.91-2.3-1.43-3.61l-3.38,9.88L69.61,43Zm24.78,79.81.08.26c-.36.16-.73.32-1.09.5-2.5,1.23-5,2.47-7.5,3.69-3.5,1.7-7,3.38-10.51,5.1s-7.18,3.55-10.77,5.31q-6,3-12.1,5.91c-.4.19-.43.36-.22.72,1.31,2.23,2.57,4.47,3.9,6.68.65,1.08.69,1,1.78.27,2.54-1.82,5.1-3.62,7.64-5.44L74.31,140c2.25-1.62,4.49-3.22,6.74-4.82q4.32-3.08,8.65-6.12c1.78-1.25,3.55-2.49,5.34-3.72.42-.3.9-.52,1.32-.82s.62-.57,1-.81.91-.51,1.32-.82c.69-.52,1.34-1.09,2-1.62s1.29-1,1.94-1.43a2.47,2.47,0,0,0-1.07.3c-2.06,1-4.12,2-6.19,3a1.86,1.86,0,0,1-.58.1l-.05-.19L100.9,120l-.06-.18c-17.55,5-35,10.19-52.55,15.37A63.53,63.53,0,0,0,51.83,144c1.05-.53,2-1,3-1.51,2.15-1,4.32-2,6.45-3.08,4.59-2.27,9.15-4.57,13.72-6.84,2.33-1.16,4.65-2.31,7-3.44l11.5-5.54A5.58,5.58,0,0,1,94.36,123.35ZM20.78,22.87c0,1,0,1.85,0,2.7,0,3.83.09,7.67.17,11.51a1.6,1.6,0,0,0,.41.93c.6.63,1.27,1.2,1.9,1.81,2.57,2.51,5.14,5,7.72,7.55a2.4,2.4,0,0,0,.73.31,6.8,6.8,0,0,0,.79,1.21C33.64,50,34.8,51.11,36,52.14c.89.75,1.5,1.85,2.7,2.24.07,0,.09.18.14.27a4.05,4.05,0,0,0,.46.68c1.67,1.61,3.37,3.19,5,4.81.34.33.55.3.89,0,1.17-1.14,2.38-2.25,3.58-3.35,1-.86,1-.85.17-1.82-.09-.1-.15-.21-.23-.3-.46-.56-.87-1.18-1.73-1.09-.06,0-.12-.09-.23-.17l.6-.32-1.79-2c-1.68-1.95-3.35-3.91-5-5.84a3.92,3.92,0,0,0-.87-.53c.13-.5-.37-.88-.8-1.33s-1-1.15-1.52-1.72l-4.49-5.06a.51.51,0,0,0-.15-.07l-.34.33a6.74,6.74,0,0,0-.72-1.6c-1.28-1.51-2.64-2.95-3.95-4.44-1.45-1.65-2.87-3.32-4.31-5C22.58,24.86,21.72,23.92,20.78,22.87Zm81.36,92.87.12-.12c-.5-.73-1-1.48-1.51-2.2l-7.11-9.91q-2.72-3.78-5.44-7.57-2.33-3.24-4.67-6.46L79.6,84.05c-1.51-2.08-3-4.16-4.51-6.26s-2.91-4.14-4.38-6.19a.58.58,0,0,0-.55-.1,35.57,35.57,0,0,0-2.88,2.12c-1.48,1.24-2.9,2.57-4.35,3.85-.36.31-.21.53.06.77,1,1,2,2,3,2.93,2.59,2.44,5.2,4.85,7.78,7.31,2.23,2.12,4.44,4.28,6.65,6.43l9.66,9.33c1,.93,1.9,1.89,2.87,2.81,2,1.88,4,3.74,5.94,5.62C100,113.69,101.07,114.71,102.14,115.74Zm-1.8,3.77,0-.2-3.8.37-7.5.79c-2.92.3-5.85.58-8.77.9-3.11.33-6.22.72-9.33,1-3.81.42-7.63.81-11.44,1.2l-8.52.88-4.12.44c-.42,0-.55.22-.5.62.1.69.14,1.4.28,2.09.46,2.22,1,4.44,1.45,6.66.07.32.22.46.59.34,1.59-.49,3.19-.93,4.78-1.41,3.87-1.16,7.74-2.34,11.62-3.49,3.26-1,6.54-1.87,9.8-2.83s6.32-1.9,9.48-2.84c1.88-.55,3.76-1.08,5.64-1.61l5.52-1.57Zm.93-1.4,0-.11a3.89,3.89,0,0,0-.44-.16l-5.58-1.4c-4.25-1.08-8.5-2.17-12.76-3.23-2.89-.73-5.79-1.41-8.68-2.13s-5.65-1.48-8.47-2.19c-3.8-1-7.61-1.89-11.41-2.84-1.93-.47-3.85-.93-5.77-1.42-.45-.11-.65,0-.76.45a72.94,72.94,0,0,0-1.26,8.32c0,.43.07.59.53.63,1.47.09,2.93.25,4.4.36,2.72.22,5.43.43,8.15.63l11.92.88c2.57.18,5.15.36,7.72.56l9,.71c2.55.2,5.1.37,7.65.55C97.48,117.86,99.38,118,101.27,118.11Zm-.24-1.4.08-.15a3.42,3.42,0,0,0-.4-.36c-1.42-1-2.84-1.88-4.25-2.83-2.85-1.93-5.69-3.88-8.54-5.82q-3.77-2.56-7.55-5.11c-2.07-1.39-4.16-2.74-6.22-4.12S69.94,95.43,67.83,94c-1.52-1-3.06-2-4.58-3-2.26-1.51-4.52-3-6.76-4.57-.49-.33-.78-.16-1,.26s-.5.85-.73,1.28c-1.12,2.06-2.22,4.12-3.34,6.18-.2.38-.12.57.29.71s1,.4,1.54.62q8.18,3.61,16.35,7.24c3.52,1.57,7,3.18,10.53,4.76L90.31,112c2,.86,4,1.7,5.92,2.57C97.83,115.27,99.43,116,101,116.71ZM56.32,85.56c.66.73,45.09,30.62,45.45,30.71-1.17-1.14-2.28-2.35-3.44-3.5-1.59-1.59-3.22-3.15-4.85-4.7-2-1.86-4-3.69-5.89-5.56-2.6-2.51-5.17-5.06-7.77-7.57C76,91.27,72.19,87.63,68.37,84c-1.86-1.78-3.73-3.55-5.58-5.35-.36-.34-.62-.37-.95,0-1.41,1.68-2.85,3.34-4.24,5C57.12,84.27,56.74,84.94,56.32,85.56ZM103,114.77l.17,0a4.1,4.1,0,0,0-.1-.48q-1.5-5.47-3-10.95C98.9,99.16,97.79,95,96.65,90.9c-.81-3-1.66-5.89-2.5-8.84-.57-2-1.15-4-1.69-6-.92-3.35-1.82-6.7-2.73-10,0-.11-.08-.27-.17-.32-.38-.24-.79-.44-.24-.92.06,0,0-.25,0-.37-.11-.43-.25-.86-.32-1.29s-.4-.67-.88-.53a73.21,73.21,0,0,0-8.12,3,.45.45,0,0,0-.25.71c.6,1.23,1.18,2.46,1.78,3.68,1,2,2,4,3,6,1.71,3.55,3.4,7.12,5.12,10.66,1.63,3.38,3.3,6.74,4.92,10.12,1.1,2.28,2.14,4.59,3.21,6.88s2.06,4.31,3.09,6.47C101.52,111.7,102.24,113.23,103,114.77Zm-.58.12.09,0c0-.09-.07-.18-.11-.27l-4.16-8.76c-1.74-3.67-3.46-7.35-5.22-11-2-4.2-4.09-8.38-6.12-12.57q-3.72-7.71-7.39-15.43c-.29-.62-.57-.66-1.1-.35-1.66,1-3.34,1.89-5,2.87-.87.51-1.68,1.11-2.58,1.71Q86.67,93,102.39,114.89Zm-4.88,3.53,0-.14-5.26-.4c-1.24-.08-2.47-.13-3.7-.23-3.42-.27-6.84-.57-10.26-.84-2.31-.18-4.63-.32-7-.48l-9.88-.71c-2.94-.22-5.87-.46-8.8-.69l-6-.48c-.39,0-.58.1-.59.54,0,1.21-.06,2.43-.12,3.64,0,.43.1.54.54.53,3.35-.06,6.69-.09,10-.12l11.06-.12,11.25-.08c2.36,0,4.73,0,7.09-.11s4.59-.15,6.89-.22a2.73,2.73,0,0,1,.73.16.67.67,0,0,1-.49.22c-1.11,0-2.22.08-3.32.1-2.88.06-5.76.1-8.64.15l-10.28.17c-3,0-5.89,0-8.83.09-3.67,0-7.33.12-11,.18-1.47,0-2.93,0-4.4,0-.49,0-.65.18-.62.64.07,1.24.14,2.47.19,3.71,0,.4.18.59.59.55,1.23-.11,2.46-.18,3.69-.31,1.67-.19,3.34-.43,5-.61,3.05-.32,6.11-.59,9.16-.92,4.72-.5,9.44-1,14.17-1.54l8.45-.88,8.45-.86c1.23-.13,2.46-.29,3.69-.44v-.13H93.92v-.21ZM21.13,38.48c0,3.93,0,7.87,0,11.81a1.41,1.41,0,0,0,.44.92c.76.72,1.56,1.38,2.37,2l7.4,6.05q3.64,3,7.31,6c.34.28.73.5,1.16.79.07-.58,0-1.09.73-1,.11,0,.28-.3.34-.49a7.59,7.59,0,0,0,.16-.81l.76-.07a6,6,0,0,0-.28-.57c-.12-.2-.26-.39-.35-.52l1.19-.18-.09.77c.63-.68,1.13-1.26,1.68-1.78s.46-.64,0-1.06c-1.62-1.48-3.19-3-4.79-4.51a4,4,0,0,0-.8-.41c-1-1.75-2.77-2.88-4.17-4.31S31.28,48.35,29.83,47,27,44.06,25.49,42.63,22.54,39.82,21.13,38.48ZM36.52,167c1.32-1,2.5-1.86,3.72-2.71,1.54-1.09,3.13-2.12,4.67-3.2,2-1.38,3.91-2.78,5.86-4.17,1.7-1.21,3.39-2.41,5.1-3.6.49-.34.51-.68.19-1.17-.7-1.06-1.36-2.15-2.06-3.28a5.22,5.22,0,0,0-.61.25l-8.9,5.25q-5.19,3.06-10.39,6.11c-1.24.73-1.28.74-.51,2C34.51,164,35.49,165.41,36.52,167Zm-6.14-10.54c.69,1.36,1.31,2.6,1.92,3.83.19.4.4.53.84.27,2.14-1.27,4.3-2.51,6.44-3.78l8.62-5.11c1.67-1,3.34-2,5-2.94.28-.16.57-.29.3-.73-.57-1-1.11-2-1.63-3-.2-.38-.4-.42-.76-.24l-8.5,4.13-8.8,4.23-2.32,1.16a1.29,1.29,0,0,1,.36,1.55C31.61,156.46,31.09,156.53,30.38,156.45Zm68.2-39.59,0-.15c-3.32-1.13-6.64-2.23-10-3.39-2.82-1-5.61-2-8.42-3q-4.66-1.65-9.34-3.26c-3.72-1.29-7.44-2.55-11.16-3.84q-5.1-1.77-10.18-3.58c-.3-.1-.49-.09-.59.24-.38,1.22-.76,2.44-1.15,3.66-.12.38,0,.53.39.63,1.3.32,2.58.7,3.88,1,2.28.56,4.56,1.08,6.83,1.65l15.54,3.91c3.72.94,7.44,1.87,11.15,2.82,3.48.89,7,1.81,10.44,2.71C96.9,116.48,97.74,116.66,98.58,116.86ZM29.46,154.42a7.78,7.78,0,0,0,1.48-.34q4.73-2.24,9.43-4.52l8.71-4.23c.76-.37,1.52-.76,2.27-1.14l-1.71-4.07c-.17-.41-.45-.29-.74-.18-2.59,1-5.18,1.95-7.76,2.95-2.85,1.1-5.71,2.22-8.55,3.35a.92.92,0,0,0-.5.49c-.5,1.36-1,2.73-1.43,4.1C30.28,152,29.91,153.08,29.46,154.42ZM39,113.5c1.27.08,2.5.17,3.73.22a.59.59,0,0,0,.45-.27c.5-1.32,1-2.66,1.49-4.1-3.67-.64-7.3-1.15-10.87-2a5.35,5.35,0,0,1,1.5.06c3,.48,6,1,9,1.44.2,0,.56-.09.62-.24.56-1.41,1.08-2.84,1.65-4.37L34,101c0,.27-.1.43-.11.59-.12,1.27-.25,2.55-.33,3.82,0,.62.08,1.26,0,1.88s-.27,1.09-.34,1.65c-.13,1.08-.14,2.17-.31,3.24-.11.65.1.84.69.88,1.34.07,2.68.16,4,.28.55,0,1,0,1.11-.65,0-.1.19-.17.42-.36ZM68,44.91c-.07.14-.16.27-.21.4-.71,2-1.41,4-2.12,6a1.15,1.15,0,0,0,.14,1.25,8.42,8.42,0,0,1,.64,1.09l4.26,7.28c1.29,2.18,2.6,4.35,3.87,6.55.24.42.44.42.8.21.71-.4,1.42-.78,2.13-1.16l1.39-.74c0-.15-.07-.23-.1-.31l-3.71-7.85q-2.82-5.94-5.66-11.87a1.25,1.25,0,0,0-.47-.47A7.06,7.06,0,0,0,68,44.91ZM97.82,116l.06-.15a1.28,1.28,0,0,0-.25-.15l-5.74-2.51q-7-3.09-13.94-6.18c-4.49-2-9-4-13.45-6-4-1.79-8.06-3.55-12.1-5.31C51,95,51,95,50.32,96.46c-.07.16-.15.31-.21.47-.26.7-.53,1.41-.78,2.1ZM49.53,75.26A3.59,3.59,0,0,0,49,74.13c-.63-.6-1.35-1.09-2-1.63-2.24-1.77-4.5-3.51-6.7-5.32-.48-.39-.71-.29-1,.1-.64.82-1.28,1.65-2,2.45-.36.44-.78.83-.3,1.3-.23.21-.47.32-.53.5a.74.74,0,0,0,.29,1c1.29.85,2.57,1.74,3.85,2.61.33.22.68.41,1.06.64.15-.38.24-.68.38-1s.47-.43.74,0a1.24,1.24,0,0,1-.17,1.74l11.19,7.59c.52-1.55,1-2.95,1.45-4.37A.87.87,0,0,0,55,79c-.67-.59-1.38-1.13-2.08-1.69C51.94,76.54,51,75.74,50,75c0,0-.12,0-.19,0Zm6,3.64c.65-1.83,1.25-3.5,1.82-5.18a.67.67,0,0,0-.19-.54c-1.64-1.59-3.28-3.17-4.94-4.73a2.64,2.64,0,0,0-.72-.4,8.45,8.45,0,0,0-.79-1.1c-1.15-1.15-2.34-2.28-3.52-3.42-.78-.76-1.55-1.54-2.34-2.32a2.57,2.57,0,0,0-.38.27L42,64.23c-.52.59-1,1.2-1.57,1.76-.33.33-.26.5.06.75,1,.75,2,1.52,2.91,2.29l3.8,3.11,5.62,4.52C53.68,77.36,54.55,78.08,55.54,78.9ZM36.33,72.71c-.2,2.24-.33,4.3-.58,6.35a1.18,1.18,0,0,0,.76,1.42C39.36,82,42.19,83.57,45,85.13c2.18,1.21,4.35,2.41,6.51,3.65.44.26.63.18.78-.27.35-1.05.69-2.11,1.1-3.13A.93.93,0,0,0,53,84.05c-1.84-1.22-3.65-2.49-5.48-3.74l-9.16-6.26C37.76,73.62,37.12,73.22,36.33,72.71ZM30,69.06c-.23-.37-.36-.84-.67-1.06-2.24-1.59-4.51-3.13-6.77-4.68-.41-.28-.84-.53-1.34-.85v9.6L29,76.22l.28-1,.19,0-.1,1.17c.62.13,1.09,1.17,2,.37,0,.14.05.21.06.29s.1.39.14.58a2.62,2.62,0,0,0,.42-.39c.43-.69.84-1.38,1.25-2.08.27-.46.73-.93.74-1.4a1.06,1.06,0,0,1,.65-1.07c.46-.25.59-.83.27-1.05l-4.55-3.07ZM4.71,102.92a7.3,7.3,0,0,0,.26.72c1.09,2.35,2.2,4.69,3.29,7a.8.8,0,0,0,.79.5c2.08.14,4.16.31,6.24.46l5.35.41c.36,0,.55-.06.58-.46.16-1.72.36-3.43.52-5.14.08-.87,0-.92-.89-1l-13.18-2C6.73,103.28,5.8,103.11,4.71,102.92ZM76.5,20c-.19.46-.37.8-.49,1.16q-1.87,5.58-3.72,11.16a.83.83,0,0,0,0,.54c.94,2.42,1.91,4.83,2.84,7.25.18.49.47.52.88.39,1.8-.6,3.59-1.21,5.4-1.78.41-.14.48-.35.39-.71-.17-.62-.34-1.23-.52-1.84Q79.16,29,77.07,21.88C76.89,21.27,76.71,20.66,76.5,20ZM35.69,80.51a7.73,7.73,0,0,0-.15.85c-.14,1.52-.27,3-.4,4.58s-.13,1.55,1.31,2.18c4.41,1.93,8.82,3.85,13.22,5.81.52.23.68.07.83-.37.38-1.13.77-2.26,1.2-3.37.19-.47.13-.74-.33-1-1.4-.76-2.79-1.56-4.18-2.33l-8-4.45Zm21.85-7.57c.1-.11.16-.15.17-.2.61-1.75,1.23-3.49,1.81-5.25a.73.73,0,0,0-.15-.61Q58,65.22,56.56,63.57l-2.67-3-.28.52-.21-.11a2.36,2.36,0,0,0,0-.46,2.61,2.61,0,0,0-.24-.85,11.45,11.45,0,0,0-.93-1c-.7-.78-1.4-1.57-2.17-2.45-1.6,1.51-3.12,2.93-4.61,4.38a.63.63,0,0,0,0,.61c.47.53,1,1,1.5,1.48q2.64,2.58,5.29,5.15ZM21.66,177.32c.25-.15.37-.2.47-.27l7.23-5c1.81-1.27,3.6-2.57,5.42-3.83.34-.23.34-.4.19-.72-.83-1.73-1.67-3.46-2.45-5.21-.26-.59-.51-.6-1-.31-1.53.91-3.11,1.76-4.63,2.7-.51.31-1.12.5-1.36,1.24-.9,2.82-1.9,5.6-2.86,8.4C22.34,175.25,22,176.22,21.66,177.32ZM65.38,59.72l-.89-.67-.39.82.83-.15-.34,1-.68-.51c0,.43-.12.87,0,1,.63.5.88-.38,1.39-.51.19.93-.45,1-1.13,1.07l6.36,8.86c1.14-.73,2.19-1.42,3.26-2.06.49-.29.51-.6.25-1-1.65-2.8-3.28-5.61-4.92-8.41-1-1.78-2.07-3.57-3.12-5.35-.22-.37-.47-.73-.79-1.24-.17.51-.28.86-.4,1.21-.64,1.8-1.25,3.62-1.93,5.4a1,1,0,0,0,.46,1.32c.19-.57.58-1.07-.17-1.69.86,0,1.53,0,2.19,0,.09,0,.25.27.23.4A2,2,0,0,1,65.38,59.72Zm-16,79.58c-.35-.9-.66-1.74-1-2.56-.18-.44-.29-1.12-.59-1.23s-1,.16-1.46.3c-2.19.62-4.38,1.26-6.56,1.89-1.45.42-2.9.86-4.36,1.26a1.3,1.3,0,0,0-.92.95c-.53,1.55-1.1,3.09-1.64,4.63-.13.38-.23.78-.38,1.31ZM8.71,111.58c.16.37.24.59.34.8,1,2.14,2.12,4.27,3.12,6.44a1,1,0,0,0,1.14.73q3.51,0,7,0c.43,0,.54-.18.55-.58,0-1.72.08-3.44.11-5.17,0-1.39,0-1.35-1.42-1.43-2.41-.14-4.81-.33-7.21-.49ZM35.08,88.06c-.07.1-.12.13-.12.17-.15,1.78-.3,3.57-.46,5.35,0,.41.2.56.53.67l3.86,1.32c2.18.73,4.36,1.47,6.54,2.18a.68.68,0,0,0,.59-.09,9.46,9.46,0,0,0,.56-1.22c.05,0,.32,0,.39.11.3.51.83.51,1.29.62s.51.38.34.75c-.09.21-.23.4-.34.6l.16.12a2.16,2.16,0,0,0,.39-.48c.39-1,.77-2.07,1.11-3.13a.66.66,0,0,0-.25-.56c-.85-.43-1.73-.81-2.61-1.19l-11.37-5C35.49,88.17,35.27,88.12,35.08,88.06ZM48.39,99.25c-1.75-.58-3.43-1.13-5.09-1.7-2.76-.94-5.52-1.88-8.26-2.84-.46-.16-.63,0-.66.43-.12,1.61-.22,3.23-.36,4.84,0,.45.08.65.53.75,1.74.41,3.47.85,5.2,1.28,2.17.54,4.34,1.1,6.51,1.61a.71.71,0,0,0,.65-.23C47.43,102.05,47.89,100.68,48.39,99.25ZM31.17,78.61c.32-.24.45-.43,0-.67-1.06-.55-2.1-1.12-3.14-1.7L21.18,72.5c0,2.9,0,5.69,0,8.48a.82.82,0,0,0,.4.58c1,.46,2.08.87,3.11,1.3L25,82.5a4.81,4.81,0,0,0,.93,1c.59.33,1.26.52,1.88.8.46.21.72.08.85-.39-.48-.52-.49-.75,0-1.2l.15.83c.7-1.4,1.35-2.67,1.95-4a.88.88,0,0,0-.11-.7c-.05-.09-.37,0-.57,0l-.21,0V77.57Zm.71,40.79c.15-1.93.3-3.77.43-5.61,0-.42-.29-.44-.61-.46l-10.1-.83a10.25,10.25,0,0,0-.13,1.08c-.07,1.74-.1,3.49-.18,5.24,0,.55.18.7.7.68q3-.07,6-.1C29.24,119.39,30.5,119.4,31.88,119.4ZM33,107c.16-1.94.32-3.74.47-5.54,0-.36-.12-.55-.49-.69-.6-.23-.83.06-1,.75-.13-.29-.25-.42-.22-.52.11-.46-.17-.54-.51-.63-2.26-.58-4.53-1.15-6.79-1.76-.58-.16-.84-.07-1,.57-.33,1.84-.71,3.68-1.09,5.51-.08.41,0,.58.45.63,1.37.15,2.74.31,4.1.52.81.13,1.59.39,2.4.55C30.54,106.61,31.71,106.78,33,107Zm2,31.44.13.21,1.47-.46,10-2.94c1.18-.35,1.19-.33.8-1.45,0-.12-.06-.24-.09-.37-.25-1-.49-2-.74-3-.08-.34-.2-.61-.64-.53-2.69.51-5.39,1-8.08,1.53a.82.82,0,0,0-.52.44c-.49,1.29-.94,2.6-1.4,3.9Zm-5.94-18.5a2.81,2.81,0,0,0-.42-.07c-2.25,0-4.51,0-6.77,0-.47,0-.57.22-.55.64.06,1.93.1,3.87.16,5.81,0,.72.12.77.86.67.91-.13,1.82-.22,2.72-.31,1.89-.19,3.77-.37,5.66-.54.44,0,.62-.25.62-.71a11.9,11.9,0,0,1,.1-1.33c.12-1.39.25-2.78.37-4.26-.71,0-1.36,0-2,0-.12,0-.27.26-.34.42a4.18,4.18,0,0,0-.2.69l-.19,0Zm-2-13.15a4.89,4.89,0,0,0-1.08-.53c-1-.23-2.09-.39-3.13-.58-.48-.08-.59.19-.63.59-.15,1.5-.33,3-.49,4.51-.05.46-.09.91-.13,1.42.64,0,1.19,0,1.74,0,2.8.21,5.6.43,8.4.69.59.06.74-.15.78-.68.1-1.41.22-2.81.37-4.21.05-.46-.07-.64-.54-.71-1.28-.18-2.55-.46-3.84-.6C28,106.65,27.37,106.16,27,106.79ZM66.11,74c1.23-.92,2.36-1.82,3.54-2.65.49-.34.45-.61.14-1Q67,66.44,64.27,62.57c-.41-.59-.8-1.15-1.63-1a1,1,0,0,1-.07-.16l.56-.25-.51-.82c-.1.07-.15.09-.16.12-.73,2.06-1.48,4.12-2.18,6.19a1,1,0,0,0,.17.74c.45.59,1,1.13,1.45,1.7ZM27.73,99a4.21,4.21,0,0,0,.48.14l4.45,1.12c.85.22.88.23,1-.67.13-1.53.21-3.06.35-4.58a.71.71,0,0,0-.56-.84c-2-.67-3.94-1.36-5.91-2l-1.65-.57c-.13.32-.25.56-.33.82-.43,1.43-.85,2.85-1.29,4.28s-.42,1.35.94,1.7c.66.17,1.33.31,2,.46l.2-1.06h.24Zm-2.84,28.15c-1,.09-1.9.19-2.83.26-.37,0-.41.24-.37.53.27,1.83.54,3.65.8,5.49.05.37.22.44.56.37,1.17-.22,2.34-.44,3.52-.61.61-.09,1-.31,1-1a1.46,1.46,0,0,1,.16-.47l.16,0,.06,1.1c.87-.17,1.71-.31,2.53-.52.16,0,.34-.35.36-.56.12-1.25.21-2.5.28-3.76.09-1.46.08-1.46-1.33-1.36-.6,0-1.26,0-1.38.82,0,0-.08,0-.17,0l-.2-.57c-.5,0-1,0-1.44,0s-1.29,0-1.34.93c0,0-.07,0-.2.06Zm18-12.92-1.9-.14c-2.52-.19-5-.37-7.56-.59-.56,0-.7.19-.73.68-.11,1.49-.19,3-.4,4.45-.11.7.1.8.7.79q3.23-.09,6.45-.13c1.63,0,1.66,0,2.23-1.51C42.16,116.63,42.51,115.48,42.94,114.21Zm-18.66,25h.25c0,.27.12.68,0,.78-.63.47-.06.91,0,1.35,0,.08.28.23.38.2.61-.22,1.4-.13,1.59-.8a7.33,7.33,0,0,0,1.25,0c.57-.11,1.11-.33,1.67-.45a.91.91,0,0,0,.8-1c.09-1.25.25-2.5.35-3.75.08-.88.12-1.76.19-2.73-1.64.31-3.11.61-4.6.84-.71.11-1.33.23-1.39,1.11l-.11,0c-.31-.82-.31-.82-1.27-.61-.11,0-.24,0-.31.05s-.31.29-.28.4c.38,1.7.79,3.4,1.19,5.1l.15,0Zm32.21-88.1,2,2.77.26-.66.31.08c-.57,1.17.39,1.7.86,2.46l.41-.36h.2c-.44.85-.05,1.41.53,1.94l.38-.34c.06.42,0,.93.21,1.17s.72.2,1.11.29c.67-1.9,1.36-3.8,2-5.72a1.69,1.69,0,0,0-.1-1.19c-.72-1.36-1.53-2.69-2.38-4.15ZM28.68,85.19a3.56,3.56,0,0,1-.12.76c0,.11-.23.16-.34.25s-.29.17-.34.29c-.58,1.35-1.13,2.71-1.7,4.07-.15.36-.11.56.32.7,2,.68,3.93,1.4,5.9,2.09.51.18,1,.31,1.59.47a3.93,3.93,0,0,0,.13-.53c.14-1.59.25-3.18.41-4.77a.89.89,0,0,0-.72-1.08A12.09,12.09,0,0,1,32.7,87ZM31.73,126c.23,0,.33,0,.44,0,2.09-.21,4.19-.42,6.28-.61a1.06,1.06,0,0,0,1-.86c.34-1,.69-2,1-3,.19-.56.36-1.11.56-1.7a2,2,0,0,0-.34-.07l-8,.11c-.36,0-.48.16-.5.5-.06.78-.15,1.57-.22,2.35C31.89,123.75,31.82,124.82,31.73,126Zm-7.12,31.17c1.39-.7,2.72-1.34,4-2a.72.72,0,0,0,.14-.67c-.88-1.9-1.8-3.79-2.72-5.71-1.24.44-2.46.88-3.68,1.3a1.09,1.09,0,0,0-.82,1.18c0,2.3,0,4.6-.07,6.9a2.93,2.93,0,0,0,.07.45l2.49-1.17.23-1.19.23,0ZM28.42,156c-1.19-.06-1.25.94-1.56,1.68l-.17-.07-.14-.87c-1,.44-1.9.88-2.83,1.28-.45.18-.72.41-.7.93a1.66,1.66,0,0,1-.13.52l-.17,0-.16-.74c-.93.12-1.09.29-1.1,1.14,0,1.73-.05,3.45-.07,5.18,0,.75,0,1.49,0,2.46,1.1-.94,2.53-1.1,3.11-2.42.64.26.78.2,1-.45.73-2.07,1.47-4.13,2.18-6.2C28,157.59,28.19,156.78,28.42,156ZM12.78,120.1c1.16,2.42,2.29,4.79,3.46,7.15a.76.76,0,0,0,.6.29c1.19-.1,2.38-.23,3.56-.39a.64.64,0,0,0,.42-.45c.05-.65,0-1.32,0-2,0-1.4,0-2.81,0-4.21,0-.41-.1-.6-.56-.65-.84-.1-1.15.55-1.53,1a9.12,9.12,0,0,0-.77,1.53,2.87,2.87,0,0,1-.47.52,4.21,4.21,0,0,1-.33-.63c-.15-.53-.25-1.07-.38-1.6h-.18l-.7,1.66.53.42c-.71.37-1.39.32-1.65-.06,1.08-.49,1-1.63,1.64-2.63Zm8.5-38.23a6.26,6.26,0,0,0-.08.63c0,1.19,0,2.38-.09,3.57a10.74,10.74,0,0,1,0,2.47c-.15.53.06.88.68,1.06,1.11.33,2.2.77,3.29,1.17a.49.49,0,0,0,.74-.33c.69-1.69,1.4-3.38,2.08-5.07a.59.59,0,0,0-.15-.55c-.53-.3-1.1-.53-1.66-.78l-.19.67c-.31-.44-.47-.9-.78-1.06C23.91,83,22.64,82.49,21.28,81.87ZM60,67.48c-.68,2-1.32,3.81-1.91,5.64,0,.15.12.44.27.58,1.2,1.18,2.43,2.33,3.63,3.51.31.31.5.27.78,0,.85-.84,1.71-1.66,2.59-2.46.38-.35.4-.6,0-1-1.07-1.2-2.08-2.46-3.13-3.68C61.53,69.24,60.8,68.44,60,67.48ZM37.62,131c2.89-.57,5.64-1.11,8.38-1.67a.6.6,0,0,0,.28-.51c-.12-1.12-.27-2.23-.46-3.34a.65.65,0,0,0-.49-.39c-1.82.14-3.65.31-5.47.5a.71.71,0,0,0-.47.41C38.79,127.65,38.23,129.27,37.62,131Zm-6.35,1.2c1.79-.34,3.53-.68,5.28-1a1,1,0,0,0,.81-.71c.34-1.05.68-2.1,1-3.15.17-.51.35-1,.55-1.58-.22,0-.35,0-.47,0-2.12.22-4.23.42-6.35.67a.7.7,0,0,0-.43.48c-.18,1.6-.33,3.21-.48,4.81A4,4,0,0,0,31.27,132.23Zm.63-53.89L28.73,84.7l5.85,2.6.62-7-.4.09C34.1,79.27,32.87,79.12,31.9,78.34Zm5,53.37c-.13,0-.2-.07-.25-.06-1.71.33-3.43.65-5.13,1-.16,0-.37.35-.39.55-.18,2-.34,4.11-.5,6.17a2.28,2.28,0,0,0,.09.48c1-.3,1.95-.63,2.92-.84a1.32,1.32,0,0,0,1.08-1c.66-1.93,1.35-3.85,2-5.77C36.78,132.08,36.82,131.9,36.87,131.71ZM30,140.4l-3.3,1.28a.85.85,0,0,1-.23,0,9.75,9.75,0,0,0-1.35.21.58.58,0,0,0-.27.5c.55,1.72,1.13,3.43,1.7,5.14.12.35.32.41.64.28.55-.22,1.11-.45,1.67-.63a1.07,1.07,0,0,0,.81-1.08c.09-1.57.22-3.14.33-4.71C30,141.17,30,140.92,30,140.4Zm9.73-15.35c.12.06.16.1.2.09,1.8-.16,3.6-.32,5.4-.53.16,0,.4-.37.39-.57,0-1.32-.07-2.63-.16-4a.65.65,0,0,0-.44-.43c-1.07,0-2.13,0-3.19.06a.65.65,0,0,0-.48.3C40.82,121.68,40.26,123.35,39.69,125.05Zm19-43.63c1-1,1.87-2,2.8-3,.33-.34.38-.58,0-.94-1-.88-1.85-1.82-2.78-2.72-.3-.3-.62-.57-1-.94-.6,1.78-1.16,3.45-1.71,5.12a.5.5,0,0,0,.15.43C57,80.07,57.9,80.76,58.73,81.42Zm-37.5,8.4a1.18,1.18,0,0,0-.1.31c0,2.29.05,4.59.1,6.88a.53.53,0,0,0,.29.4c.59.18,1.19.3,1.85.46l2-6.55ZM26,164.48c.15,0,.2,0,.23,0,1.79-1,3.57-2,5.34-3.1a.73.73,0,0,0,.15-.67A18.12,18.12,0,0,0,31,159c-.37-.78-.74-1.55-1.17-2.43a2.32,2.32,0,0,1-.22.45,5,5,0,0,1-.49.43,2.91,2.91,0,0,1,0-.66c.05-.24.22-.46.28-.71a2.13,2.13,0,0,0,0-.56l-.24,0Zm-1.76-19.42c-.4.32-.59.14-.53-.25a2.78,2.78,0,0,0-.4-1.7c-.14-.3-.23-.73-.7-.53s-1.11,0-1.08.9c.05,1.57,0,3.15,0,4.73,0,.52,0,1,.07,1.65l.67-.24c1-.36,1.94-.75,2.94-1.07.53-.17.55-.41.33-.84C25.15,146.86,24.73,146,24.26,145.06Zm-3.45-17.57c-1.33.16-2.59.31-3.85.49-.07,0-.19.34-.15.47a11,11,0,0,0,.54,1.16c.67,1.44,1.37,2.87,2,4.32.25.55.64.45,1.06.37s.57-.12.56-.54C20.92,131.72,20.87,129.69,20.81,127.49Zm13.45,11.78c-1.21.35-2.21.65-3.21.92a.73.73,0,0,0-.61.77c-.06,1.08-.15,2.16-.24,3.25-.06.79-.13,1.58-.22,2.49.51-.17.86-.33,1.23-.41a1.16,1.16,0,0,0,.93-.9c.37-1.18.79-2.34,1.19-3.5C33.62,141.08,33.91,140.27,34.26,139.27Zm7.43-20.12h3.4c.4,0,.48-.23.47-.59,0-.89,0-1.79,0-2.68.05-1.4.06-1.4-1.37-1.54a.61.61,0,0,1-.13,0c-.53-.18-.75.08-.91.57C42.81,116,42.38,117,42,118.1,41.87,118.44,41.79,118.79,41.69,119.15ZM65.17,51.43l2.42-6.64-.15-.13c-.39.19-.78.37-1.16.57-1,.54-2.08,1.07-3.11,1.63-.24.13-.53.29-.28.7C63.64,48.79,64.36,50,65.17,51.43ZM35,78l.43.32c0-.39.29-.82-.29-1,0,0,.08-.75.18-.76.56-.08.27-.42.28-.67a8.88,8.88,0,0,1,.07-1.15c.09-.68.24-1.35.32-2,0-.12-.14-.26-.29-.53A50.66,50.66,0,0,0,32.07,78l3.2,1.72V78.9C34.52,78.85,34.88,78.42,35,78ZM21.77,167.73l-.2,0a2.57,2.57,0,0,0-.2.65c0,.68-.05,1.36-.06,2,0,1.07,0,2.14,0,3.2,0,.15.28.44.38.42s.67.05.63-.34a6.15,6.15,0,0,1-.81-.19c-.07,0-.11-.37-.06-.4a2.73,2.73,0,0,1,.64-.24,4.56,4.56,0,0,1,.55-.08c.46-.4-1-1.44.53-1.43l1.87-5.43-.15-.1c-.71.53-1.73.64-2.08,1.7l-.41-.23-.32,1Zm34-88c-.51,1.53-1,2.93-1.43,4.34-.1.31,1.26,1.35,1.56,1.23a.35.35,0,0,0,.15-.12l2.38-3.28ZM21.33,97.8a2,2,0,0,0-.1.38c0,2.17,0,4.34,0,6.51,0,.15.25.31.38.46.13-.12.35-.23.38-.37q.63-3.06,1.2-6.12a.43.43,0,0,0-.19-.38C22.45,98.1,21.9,98,21.33,97.8Zm.11,38.63h-.08a11,11,0,0,0,.33,2.24A30.34,30.34,0,0,0,23,141.5c.15.31.32.46.69.32s.31-.36.23-.66c-.54-2.1-1.06-4.2-1.62-6.29,0-.18-.26-.31-.4-.46-.17.18-.45.35-.48.55A10.29,10.29,0,0,0,21.44,136.43Zm7.5,17.14.17-.06q.21-2.82.38-5.64c0-.1-.28-.34-.37-.31-.76.25-1.5.54-2.34.85Zm14.64-39.8,2.11.14c.15-1.37.32-2.65.42-3.93,0-.15-.29-.43-.47-.45a.8.8,0,0,0-.63.3C44.52,111.09,44.08,112.38,43.58,113.77ZM54,84.91c-.47,1.3-.94,2.57-1.4,3.85-.11.31-.1.66.29.71a.83.83,0,0,0,.61-.35c.47-.7.9-1.44,1.33-2.17.75-1.28.71-1.41-.69-2Zm-22.34,61.7c-.49.18-.78.32-1.08.4a.88.88,0,0,0-.75.93c0,.76-.09,1.52-.14,2.28s-.06,1.29-.1,1.94l.17,0C30.39,150.39,31,148.6,31.68,146.61ZM21.34,129c0,1.38,0,3,0,4.63a.62.62,0,0,0,.45.42c.31,0,.39-.19.34-.51C21.85,131.9,21.58,130.29,21.34,129Zm25.75-24.33-.16-.06L45.35,109l.86.16ZM24,143.45l1.63,3.38c.06-.18.1-.23.09-.26-.43-1.33-.86-2.66-1.31-4-.15-.42-.48-.4-.88-.19l.22.59.43-.26.12.09Zm-1.17-1.38-1.26-2.62v3ZM54.64,54.28s0,.29.18.36a.53.53,0,0,0,.51,0,7.45,7.45,0,0,0,.84-1.54c.11-.32-.18-.62-.54-.39A1.84,1.84,0,0,0,54.64,54.28ZM33.91,163.84h-.13a1.28,1.28,0,0,0,.07.35c.49,1,1,2,1.49,3,.07.12.33.15.5.22,0-.21.17-.48.08-.62C35.28,165.81,34.58,164.83,33.91,163.84Zm17-70.07.13,0c.59-1.12,1.19-2.24,1.75-3.38.06-.12-.09-.34-.15-.51-.16.08-.42.12-.48.25a9.1,9.1,0,0,0-.41,1.14Zm-31,41.15,1,2a5.25,5.25,0,0,0,.14-1.51C21,134.54,20.85,134.47,19.9,134.92Zm-1-14.95v-.07a5.44,5.44,0,0,0-1,0c-.15,0-.38.26-.37.39,0,.52.15,1,.24,1.56H18l.38-1.85ZM34.38,70.6l-.09.28a5.83,5.83,0,0,0,1.35.46c.13,0,.59-.41.36-.74Zm-3.09,84.28c-.77-.2-.91.3-1.06.68-.06.15.12.38.19.57.19-.09.47-.13.56-.28A4.61,4.61,0,0,0,31.29,154.88ZM34.82,69l-.3-.11a8.89,8.89,0,0,0-.64,1,.52.52,0,0,0,.16.44c.18,0,.52,0,.55-.12A8.33,8.33,0,0,0,34.82,69Zm56-6.18A1.07,1.07,0,0,0,90.26,64C90.76,63.67,91,63.38,90.82,62.77ZM4.29,98.89l-.62,1.16.19.09C4.19,99.82,4.56,99.5,4.29,98.89Z"/><path d="M35.19,1.13,54,33c-.88-.24-19.1-31-19-31.81Z"/><path d="M72.42,18.17l.27,1.4c.29-.45.44-.89.75-1.1a2,2,0,0,1,1.14-.11A1.93,1.93,0,0,0,74,19.88c0,.57-.11,1.1.72,1.29l-.16.15H73l.43-1.51-.22-.1-.86,1.49-.47-1.52a1,1,0,0,0,0,1.62l-1.7.11a8.82,8.82,0,0,0,1-1.14,8.49,8.49,0,0,0,.52-1.34,2,2,0,0,1-.33-.18c-.07-.06-.18-.2-.16-.23a.48.48,0,0,1,.27-.2A9.12,9.12,0,0,1,72.42,18.17Z"/><path d="M17.8,3.06,18.51,3c-.12.57-.54.54-.88.58s-.62,0-.61-.45c0-.14,0-.33-.06-.43A8.67,8.67,0,0,0,16.31,2a3.8,3.8,0,0,0-.4.52c-.2.4.06.57.4.68,0,0,0,.07.06.1a2.31,2.31,0,0,1-2,0c1.38-.24,1-1.51,1.39-2.3,0-.08-.17-.3-.26-.46s-.2-.23-.17-.28S15.5,0,15.61,0c.39,0,.78.06,1.26.11a3.12,3.12,0,0,0-.43.78c-.05.19.08.42.13.64.23-.15.57-.25.65-.45s0-.57-.09-1c.33.17.7.24.79.44s.2.83,0,.94C17.26,1.92,17.71,2.45,17.8,3.06Z"/><path d="M21.75,178.47a15.3,15.3,0,0,1,2.29,0c.57.1.85.83.7,1.46a1,1,0,0,1-1.3.82c-.62-.1-.94,0-.86.72l.67.25-.05.13h-2l-.1-.2c1.06,0,.91-.85,1.1-1.44S22.71,179,21.75,178.47Zm1,1.75c.89.19.9-.44,1.08-.85.05-.11-.11-.31-.17-.47-.14.06-.35.08-.41.18C23.09,179.43,23,179.8,22.78,180.22Z"/><path d="M20.45,20.75c-.39-.36-.7-12.49-.33-13A112.36,112.36,0,0,1,20.45,20.75Z"/><path d="M108.86,118.07l-.87,1.56-.16-.34c-.09-.32-.18-.63-.28-1a3.81,3.81,0,0,0-.84.55,3.6,3.6,0,0,0-.61,1.1c-.07.21.07.48.11.72.21,0,.43-.09.64-.15s.22-.08.33-.12l.13.17c-.23.18-.46.5-.7.51a1.53,1.53,0,0,1-1.06-.33,2.39,2.39,0,0,1,.23-2.41A1.87,1.87,0,0,1,108,118,3.17,3.17,0,0,0,108.86,118.07Z"/><path d="M32.27,19.24l-.37,2.14.18.16-1.17.08a6.27,6.27,0,0,0,.47-1.16,5.36,5.36,0,0,0-.11-1.16Z"/><path d="M15.42,93.49l.14.76-.67-.42-.69.59-.2-.19.61-.71L14.29,93l.1-.14.68.23.81-.54.18.19Z"/><path d="M9.33,98l-.41.61.24.68a2.37,2.37,0,0,1-1.55-1.71c.56.07,1,1,1.65,0Z"/><path d="M54.62,40.18l-.2.7.56.54-.15.23L53.48,41l1-.89Z"/><path d="M32.78,23.75c0-.36,0-.72,0-1.08A.3.3,0,0,1,33,22.5c.07,0,.2.13.19.19,0,.36-.05.72-.08,1.07Z"/><path d="M1.55,103.13c-.14.51-.54.64-1,.69l-.13-.18,1-.72Z"/><path d="M51.33,47.6l-.68,1-.26-.17.62-1Z"/><path d="M32.56,31.32V29.91A.92.92,0,0,1,32.56,31.32Z"/><path d="M6.56,100.1l-1,.57-.15-.26,1-.64Z"/><path d="M16.65,92.38c-.22-.69.27-.72.56-.93l.17.16Z"/><path d="M60.37,23.37l-.22,1.22C59.7,24.24,59.75,23.85,60.37,23.37Z"/><path d="M60.15,22.83l.32-.92.3.1-.32.93Z"/><path d="M40.67,38.88,40.56,40l-.34,0,.12-1.07Z"/><path d="M7.82,99.21l-.88.68c0-.69.19-.82.76-.83Z"/><path d="M40.47,38.24l.12-1,.28,0,0,1Z"/><path d="M32.7,27.7V26.57h.2v1.14Z"/><path d="M17.79,90.91l.74-.76.23.21-.71.79Z"/><path d="M41.08,35.59l-.2.95-.3,0,.16-1Z"/><path d="M32.37,34.76v-.89h.22v.89Z"/><path d="M36.52,67.78l.1-1h.22v1Z"/><path d="M9.67,97.4l.81-.71C10.53,97.33,10.38,97.46,9.67,97.4Z"/><path d="M40.53,40.56l-.12.91-.22,0a.72.72,0,0,1,.08-.93Z"/><path d="M36.83,68.88l-.25.91c-.27-.41-.36-.77,0-1Z"/><path d="M40.86,34.79l.06-.9h.23c.27.29.1.6-.06.91Z"/><path d="M30.7,60.64l-.08,1-.27,0,0-1.06Z"/><path d="M69.58,43.54c.35-.37.63-.84,1.39-.79L69.7,44.13,69.48,44l.12-.48Z"/><path d="M32.25,39v.94H32V39Z"/><path d="M31.33,55l-.12,1L31,56a.87.87,0,0,1,.06-1Z"/><path d="M31.07,54.12S31,54,31,54c0-.25.08-.51.13-.76.08,0,.25.06.25.09,0,.3-.05.59-.08.88Z"/><path d="M31.18,52.42V51.37h.2v1.07Z"/><path d="M40.86,106.81l-.29,1-.29-.08.28-1Z"/><path d="M40.14,109.32l-.19,1-.3-.06.18-.95Z"/><path d="M39.07,111.82l.3-.92.29.08-.23.93Z"/><path d="M41.23,105.14l-.22,1-.3-.07.22-1Z"/><path d="M48.88,77.28c.31.68.19,1-.5,1.12Z"/><path d="M51.32,69l-.31,1L50.79,70a.89.89,0,0,1,.29-1.08Z"/><path d="M50.86,70.74l-.34,1.06-.31-.1.34-1.07Z"/><path d="M47.36,82.84c.06.41.11.81-.27,1.07l-.26-.07.28-1.07Z"/><path d="M46.42,85.56l.15-1.13.34,0-.16,1.12Z"/><path d="M48,81.15l-.23.92-.3-.07.19-.93Z"/><path d="M45.28,90.35l-.14.92-.23,0a.68.68,0,0,1,.15-.91Z"/><path d="M52.46,65.28l-.33,1.21-.23-.06a1.31,1.31,0,0,1,.29-1.23Z"/><path d="M52.87,63.71l-.22.92-.3-.07.2-.92Z"/><path d="M44.19,93.65l.2-1,.3,0-.14,1Z"/><path d="M43.29,96.71l.26-.92.3.07-.23.93Z"/><path d="M43.72,95.2l.22-1C44.39,94.69,44.35,94.93,43.72,95.2Z"/><path d="M42.35,100.4l.2-1,.32.07-.21,1Z"/><path d="M42.73,98.77l.24-.9.29.07-.19.93Z"/><path d="M29.13,79.31c.14.69-.12,1-.86,1Z"/><path d="M27,81.43l.68-.74.33.32-.7.73Z"/><path d="M26.48,82.52c0,.46-.24.67-.83.53l.65-.69Z"/><path d="M29,81l-.07.94-.3,0L28.7,81Z"/><path d="M29.19,77.85v1H29v-1Z"/><path d="M26.22,114.56v1.06a.72.72,0,0,1-.23-1.06Z"/><path d="M29.44,117.49l.18-.93.29,0-.15,1Z"/><path d="M27.43,100v1.34C26.9,101,26.89,100.52,27.43,100Z"/><path d="M27,105.09V104l.22,0,.08,1.12Z"/><path d="M27.06,103.18v-1.07h.2v1.06Z"/><path d="M55,55.94l-.26,1.16L54.47,57l.23-1.16Z"/><path d="M53.91,59l.24-1.23.23,0c.18.44-.05.83-.2,1.24Z"/><path d="M25.68,121.4c.23.6.18.88-.39,1.23l.17-1.27Z"/><path d="M25.64,123.32l-.08,1h-.24a.89.89,0,0,1,0-1Z"/><path d="M25.07,126l.06-1a1.43,1.43,0,0,1,.28,0c0,.34,0,.68,0,1Z"/><path d="M29.07,123c-.45-.3-.45-.61,0-1.15Z"/><path d="M26.65,108.7v-1.36C27.06,107.63,27.08,108.11,26.65,108.7Z"/><path d="M26.43,110.46v-1.24C26.91,109.71,26.91,109.92,26.43,110.46Z"/><path d="M30.19,112.33l.18-.9.3,0-.14.91Z"/><path d="M27.8,94.44v1.08C27.25,95.29,27.23,94.94,27.8,94.44Z"/><path d="M32.36,97.24c.21.2.27.23.27.25,0,.28-.09.55-.14.83l-.27-.06C32.25,98,32.3,97.67,32.36,97.24Z"/><path d="M32.87,96l0,.9h-.27c-.31-.29,0-.6,0-.9Z"/><path d="M27.66,93.64l.07-.86H28v.91Z"/><path d="M28.13,130.12l-.23,1.12-.24,0,.14-1.15Z"/><path d="M28.33,128.24l-.11,1-.29,0,.06-1Z"/><path d="M38.76,114.31l-.31,1.07-.25-.06a1,1,0,0,1,.3-1.08Z"/><path d="M27,138.78l-.12,1.1c-.57-.49-.36-.8-.15-1.12Z"/><path d="M28.45,87l-.06,1.18h-.24c-.28-.39-.09-.78.05-1.17Z"/><path d="M35.85,124.25c0,.1.07.21,0,.29s-.22.45-.33.68c-.07,0-.2-.1-.19-.12.08-.3.18-.6.27-.9Z"/><path d="M36.18,123.57c-.42-.56-.32-.9.25-1.17Z"/><path d="M28.09,153.4l-.26,1.16-.35-.08.23-1.16Z"/><path d="M23.4,152.84v1h-.22a.92.92,0,0,1,0-1Z"/><path d="M24.78,154.34c0,.32,0,.63-.05.94,0,0-.16.11-.2.09s-.19-.16-.18-.22c0-.28.11-.56.16-.83Z"/><path d="M23.06,156.56v.8l-.15.06c-.08-.14-.22-.28-.23-.42a1.39,1.39,0,0,1,.19-.5Z"/><path d="M24.65,153.59l.1-1.06.28,0L25,153.62Z"/><path d="M22.85,155.63l.1-1,.29,0,0,1Z"/><path d="M23.72,161.5l-.19,1.1C23.11,162,23.18,161.64,23.72,161.5Z"/><path d="M25.66,160.76l.22-.94.29.06-.18,1Z"/><path d="M23.85,85.25l-.77.85c-.2-.66.21-.82.56-1Z"/><path d="M22.52,86.66l-.73.76-.23-.22.72-.76Z"/><path d="M35,128c-.48-.5-.41-.81.24-1.19Z"/><path d="M34.81,128.61l-.37,1C34.08,129,34.2,128.68,34.81,128.61Z"/><path d="M31.7,138.91c-.15-.79-.08-.92.64-.9l-.43,1Z"/><path d="M33.22,134.77l-.47.76-.37-.25.52-.75Z"/><path d="M32.15,137.08l.34-.93.29.11-.31,1Z"/><path d="M33.64,132.66l-.18,1-.31-.06.21-1Z"/><path d="M22.53,170.39l-.09.8-.79-.16v-.64Z"/><path d="M21.71,171.53l.6.59-.41.34-.46-.7Z"/><path d="M22.37,169.27c0-.27.07-.54.12-.81,0,0,.18,0,.28,0l-.08.84Z"/></g></g></svg>