<svg xmlns="http://www.w3.org/2000/svg" xmlns:xlink="http://www.w3.org/1999/xlink" width="500" zoomAndPan="magnify" viewBox="0 0 375 374.999991" height="500" preserveAspectRatio="xMidYMid meet" version="1.0"><path fill="#ffffff" d="M 138.957031 7.183594 C 132.992188 12.089844 132.839844 13.4375 132.855469 61.230469 C 132.875 109.304688 133.234375 112.890625 139.265625 125.101562 C 145.691406 138.113281 159.109375 149.542969 168.820312 150.285156 L 172.078125 150.53125 L 172.078125 212.945312 C 172.078125 250.773438 172.480469 276.109375 173.097656 277.261719 C 175.523438 281.796875 193.996094 282.914062 203.167969 279.082031 L 207.074219 277.449219 L 207.074219 150.347656 L 210.179688 149.726562 C 221.695312 147.421875 233.859375 136.59375 240.753906 122.507812 C 243.179688 117.550781 245.648438 111.347656 246.242188 108.722656 C 246.878906 105.902344 247.332031 85.539062 247.347656 59.003906 L 247.375 14.058594 L 242.742188 9.425781 C 236.632812 3.320312 231.964844 3.023438 226.589844 8.398438 L 222.984375 12.003906 L 222.957031 33.585938 C 222.917969 66.277344 221.839844 94.21875 220.558594 95.800781 C 216.421875 100.898438 207.746094 101.183594 203.9375 96.34375 C 201.84375 93.679688 201.773438 92.269531 201.773438 53.308594 L 201.773438 13.027344 L 197.65625 8.910156 C 192.097656 3.351562 187.253906 3.191406 182.046875 8.398438 L 178.441406 12.003906 L 178.222656 41.539062 C 178.097656 57.785156 177.980469 76.191406 177.957031 82.441406 C 177.914062 93.1875 177.761719 93.957031 175.203125 96.527344 C 173.714844 98.019531 170.753906 99.527344 168.625 99.871094 C 165.289062 100.410156 164.304688 100.050781 161.523438 97.269531 L 158.292969 94.039062 L 158.292969 13.027344 L 154.175781 8.910156 C 150.808594 5.542969 149.308594 4.792969 145.957031 4.796875 C 143.277344 4.800781 140.847656 5.628906 138.957031 7.183594 M 93.875 27.09375 C 89.496094 28.851562 76.191406 38.480469 68.011719 45.800781 C 34.675781 75.648438 15.976562 111.183594 9.238281 157.503906 C 6.839844 174.007812 7.570312 203.066406 10.796875 219.234375 C 17.457031 252.625 33.867188 282.746094 59.839844 309.261719 C 85.066406 335.015625 117.835938 352.039062 156.785156 359.621094 C 169.304688 362.058594 174.371094 362.5 190.105469 362.535156 C 206.523438 362.566406 210.199219 362.234375 221.921875 359.652344 C 248.796875 353.742188 271.207031 344.390625 292.898438 330.046875 C 306.417969 321.105469 327.285156 300.625 337.175781 286.585938 C 344.578125 276.074219 354.1875 257.90625 358.148438 246.917969 C 371.980469 208.578125 372.746094 160.441406 360.117188 123.570312 C 351.867188 99.484375 341.789062 82.449219 333.667969 78.855469 C 327.601562 76.175781 322.261719 77.117188 317.695312 81.675781 C 312.785156 86.574219 312.511719 89.171875 315.757812 99.902344 C 326.003906 133.765625 328.613281 149.945312 327.652344 173.625 C 326.226562 208.746094 314.828125 236.660156 290.324219 265.042969 C 275.40625 282.328125 248.015625 298.589844 222.117188 305.539062 C 208.234375 309.265625 184.621094 310.234375 169.714844 307.695312 C 141.804688 302.9375 119.335938 292.941406 99.898438 276.636719 C 83.5625 262.9375 73.53125 249.96875 63.929688 230.148438 C 53.402344 208.410156 49.234375 187.183594 50.503906 161.746094 C 52.5 121.796875 68.242188 89.777344 101.808594 57.421875 C 112.003906 47.59375 113.75 44.847656 113.75 38.65625 C 113.75 34.9375 113.097656 33.585938 109.632812 30.121094 C 106.070312 26.554688 104.894531 26.011719 100.886719 26.070312 C 98.335938 26.105469 95.183594 26.566406 93.875 27.09375 " fill-opacity="1" fill-rule="evenodd"/></svg>