<svg xmlns="http://www.w3.org/2000/svg" viewBox="0 0 54.19 43.79"><defs><style>.cls-1{fill:none;stroke:#000;stroke-miterlimit:10;stroke-width:0.25px;}</style></defs><g id="Layer_2" data-name="Layer 2"><g id="Layer_1-2" data-name="Layer 1"><path class="cls-1" d="M28.69.12.12,28.63V38.87l4.79,4.79h7.31l5.86-5.87h21l4.73,4.74H54.07V.12ZM53.07,41.53H44.23l-4.44-4.44-.3-.3H17.67l-.29.3L11.8,42.66H5.33l-4.21-4.2V29.05l28-27.93h4.18l3.64,4.16h9.75l2.59,3.11h3.81Z"/><ellipse class="cls-1" cx="33.16" cy="40.07" rx="5.96" ry="1"/><path class="cls-1" d="M19.23,39.07a1,1,0,1,0,1,1A1,1,0,0,0,19.23,39.07Z"/><path class="cls-1" d="M21.86,39.07a1,1,0,1,0,1,1A1,1,0,0,0,21.86,39.07Z"/><path class="cls-1" d="M24.48,39.07a1,1,0,1,0,1,1A1,1,0,0,0,24.48,39.07Z"/></g></g></svg>