<svg xmlns="http://www.w3.org/2000/svg" viewBox="0 0 98.55 49.81"><g id="Layer_2" data-name="Layer 2"><g id="Layer_1-2" data-name="Layer 1"><path d="M94.17.38l4.25,4.25V34.39L83.13,49.69h-71A11.79,11.79,0,0,1,.5,36.16a12,12,0,0,1,12-10H26.84l.07-.08L52.6.38H94.17M12,47.38A9.36,9.36,0,0,0,14.13,28.9,10.38,10.38,0,0,0,12,28.67,9.36,9.36,0,0,0,9.85,47.14a9.75,9.75,0,0,0,2.14.24M94.27.13H52.5L26.73,25.89H12.52A12.27,12.27,0,0,0,.25,36.13a12,12,0,0,0,11.9,13.81H83.23L98.67,34.5v-30L94.27.13ZM12,47.13a9.34,9.34,0,0,1-2.08-.23,9.11,9.11,0,0,1,2.08-18,9.34,9.34,0,0,1,2.08.23,9.11,9.11,0,0,1-2.08,18Z" transform="translate(-0.13 -0.13)"/></g></g></svg>