<svg xmlns="http://www.w3.org/2000/svg" viewBox="0 0 54.89 30.17"><defs><style>.cls-1{fill:none;stroke:#000;stroke-miterlimit:10;stroke-width:0.25px;}</style></defs><g id="Layer_2" data-name="Layer 2"><g id="Layer_1-2" data-name="Layer 1"><path class="cls-1" d="M52.9.77A2.25,2.25,0,0,0,51.34.12H31.73a2.25,2.25,0,0,0-1.57.65L28.94,2a2.24,2.24,0,0,0-.64,1.57V5a2.21,2.21,0,0,0,2.21,2.21h4a7.06,7.06,0,0,1,6.84,5.33,2.23,2.23,0,0,0,2.15,1.73h7.87a2.25,2.25,0,0,0,1.56-.65l1.22-1.22a2.25,2.25,0,0,0,.65-1.57V3.56A2.25,2.25,0,0,0,54.12,2Zm.87,6.41v3.21A2.21,2.21,0,0,1,53.12,12l-.64.64a2.21,2.21,0,0,1-1.56.65h-6.7a2.18,2.18,0,0,1-2.08-1.5,8.07,8.07,0,0,0-7.66-5.56h-3A2.21,2.21,0,0,1,29.3,4h0a2.2,2.2,0,0,1,.64-1.56l.64-.64a2.23,2.23,0,0,1,1.56-.65H50.92a2.21,2.21,0,0,1,1.56.65l.64.64A2.21,2.21,0,0,1,53.77,4Z"/><path class="cls-1" d="M43.47,15.94a2.23,2.23,0,0,0-2.15,1.72A7.06,7.06,0,0,1,34.48,23h-4A2.21,2.21,0,0,0,28.3,25.2v1.41a2.24,2.24,0,0,0,.64,1.57l1.22,1.22a2.25,2.25,0,0,0,1.57.65H51.34a2.25,2.25,0,0,0,1.56-.65l1.22-1.22a2.25,2.25,0,0,0,.65-1.57V19.37a2.25,2.25,0,0,0-.65-1.57L52.9,16.58a2.24,2.24,0,0,0-1.56-.64Zm10.3,7V26.2a2.21,2.21,0,0,1-.65,1.56l-.64.64a2.21,2.21,0,0,1-1.56.65H32.14a2.23,2.23,0,0,1-1.56-.65l-.64-.64a2.2,2.2,0,0,1-.64-1.56h0A2.21,2.21,0,0,1,31.51,24h3a8.07,8.07,0,0,0,7.66-5.56,2.19,2.19,0,0,1,2.08-1.49h6.7a2.2,2.2,0,0,1,1.56.64l.64.64a2.21,2.21,0,0,1,.65,1.56Z"/><path class="cls-1" d="M11.42,14.24a2.23,2.23,0,0,0,2.15-1.73,7.06,7.06,0,0,1,6.85-5.33h4A2.21,2.21,0,0,0,26.6,5V3.56A2.25,2.25,0,0,0,26,2L24.73.77A2.25,2.25,0,0,0,23.17.12H3.56A2.25,2.25,0,0,0,2,.77L.77,2A2.25,2.25,0,0,0,.12,3.56V10.8a2.25,2.25,0,0,0,.65,1.57L2,13.59a2.25,2.25,0,0,0,1.57.65ZM1.12,7.18V4a2.21,2.21,0,0,1,.65-1.56l.64-.64A2.21,2.21,0,0,1,4,1.12H22.75a2.21,2.21,0,0,1,1.56.65l.64.64A2.21,2.21,0,0,1,25.6,4h0a2.21,2.21,0,0,1-2.21,2.21h-3a8.06,8.06,0,0,0-7.66,5.56,2.2,2.2,0,0,1-2.09,1.5H4a2.21,2.21,0,0,1-1.56-.65L1.77,12a2.21,2.21,0,0,1-.65-1.56Z"/><path class="cls-1" d="M11.42,15.94H3.56A2.24,2.24,0,0,0,2,16.58L.77,17.8a2.25,2.25,0,0,0-.65,1.57v7.24a2.25,2.25,0,0,0,.65,1.57L2,29.4a2.25,2.25,0,0,0,1.57.65H23.17a2.25,2.25,0,0,0,1.56-.65L26,28.18a2.25,2.25,0,0,0,.65-1.57V25.2A2.21,2.21,0,0,0,24.39,23h-4a7.06,7.06,0,0,1-6.85-5.33A2.23,2.23,0,0,0,11.42,15.94ZM25,27.76l-.64.64a2.21,2.21,0,0,1-1.56.65H4a2.21,2.21,0,0,1-1.56-.65l-.64-.64a2.21,2.21,0,0,1-.65-1.56V19.78a2.21,2.21,0,0,1,.65-1.56l.64-.64A2.2,2.2,0,0,1,4,16.94h6.7a2.2,2.2,0,0,1,2.09,1.49A8.06,8.06,0,0,0,20.42,24h3A2.21,2.21,0,0,1,25.6,26.2h0A2.21,2.21,0,0,1,25,27.76Z"/><path class="cls-1" d="M30.88,15.77a3.5,3.5,0,1,0-2.75,2.75A3.5,3.5,0,0,0,30.88,15.77Zm-2.81,1.74a2.5,2.5,0,1,1,1.8-1.8A2.51,2.51,0,0,1,28.07,17.51Z"/><path class="cls-1" d="M36.42,15.09a1.29,1.29,0,1,0-1.29,1.29A1.29,1.29,0,0,0,36.42,15.09Z"/><path class="cls-1" d="M18.47,15.09a1.29,1.29,0,1,0,1.29-1.29A1.29,1.29,0,0,0,18.47,15.09Z"/></g></g></svg>