<svg xmlns="http://www.w3.org/2000/svg" viewBox="0 0 112.47 27.32"><g id="Layer_2" data-name="Layer 2"><g id="Layer_1-2" data-name="Layer 1"><path d="M109.87.25a2.35,2.35,0,0,1,2.35,2.34V7.25a2.35,2.35,0,0,1-2.35,2.34H98a2.85,2.85,0,0,0-2,.83l-5.85,5.86a2.35,2.35,0,0,1-1.66.68H18.83a2.82,2.82,0,0,0-2,.84L8.23,26.38a2.33,2.33,0,0,1-1.65.69h-4A2.35,2.35,0,0,1,.25,24.72V2.59A2.34,2.34,0,0,1,2.59.25H6.28A2.34,2.34,0,0,1,7.9.9L9.65,2.58a2.83,2.83,0,0,0,2,.79H82.11a2.81,2.81,0,0,0,2-.83l1.6-1.6A2.3,2.3,0,0,1,87.38.25h22.49m0-.25H87.38a2.6,2.6,0,0,0-1.84.76l-1.6,1.6a2.59,2.59,0,0,1-1.83.76H11.62a2.63,2.63,0,0,1-1.8-.72L8.07.72A2.59,2.59,0,0,0,6.28,0H2.59A2.59,2.59,0,0,0,0,2.59V24.72a2.59,2.59,0,0,0,2.59,2.6h4a2.63,2.63,0,0,0,1.83-.76L17,18a2.6,2.6,0,0,1,1.83-.76H88.52a2.56,2.56,0,0,0,1.83-.76l5.86-5.85A2.56,2.56,0,0,1,98,9.84h11.83a2.59,2.59,0,0,0,2.6-2.59V2.59A2.59,2.59,0,0,0,109.87,0Z"/></g></g></svg>