<svg xmlns="http://www.w3.org/2000/svg" viewBox="0 0 98.55 49.81"><g id="Layer_2" data-name="Layer 2"><g id="Layer_1-2" data-name="Layer 1"><path d="M98.54,31.43V7.34a7.11,7.11,0,0,0-2.08-5l-.24-.24a7.11,7.11,0,0,0-5-2.08H55.31a7.11,7.11,0,0,0-5,2.08l-21.6,21.6a7.11,7.11,0,0,1-5,2.08H12.46A12.32,12.32,0,0,0,0,37.59,12,12,0,0,0,12,49.81H80.17a7.13,7.13,0,0,0,5-2.08L96.47,36.45A7.08,7.08,0,0,0,98.54,31.43Zm-95,10.33A9.19,9.19,0,0,1,15.73,29.59,8.32,8.32,0,0,1,20.18,34,9.2,9.2,0,0,1,8,46.21,8.27,8.27,0,0,1,3.56,41.76Z"/></g></g></svg>