<svg xmlns="http://www.w3.org/2000/svg" viewBox="0 0 112.47 27.32"><g id="Layer_2" data-name="Layer 2"><g id="Layer_1-2" data-name="Layer 1"><path d="M104.23,0H86.3L83.18,3.12H10.58L7.32,0H0V27.32H7.65L17.76,17.21H89.59L97,9.84h15.5V0Zm7.24,8.84H96.55l-.29.29-7.08,7.08H17.34l-.29.29L7.24,26.32H1V4.12H111.47Z"/><path d="M3.16,17.83a1,1,0,1,0,1,1A1,1,0,0,0,3.16,17.83Z"/><path d="M3.16,20.46a1,1,0,1,0,1,1A1,1,0,0,0,3.16,20.46Z"/><path d="M3.16,23.08a1,1,0,1,0,1,1A1,1,0,0,0,3.16,23.08Z"/></g></g></svg>