<?xml version="1.0" encoding="utf-8"?>
<!-- Generator: Adobe Illustrator 26.3.1, SVG Export Plug-In . SVG Version: 6.00 Build 0)  -->
<svg version="1.1" id="Layer_1" xmlns="http://www.w3.org/2000/svg" xmlns:xlink="http://www.w3.org/1999/xlink" x="0px" y="0px"
	 viewBox="0 0 1000 989.754" style="enable-background:new 0 0 1000 989.754;" xml:space="preserve">
<g>
	<g>
		<path d="M977.041,338.589c1.184,5.751,1.987,11.586,3.637,17.168c2.284,7.569,3.933,15.223,5.92,22.834
			c0.719,2.749,1.353,5.413,1.565,8.33c0.211,2.664,1.438,5.286,2.453,7.865c1.057,2.622,0.465,5.413,1.565,8.288
			c1.649,4.313,0.888,9.472,1.903,14.123c0.973,4.567,0.423,9.43,2.791,13.701c0.211,0.381,0.127,0.973,0.085,1.438
			c-1.057,8.584,1.522,16.914,1.565,25.414c0.042,4.99,1.099,9.979,1.353,15.011c0.254,4.947,0.042,9.895,0.042,14.885
			c0,5.201,0.085,10.402-0.042,15.603c-0.085,2.833,0.719,5.709-1.311,8.415c-0.634,0.846,0.55,3.002,1.057,5.413
			c-0.085,0.169-1.226,1.226-1.099,2.157c0.846,8.077-1.691,15.899-1.607,23.934c0.042,3.341,0.042,6.554-1.353,9.853
			c-1.142,2.749,1.226,6.385-1.607,9.007c0.423,4.355-1.226,8.584-1.269,12.77c-0.127,6.554-2.833,12.39-3.679,18.648
			c-0.507,3.637-2.579,6.977-2.495,10.825c0,0.93-0.254,1.861-0.55,2.749c-2.791,8.077-5.666,16.153-6.85,24.695
			c-2.791,3.171-2.664,7.358-3.552,11.163c-0.93,3.848-2.833,7.273-4.144,10.952c-1.987,5.624-3.171,11.544-6.005,16.83
			c-2.749,5.159-3.637,10.952-5.92,16.153c-5.878,13.447-12.263,26.725-19.24,39.622c-5.032,9.345-10.106,18.733-16.153,27.57
			c-5.032,7.315-9.979,14.673-14.8,22.158c-5.539,8.584-12.347,16.195-18.352,24.399c-7.569,10.402-16.407,19.536-24.695,29.219
			c-6.258,7.273-13.109,13.87-19.705,20.72c-2.622,2.749-6.47,4.525-8.669,7.527c-3.552,4.905-8.203,8.626-12.728,12.347
			c-9.43,7.654-18.31,15.899-28.331,22.919c-6.174,4.313-11.967,9.472-18.394,13.235c-11.206,6.597-21.354,14.8-32.941,20.847
			c-4.017,2.114-8.457,3.51-12.305,6.47c-3.594,2.749-7.569,5.582-11.713,7.4c-4.821,2.114-9.472,4.651-14.377,6.597
			c-5.751,2.283-11.755,3.89-17.083,7.273c-2.918,1.861-7.104,1.269-8.753,4.144c-5.032,1.353-9.726,2.072-13.954,3.89
			c-4.863,2.072-10.698,1.607-14.758,5.666c-8.753-0.507-15.603,6.089-24.145,6.343c-0.381,0-0.719,0.973-1.057,0.973
			c-5.793-0.381-11.079,2.03-16.618,2.96c-3.933,0.677-7.781,1.395-11.502,2.833c-0.846,0.338-1.903,0.169-2.875,0.296
			c-4.271,0.465-8.626,0.55-12.728,1.607c-3.806,1.015-7.992,0.465-11.459,2.791c-0.338,0.211-0.973,0-1.48,0.042
			c-6.977,0.507-14.123,0.254-20.932,1.649c-10.487,2.157-20.931,1.015-31.418,1.269c-10.402,0.254-20.805,0.211-31.249,0
			c-4.017-0.085-7.992-1.099-12.051-1.353c-3.933-0.254-8.246,0.888-11.84-0.296c-4.863-1.565-9.599-0.761-14.335-1.311
			c-3.045-0.338-6.047,0.93-9.218-1.184c-2.368-1.607-6.216,1.142-9.007-1.649c-0.634-0.634-2.41,0.042-3.637-0.127
			c-7.696-0.846-15.392-1.776-22.792-4.186c-0.888-0.296-1.903-0.338-2.875-0.254c-6.554,0.507-12.432-2.41-18.648-3.552
			c-7.273-1.353-14.462-3.214-21.523-5.497c-5.709-1.861-11.713-2.495-17.337-4.863c-5.286-2.241-10.741-3.975-16.153-5.836
			c-4.144-1.438-8.373-2.537-12.432-4.144c-5.539-2.157-10.91-4.778-16.491-6.893c-9.049-3.425-17.633-7.823-26.09-12.432
			c-2.241-1.226-4.229-2.96-6.597-3.806c-2.833-1.015-4.567-3.933-8.119-3.933c-3.045,0-4.44-3.721-7.865-4.355
			c-3.002-0.55-5.92-2.622-8.499-4.482c-9.641-6.977-20.424-12.39-29.727-19.663c-8.457-6.597-18.437-11.502-25.16-20.255
			c-6.174-3.129-9.683-9.895-16.534-12.178c-1.057-0.338-1.734-1.734-2.664-2.537c-2.072-1.734-3.087-4.355-5.624-5.836
			c-2.283-1.353-3.975-3.679-5.835-5.666c-3.721-3.933-8.288-6.977-11.544-11.417c-3.256-4.482-8.795-7.104-10.994-12.559
			c-3.51-1.353-5.666-3.806-7.4-7.189c-1.48-2.918-4.821-4.525-6.343-7.781c-0.93-2.03-3.637-3.002-5.159-5.159
			c-3.764-5.708-8.88-10.571-12.644-16.364c-3.214-4.905-6.893-9.557-10.402-14.166c-5.413-7.146-9.43-15.307-15.519-21.946
			c-0.465-3.594-4.102-4.651-5.328-7.442c-0.846-2.622-1.184-5.624-2.664-7.823c-4.905-7.104-7.569-15.223-11.459-22.792
			c-5.328-10.445-9.683-21.312-14.969-31.714c-1.691-3.383-1.184-7.231-3.806-10.402c-2.241-2.706-3.045-6.597-4.355-10.022
			s-2.495-6.935-3.552-10.445c-1.861-6.174-4.017-12.221-6.174-18.267c-1.522-4.355-2.453-8.838-4.144-13.151
			c-1.607-4.059-1.776-8.669-3.171-12.813c-2.453-7.231-2.833-15.011-5.709-22.158c-1.015-2.453-0.55-5.455-1.438-8.33
			c-1.311-4.271-1.099-8.965-1.734-13.447c-0.296-2.072-1.057-4.017-1.438-6.089c-0.338-2.072,0.761-4.482-1.522-6.089
			c-0.127-0.085,0-0.465,0-0.719c-0.507-6.47-1.48-12.982-1.353-19.451c0.169-9.049-2.749-17.845-1.607-26.894
			c-2.114-4.313-1.818-8.584-0.042-12.939c0.338-0.846,0.423-2.199,0-2.918c-2.453-3.848-1.226-8.034-1.353-12.051
			c-0.085-2.283-0.592-4.609,1.226-6.977c1.015-1.311,0.719-4.271-1.395-6.005c0.507-1.269,1.438-2.495,1.522-3.806
			c0.254-6.005,0.592-11.967,1.269-18.014c0.888-7.781,0.973-15.603,3.129-23.299c1.184-4.313,0.592-9.134,1.734-13.447
			c1.649-6.047,1.776-12.39,4.144-18.31c1.015-2.579-0.677-5.835,1.734-8.203c-0.127-6.47,2.96-12.178,4.482-18.225
			c1.48-5.835,3.298-11.544,4.863-17.337c1.987-7.358,5.624-14.081,7.823-21.27c4.778-15.434,11.417-29.981,18.437-44.442
			c2.664-5.455,4.482-11.248,8.965-15.603c0.93-5.751,4.863-9.937,7.527-14.758c2.706-4.863,5.835-9.472,8.88-14.166
			c1.395-2.157,3.002-4.229,4.44-6.343c5.666-8.288,10.571-17.337,17.253-24.695c5.539-6.131,10.149-12.855,15.434-19.071
			c8.753-10.275,16.745-21.143,26.386-30.699c1.987-2.03,3.467-4.525,5.328-6.723c1.691-2.03,3.848-3.89,5.793-5.539
			c6.893-5.666,12.601-12.686,20.17-17.549c1.226-0.803,2.072-2.114,3.171-3.129c6.85-6.301,13.489-12.897,21.819-17.379
			c0.423-0.211,0.761-0.634,1.057-1.057c3.341-4.609,8.288-7.273,13.024-9.853c6.216-3.383,11.417-8.119,17.464-11.671
			c5.835-3.425,11.375-7.358,17.083-10.867c7.654-4.736,15.603-9.091,23.173-14.039c1.311-0.846,3.087-0.888,4.525-1.565
			c2.875-1.395,5.709-2.96,8.542-4.567c3.002-1.734,5.962-3.341,9.303-4.482c3.89-1.311,7.907-2.326,11.248-5.328
			c2.833-2.537,7.104-3.214,10.656-4.609c6.385-2.495,12.643-5.455,19.155-7.611c6.343-2.114,13.024-3.383,18.986-6.258
			c8.415-4.059,17.76-4.736,26.217-8.626c2.368-1.099,5.539-0.042,8.288-1.522c2.664-1.48,5.793-2.157,8.965-1.607
			c1.776-3.045,5.243-1.184,7.865-2.664c3.256-1.818,7.95-0.888,11.84-1.903c7.273-1.861,15.054-1.057,22.031-4.271
			c0.423-0.169,0.973-0.085,1.438-0.127c7.485-0.507,15.096-0.254,22.411-1.649c11.459-2.199,22.919-1.015,34.378-1.269
			c11.417-0.254,22.834,0.211,34.209-0.211c3.763-0.127,6.935,1.522,10.529,1.691c3.51,0.169,7.315-1.395,10.571,1.353
			c0.423,0.381,1.438,0,2.199,0.042c6.977,0.465,14.039,0.507,20.932,1.691c3.763,0.634,7.485,1.184,11.333,1.353
			c3.51,0.169,7.189,0.423,10.529,1.522c9.049,2.918,18.733,3.045,27.57,7.104c3.045,1.395,6.935,0.296,10.529,1.48
			c1.903,0.634,4.525,0.973,5.793,2.03c3.298,2.664,6.935,2.833,10.445,2.706c1.142,1.142,2.03,2.03,3.045,3.045
			c7.019-1.184,12.686,4.017,19.451,4.567c3.594,3.763,9.683,1.861,13.235,5.793c6.893,1.226,12.855,4.905,19.155,7.611
			c5.878,2.537,11.459,5.793,17.802,7.315c1.311,0.296,2.495,1.184,3.637,1.903c8.034,4.99,17.126,8.161,24.653,14.123
			c1.184,0.93,2.918,1.48,4.482,1.691c3.045,0.423,5.201,2.072,7.231,4.144c1.015,1.057,1.903,2.664,3.171,3.045
			c6.131,1.903,10.825,6.216,16.238,9.303c5.878,3.298,12.263,6.343,16.872,11.037c3.806,3.848,8.246,6.639,12.305,10.022
			c3.975,3.298,8.246,6.427,12.432,9.43c5.37,3.806,9.472,9.43,15.899,11.755c1.311,3.171,4.44,4.609,6.808,6.681
			c5.117,4.525,8.711,10.698,15.096,13.743c3.214,6.258,9.261,9.979,13.658,15.181c2.157,2.537,4.186,5.201,6.343,7.781
			c2.114,2.579,4.651,4.694,6.512,7.696c2.495,4.017,6.723,6.766,9.387,10.994c5.582,8.965,13.87,16.069,18.31,25.879
			c4.44,3.467,6.427,8.795,9.895,13.066c3.51,4.313,6.47,9.134,9.303,13.954c3.467,5.962,6.512,12.178,9.726,18.267
			c3.341,6.301,6.766,12.559,9.937,18.944c2.749,5.539,5.539,11.079,7.146,17.126c0.042,0.211,0.127,0.465,0.254,0.634
			c4.736,4.863,4.863,11.882,8.33,17.379c2.326,3.679,3.679,8.119,4.482,12.178C972.389,330.471,976.364,333.727,977.041,338.589z
			 M501.917,769.82c3.637,0.465,6.427,1.734,8.161,0.888c5.624-2.791,12.051,0.423,17.464-2.791
			c7.781,0.888,15.054-1.987,22.538-3.256c2.96-0.507,6.089-0.55,9.007-1.48c4.609-1.48,8.922-3.637,13.87-4.355
			c4.947-0.719,9.345-3.637,14.377-4.863c3.89-0.93,7.611-2.96,11.671-4.102c4.144-1.142,7.907-3.637,11.798-5.624
			c3.679-1.903,7.485-3.51,11.206-5.328c3.721-1.818,7.189-4.229,10.825-6.216c1.818-0.973,3.848-0.93,5.709-2.537
			c6.554-5.751,15.307-8.415,21.227-15.265c1.691-1.987,5.117-2.495,6.977-4.398c1.903-1.987,4.44-3.087,6.174-5.413
			c1.649-2.199,4.186-3.679,6.385-5.413c1.861-1.438,3.806-2.791,5.666-4.229c7.104-5.455,11.29-13.827,18.859-18.859
			c1.649-4.99,6.639-7.358,9.091-11.84c2.495-4.525,6.174-8.373,9.303-12.517c1.438-1.903,2.622-4.017,4.271-5.666
			c4.398-4.44,7.442-9.641,9.387-15.477c0.93-2.706,2.072-5.074,4.144-7.273c2.199-2.326,4.271-5.201,5.201-8.203
			c1.184-3.848,3.129-7.146,4.821-10.656c2.368-4.947,4.229-10.149,6.005-15.35c2.875-8.499,5.92-16.957,8.119-25.625
			c1.311-5.159,3.298-10.106,4.102-15.519c0.55-3.51,0.296-7.231,1.438-10.487c2.03-5.962,2.706-11.967,2.833-18.183
			c0.127-5.243,0.381-10.656,1.649-15.688c0.592-2.41,2.114-4.186-0.254-6.258c0.423-4.271-1.142-8.753,1.226-12.432
			c-0.465-1.861-1.311-3.467-1.184-4.947c0.888-8.077-1.818-15.899-1.565-23.934c0-0.507,0.211-1.184-0.042-1.48
			c-2.918-3.467-0.846-7.569-1.48-11.333c-0.634-3.721-1.311-7.442-2.072-11.544c-0.634-1.184-1.861-2.749-2.326-4.482
			c-1.649-6.047-2.96-12.178-4.567-18.225c-1.226-4.694-2.368-9.43-4.144-13.912c-3.975-10.275-9.007-20.086-13.531-30.107
			c-2.791-6.174-6.005-11.967-9.937-17.506c-3.848-5.455-6.258-11.925-10.233-17.253c-5.624-7.527-12.051-14.419-18.31-21.439
			c-2.96-3.341-6.343-6.258-9.387-9.514c-1.607-1.734-2.453-4.355-4.313-5.582c-7.781-5.117-13.701-12.432-21.566-17.549
			c-5.074-3.298-9.895-7.104-15.181-10.149c-3.214-1.861-6.85-3.129-9.557-5.539c-6.597-5.793-14.419-9.472-21.904-13.743
			c-3.341-1.903-7.315-2.749-10.698-4.609c-6.47-3.552-13.954-4.694-20.128-8.88c-3.637,0.803-5.835-2.537-9.176-3.129
			c-6.597-1.184-13.024-3.171-19.536-4.821c-6.089-1.522-12.094-3.341-18.394-4.229c-4.017-0.55-8.457-0.085-11.925-1.522
			c-3.467-1.438-6.935-0.042-9.853-1.353c-3.298-1.438-6.554-1.269-9.853-1.311c-1.987-0.042-3.975,0-5.962,0
			c-2.241,0-4.482,0-6.681,0c-1.987,0-4.609,0.803-5.835-0.169c-2.283-1.818-3.763,0.381-5.582,0.211
			c-1.945-0.211-3.975-0.042-5.962-0.042c-2.241,0-4.482,0-6.681,0c-1.48,0-3.383-0.592-4.398,0.127
			c-2.918,1.987-6.089,1.057-9.134,1.395s-6.047,1.395-9.049,1.353c-6.258-0.042-12.051,2.283-18.056,3.256
			c-1.099,0.169-2.41,1.057-3.848,1.353c-5.455,1.099-10.867,2.41-16.28,3.721c-7.569,1.903-14.123,6.004-21.439,8.034
			c-9.387,2.579-17.379,8.288-26.471,11.502c-4.017,1.438-6.977,4.778-10.825,6.216c-3.721,1.395-6.554,3.679-9.091,6.301
			c-4.398-0.507-6.554,3.045-9.218,5.032c-3.975,3.002-7.95,5.962-11.967,8.88c-5.624,4.059-11.121,8.373-16.111,13.151
			c-9.176,8.669-17.971,17.76-26.894,26.767c-1.311,1.353-2.326,3.002-3.467,4.482c-3.594,4.736-6.85,9.726-10.825,14.081
			c-8.499,9.261-14.885,19.874-20.339,31.038c-1.818,3.763-4.694,7.231-5.751,10.994c-1.565,5.624-5.074,10.275-6.766,15.857
			c-1.691,5.624-3.89,11.248-5.92,16.83c-3.806,10.445-7.104,21.016-8.669,32.179c-0.888,6.258-3.256,12.347-2.706,18.902
			c-2.537,2.664-1.099,6.005-1.522,9.049c-0.423,3.045-1.353,6.047-1.395,9.049c-0.211,8.415,0.211,16.872-0.127,25.287
			c-0.338,8.542,2.706,16.872,1.565,25.414c2.072,3.806,0.381,8.33,1.776,11.925c1.48,3.89,1.057,7.823,2.157,11.713
			c1.691,5.962,3.256,12.051,4.99,18.056c1.649,5.751,2.791,11.629,5.243,17.168c2.41,5.455,4.863,10.91,6.597,16.576
			c3.045,9.81,8.288,18.479,13.447,27.148c3.341,5.582,6.681,11.206,10.571,16.449c6.639,8.965,12.305,18.69,20.466,26.513
			c1.861,5.117,7.527,7.315,9.557,12.432c0.507,1.269,1.861,2.749,3.087,3.045c2.918,0.761,4.229,3.129,6.174,4.863
			c3.806,3.341,7.654,6.766,11.29,10.191c6.639,6.301,13.954,11.544,21.481,16.661c11.29,7.696,23.13,14.504,35.393,20.509
			c3.933,1.945,7.569,4.482,11.586,6.131c7.823,3.214,15.857,6.047,23.807,8.965c3.002,1.099,6.047,2.453,9.176,2.875
			c2.96,0.381,5.624,0.803,7.738,3.087c2.791,0.169,5.539-0.085,8.33,1.353c2.368,1.226,6.385,0.296,7.992,1.945
			c2.664,2.791,5.328-1.226,7.4,1.015c9.007,1.099,17.76,3.975,26.978,3.129c1.226-0.127,2.664-0.423,3.679,0.042
			c7.104,3.129,14.504,0.677,21.735,1.353C500.48,770.877,501.579,769.947,501.917,769.82z M851.621,438.13
			c0.465,3.467,1.015,5.751,1.015,8.077c0.042,25.794,0,51.546,0.085,77.341c0,2.326,0,4.525,0.973,7.019
			c1.099,2.833,1.269,6.597-0.381,9.895c-0.507,1.015-1.015,2.875-0.55,3.341c2.41,2.326,1.311,5.117,1.353,7.654
			c0.085,20.593,0.042,41.144,0.042,61.737c0,3.721-0.254,7.485,0.085,11.163c0.338,3.721,1.269,7.358,2.03,11.502
			c0.973-0.465,1.945-0.677,2.495-1.269c3.214-3.594,6.343-7.273,9.514-10.91c5.962-6.935,12.305-13.616,17.76-20.931
			c6.005-8.077,12.897-15.392,19.198-23.173c5.582-6.893,11.459-13.658,17.295-20.382c5.582-6.47,12.051-12.094,17.337-18.859
			c4.017-5.159,9.345-9.387,12.855-14.842c2.072-3.171,4.99-5.117,7.189-7.992c3.341-4.398,7.273-8.415,10.825-12.643
			c2.114-2.495,4.017-5.117,5.793-7.4c-1.226-2.114-1.776-3.721-2.833-4.905c-5.159-5.835-10.487-11.544-15.73-17.295
			c-1.184-1.269-2.706-2.283-3.637-3.721c-3.721-5.624-7.992-10.741-12.643-15.603c-4.186-4.355-8.077-9.007-12.136-13.531
			c-0.338-0.381-0.677-0.677-0.973-1.099c-1.818-2.664-3.129-5.962-5.539-7.907c-2.622-2.072-3.89-5.117-6.47-7.146
			c-1.776-1.395-3.552-2.96-4.609-5.455c-0.888-2.072-4.017-3.087-5.666-4.99c-3.087-3.594-5.624-7.611-8.711-11.206
			c-4.567-5.37-9.853-10.191-13.997-15.815c-2.622-3.552-6.597-6.174-8.288-9.895c-1.903-4.186-5.92-6.047-7.992-10.022
			c-2.072-3.975-6.216-6.935-9.683-10.106c-1.057-0.973-2.833-1.142-4.355-1.691c-0.803,3.129-1.691,5.582-1.987,8.077
			c-0.296,2.706-0.085,5.455-0.085,8.161c0,4.482-0.254,8.922,0.042,13.362c0.338,4.947-1.396,10.106,1.142,14.885
			c-2.368,3.848-2.072,8.415-0.592,11.882c1.903,4.398-2.283,7.738-0.677,11.713c0.507,1.269,0.423,2.664,0.93,4.059
			C853.143,432.126,853.608,435.635,851.621,438.13z M497.181,24.829c-2.833,2.199-4.947,4.144-7.315,5.582
			c-4.694,2.875-8.119,7.273-12.855,10.149c-5.032,3.087-9.472,7.146-14.081,10.91c-6.131,4.99-12.009,10.36-18.267,15.181
			c-6.597,5.032-13.405,9.81-19.705,15.265c-4.102,3.552-8.584,6.681-12.939,9.979c-1.691,1.269-3.467,2.41-5.159,3.679
			c-5.582,4.398-11.163,8.88-16.83,13.235c-4.059,3.129-8.33,6.047-12.517,9.049c-4.229,3.002-8.246,6.301-12.432,9.43
			c-2.579,1.861-5.624,3.933-6.766,8.288c1.861,0,3.256,0,4.651,0c11.882,0,23.765,0,35.689,0c14.631,0,29.219,0,43.85,0
			c3.087,0,6.089,0.085,9.134-1.311c1.311-0.592,3.467,1.226,5.243,1.184c2.03-0.042,4.059-0.888,6.089-1.353
			c0.465-0.127,1.142-0.211,1.438,0c3.256,2.622,6.554,1.269,9.43-0.085c0.93,0.761,1.48,1.184,1.184,0.93
			c4.186-0.338,7.442-0.634,10.698-0.888c3.045,3.214,6.089,0.888,8.753-0.127c1.057,0.803,1.818,1.311,2.96,2.157
			c1.565-2.241,3.298-2.706,5.624-1.395c1.353,0.761,3.806,1.395,4.736,0.719c2.96-2.199,6.131-1.269,9.134-1.269
			c36.916-0.085,73.831-0.042,110.704-0.085c1.607,0,3.214-0.169,4.651-0.254c0.719-2.791-0.338-4.313-1.987-5.582
			c-2.622-1.987-5.159-4.229-7.95-5.962c-8.034-5.074-15.265-11.206-22.581-17.168c-6.808-5.497-13.743-10.783-21.016-15.603
			c-2.749-1.818-5.413-3.806-7.95-5.92c-3.89-3.214-7.485-6.893-11.544-9.895c-6.639-4.99-13.362-9.853-19.705-15.265
			c-4.863-4.186-9.641-8.711-15.181-11.84c-3.594-2.03-5.751-5.497-9.557-7.315c-3.763-1.818-6.681-5.413-10.022-8.203
			C502.467,29.057,500.057,27.154,497.181,24.829z M549.827,851.093c-0.423-0.381-1.015-1.353-1.48-1.311
			c-4.99,0.592-10.233-1.649-15.054,1.353c-0.888,0.55-2.622,0.465-3.637,0c-4.863-2.157-9.514-1.987-14.462-0.085
			c-1.395,0.55-3.51-0.761-5.328-1.269c-1.311,1.861-3.383,1.522-5.243,1.353c-4.525-0.338-9.261,1.184-12.813-1.015
			c-2.96,0.423-5.243,1.015-7.527,1.015c-28.754,0.042-57.509,0.042-86.263,0.042c-1.987,0-4.567-0.719-5.793,0.254
			c-2.791,2.241-5.92,1.565-8.415,0.973c-2.833-0.677-5.201,0.338-7.738,0.254c-3.171-0.085-6.343-0.042-9.514-0.042
			c0.169,0.296,0.381,0.634,0.55,0.93c-0.846,0.381-1.734,0.761-2.875,1.226c6.385,5.709,11.882,11.333,18.098,15.942
			c3.933,2.918,7.019,6.724,10.91,9.514c5.666,4.059,11.163,8.288,16.069,13.235c0.677,0.719,1.269,1.734,2.114,2.072
			c5.074,1.987,7.527,7.315,12.39,9.599c0.592,0.254,0.634,1.649,0.846,2.241c0.93,0.296,1.607,0.465,2.241,0.761
			c5.455,2.664,8.965,7.781,13.954,11.121c4.186,2.791,7.611,6.681,11.586,9.853c6.681,5.37,13.616,10.36,20.17,15.857
			c6.723,5.624,13.109,11.671,19.79,17.718c1.142,0,2.622,0,4.059,0c2.157-2.157,4.144-4.355,6.385-6.301
			c2.326-2.03,3.763-5.243,7.231-5.835c0.254-3.51,3.721-3.848,5.666-5.709c4.398-4.186,8.669-8.415,13.489-12.221
			c6.893-5.413,12.982-11.798,19.494-17.718c4.102-3.763,7.95-7.992,12.601-10.91c7.95-5.032,14.673-11.544,21.523-17.718
			c7.738-6.977,15.899-13.405,23.765-20.17c2.453-2.114,4.609-4.355,6.766-6.766c2.537-2.791,5.962-4.778,9.049-7.104
			c-1.057-1.057-1.734-1.734-2.579-2.579c-21.185,0-42.497-0.042-63.767,0.042C554.225,849.783,552.449,850.544,549.827,851.093z
			 M23.031,479.232c1.607,2.791,2.664,4.821,3.975,6.723c4.482,6.597,9.134,13.066,13.616,19.663
			c2.749,4.017,4.99,8.415,7.95,12.305c8.288,10.783,15.603,22.242,23.088,33.575c4.398,6.639,9.387,12.897,13.658,19.621
			c5.539,8.669,11.333,17.168,17.379,25.541c6.301,8.711,11.417,18.267,18.31,26.598c0.93,1.142,1.649,2.453,2.579,3.848
			c1.945-2.537,2.664-4.821,3.298-7.315c0.592-2.283-2.495-3.256-0.719-5.793c1.184-1.691,0.423-4.736,0.423-7.189
			c0-66.177,0-132.312,0-198.49c0-1.987-0.169-3.975,0.085-5.92c0.169-1.311,0.93-2.579,1.438-3.806
			c-1.691-2.072-1.987-4.313-1.142-6.723c0.381-1.099,1.057-2.157,1.099-3.256c0.085-10.36,0.042-20.678,0.042-31.038
			c-0.381,0.211-0.761,0.465-1.142,0.677c-0.296-0.888-0.592-1.818-1.099-3.298c-4.229,5.117-7.442,9.768-11.459,13.574
			c-6.047,5.666-9.599,13.193-15.477,19.029c-4.482,4.482-7.611,10.36-12.263,14.885c-1.099,1.015-2.749,1.945-3.045,3.171
			c-1.057,4.271-5.328,5.878-7.189,9.683c-1.818,3.763-5.37,6.723-8.203,9.979c-3.298,3.848-7.189,7.315-9.895,11.544
			c-6.554,10.36-15.307,18.859-22.792,28.416C31.911,470.014,27.597,474.2,23.031,479.232z M840.796,669.687
			c-2.579,2.241-4.059,3.383-5.37,4.651c-2.326,2.241-4.567,4.525-6.85,6.808c-2.453,2.453-4.905,4.905-7.358,7.358
			c-2.283,2.283-4.567,4.567-6.85,6.85c-2.453,2.453-4.905,4.905-7.358,7.358c-2.283,2.284-4.567,4.567-6.85,6.85
			c-2.453,2.453-4.525,5.582-7.485,7.189s-3.594,4.694-6.047,6.512c-2.579,1.861-4.609,4.482-6.893,6.766
			c-2.283,2.283-4.229,5.159-6.935,6.681c-2.833,1.607-3.637,4.905-6.174,6.301c-2.875,1.522-5.032,3.679-7.231,5.878
			c-12.094,12.094-24.188,24.188-36.281,36.281c-17.845,17.845-35.731,35.731-53.534,53.534c0.127,1.353,0.211,2.495,0.296,3.637
			c10.656,0,20.805,0.042,30.953-0.085c0.803,0,1.565-0.93,2.368-1.395c0.169-0.127,0.507,0,0.719,0
			c2.199,0.846,4.609,1.691,6.723,1.226c7.104-1.565,13.658-1.607,20.509-0.042c3.51,0.803,7.146,0.93,9.641-0.973
			c1.987,0.55,3.298,0.93,4.609,1.269c6.301,1.565,12.559-3.341,18.859-0.042c0.338,0.169,1.184,0.127,1.395-0.127
			c1.691-2.241,4.102-1.226,6.174-1.269c17.337-0.55,34.801,1.311,52.223-1.903c0.55-1.607,1.522-3.298,1.649-5.074
			c0.338-4.525,0.55-9.007,1.311-13.531c1.099-6.597-0.211-13.489,1.649-20.213c0.973-3.637-1.057-7.781,1.607-11.248
			c-1.015-6.597,1.438-12.939,1.565-19.451c0.127-5.751,0.93-11.459,1.565-17.168c0.085-0.761,1.057-1.438,0.973-1.311
			c-0.465-3.087-1.776-5.751-0.93-7.062c1.987-3.045,1.015-6.131,1.269-9.176c0.211-2.453-0.888-5.539,0.254-7.315
			c2.072-3.341,0.761-6.639,1.269-9.937c0.508-3.298,1.522-6.554,1.396-9.81c-0.296-7.569,2.749-14.842,1.607-22.454
			c-0.085-0.465-0.127-1.099,0.127-1.438C842.276,679.709,840.204,675.396,840.796,669.687z M672.752,148.092
			c7.823,9.049,17.337,15.942,23.892,25.583c0.803,1.226,1.903,2.664,3.171,3.087c3.298,1.015,5.074,3.721,7.189,5.92
			c4.694,4.905,9.091,10.149,13.743,15.096c1.565,1.649,4.059,2.579,5.37,4.398c5.793,8.077,12.939,15.011,19.79,22.073
			c20.34,21.016,41.271,41.482,61.906,62.202c3.045,3.045,5.032,7.738,8.584,9.557c4.651,2.41,5.286,8.626,10.698,9.683
			c2.918,6.174,8.922,9.599,13.193,14.589c0.634,0.719,1.818,0.973,3.594,1.861c-0.592-9.345,0.042-17.675-1.395-26.217
			c-1.565-9.261-0.296-18.859-1.438-28.374c-1.734-14.758,1.057-29.896-1.776-44.696c1.015-13.743-2.284-27.317-1.48-41.017
			c0.169-3.045-3.425-6.089-0.042-9.218c0.254-0.211,0.254-1.184,0-1.438c-2.622-2.495-0.634-6.089-2.241-9.345
			c-6.385,2.283-12.39-0.803-18.69-0.973c-7.231-0.211-14.462-0.93-21.693-1.438c-0.254,0-0.592,0.085-0.719,0
			c-2.749-2.241-6.005-1.184-9.049-1.522c-3.298-0.381-6.512-1.057-9.81-1.438c-3.51-0.423-7.104,0.592-10.614-1.395
			c-2.368-1.311-5.413,0.465-8.415-1.353c-2.157-1.311-5.878-0.677-8.753-0.169c-3.129,0.55-5.413-1.818-8.33-1.607
			c-3.848,0.296-7.527-0.465-11.333-1.311c-3.637-0.846-7.485-0.169-11.333-1.438c-3.256-1.057-6.977-0.338-10.529-1.48
			c-3.256-1.057-7.189,0.381-10.487-1.691c-7.315,0.677-14.377-2.537-21.693-1.48c-0.423,0.085-0.846,0.338-1.395,0.55
			C672.752,145.978,672.752,146.95,672.752,148.092z M139.993,671.21c0,2.875-0.973,6.047,0.211,7.611
			c2.495,3.341,0.592,6.977,1.903,10.445c1.269,3.214,0.677,7.189,0.846,10.825c0.085,1.48-0.592,3.425,0.127,4.398
			c2.453,3.298,1.522,7.273,2.622,10.825c1.142,3.721,0.592,7.95,1.522,12.009c1.015,4.355,0.338,8.965,1.48,13.531
			c1.057,4.313,0.296,8.965,1.48,13.531c1.057,4.059,0.507,8.457,1.438,12.77c1.395,6.554,1.226,13.405,1.734,20.17
			c0.085,0.973-0.381,2.283,0.085,2.918c2.199,3.087,1.099,6.554,1.438,9.853c0.381,3.51,1.226,7.019,1.395,10.529
			c0.211,4.99,1.987,9.43,3.425,13.574c2.875,0.719,5.117,1.649,7.4,1.734c5.455,0.254,11.29-1.142,16.238,0.423
			c5.117,1.565,10.402-0.042,15.35,2.453c2.157,1.099,5.37,0,8.077,0.254c2.791,0.254,5.539,1.353,8.33,1.311
			c2.749-0.042,5.074,1.099,7.569,1.565c4.947,0.93,9.895-0.592,15.096,1.226c4.525,1.607,9.895,0.211,14.927,1.607
			c4.059,1.099,8.457,0.085,12.813,1.438c3.721,1.142,7.95,0.338,12.009,1.522c3.763,1.057,7.992,0.93,12.009,1.438
			c7.4,0.888,14.8,2.706,22.411,1.861c2.495-0.296,5.159-0.592,7.696,1.226c0.888,0.634,3.298-0.888,5.328-1.522
			c-12.643-13.024-25.329-24.78-38.734-35.858c-5.032-4.186-9.557-8.965-14.504-13.278c-9.261-8.034-17.422-17.253-26.851-25.118
			c-6.131-5.286-11.037-11.798-17.718-16.534c-6.512-4.609-11.586-10.994-17.718-16.195c-7.992-6.808-15.054-14.673-22.961-21.65
			c-14.758-13.024-27.317-28.374-43.089-40.89C142.784,671.21,141.811,671.21,139.993,671.21z M165.238,160.651
			c0,4.99,1.015,9.345-0.338,12.77c-1.015,2.706,0.085,5.624-1.353,7.569c-1.945,2.579-0.761,5.159-1.226,7.696
			c-0.169,0.973,0.085,2.03-0.254,2.875c-1.522,3.721-2.579,7.442-2.791,11.502c-0.211,4.017-2.114,7.865-1.438,12.009
			c0.169,0.973,0.465,2.453-0.042,2.875c-3.087,2.833,0.254,7.4-2.918,10.022c-0.507,5.243-1.015,10.487-1.48,15.73
			c-0.085,0.973,0.254,2.368-0.254,2.833c-2.41,2.368-0.169,5.455-1.353,7.654c-1.48,2.749-1.184,5.539-1.395,8.373
			c-0.423,4.99-0.381,10.149-1.734,14.927c-0.634,2.072-0.93,4.059-1.269,6.131c-0.338,2.283-1.395,4.567-1.353,6.808
			c0.169,6.089-2.579,11.84-1.649,17.971c0.085,0.677-0.761,1.48-1.226,2.241c0.888,0.803,1.776,1.565,2.875,2.622
			c3.806-3.806,7.485-7.104,10.698-10.783c3.087-3.552,7.442-5.539,10.149-9.726c2.114-3.298,6.089-5.328,9.134-8.034
			c2.199-1.987,4.229-4.186,6.343-6.301c2.283-2.241,4.567-4.525,6.85-6.808c2.114-2.114,3.89-4.736,6.385-6.174
			c2.791-1.607,3.552-4.736,6.131-6.385c1.015-0.634,1.649-1.903,2.664-2.537c2.622-1.649,4.778-3.806,7.146-5.709
			c2.283-1.861,3.594-4.567,6.131-6.343c2.791-1.987,5.455-4.525,7.315-7.358c1.438-2.241,3.637-3.298,5.328-5.074
			c1.861-1.945,3.721-3.933,5.751-5.751c2.114-1.861,5.751-3.256,6.258-5.413c0.846-3.594,4.567-2.706,5.582-5.032
			c1.184-2.749,3.89-3.806,5.793-5.624c10.275-9.853,19.409-20.889,30.826-29.516c2.368-1.776,4.229-4.144,6.343-6.258
			c2.114-2.114,4.186-4.186,6.301-6.301c2.114-2.114,4.313-4.102,6.258-6.343c1.903-2.114,3.087-5.413,5.413-6.47
			c2.918-1.353,4.398-3.806,6.639-5.582c0.803-0.677,1.269-1.818,2.537-3.721c-3.594,0-6.766-0.93-8.753,0.211
			c-3.975,2.241-8.288,0.973-12.347,2.495c-3.51,1.269-7.865,0.677-11.798,0.169c-4.017-0.507-7.442,1.607-11.29,1.691
			c-6.216,0.127-12.474,0.846-18.69,1.395c-0.677,0.042-1.311,0.507-1.987,0.592c-1.861,0.338-4.059,1.353-5.497,0.719
			c-3.552-1.607-6.681-1.776-10.022,0.127c-7.823-0.846-15.477,1.649-23.173,1.353c-9.303-0.381-18.31,2.368-27.613,1.649
			c-4.059,2.072-8.499,1.099-12.728,1.607C171.2,158.325,168.409,159.678,165.238,160.651z M320.046,788.68
			c-1.184-2.41-2.283-4.186-2.96-6.131c-4.398-12.559-7.442-25.583-11.925-38.142c-1.395-3.933-1.691-8.373-3.256-12.051
			c-3.214-7.696-4.694-15.857-7.696-23.553c-1.311-3.425-3.763-6.216-7.527-8.077c-3.045-1.48-6.343-1.861-9.091-3.171
			c-4.186-1.987-8.457-3.975-12.855-4.736c-4.863-0.846-8.88-4.482-14.039-3.89c-10.994-4.651-22.454-8.077-33.913-11.375
			c-5.751-1.649-11.206-4.144-17.295-5.117c-3.933-0.634-8.077-1.903-11.84-3.51c-5.582-2.326-11.417-3.594-17.168-5.201
			c-4.609-1.269-9.091-2.749-13.701-4.186c-0.634,0.634-1.269,1.353-1.903,2.03c4.271,4.271,8.499,8.499,12.686,12.686
			c4.017,4.017,7.823,8.33,12.136,12.009c4.229,3.552,7.865,7.696,12.221,11.163c7.273,5.709,13.405,12.77,20.339,18.986
			c9.979,8.922,19.578,18.394,29.431,27.57c8.965,8.33,17.76,16.872,26.767,25.16c1.987,1.818,3.637,4.355,5.751,5.582
			c6.808,3.933,10.952,10.741,17.464,15.054c5.201,3.425,9.091,8.626,14.081,12.601c7.4,5.878,13.912,12.813,19.959,18.437
			c1.565-0.592,2.749-1.057,4.482-1.776c-4.271-3.721-4.525-7.738-4.271-10.741c-2.114-4.99-3.806-8.965-5.92-13.954
			C320.046,792.95,320.046,790.498,320.046,788.68z M659.855,828.344c1.903-1.649,3.383-2.749,4.694-4.059
			c3.89-3.806,7.738-7.696,11.586-11.544c3.848-3.848,7.696-7.696,11.586-11.586c3.848-3.848,7.696-7.696,11.586-11.586
			c3.679-3.679,7.358-7.358,11.037-11.037c3.848-3.848,7.696-7.696,11.586-11.586c3.848-3.848,7.654-7.781,11.586-11.544
			c3.721-3.594,7.654-6.935,10.994-10.91c2.622-3.129,5.709-5.793,9.261-8.034c3.552-2.199,4.821-6.639,8.795-8.965
			c5.074-2.96,8.161-8.415,12.517-12.474c13.32-12.517,26.006-25.71,39.072-38.776c-4.102-2.241-7.442,1.987-11.29,0.973
			c-0.719-0.169-1.649,0.803-2.537,0.93c-7.315,1.226-13.827,4.947-21.058,6.723c-5.666,1.396-11.333,3.679-16.957,5.624
			c-5.666,1.945-11.333,3.721-17.041,5.539c-5.243,1.649-10.571,3.214-15.815,4.905c-7.019,2.283-14.293,3.848-21.27,6.089
			c-4.229,1.353-8.203,3.298-13.193,2.706c-1.903,4.482-3.721,8.669-5.962,13.827c0.211,1.776-0.254,4.44-1.269,7.273
			c-0.846,2.453-2.791,4.525-3.045,6.893c-1.099,9.345-5.117,17.76-7.569,26.64c-1.48,5.328-2.875,10.698-4.525,15.984
			c-0.719,2.41-2.368,4.567-2.875,6.977c-1.903,9.557-5.92,18.479-8.034,27.909C660.827,819.252,658.29,823.016,659.855,828.344z
			 M965.919,371.445c-1.565-6.047-3.256-10.91-3.975-15.899c-0.93-6.301-4.144-11.713-5.878-17.675
			c-1.226-4.186-1.691-8.88-3.89-12.474c-4.821-7.95-5.92-17.464-11.333-25.075c-0.254-0.338-0.507-0.93-0.381-1.311
			c1.057-3.256-2.241-4.651-2.833-6.977c-0.634-2.579-1.48-4.778-3.002-6.977c-1.903-2.791-3.087-6.131-4.609-9.218
			c-1.438-2.875-2.875-5.751-4.398-8.584c-1.438-2.622-3.975-5.117-4.271-7.823c-0.381-3.51-3.256-5.117-4.229-7.992
			c-0.338-1.057-1.776-1.691-2.495-2.664c-0.761-1.015-1.269-2.241-1.945-3.425c-3.763,1.649-5.074,4.694-6.47,7.654
			c-2.072,4.355-4.525,8.499-6.512,12.897c-0.888,2.03-2.072,4.059-2.96,6.216c-1.015,2.326-2.749,4.313-3.89,6.554
			c-3.721,7.358-7.273,14.885-11.417,21.989c-6.893,11.713-12.221,24.187-18.141,36.366c-0.634,1.353-0.085,3.298-0.085,5.074
			c0.888,0.085,1.734-0.085,2.283,0.254c4.355,2.706,9.81,2.537,14.166,5.286c1.691,1.057,3.806,1.734,5.793,2.072
			c13.531,2.157,25.921,8.077,39.03,11.671c5.328,1.438,10.614,3.087,15.857,4.778c7.654,2.41,15.307,4.905,23.046,7.442
			C964.228,372.925,965.116,372.122,965.919,371.445z M318.989,167.797c-2.537,1.522-4.144,2.114-5.328,3.171
			c-6.85,6.258-13.658,12.517-20.34,18.944c-1.861,1.776-2.791,4.905-4.863,6.005c-4.313,2.241-7.019,5.962-10.318,9.134
			c-19.663,19.029-39.157,38.184-58.862,57.17c-2.622,2.579-4.905,5.666-7.823,7.696c-3.045,2.072-5.624,4.482-8.203,7.019
			c-5.455,5.37-11.121,10.571-16.195,16.322c-4.947,5.582-11.671,9.261-15.773,15.603c-4.482,1.818-6.935,5.962-10.233,8.711
			c0,1.395,0,2.579,0,4.271c6.047-1.818,11.544-4.102,17.337-5.539c7.738-1.903,15.138-5.243,22.792-7.611
			c9.895-3.045,19.705-6.258,29.515-9.472c3.51-1.142,6.808-2.706,10.656-3.129c3.341-0.338,7.104-1.311,9.641-3.341
			c3.214-2.579,7.019-2.283,10.445-3.721c5.074-2.114,10.825-2.622,16.914-3.975c0.169-0.169,1.226-0.803,1.438-1.649
			c2.706-11.459,7.485-22.2,10.571-33.533c1.818-6.554,4.271-13.024,6.977-19.325c3.002-6.977,5.117-14.208,7.781-21.312
			c1.903-5.159,2.875-10.783,5.413-15.561c2.749-5.117,2.241-11.333,6.301-16.069C318.566,175.62,318.228,171.856,318.989,167.797z
			 M675.839,180.736c0.973,2.03,2.03,3.806,2.706,5.751c1.607,4.567,2.706,9.303,4.567,13.701c1.861,4.44,2.199,9.514,5.666,13.278
			c0.127,0.169,0.169,0.423,0.211,0.677c0.719,4.144,3.848,7.696,4.186,11.544c0.423,4.694,3.087,8.246,4.229,12.517
			c3.425,12.601,8.753,24.61,12.939,37c2.283,6.766,6.216,13.109,5.413,20.339c1.057,0.973,1.776,1.649,2.495,2.283
			c7.569-0.719,14.758,0.211,21.312,4.313c1.142,0.719,2.537,1.015,3.806,1.522c9.641,3.763,19.663,6.301,29.346,9.853
			c9.049,3.341,18.394,6.047,27.909,8.119c4.863,1.057,9.43,3.467,15.35,5.751c0.761,0.085,3.214-0.296,4.99,0.634
			c2.41,1.311,4.271,1.184,7.062,0c-0.973-1.226-1.438-2.03-2.072-2.664c-6.639-6.681-13.32-13.32-19.959-20.001
			c-1.353-1.395-2.918-2.706-3.89-4.355c-1.987-3.383-4.651-5.793-7.95-7.95c-2.749-1.776-5.286-4.525-6.808-7.4
			c-1.353-2.579-4.99-2.579-5.413-5.793c-0.085-0.55-0.93-1.353-1.565-1.48c-3.256-0.55-4.567-3.51-6.681-5.413
			c-2.199-2.03-2.96-5.032-6.005-6.723c-2.706-1.48-4.313-4.863-6.597-7.189c-9.937-10.022-20.001-19.959-29.938-30.023
			c-2.157-2.199-3.425-5.751-5.962-6.977c-3.552-1.734-6.089-4.398-8.034-7.231c-4.102-5.92-9.472-10.487-14.377-15.519
			c-8.711-8.965-17.675-17.718-27.021-27.063C675.839,175.704,675.839,178.368,675.839,180.736z M611.607,149.699
			c-6.427-0.93-10.867-2.03-15.35-2.114c-13.151-0.254-26.26-0.127-39.41-0.042c-1.861,0-3.552-0.042-5.497,1.099
			c-1.861,1.099-5.413,1.269-7.104,0.127c-2.875-1.903-5.666-0.846-8.457-1.269c-6.597-1.057-12.897,1.522-19.451,1.522
			c-39.918-0.085-79.793-0.042-119.711-0.042c-1.184,0-2.326,0-3.51,0c0.296,0.465,0.55,0.93,0.846,1.395
			c-0.93,0.211-1.861,0.423-3.256,0.761c6.089,3.848,11.375,6.597,16.914,8.965c6.723,2.918,13.024,6.977,19.959,9.218
			c11.206,3.679,21.354,9.557,32.18,13.954c8.077,3.256,16.069,6.766,23.934,10.445c4.398,2.072,8.669,4.271,13.447,5.243
			c2.791,0.592,5.159,0.719,8.161-0.592c6.893-3.045,14.419-4.736,20.762-9.134c7.4-0.634,12.517-6.977,19.79-7.865
			c4.525-4.229,11.502-3.806,15.857-8.415c8.922-2.453,16.83-7.189,25.329-10.656c3.594-1.48,6.977-3.383,10.656-4.778
			C602.177,155.83,606.194,152.828,611.607,149.699z M632.327,913.338c-1.226,3.129-2.114,5.243-2.833,7.4
			c-2.41,7.189-5.074,14.335-6.893,21.65c-1.015,4.06-3.763,8.373-1.269,13.151c24.61-5.666,47.783-15.434,71.59-23.257
			c2.072-1.396,4.102-3.129,6.385-4.271c6.808-3.341,13.574-6.681,20.509-9.768c6.935-3.129,12.728-8.33,20.128-10.656
			c2.537-0.761,4.525-3.467,6.005-6.343c-7.823-4.059-16.28-5.962-23.215-11.079c-0.169-0.127-0.423-0.211-0.634-0.296
			c-9.641-3.087-19.113-6.597-27.866-11.798c-1.987-1.184-4.144-3.002-6.131-2.918c-4.947,0.211-8.246-3.045-12.305-4.651
			c-3.214-1.269-6.258-2.833-9.345-4.355c-3.89-1.945-8.33-2.706-12.136-4.694c-2.368-1.226-4.355-1.522-6.174-1.184
			c-1.353,3.637-3.087,6.766-3.679,10.106c-1.818,9.81-6.131,18.859-8.373,28.543C634.864,904.162,631.481,908.814,632.327,913.338z
			 M193.908,487.393c-0.465-0.846-0.93-1.607-1.353-2.453c-2.114-4.102-4.313-8.119-6.258-12.305
			c-0.634-1.438-0.761-3.002-1.48-4.609c-5.328-11.925-12.221-23.13-16.576-35.52c-0.761-2.157-2.03-4.102-2.918-6.216
			c-3.045-6.893-5.92-13.87-9.091-20.72c-1.015-2.114-3.679-3.679-3.975-5.751c-0.846-5.497-4.651-9.514-6.385-14.504
			c-0.423-1.269-2.114-2.114-3.806-3.763c-1.607,8.119,1.015,15.603-2.072,22.496c1.607,3.045,1.522,3.045,0.973,5.117
			c-0.423,1.565-1.438,3.679-0.803,4.736c2.114,3.467,1.269,7.104,1.269,10.614c0,4.525-0.254,8.965-1.142,13.574
			c-1.184,6.216-0.381,12.855-0.211,19.282c0.042,0.973,1.099,1.945,1.691,2.875c-2.453,2.157-1.734,4.694-1.734,7.062
			c-0.042,39.157,0,78.313-0.042,117.512c0,3.129-0.042,6.216,2.241,9.134c1.269-1.395,3.129-2.579,3.637-4.186
			c3.002-9.472,8.457-17.802,12.051-26.978c2.368-6.005,5.37-11.671,8.711-17.21c1.861-3.087,2.706-6.808,4.313-10.106
			c1.903-3.933,4.651-7.527,6.131-11.586c2.453-6.723,5.793-12.982,8.626-19.494C188.157,498.641,191.074,493.186,193.908,487.393z
			 M957.97,627.655c-4.102,0.888-7.865,1.395-11.417,2.495c-8.33,2.622-16.491,5.666-24.822,8.288
			c-8.542,2.706-16.914,5.92-25.668,8.077c-8.669,2.157-17.083,5.328-25.498,8.415c-2.199,0.803-5.159,1.269-6.174,4.694
			c0.296,0.719,0.55,1.903,1.142,2.875c1.057,1.818,2.791,3.383,3.383,5.286c3.045,9.43,7.696,18.141,11.925,27.063
			c4.821,10.149,8.795,20.678,13.701,30.742c2.453,4.99,4.863,9.895,6.216,15.477c2.199,1.142,3.002,4.44,6.131,4.651
			c5.497-9.514,10.741-18.986,16.449-28.247c1.607-2.622,3.341-4.863,3.848-8.119c0.381-2.368,1.818-4.863,3.467-6.639
			c3.806-4.017,4.059-9.937,7.781-13.912c2.368-8.88,6.85-16.999,9.599-25.794c2.495-7.907,7.315-15.054,7.273-23.765
			c0-0.338,0.677-0.677,0.973-1.057C958.519,635.267,958.604,632.011,957.97,627.655z M657.275,125.765
			c3.975,2.072,6.554,0.254,8.922-1.015c2.453-1.353,5.117-2.072,7.611-3.129c2.749-1.142,5.117-3.129,7.738-4.609
			c9.007-5.074,18.606-8.922,27.697-13.954c6.343-3.51,13.362-5.92,20.001-9.049c4.567-2.114,8.584-5.328,13.827-6.174
			c2.241-0.338,3.087-2.833,2.199-5.328c-4.609-2.622-9.176-5.328-13.827-7.865c-4.863-2.622-9.726-5.201-14.758-7.485
			c-4.778-2.199-9.599-4.44-14.377-6.512c-4.778-2.072-9.43-4.651-14.546-6.131c-5.243-1.48-10.191-4.017-15.265-6.174
			c-4.863-2.072-10.275-2.96-14.885-5.286c-5.032-2.495-10.402-3.594-15.519-5.582c-4.821-1.903-10.064-2.791-15.265-4.144
			c-0.55,0.55-1.184,1.269-1.903,2.03C635.498,65.888,646.789,96.165,657.275,125.765z M840.754,597.928
			c0-5.201,0.338-9.387-0.169-13.447c-0.211-1.691-2.453-3.129,0.085-4.778c-1.987-1.353-1.396-3.425-1.396-5.286
			c-0.042-1.987,0-3.975,0-5.962c0-17.845,0.127-35.689-0.085-53.492c-0.085-6.005,1.438-12.178-1.353-17.971
			c-0.296-0.592-0.338-1.818,0.042-2.114c2.495-2.241,1.311-5.074,1.311-7.611c0-2.03-1.269-4.059-1.269-6.089
			c0-2.03,0.93-4.017,1.353-6.089c0.169-0.719,0.338-1.776-0.042-2.157c-2.326-2.537-1.396-5.539-1.396-8.33
			c-0.085-20.297-0.042-40.637-0.042-60.934c0-1.099-0.254-2.199-0.423-3.637c-1.184,0.507-2.157,0.592-2.368,1.057
			c-1.353,2.664-2.41,5.455-3.763,8.119c-3.467,6.977-7.315,13.785-10.402,20.974c-4.525,10.529-9.049,21.058-14.758,31.038
			c-0.93,1.607-1.987,3.171-2.41,4.947c-1.226,4.821-3.89,8.838-6.427,12.939c-2.326,3.763-4.778,7.569-4.102,12.432
			c0.381,2.664,0.085,5.37,0.085,8.077c1.184,3.552,4.017,6.131,4.736,10.064c0.634,3.383,4.651,6.131,5.455,9.514
			c1.099,4.863,3.594,9.049,5.497,13.362c5.92,13.405,11.798,26.809,17.506,40.298c1.565,3.637,4.651,6.723,5.243,10.402
			c0.719,4.398,4.102,7.231,4.947,11.417C836.736,595.687,838.597,596.321,840.754,597.928z M362.712,38.868
			c-1.184,0-2.453-0.254-3.552,0.042c-4.186,1.184-8.288,2.706-12.517,3.806c-4.271,1.099-7.907,3.806-12.051,4.99
			c-9.303,2.706-17.675,7.527-26.809,10.698c-7.315,2.537-14.081,6.597-21.058,10.064c-4.947,2.453-9.768,5.117-14.673,7.611
			c-6.893,3.425-13.362,7.442-19.621,11.84c-0.296,0.211-0.423,0.677-0.465,0.719c0.55,1.269,1.015,2.326,1.438,3.383
			c6.47,2.875,13.109,5.286,19.409,8.795c6.343,3.552,13.405,5.878,20.17,8.626c6.554,2.664,12.855,6.005,19.367,8.795
			c6.723,2.875,13.574,5.455,20.931,8.373c1.395-2.241,3.214-4.736,4.482-7.442c1.184-2.453,2.072-5.117,2.664-7.781
			c2.537-11.755,8.711-22.2,11.713-33.829c1.818-7.062,4.905-13.827,7.189-20.762C361.232,51.088,364.488,45.591,362.712,38.868z
			 M369.732,951.311c-0.465-6.554-3.002-11.248-4.017-16.661c-0.93-4.947-3.341-9.937-4.863-15.011
			c-1.565-5.286-3.383-10.487-5.159-15.688c-1.691-4.99-3.51-9.937-5.793-16.449c0.254-6.766-4.736-13.701-6.723-21.439
			c-2.157,0-4.144,0-5.962,0c-1.184,1.057-2.114,2.495-3.425,2.875c-10.106,3.129-19.494,8.077-29.177,12.178
			c-13.489,5.751-26.344,13.024-39.453,19.663c-1.649,0.846-3.214,1.903-4.694,2.791c0,1.311,0,2.284,0,3.341
			c1.987,1.015,4.186,1.861,6.047,3.171c4.567,3.171,9.387,5.92,14.377,8.373c7.823,3.806,15.561,7.865,23.553,11.417
			c2.706,1.226,5.032,3.129,8.034,3.975c5.032,1.395,9.81,3.806,14.758,5.624c3.467,1.226,7.273,1.691,10.529,3.256
			c8.965,4.313,18.69,6.385,28.078,9.472C367.152,952.664,368.928,951.522,369.732,951.311z M602.346,959.726
			c0.803-2.283,0.93-4.102,1.903-5.243c2.537-3.002,1.015-6.766,2.495-10.149c3.171-7.315,5.117-15.181,7.781-22.75
			c2.875-8.246,4.778-16.83,7.654-25.076c1.565-4.567,3.087-9.134,4.355-13.785c0.677-2.41,1.522-4.778,2.326-7.146
			c0.93-2.96-0.211-6.301,2.241-9.641c-3.721,0.381-5.835,2.157-7.865,4.186c-3.933,3.933-7.611,8.161-12.474,11.079
			c-2.199,1.353-4.863,2.706-6.089,4.778c-2.537,4.186-8.077,5.032-9.937,9.726c-11.206,6.597-19.874,16.322-30.065,24.188
			c-4.398,3.383-8.034,7.907-12.686,10.741c-2.833,1.734-3.637,5.032-6.131,6.301c-4.778,2.41-7.189,7.4-11.459,9.979
			c-4.525,2.706-7.527,6.808-11.375,10.106c-1.226,1.057-2.706,1.861-3.975,2.875c-3.51,2.791-6.935,5.582-10.994,8.88
			c1.818,1.438,3.002,2.41,4.186,3.383c0.888-0.803,1.438-1.269,1.987-1.776c2.791,2.749,5.582,1.396,7.95,0.127
			c1.903,0.507,3.975,1.691,4.905,1.142c2.96-1.945,6.089-1.311,9.134-1.311c7.738,0,15.35-2.537,23.13-1.565
			c0.423,0.042,0.973-0.085,1.353-0.338c3.002-2.241,7.104-0.296,10.064-2.622c6.85,1.057,13.066-1.945,19.536-3.045
			C594.27,962.051,598.244,960.74,602.346,959.726z M478.406,18.021c-5.37,0.465-10.867-0.592-16.365,1.353
			c-2.875,1.015-6.47,0.592-9.599,0.085c-3.594-0.592-6.427,1.945-9.81,1.565c-3.214-0.381-6.089,0.677-9.091,1.438
			c-2.96,0.719-5.962-0.296-9.134,1.353c-2.96,1.48-6.893,1.142-10.402,1.691c-3.467,0.55-7.104,0.803-10.318,2.03
			c-3.341,1.269-6.85,1.522-10.191,2.157c-4.44,0.803-8.457,2.241-12.347,3.721c-1.522,4.694-3.129,9.049-4.355,13.447
			c-1.649,6.005-4.609,11.671-5.878,17.591c-1.607,7.569-5.201,14.293-7.104,21.735c-2.072,8.077-5.878,15.857-8.753,23.849
			c-0.803,2.241-0.761,4.017-0.465,6.343c1.438-0.211,2.749-0.042,3.721-0.592c1.861-1.015,3.552-2.283,5.201-3.637
			c3.721-3.045,7.273-6.301,11.037-9.261c2.96-2.326,6.089-4.398,9.218-6.47c3.087-2.03,6.047-4.313,9.049-6.427
			c6.85-4.821,12.982-10.698,19.409-16.111c0.93-0.761,1.776-1.649,2.791-2.241c11.206-6.85,20.678-15.942,30.953-24.061
			c5.582-4.398,11.206-8.838,16.872-13.151c6.047-4.609,12.178-9.091,18.31-13.701C479.971,19.543,479.252,18.824,478.406,18.021z
			 M963.89,611.46c1.226-3.002,2.453-5.455,3.256-8.077c1.649-5.159,1.861-10.698,3.298-15.773
			c2.664-9.514,3.933-19.24,5.413-28.839c0.93-6.089,2.875-12.305,1.776-18.648c-0.085-0.465-0.169-1.057,0-1.48
			c2.918-6.301,0.93-12.77,1.395-19.79c-8.373,7.865-15.096,16.026-21.735,24.357c-5.117,6.427-11.671,11.713-16.745,18.352
			c-3.679,4.778-8.119,8.965-12.178,13.447c-9.218,10.191-18.141,20.551-26.682,31.334c-6.427,8.119-13.616,15.688-20.382,23.511
			c-2.072,2.41-3.933,4.947-5.413,9.176c2.537-0.973,3.933-1.734,5.37-2.03c1.649-0.338,3.594,0.254,5.032-0.381
			c6.935-3.129,14.335-5.032,21.65-6.85c2.622-0.634,3.552-2.96,6.131-3.341c9.387-1.353,18.267-4.821,27.232-7.738
			C948.752,616.28,956.194,613.997,963.89,611.46z M105.361,627.909c-3.637-10.91-11.925-18.521-16.872-28.247
			c-0.93-1.861-2.114-3.848-3.679-5.117c-4.609-3.679-5.582-10.022-10.275-13.616c-5.539-11.925-14.589-21.566-21.227-32.771
			c-5.92-9.979-12.305-19.747-19.029-29.219c-4.271-6.005-8.077-12.643-14.758-17.633c0,5.37-0.211,10.022,0.085,14.673
			c0.296,4.525-0.465,8.922,1.099,13.616c1.438,4.229,0.296,9.303,0.296,13.997c3.552,3.467,0.592,8.161,2.495,12.347
			c1.776,3.89,0.254,9.176,0.973,13.701c0.677,4.271,2.579,8.373,3.467,12.643c0.93,4.355,0.719,9.091,2.114,13.235
			c1.438,4.229,3.298,8.203,2.791,12.263c2.749,3.933,6.597,4.525,10.233,5.37c4.525,1.057,9.261,1.522,13.574,3.129
			c3.298,1.269,6.681,1.776,9.979,2.706c8.415,2.453,16.999,4.355,25.498,6.597C96.439,626.725,100.583,628.586,105.361,627.909z
			 M635.752,115.109c0.465-0.338,0.888-0.677,1.353-1.015c-0.465-0.93-1.057-1.818-1.353-2.833
			c-0.254-0.888-0.085-1.945-0.338-2.833c-0.296-1.099-1.099-2.072-1.269-3.171c-0.93-6.47-3.933-12.263-6.216-18.267
			c-3.256-8.584-4.567-17.887-9.599-25.794c-0.254-0.381-0.719-0.761-0.719-1.184c-0.719-9.937-7.315-17.887-9.091-27.528
			c-0.296-1.565-2.368-3.129-3.975-3.975c-1.776-0.93-3.975-1.184-6.005-1.565c-3.425-0.677-7.019-0.973-10.318-2.03
			c-3.806-1.184-7.907-2.537-11.586-2.199c-6.089,0.592-11.459-3.933-17.506-1.734c-2.918-2.833-6.512-0.973-9.81-1.48
			c-3.51-0.55-7.019-1.311-10.529-1.438c-5.92-0.254-11.882-0.085-17.845-0.042c-1.015,0-2.072,0.381-3.594,0.634
			c3.467,5.751,8.584,8.669,12.939,12.39c4.398,3.763,8.499,8.034,13.151,11.459c4.398,3.256,8.838,6.343,12.939,10.022
			c4.229,3.806,8.922,7.062,13.447,10.571c4.482,3.51,9.345,6.639,13.405,10.614c3.975,3.89,8.965,6.343,12.728,10.698
			c3.51,4.017,8.922,6.131,12.897,10.064c4.059,3.975,8.838,7.146,13.405,10.614C626.618,108.512,631.185,111.811,635.752,115.109z
			 M520.058,836.632c3.002,1.861,6.343,1.734,9.895,0.381c1.184-0.465,3.002-0.719,3.933-0.127c3.045,1.861,6.639,1.649,9.176,0.677
			c4.355-1.607,8.584-1.099,12.855-1.184c8.415-0.169,16.83-0.042,24.653-0.042c1.691-0.888,2.918-1.522,4.186-2.157
			c-5.243-2.791-10.36-5.497-16.026-7.527c-9.261-3.298-17.929-8.077-27.063-11.798c-8.034-3.256-15.942-6.935-24.103-9.937
			c-6.216-2.284-12.347-4.821-18.479-7.4c-5.582-2.326-10.656-1.438-15.519,1.057c-13.066,6.724-26.767,11.925-40.129,17.887
			c-9.176,4.102-18.31,8.415-27.486,12.559c-4.059,1.818-7.696,4.609-11.84,7.146c2.579,2.157,4.651,3.256,7.442,3.172
			c5.751-0.169,11.459-0.254,17.253-1.311c5.751-1.015,11.84-0.211,17.802-0.211s11.882,0,17.845,0s11.882,0.254,17.802-0.085
			c5.709-0.296,11.629,1.565,17.168-1.311c4.778,2.875,10.022,0.846,15.054,1.311C515.956,837.9,517.563,837.139,520.058,836.632z
			 M881.306,362.861c1.861,3.171,2.749,5.328,4.186,7.019c3.721,4.482,7.823,8.626,11.459,13.151
			c3.214,4.017,6.808,7.738,9.599,12.178c2.918,4.651,7.146,8.499,10.91,12.601c1.015,1.142,2.664,1.691,3.637,2.875
			c5.793,6.977,11.84,13.785,17.422,20.974c5.835,7.485,12.813,14.081,19.325,21.058c0.507,0.55,1.184,0.973,1.565,1.607
			c4.778,8.288,11.755,14.673,18.437,21.354c0.465,0.465,1.269,0.55,2.326,0.973c0.169-1.184,0.423-2.03,0.465-2.918
			c0.042-2.96,0.211-5.962-0.042-8.922c-0.254-3.045-1.438-6.047-1.353-9.049c0.296-8.288-2.157-16.322-1.861-24.695
			c0.127-3.298-0.296-7.358-1.522-10.402c-1.142-2.749-0.719-5.159-1.142-7.696c-0.507-2.749-1.311-5.539-1.395-8.288
			c-0.169-5.243-1.861-10.022-3.425-14.504c-3.679-1.438-6.808-2.875-10.106-3.933c-2.41-0.803-5.074-0.888-7.485-1.649
			c-6.089-1.987-12.178-4.144-18.225-6.258c-6.047-2.157-12.77-2.326-18.225-6.216c-4.398,1.226-7.358-2.622-11.375-3.129
			c-4.017-0.507-7.823-2.579-11.798-3.721C889.34,364.341,885.957,363.834,881.306,362.861z M474.558,966.195
			c-1.734-1.226-3.89-2.368-5.539-4.017c-6.089-6.216-13.32-11.121-19.621-16.957c-7.654-7.062-16.449-12.686-23.68-20.213
			c-3.679-3.806-7.696-7.4-12.009-10.487c-6.258-4.482-11.713-9.895-17.591-14.8c-4.059-3.425-7.823-7.231-12.051-10.445
			c-6.512-4.947-12.813-10.106-18.437-15.519c-1.438,0-2.579,0-3.933,0c0,1.734-0.465,3.383,0.085,4.609
			c3.637,8.203,5.751,16.914,8.584,25.414c1.776,5.243,2.579,10.825,4.863,15.815c2.41,5.286,2.03,11.459,5.793,16.153
			c-0.211,6.005,3.51,10.952,4.567,16.703c0.719,3.848,3.51,6.47,7.527,7.315c5.032,1.057,10.064,2.114,15.096,2.96
			c3.975,0.677,8.373,0.211,11.882,1.776c2.96,1.311,5.878,0.254,8.33,1.396c3.045,1.395,6.047,1.099,9.091,1.395
			c2.791,0.254,5.539,1.099,8.288,1.395c2.453,0.254,5.582-0.846,7.231,0.338c2.537,1.818,4.186,1.057,6.258-0.042
			c4.821,2.622,9.979,0.507,15.181,1.395C474.558,968.775,474.558,967.591,474.558,966.195z M854.75,677.172
			c-0.761,3.806-1.691,7.231-2.03,10.698c-0.423,4.017,0.634,8.203-1.565,12.009c0.846,7.823-0.973,15.477-1.522,23.173
			c-0.296,4.017,0.507,7.992-1.226,12.136c-1.226,2.96-0.042,6.85-0.296,10.318c-0.254,3.298-1.057,6.512-1.396,9.81
			c-0.465,4.271,1.015,8.753-1.522,12.77c1.057,6.85-1.353,13.447-1.565,20.213c-0.211,6.977-0.93,13.954-1.438,20.974
			c0,0.254,0.085,0.55,0,0.719c-2.918,4.271-1.057,9.007-1.353,13.531c-0.085,1.269,1.184,2.579,1.649,3.594
			c3.171-2.326,6.893-3.763,8.33-6.427c2.453-4.567,7.485-6.85,9.176-11.798c8.077-7.315,13.193-16.999,20.382-25.118
			c5.117-5.793,9.303-12.474,14.335-19.282c-1.057-3.341-2.072-7.146-3.51-10.783c-1.734-4.229-3.975-8.288-5.793-12.474
			c-1.818-4.229-5.074-7.95-4.651-12.939c-5.286-7.442-6.893-16.491-10.952-24.484c-3.637-7.146-7.865-13.997-10.275-21.777
			C858.979,680.216,858.598,676.918,854.75,677.172z M85.529,257.274c-1.057,0.507-1.522,0.634-1.903,0.888
			c-4.99,3.933-7.273,9.895-10.36,15.096c-4.186,7.062-7.189,14.8-10.656,22.285c-3.002,6.427-6.681,12.686-8.669,19.409
			c-1.861,6.258-4.905,11.925-6.723,18.141c-2.114,7.104-5.286,13.912-7.865,20.466c0.55,1.353,1.015,2.41,1.691,4.059
			c5.793-1.057,11.671-2.368,17.337-4.355c6.301-2.199,13.109-2.875,18.902-6.427c9.345-0.888,17.887-4.651,26.64-7.569
			c5.159-1.734,10.952-2.368,15.054-6.216c0.507-3.637-0.042-6.639-1.691-9.81c-5.243-9.937-10.656-19.832-15.307-30.065
			c-1.945-4.229-4.567-8.161-6.131-12.347C92.887,272.835,89.546,265.097,85.529,257.274z M320.723,855.237
			c-8.88,1.776-16.322-2.199-24.145-1.057c-0.93,0.127-2.326,0.211-2.791-0.296c-1.861-2.072-4.186-0.719-6.258-1.184
			c-2.283-0.465-4.525-1.057-6.808-1.48c-3.51-0.634-6.977,0.507-10.656-1.226c-3.214-1.522-7.4,0.085-11.248-1.522
			c-2.749-1.142-6.343-0.042-9.557-0.296c-3.298-0.254-6.512-1.015-9.81-1.396c-4.947-0.592-10.233-0.169-14.842-1.776
			c-3.679-1.269-7.104-0.761-10.614-1.226s-7.019-1.099-10.529-1.438c-6.216-0.592-12.474-1.015-18.69-1.522
			c-0.254,0-0.592,0.085-0.719,0c-3.975-3.214-8.373-0.634-12.432-1.607c-0.169,1.142-0.465,1.861-0.254,2.03
			c3.763,3.848,7.4,7.865,11.459,11.417c3.341,2.96,7.358,5.201,10.656,8.203c3.341,3.087,8.88,3.552,10.402,8.753
			c4.863,2.579,8.669,6.639,13.109,9.683c7.104,4.863,14.715,8.965,21.523,14.377c2.579,2.072,5.835,3.679,9.683,0.846
			c3.256-2.41,7.358-3.679,11.037-5.497c5.962-2.96,11.755-6.512,17.76-9.218c6.47-2.96,12.601-6.597,19.24-9.134
			c6.639-2.579,12.939-5.835,19.325-8.965C317.72,860.565,319.454,859.128,320.723,855.237z M859.74,311.527
			c1.649-2.749,3.383-5.286,4.778-7.95c3.256-6.301,5.962-12.982,9.683-19.029c3.89-6.343,6.808-12.982,9.895-19.705
			c3.172-6.85,6.639-13.658,10.487-20.213c1.861-3.214,3.594-6.512,5.751-9.514c1.565-2.199,1.607-4.398,1.311-6.47
			c-4.017-5.582-7.95-10.867-11.755-16.28c-2.579-3.637-4.863-7.4-7.485-10.994c-2.791-3.848-5.666-7.611-8.711-11.248
			c-1.861-2.283-4.736-3.933-5.962-6.47c-1.395-2.791-3.341-4.863-5.709-6.301c-2.537-1.565-3.002-4.694-5.539-6.005
			c-1.015-0.507-1.903-1.269-3.383-2.283c-0.719,3.806-2.199,7.189-1.607,10.149c0.381,1.987,1.057,4.017,1.184,6.131
			c0.677,12.178-0.55,24.314,1.184,36.577c1.818,12.728-0.973,25.879,1.776,38.734c-1.015,16.195,1.565,32.222,1.649,48.375
			C857.795,309.581,858.344,310.131,859.74,311.527z M40.495,626.175c0,3.425-0.761,6.385,0.127,8.669
			c4.821,12.347,8.288,25.202,13.447,37.465c0.634,1.48,0.803,3.214,1.649,4.482c1.015,1.565,2.072,2.833,2.664,4.863
			c1.269,4.355,4.144,8.203,5.539,12.517c1.395,4.44,3.637,8.415,5.497,12.559c2.368,5.201,5.835,9.937,8.795,14.8
			c1.142,0,2.326,0,3.256,0c3.467-8.034,8.077-15.223,11.375-23.046c0.93-2.157,2.875-4.186,3.975-6.512
			c3.679-7.865,7.485-15.688,10.952-23.68c1.565-3.594,3.214-7.062,5.286-10.445c1.818-3.002,4.609-6.174,2.791-10.106
			c-8.669-2.368-16.872-5.582-25.287-7.738c-8.246-2.114-16.238-5.074-24.399-7.358C57.79,630.362,49.205,628.712,40.495,626.175z
			 M830.478,149.064c-0.55-4.905-3.298-7.992-6.427-9.81c-3.045-1.776-5.159-4.355-7.696-6.512
			c-3.467-2.96-6.681-6.385-10.487-8.838c-4.863-3.129-9.345-6.554-13.447-10.571c-1.311-1.311-3.087-2.114-4.609-3.214
			c-4.99-3.51-10.275-6.681-14.885-10.614c-3.552-3.045-7.146-4.651-11.29-4.059c-1.184,0.592-1.987,1.099-2.833,1.438
			c-9.007,3.975-18.225,7.569-26.978,12.051c-5.539,2.833-11.121,5.709-16.703,8.246c-6.47,2.96-12.897,6.005-19.198,9.303
			c-1.945,1.015-3.721,2.41-5.962,3.933c1.734,1.015,2.664,1.861,3.763,2.157c2.495,0.677,5.032,1.438,7.569,1.438
			c2.706,0,5.074,1.184,7.569,1.48c6.681,0.846,13.447,1.099,20.213,1.607c0.973,0.085,2.199-0.381,2.96,0.085
			c5.455,3.256,11.755,0.211,17.506,2.706c3.256,1.438,7.4,0.169,11.248,1.48c3.679,1.269,7.907,0.677,12.009,1.48
			c8.119,1.565,16.534,1.691,24.78,3.129c6.131,1.057,12.474,1.099,18.69,1.607c0.507,0.042,1.142-0.211,1.48,0.042
			C821.683,150.671,826.038,148.261,830.478,149.064z M147.309,172.914c-6.766,7.611-12.474,13.954-18.098,20.339
			c-2.368,2.706-4.609,5.497-6.85,8.33c-3.383,4.271-6.343,8.965-10.064,12.855c-4.355,4.525-6.766,10.36-11.333,14.758
			c-2.875,2.833-4.482,6.977-6.343,10.656c-0.719,1.395-0.93,3.341-0.634,4.905c0.381,1.987,1.649,3.763,2.368,5.666
			c1.945,5.032,5.286,9.218,7.823,13.87c4.694,8.669,7.738,18.141,13.109,26.555c2.41,3.806,3.679,8.373,5.328,12.601
			c1.184,3.002,4.567,4.905,4.271,8.669c0,0.127,0.803,0.338,2.072,0.888c0.296-0.846,0.761-2.03,1.226-3.214
			c0.169,0.211,0.338,0.465,0.465,0.719c0.634-6.681,1.269-13.405,1.903-20.086c2.706-3.045,0.423-7.104,2.072-10.275
			c1.861-3.552,0.423-7.189,0.888-10.783c0.085-0.719-0.211-1.776,0.169-2.114c2.283-2.03,0.973-4.651,1.353-6.935
			c0.423-2.537,1.395-5.032,1.395-7.569c0.042-6.935,1.691-13.574,2.749-20.382c0.592-3.933,1.734-7.907,1.861-11.967
			c0.169-4.229,0.93-8.499,1.395-12.728c0.127-0.973-0.381-2.41,0.127-2.875c2.622-2.537,0.211-5.962,1.522-8.33
			c1.691-3.045,1.099-6.047,1.353-9.134c0.211-2.791-0.634-5.666,1.353-8.415C149.381,178.115,148.112,176,147.309,172.914z
			 M141.473,809.611c0-3.933,0.719-7.527-0.127-10.741c-1.945-7.189-3.045-14.419-2.833-21.82c0.042-1.226,0.507-2.918-0.085-3.637
			c-2.579-3.087-0.803-6.597-1.438-9.853c-0.634-3.256-1.565-6.343-1.607-9.768c-0.042-5.751-0.127-11.671-1.649-17.126
			c-0.93-3.383-1.395-6.597-1.099-9.853c0.296-3.51-1.522-6.512-1.522-9.81c0-7.527-2.664-14.842-1.607-22.411
			c0.085-0.677-0.085-1.438-0.254-2.114c-1.48-5.243-2.622-10.529-2.622-15.984c0-3.045-0.338-5.793-2.918-8.415
			c-2.579,5.117-5.666,9.853-7.4,15.011c-1.776,5.286-4.609,10.022-7.019,14.927c-2.579,5.159-4.229,10.91-8.795,14.969
			c-1.099,0.973-1.734,2.749-2.114,4.271c-1.776,6.808-6.005,12.347-8.965,19.621c0,1.438,0,3.933,0,5.709
			c1.226,2.114,2.114,3.721,3.087,5.328c3.129,5.159,6.089,10.402,9.514,15.35c3.214,4.694,6.554,9.43,10.529,13.405
			c4.102,4.102,5.286,10.36,10.402,13.574c1.395,4.398,6.216,6.131,7.992,10.064c1.818,4.017,6.554,5.117,8.246,9.091
			C139.317,809.653,140.12,809.526,141.473,809.611z M36.393,372.164c-0.677,0.93-1.903,1.903-1.903,2.875
			c-0.085,2.537-1.565,4.355-2.664,6.343c-1.353,2.368,0.973,5.455-1.607,7.527c-1.438,9.049-4.482,17.76-4.778,27.021
			c-0.042,0.973,0.423,2.495-0.085,2.875c-2.918,2.283-0.211,5.751-1.945,8.161c-1.945,2.706-0.55,5.709-0.93,8.542
			c-0.127,0.973,0.338,2.283-0.169,2.875c-2.664,3.298-0.973,7.104-1.269,10.614c-0.296,3.594-0.085,7.273-0.085,12.474
			c4.778-5.709,8.542-10.106,12.221-14.546c1.818-2.199,3.51-4.482,5.286-6.723c1.099-1.395,2.157-2.833,3.383-4.059
			c1.353-1.353,3.51-2.199,4.271-3.763c3.298-6.723,8.965-11.629,13.151-17.591c2.96-4.229,6.808-7.527,10.022-11.459
			c6.301-7.738,12.305-15.73,18.563-23.849c0.127-0.761,0.338-1.903,0.338-1.945c7.992-7.189,13.743-14.673,19.325-23.13
			c-2.749,0-5.201-0.677-6.977,0.127c-5.074,2.326-10.36,3.806-15.73,5.074c-9.218,2.241-17.549,7.231-27.147,8.077
			c-2.157,2.326-5.709,0.338-7.4,1.649C45.949,372.756,41.213,371.953,36.393,372.164z M682.943,856.464
			c0.973,0.761,1.818,1.691,2.875,2.157c6.85,3.172,13.87,5.962,20.593,9.345c7.358,3.721,15.646,5.37,22.581,10.022
			c0.169,0.127,0.507-0.042,0.719,0.042c6.977,1.649,13.235,5.117,19.705,7.907c5.117,2.199,10.36,3.679,15.73,5.835
			c15.815-10.106,31.334-20.424,44.442-33.871c-0.085-1.353-0.211-2.537-0.296-3.679c-13.109,0-25.71-0.085-38.311,0.042
			c-2.283,0.042-4.567,0.803-6.935,1.269c-1.311-1.607-3.129-2.157-4.948-0.719c-1.818,1.438-4.313,1.438-5.413,0.592
			c-1.861-1.522-3.679-1.142-5.497-1.142c-20.509-0.042-41.017-0.042-60.849-0.042C685.522,855.111,684.296,855.745,682.943,856.464
			z M183.759,142.933c0.888-0.592,1.48-1.311,2.072-1.353c7.231-0.254,14.504,0.338,21.735-1.395c4.355-1.015,8.965,0,13.531-1.438
			c3.129-1.015,6.893,0,10.36-0.254c3.298-0.254,6.597,0.507,10.022-0.719c3.087-1.099,6.766-0.465,10.149-0.719
			c5.497-0.423,11.248-0.169,16.407-1.734c3.637-1.099,7.104-0.846,10.614-1.226c3.51-0.423,7.019-1.184,10.529-1.395
			c4.44-0.296,8.922,0.338,12.939-2.622c-1.015-0.634-1.945-1.353-3.002-1.903c-7.442-4.102-15.561-6.85-23.003-10.783
			c-6.512-3.425-13.151-6.85-19.79-9.726c-6.766-2.918-13.024-6.85-19.917-9.261c-10.571,5.286-20.424,11.629-29.093,19.663
			c-2.622,2.453-5.286,5.032-8.373,6.766c-6.639,3.679-11.84,9.007-17.083,14.335c-0.254,0.254-0.127,0.888-0.211,1.522
			C182.237,141.326,182.913,142.045,183.759,142.933z M350.872,238.457c7.696-4.398,15.011-9.387,23.003-12.897
			c7.907-3.467,16.026-6.385,24.357-10.402c-1.903-2.749-3.087-5.117-4.863-6.893c-13.785-13.912-27.655-27.739-41.525-41.567
			c-0.719-0.719-1.861-1.057-3.002-1.691c-0.55,3.933-1.861,7.485-1.184,10.614c0.846,3.975,0.761,7.4-0.338,9.768
			c0.423,3.425,0.888,5.751,0.93,8.034c0.085,14.335,0.042,28.67,0.042,42.709C349.35,237.061,350.069,237.695,350.872,238.457z
			 M172.976,650.236c1.057,0.085,3.51-0.254,5.328,0.634c5.666,2.791,11.882,3.763,17.633,5.92c10.36,3.89,21.185,6.131,31.63,9.81
			c9.768,3.425,19.79,6.047,29.727,9.007c1.903,0.592,3.552,2.749,6.47,0.592c-0.465-1.226-0.761-2.875-1.649-4.102
			c-2.41-3.256-5.582-6.089-7.485-9.599c-3.679-6.766-8.753-12.643-12.517-19.325c-1.818-3.256-4.186-6.174-6.512-9.514
			c-5.539,0.592-11.417,0.507-16.957,1.945c-6.258,1.607-12.39,3.087-18.902,2.833c-0.93-0.042-2.283-0.169-2.791,0.381
			c-1.903,2.072-4.229,0.634-6.301,1.099c-2.283,0.507-4.525,1.142-6.808,1.438c-4.736,0.592-9.514,1.015-14.25,1.522
			c-1.226,2.41-5.539-0.211-5.962,3.594C166.549,647.656,169.297,648.756,172.976,650.236z M155.723,631.165
			c5.413,0.085,10.952-2.664,16.787-1.649c3.002-2.072,6.681-0.719,9.726-1.691c3.552-1.099,7.019-1.269,10.571-1.311
			c0.507,0,1.099,0.169,1.48-0.042c4.229-2.537,9.176-2.283,13.658-2.706c6.85-0.634,13.32-2.157,19.832-3.637
			c0-1.734,0.423-3.214-0.085-4.144c-6.343-12.009-10.825-24.737-15.857-37.296c-0.211-0.592-1.057-0.93-1.649-1.438
			c-4.482,1.353-7.062,4.947-10.233,7.823c-3.002,2.749-6.343,5.159-9.303,7.95c-3.256,3.002-6.258,6.385-9.514,9.387
			c-3.171,2.918-7.104,5.201-9.726,8.542c-2.495,3.171-5.92,5.159-8.542,8.161c-2.918,3.341-6.258,6.343-9.472,9.599
			C154.074,629.431,154.709,630.108,155.723,631.165z M210.441,417.833c-0.423-0.169-0.803-0.338-1.226-0.507
			c-0.973-1.607-1.565-4.144-2.918-4.651c-3.045-1.099-3.129-4.44-5.539-5.962c-2.241-1.438-3.806-3.848-5.878-5.624
			c-2.114-1.903-4.525-3.467-6.681-5.328c-0.846-0.761-1.395-1.903-2.072-2.833c-0.719-0.973-1.311-2.579-2.157-2.706
			c-2.791-0.465-3.975-2.706-5.624-4.355c-7.4-7.273-14.715-14.673-22.115-21.989c-0.973-0.973-2.199-1.691-4.059-3.087
			c0,2.283-0.423,3.806,0.085,4.905c2.199,5.032,4.694,9.937,7.104,14.885c7.738,15.815,15.096,31.841,22.327,47.91
			c1.522,3.341,2.537,7.062,4.736,9.853c2.537,3.214,1.734,8.034,5.624,10.36c0.592,6.301,5.032,10.783,7.527,16.195
			c0.169,0.338,0.55,0.55,0.846,0.803c0.719-0.719,1.438-1.395,1.861-1.776c0.592-5.539,1.057-10.825,1.776-16.026
			c0.719-5.074,2.791-9.81,3.129-15.096C207.439,427.77,209.257,422.823,210.441,417.833z M161.39,348.231
			c1.395,2.072,2.03,3.298,2.918,4.271c4.482,4.609,9.345,8.88,13.531,13.743c4.059,4.694,9.853,7.527,13.109,12.982
			c8.077,4.905,13.405,12.77,20.382,18.902c1.057,0.93,2.114,1.818,3.51,2.96c1.015-1.565,1.987-2.622,2.495-3.89
			c0.888-2.368,1.311-4.905,2.326-7.231c4.102-9.43,8.33-18.817,12.601-28.162c1.142-2.41,2.241-4.694,1.226-6.977
			c-2.368-0.761-4.398-2.03-6.301-1.903c-7.823,0.592-15.434-1.142-23.13-1.649c-6.005-0.381-12.221-0.042-17.887-1.691
			C178.135,347.3,170.354,349.119,161.39,348.231z M717.871,689.35c3.129-0.719,4.947-0.423,7.189-1.142
			c6.808-2.114,13.616-4.186,20.297-6.597c4.736-1.734,9.43-3.51,14.419-4.651c5.074-1.184,10.022-3.214,15.054-4.863
			c13.066-4.186,26.006-8.965,39.199-12.897c1.734-0.507,3.214-1.903,6.131-3.721c-3.975-0.973-6.385-1.903-8.838-2.114
			c-6.977-0.55-13.912-0.085-20.932-1.269c-8.288-1.353-16.872-0.085-25.329-1.607c-6.089-1.099-12.559,0.719-18.648-1.945
			c-4.651,6.766-9.303,13.193-13.658,19.832C728.316,675.227,721.973,680.766,717.871,689.35z M418.361,779.842
			c-4.144,4.778-8.457,10.064-13.066,15.054c-8.669,9.345-17.464,18.563-26.259,27.782c-2.453,2.537-4.102,5.497-5.92,9.007
			c6.427,0.93,11.459-1.649,15.646-4.44c6.427-4.313,14.589-4.821,20.339-10.191c3.467,1.395,4.271-3.172,7.654-3.341
			c2.537-0.127,5.032-3.171,8.33-2.833c3.298-3.594,8.246-4.059,12.305-6.216c7.485-3.975,15.138-7.738,22.961-10.952
			c2.664-1.099,5.243-1.734,7.104-4.99c-3.214-1.015-6.216-2.368-9.345-2.791c-3.763-0.507-7.527-0.127-11.29-1.438
			c-3.51-1.226-7.485-1.269-11.163-1.903C430.158,781.533,424.788,779.63,418.361,779.842z M627.041,160.355
			c-3.806,1.565-7.654,3.002-11.375,4.694c-8.753,3.933-17.38,8.077-26.344,11.586c-10.825,4.229-21.354,9.303-32.01,13.997
			c-4.609,2.03-8.838,4.778-13.827,6.047c-2.41,0.634-4.44,2.749-7.4,4.736c4.778,1.691,8.626,2.157,12.432,2.96
			c4.059,0.846,7.95,2.283,12.221,2.706c3.848,0.423,7.569,2.537,11.375,2.664c4.398,0.169,7.4,4.736,13.235,2.495
			C598.583,195.621,615.751,180.694,627.041,160.355z M174.075,333.557c3.129,1.142,5.751,2.918,9.176,3.002
			c6.005,0.127,11.925-0.465,18.056,1.099c6.681,1.734,13.912,1.311,20.889,1.734c2.96,0.169,6.005,0.296,8.922-0.042
			c2.833-0.381,5.37,2.706,8.246,0.507c3.045,2.833,4.863-0.211,6.131-1.818c2.918-3.594,4.905-8.034,7.95-11.502
			c4.947-5.582,7.823-12.77,14.039-17.337c1.48-1.057,2.495-2.918,3.171-4.609c0.423-1.099-0.042-2.579-0.085-4.059
			c-6.427,2.157-12.305,4.102-18.183,6.131c-8.88,3.129-18.098,5.201-26.936,8.626c-4.102,1.607-8.288,5.117-12.221,3.552
			C199.447,323.578,186.55,327.553,174.075,333.557z M781.046,576.532c7.696,7.696,15.223,15.223,22.75,22.75
			c1.226,1.184,2.326,2.749,3.763,3.383c3.002,1.353,4.821,3.552,6.47,6.301c1.522,2.579,3.341,5.159,5.582,7.104
			c3.679,3.171,7.823,5.793,12.178,8.922c0.55-6.427-2.368-11.925-4.863-17.168c-3.298-7.019-5.751-14.419-9.726-21.227
			c-2.664-4.567-3.679-10.318-6.258-15.138c-2.664-5.074-2.918-11.29-7.358-15.477c-1.184-7.104-5.835-12.939-7.527-19.874
			c-0.634-2.664-2.537-4.313-5.624-4.821c-0.761,5.074-1.48,9.726-2.199,14.335c-4.102,7.696-3.341,16.745-6.427,24.737
			C781.088,572.261,781.257,574.544,781.046,576.532z M758.169,636.958c3.129,0,6.427,0.423,9.514-0.127
			c3.552-0.592,6.427,1.522,9.768,1.649c6.47,0.296,12.897,0,19.451,1.099c8.33,1.395,17.126,0.338,26.555,0.338
			c-2.241-2.875-3.763-5.159-5.624-7.189c-1.607-1.734-3.721-3.087-5.413-4.778c-1.776-1.776-3.214-3.848-4.99-5.666
			c-6.427-6.512-12.855-12.982-19.409-19.367c-1.861-1.818-4.99-2.749-5.962-4.863c-1.438-3.087-3.679-4.355-6.935-5.709
			c-2.072,4.821-4.567,9.514-6.174,14.462c-1.607,4.863-4.821,8.795-6.512,13.616c-1.734,4.905-6.427,8.542-6.639,14.166
			C756.732,635.52,757.408,636.197,758.169,636.958z M201.012,513.272c-4.99,0.761-6.131,4.905-7.189,7.611
			c-2.072,5.413-5.243,10.233-7.4,15.477c-2.157,5.286-4.44,10.571-7.019,15.646c-3.045,5.92-4.99,12.474-9.641,17.549
			c-3.552,12.178-11.544,22.369-15.392,34.421c-0.296,0.973-0.677,1.903-1.184,3.214c7.231-0.381,9.176-7.485,14.631-9.345
			c0.846-0.296,1.142-1.987,1.945-2.791c2.326-2.453,4.525-5.117,7.231-7.062c2.579-1.818,5.032-3.425,6.216-6.554
			c0.296-0.846,1.142-1.649,1.903-2.157c7.738-5.201,13.489-12.559,20.509-18.944c-0.169-3.51,0.55-7.569-0.803-10.656
			c-1.607-3.637,0.846-7.865-2.326-10.91c-0.507-6.216-1.015-12.432-1.48-18.69C200.885,517.881,201.012,515.725,201.012,513.272z
			 M691.738,271.736c0.296-3.806,0.677-6.639-1.184-9.557c-4.651-7.273-4.186-16.491-8.965-23.722
			c-0.085-5.962-3.763-10.825-5.286-16.407c-1.015-3.679-3.298-7.104-3.637-11.079c-0.338-4.313-3.721-7.231-4.736-11.459
			c-1.649-7.062-4.694-13.827-7.273-20.678c-0.296-0.761-1.311-1.226-2.241-2.03c-0.846,3.341-1.945,6.005-2.114,8.711
			c-0.677,11.417-1.099,22.834-1.565,34.252c-0.127,3.214,1.015,6.977-0.254,9.514c-1.903,3.679-0.803,6.639,0.169,9.218
			c-0.761,1.395-1.226,2.199-1.48,2.664c1.691,4.694,4.736,7.4,8.88,8.922c0.423,0.169,0.973,0.169,1.269,0.465
			c6.301,6.174,14.631,9.768,20.805,16.153C686.03,268.691,688.736,269.79,691.738,271.736z M366.856,160.608
			c2.41,3.171,3.933,5.455,5.793,7.442c2.664,2.918,5.539,5.624,8.373,8.415c2.96,2.96,5.582,6.47,9.007,8.753
			c3.214,2.199,4.863,5.497,7.611,7.992c5.835,5.328,11.248,11.121,16.914,16.745c1.903,0,4.482,0.803,5.709-0.169
			c2.072-1.649,4.694-0.381,6.047-1.48c2.072-1.691,4.144-0.888,6.174-1.353c3.383-0.761,6.681-1.734,10.022-2.664
			c2.41-0.677,4.651-0.507,6.723,1.142c0.211,0.169,0.888-0.169,1.522-0.296c0.127-0.592,0.254-1.269,0.381-1.861
			c1.691-0.719,3.383-1.353,4.99-2.241c0.507-0.254,0.677-1.142,1.184-2.072c-1.48-1.353-2.918-2.622-3.425-3.129
			c-3.467-1.057-6.047-1.522-8.288-2.622c-3.51-1.649-6.681-4.778-10.318-5.37c-4.99-0.803-8.795-3.933-13.447-5.328
			c-4.525-1.269-9.218-3.129-13.278-5.497c-7.4-4.313-15.603-6.639-23.004-10.825c-0.592-0.338-1.226-0.803-1.861-0.803
			c-4.355-0.085-7.992-2.072-11.755-3.89C370.747,160.947,369.309,161.031,366.856,160.608z M519.762,787.242
			c-0.254,0.423-0.507,0.888-0.761,1.311c0.592,0.55,1.057,1.353,1.734,1.649c3.806,1.565,7.611,3.214,11.333,4.905
			c11.248,5.117,22.919,9.218,34.04,14.504c1.649,0.803,3.129,2.791,4.694,2.791c6.639,0,11.798,4.059,17.422,6.385
			c6.301,2.579,12.559,5.455,18.944,7.907c3.721,1.438,7.611,2.537,12.813,4.271c-1.269-2.283-1.607-3.425-2.368-4.144
			c-4.609-4.271-9.387-8.373-14.039-12.643c-6.131-5.582-12.178-11.163-18.268-16.787c-0.381-0.338-0.634-0.803-1.057-1.015
			c-7.231-4.186-13.151-10.064-20.086-15.138c-2.368,0.592-5.117-0.211-8.119,0.973c-4.694,1.861-9.853,2.664-14.885,3.467
			c-5.201,0.803-10.445,1.099-15.688,1.522C523.652,787.369,521.707,787.242,519.762,787.242z M404.322,775.106
			c-1.903-1.269-2.96-2.199-4.186-2.706c-2.537-1.057-5.243-1.734-7.738-2.875c-7.738-3.467-15.434-6.977-23.13-10.614
			c-2.41-1.142-4.694-2.157-7.4-1.057c-0.085,15.984-2.664,31.799-1.691,47.741c0.042,0.761,0,1.48,0,2.241
			c0,0.761,0.296,1.734-0.042,2.199c-2.875,3.51-0.803,7.4-1.565,11.29c1.734,0,2.918,0,3.89,0
			c7.146-7.611,14.293-15.011,21.185-22.623C390.41,791.217,396.964,783.521,404.322,775.106z M331.294,180.187
			c-1.945,3.679-4.229,6.766-5.201,10.191c-2.833,9.937-6.935,19.409-10.191,29.177c-1.903,5.624-4.482,10.994-6.343,16.661
			c-2.664,8.288-5.286,16.576-8.373,24.695c-1.522,4.102-3.256,8.457-1.184,13.658c5.962-4.694,11.713-9.134,17.464-13.658
			c5.962-4.736,11.925-9.514,17.464-13.912c0-2.833,0.042-4.821,0-6.766c-0.042-2.114,0.338-4.271-1.395-6.174
			c-0.423-0.465,0.423-2.157,0.677-3.298c0.254-1.142,0.761-2.326,0.634-3.425c-0.254-1.818-1.353-3.552-1.311-5.328
			c0-2.03,0.973-4.017,1.311-6.047c0.211-1.226,0.592-3.045-0.042-3.637c-2.453-2.283-1.269-5.074-1.353-7.611
			c-0.127-8.119-0.042-16.195-0.042-24.187C332.436,180.356,331.971,180.314,331.294,180.187z M791.787,454.283
			c3.214-2.41,4.736-5.117,5.835-8.288c1.48-4.313,3.087-8.626,5.074-12.728c3.467-7.231,7.95-14.039,10.783-21.481
			c3.637-9.683,8.203-18.859,12.39-28.247c1.395-3.129,3.129-6.131,4.355-9.303c0.381-1.015-0.338-2.453-0.677-4.609
			c-15.477,14.25-32.518,25.076-46.684,38.565c-0.803,6.639,1.818,12.136,2.579,17.929c0.93,6.766,3.467,13.235,3.383,20.255
			C788.827,448.913,790.687,451.45,791.787,454.283z M641.968,169.658c-2.199,2.283-5.201,4.229-6.301,6.977
			c-1.142,2.791-3.467,3.975-4.99,6.089c-1.649,2.326-3.341,4.609-5.243,6.723c-6.047,6.681-12.305,13.193-18.268,19.917
			c-2.326,2.622-4.144,5.624-6.85,9.303c12.939,5.37,25.372,10.529,37.634,16.365c0.465-0.465,1.142-1.142,1.945-1.945
			c0-2.114-0.211-4.355,0.042-6.512c0.254-2.03,1.269-4.017,1.395-6.089c0.507-9.176-0.423-18.352,1.353-27.613
			c1.311-6.766-0.803-14.039,1.861-20.635C643.617,171.307,642.941,170.63,641.968,169.658z M315.564,726.604
			c0,2.537-0.296,3.806,0.042,4.863c1.818,5.92,3.806,11.798,5.751,17.633c0.507,1.522,1.269,2.96,1.607,4.525
			c1.734,7.865,4.44,15.477,6.808,23.173c1.987,6.554,4.694,12.939,6.554,19.536c1.649,6.005,3.214,11.967,6.047,17.549
			c0.55,1.099,1.395,2.072,2.283,3.256c1.734-3.298-0.803-6.85,1.818-9.472c-2.749-2.875,0.296-5.497,0.338-8.288
			c0.254-9.472-0.211-18.859,1.269-28.374c1.142-7.189,0.211-14.715,0.211-21.777c-3.425-3.341-6.343-6.301-10.36-8.288
			c-3.721-1.861-6.85-4.947-10.36-7.273C324.106,731.467,320.427,729.479,315.564,726.604z M634.61,819.421
			c-0.93-4.186-1.607-6.85-2.157-9.514c-1.142-5.455-2.537-10.867-3.637-16.322c-0.423-2.114,0-4.398-0.888-6.216
			c-1.099-2.241-1.311-4.44-1.48-6.85c-0.254-4.017-0.169-8.33-1.776-11.84c-1.015-2.199-0.169-6.216-4.102-6.766
			c-0.507,0-1.099-0.169-1.48,0.042c-4.271,2.284-8.499,4.651-13.489,7.4c-2.03,0-5.201-0.677-7.865,0.169
			c-2.791,0.93-5.624,1.903-8.415,2.96c-2.326,0.888-5.835,1.184-6.089,5.328c4.821,4.186,9.81,8.415,14.631,12.813
			c7.358,6.723,14.589,13.658,21.946,20.382c2.283,2.072,4.694,4.06,7.273,5.709C628.817,817.815,630.974,818.153,634.61,819.421z
			 M648.353,809.822c0.592-0.761,1.395-1.438,1.691-2.283c3.129-9.853,6.639-19.578,9.091-29.6
			c2.453-10.106,5.624-19.917,8.626-29.812c1.522-5.032,3.721-10.022,3.383-15.73c-1.48,0-2.622,0-2.706,0
			c-8.077,4.99-15.223,9.768-22.75,13.954c-3.763,2.114-7.442,4.102-10.529,7.907c0.55,2.157,1.269,4.609,1.776,7.104
			c0.803,3.933,1.015,8.077,1.903,11.882c1.607,6.808,2.114,13.827,4.059,20.551c1.311,4.651,2.326,9.43,3.594,14.081
			C646.619,808.469,647.465,808.934,648.353,809.822z M818.427,357.914c-2.875-1.987-5.286,1.184-7.485-0.127
			c-3.087-1.818-5.413,0.846-8.077,0.93c-4.694,0.085-9.43-0.169-14.123,0.085c-4.778,0.254-9.514,1.015-14.25,1.395
			c-2.453,0.211-4.947,0.042-7.315,0.042c-0.803,0.803-1.48,1.48-2.199,2.199c0,1.945,0,3.933,0,5.413
			c5.159,7.992,7.485,16.745,10.952,25.033c1.015,0,1.987,0,3.129,0c13.024-10.571,26.217-21.27,39.453-32.01
			C818.427,360.071,818.427,359.056,818.427,357.914z M809.377,341.38c-7.569-3.298-15.307-6.005-23.173-8.669
			c-7.992-2.706-16.153-5.117-24.061-8.119c-7.654-2.918-15.603-5.159-24.061-7.907c0,1.734-0.465,3.256,0.085,4.017
			c5.962,8.077,10.022,17.464,16.787,24.653c4.271,0.169,7.992-0.254,11.798,1.311c1.776,0.719,4.44-1.099,6.723-1.226
			c5.497-0.296,10.994-0.634,16.491-1.226C796.353,343.537,802.781,342.776,809.377,341.38z"/>
	</g>
</g>
</svg>
